<svg xmlns="http://www.w3.org/2000/svg" width="146.521" height="102.068" viewBox="0 0 146.521 102.068"><g transform="translate(-27.377 -14.847)"><g transform="translate(27.377 16.88)"><path d="M121.253,108.05l-32.183,0c-3.84-.837-9.529,4.266-8.693.427L96.1,36.329a7.167,7.167,0,0,1,8.5-5.46l33.539,7.312a7.166,7.166,0,0,1,5.46,8.5l-11.816,56.743C130.953,107.266,125.093,108.887,121.253,108.05Z" transform="translate(-48.784 -23.296)" fill="#26bcbc"/><path d="M131.3,27.2l-24.047-6.178a1.406,1.406,0,0,1-1.009-1.707h0a1.406,1.406,0,0,1,1.707-1.009L132,24.484a1.406,1.406,0,0,1,1.009,1.707h0A1.406,1.406,0,0,1,131.3,27.2Z" transform="translate(-59.264 -18.262)" fill="#4f4a4f"/><path d="M157.818,34.012l-2.362-.607a1.406,1.406,0,0,1-1.009-1.707h0a1.406,1.406,0,0,1,1.707-1.009l2.362.607A1.406,1.406,0,0,1,159.525,33h0A1.405,1.405,0,0,1,157.818,34.012Z" transform="translate(-78.764 -23.272)" fill="#4f4a4f"/><path d="M162.183,71.161l4.242-20.369a7.166,7.166,0,0,0-5.46-8.5l-6.549-1.428c-3.222,2.825-6.317,5.967-4.42,6.18,3.492.394,6.466,1.871,4.581,3.713S140.556,61.749,143.955,61.02s6.282-1.008,4.847.228-12.1,11.045-12.1,11.045l16.385-10.347L141.15,74.5Z" transform="translate(-71.602 -27.404)" fill="#30ceca"/><path d="M111.869,30.869a7.167,7.167,0,0,0-8.5,5.46l-5.123,23.5L114.788,49.52s-6.785,1.885-8.959.967,21.814-8.73,21.814-8.73l-8.359,1.391s11.784-2.747,1.809-3.924c-4.863-.574-3.954-3.686-1.746-6.725Z" transform="translate(-56.044 -23.296)" fill="#30ceca"/><g transform="translate(34.659 17.278)"><path d="M135.615,53.211l-4.2-.112-.522,19.618-4.268-.114.211-7.921-7.213-.192-.084,3.15-4.391-.117.533-20.017-8.619-.229-.66,24.788-6.955-.185-.114,4.295-5.93-.158-.2,7.417-3.75-.1-3.693,16.939-.183,6.881,7.213.192.2-7.416,6.99.186.114-4.295,5.93.158.175-6.566,6.322.168-.048,1.794,7.213.192.084-3.15,5.212.139-.211,7.921,7.213.192.3-11.093,2.472.066Z" transform="translate(-85.583 -47.278)" fill="#23afab"/><rect width="32.442" height="4.2" transform="translate(50.072 48.627) rotate(-88.476)" fill="#23afab"/></g><rect width="59.444" height="27.208" rx="12" transform="translate(34.228 62.413) rotate(-5.523)" fill="#353035"/><g transform="translate(40.183 45.482)"><rect width="24.036" height="0.795" fill="#fef1f0"/><rect width="2.549" height="0.795" transform="translate(25.729)" fill="#fef1f0"/></g><g transform="translate(23.046 51.414)"><rect width="24.036" height="0.795" fill="#fef1f0"/><rect width="2.549" height="0.795" transform="translate(25.729)" fill="#fef1f0"/></g><g transform="translate(34.017 24.842)"><rect width="24.036" height="0.795" transform="translate(4.243)" fill="#fef1f0"/><rect width="2.549" height="0.795" fill="#fef1f0"/></g><g transform="translate(24.434 39.26)"><rect width="24.036" height="0.795" transform="translate(4.243)" fill="#fef1f0"/><rect width="2.549" height="0.795" fill="#fef1f0"/></g><g transform="translate(59.096 43.019)"><rect width="24.036" height="0.795" fill="#fef1f0"/><rect width="2.549" height="0.795" transform="translate(25.729)" fill="#fef1f0"/></g><g transform="translate(32.791 36.051)"><rect width="24.036" height="0.795" fill="#fef1f0"/><rect width="2.549" height="0.795" transform="translate(25.729)" fill="#fef1f0"/></g><g transform="translate(0 36.051)"><rect width="24.036" height="0.795" fill="#fef1f0"/><rect width="2.549" height="0.795" transform="translate(25.729)" fill="#fef1f0"/></g><g transform="translate(64.057 31.45)"><rect width="24.036" height="0.795" fill="#fef1f0"/><rect width="2.549" height="0.795" transform="translate(25.729)" fill="#fef1f0"/></g><g transform="translate(41.242 29.593)"><rect width="24.036" height="0.795" fill="#fef1f0"/><rect width="2.549" height="0.795" transform="translate(25.729)" fill="#fef1f0"/></g><path d="M84.536,82.636,81.218,97.86l9.535,0,37.566-60.125-12.481-2.721Z" transform="translate(-49.158 -25.04)" fill="#fef1f0" opacity="0.32" style="mix-blend-mode:overlay;isolation:isolate"/><path d="M140.712,40.12,108.249,92.139l3.165-.306,31.8-51.168Z" transform="translate(-60.093 -27.105)" fill="#fef1f0" opacity="0.32" style="mix-blend-mode:overlay;isolation:isolate"/></g><g transform="translate(127.915 32.527)"><rect width="37.802" height="53.026" rx="12" transform="translate(8.692 16.036) rotate(9.435)" fill="#413c41"/><path d="M264.517,90.155A9.659,9.659,0,0,0,256.6,79.075l-1.309-.217a8.329,8.329,0,0,1,6.831,9.553l-4.187,25.2a1.326,1.326,0,0,0,1.308,1.543h0a1.326,1.326,0,0,0,1.308-1.109Z" transform="translate(-220.113 -58.422)" fill="#2d292d"/><path d="M239.156,91.96a9.659,9.659,0,0,0-7.921-11.079l-1.309-.217a8.329,8.329,0,0,1,6.831,9.554l-4.187,25.2a1.326,1.326,0,0,0,1.308,1.543h0a1.327,1.327,0,0,0,1.309-1.109Z" transform="translate(-209.854 -59.152)" fill="#2d292d"/><path d="M257.909,92.709l.354-2.128a8.047,8.047,0,0,0-6.6-9.23" transform="translate(-218.647 -59.431)" fill="none" stroke="#2d292d" stroke-linecap="round" stroke-linejoin="round" stroke-width="2.324"/><line y1="2.247" x2="0.373" transform="translate(38.534 35.412)" fill="none" stroke="#2d292d" stroke-linecap="round" stroke-linejoin="round" stroke-width="2.324"/><rect width="2.898" height="8.385" rx="1.449" transform="matrix(1, -0.01, 0.01, 1, 31.168, 11.759)" fill="#413c41"/><path d="M249.022,71.208l-.054-5.487a1.449,1.449,0,0,1,1.243-1.442,1.4,1.4,0,0,0-1.627,1.445l.054,5.487a1.4,1.4,0,0,0,1.655,1.413A1.45,1.45,0,0,1,249.022,71.208Z" transform="translate(-217.402 -52.517)" fill="#4f4a4f"/><path d="M250.68,64.262a1.425,1.425,0,0,0-.46.088,1.449,1.449,0,0,1,1,1.356l.054,5.487a1.45,1.45,0,0,1-.974,1.376,1.417,1.417,0,0,0,.462.078,1.453,1.453,0,0,0,1.434-1.463l-.054-5.487A1.453,1.453,0,0,0,250.68,64.262Z" transform="translate(-218.064 -52.517)" fill="#2d292d"/><rect width="2.898" height="8.385" rx="1.449" transform="matrix(1, -0.01, 0.01, 1, 21.019, 12.637)" fill="#2d292d"/><rect width="29.471" height="15.938" rx="7.969" transform="translate(13.21 0.29) rotate(-0.564)" fill="#413c41"/><path d="M224.5,55.006l-.042-4.3a5.836,5.836,0,0,1,5.761-5.875l-5.962.058a5.835,5.835,0,0,0-5.76,5.875l.042,4.3a5.835,5.835,0,0,0,5.875,5.761l5.962-.059A5.836,5.836,0,0,1,224.5,55.006Z" transform="translate(-205.231 -44.657)" fill="#4f4a4f"/><path d="M219.268,55.036l-.043-4.367a5.927,5.927,0,0,1,5.851-5.967l-1.5.015a5.927,5.927,0,0,0-5.851,5.967l.043,4.367a5.927,5.927,0,0,0,5.967,5.85l1.5-.014A5.927,5.927,0,0,1,219.268,55.036Z" transform="translate(-204.918 -44.605)" fill="#fef1f0"/><path d="M255.522,44.635l-3.824.038a5.836,5.836,0,0,1,5.875,5.761l.042,4.3a5.836,5.836,0,0,1-5.761,5.876l3.825-.038A5.835,5.835,0,0,0,261.44,54.7l-.042-4.3A5.836,5.836,0,0,0,255.522,44.635Z" transform="translate(-218.661 -44.577)" fill="#2d292d"/><path d="M255.283,51.311a.341.341,0,0,1-.344-.338,4.928,4.928,0,0,0-4.97-4.874.341.341,0,1,1-.007-.681,5.61,5.61,0,0,1,5.658,5.549A.341.341,0,0,1,255.283,51.311Z" transform="translate(-217.822 -44.894)" fill="#2d292d"/><path d="M258.943,59.946a.341.341,0,0,1-.344-.337l-.021-2.116a.341.341,0,0,1,.682-.007l.021,2.115A.341.341,0,0,1,258.943,59.946Z" transform="translate(-221.445 -49.64)" fill="#2d292d"/><rect width="18.827" height="5.286" rx="2.643" transform="translate(12.72 20.39)" fill="#2d292d"/></g><g transform="translate(75.677 27.128)"><path d="M162.229,121.72h0a9.057,9.057,0,0,1-6.863-10.771l4.626-20.875a9.057,9.057,0,0,1,10.771-6.863h0a9.057,9.057,0,0,1,6.863,10.771L173,114.857A9.057,9.057,0,0,1,162.229,121.72Z" transform="translate(-127.367 -54.698)" fill="#413c41"/><path d="M156.406,111.18l4.626-20.875a9.052,9.052,0,0,1,10.245-6.951c-.171-.049-.339-.1-.514-.142h0a9.057,9.057,0,0,0-10.771,6.863l-4.626,20.875a9.057,9.057,0,0,0,6.863,10.771h0c.176.039.351.061.526.089A9.052,9.052,0,0,1,156.406,111.18Z" transform="translate(-127.367 -54.698)" fill="#fef1f0"/><path d="M181.544,128.214h0a18.632,18.632,0,0,1-13.662-22.442l3.108-12.78A18.632,18.632,0,0,1,193.432,79.33h0a18.632,18.632,0,0,1,13.662,22.442l-3.108,12.78A18.633,18.633,0,0,1,181.544,128.214Z" transform="translate(-132.305 -53.002)" fill="#353035"/><path d="M170.99,95.362l-3.108,12.78a18.535,18.535,0,0,0,2.61,14.675,18.481,18.481,0,0,0,7.259-10.7l3.108-12.779a18.534,18.534,0,0,0-2.611-14.675A18.483,18.483,0,0,0,170.99,95.362Z" transform="translate(-132.305 -55.372)" fill="#413c41"/><path d="M169.24,106.628l3.108-12.779A18.632,18.632,0,0,1,194.79,80.187h0a18.389,18.389,0,0,1,4.8,1.917,18.4,18.4,0,0,0-6.161-2.774h0A18.632,18.632,0,0,0,170.99,92.992l-3.108,12.78a18.647,18.647,0,0,0,8.858,20.524A18.645,18.645,0,0,1,169.24,106.628Z" transform="translate(-132.305 -53.002)" fill="#fef1f0"/><path d="M211.649,120.027h0a9.057,9.057,0,0,1-6.863-10.771l4.626-20.874a9.057,9.057,0,0,1,10.771-6.863h0a9.058,9.058,0,0,1,6.863,10.771l-4.626,20.874A9.058,9.058,0,0,1,211.649,120.027Z" transform="translate(-147.359 -54.013)" fill="#413c41"/><path d="M222.4,82.437a8.977,8.977,0,0,1,.928,6.308L218.7,109.619a9.058,9.058,0,0,1-10.771,6.863h0a8.958,8.958,0,0,1-1.443-.46,9.013,9.013,0,0,0,16.706-2.4l4.626-20.874A9.058,9.058,0,0,0,222.4,82.437Z" transform="translate(-148.135 -54.471)" fill="#353035"/><path d="M200.809,129.689h0a3.01,3.01,0,0,1-3.863-1.76L181.13,85.653a3.01,3.01,0,0,1,1.76-3.863h0a3.011,3.011,0,0,1,3.863,1.76l15.815,42.277A3.01,3.01,0,0,1,200.809,129.689Z" transform="translate(-137.799 -54.133)" fill="#ef9d65"/><path d="M204.546,125.835,188.731,83.558a3,3,0,0,0-2.9-1.934,2.953,2.953,0,0,1,.733,1.1L202.378,125a3.01,3.01,0,0,1-1.76,3.863,2.956,2.956,0,0,1-.962.175,2.994,2.994,0,0,0,4.889-3.2Z" transform="translate(-139.777 -54.142)" fill="#ed7f66"/><path d="M191.407,111.607,181.7,85.659a3.011,3.011,0,0,1,1.76-3.863h0a2.966,2.966,0,0,1,.765-.164,2.954,2.954,0,0,0-1.335.164h0a3.01,3.01,0,0,0-1.76,3.863l9.757,26.082Z" transform="translate(-137.799 -54.139)" fill="#fef1f0"/><path d="M213.137,120.034h0a9.057,9.057,0,0,1-6.863-10.771L210.9,88.389a9.065,9.065,0,0,1,8.029-7.039,9.056,9.056,0,0,0-9.517,7.039l-4.626,20.874a9.057,9.057,0,0,0,6.863,10.771,8.965,8.965,0,0,0,2.742.176A8.953,8.953,0,0,1,213.137,120.034Z" transform="translate(-147.359 -54.02)" fill="#fef1f0"/><circle cx="8.999" cy="8.999" r="8.999" transform="translate(53.862 62.465) rotate(-76.804)" fill="#fef1f0"/><circle cx="8.999" cy="8.999" r="8.999" transform="translate(16.199 55.066) rotate(-45)" fill="#fef1f0"/><path d="M200.873,125.37h0a7.713,7.713,0,0,1-4.18,10.074l-22.1,6.572c-3.936,1.627-8.04.738-9.167-1.987h0c-1.127-2.725,1.15-6.254,5.086-7.881L190.8,121.19A7.712,7.712,0,0,1,200.873,125.37Z" transform="translate(-131.405 -69.911)" fill="#e3646a"/><path d="M177.5,131.06a10.854,10.854,0,1,0-16.787,0Z" transform="translate(-128.622 -66.966)" fill="#e9937c"/><path d="M130.818,124.583a10.854,10.854,0,1,0-16.787,0Z" transform="translate(-109.736 -64.346)" fill="#e9937c"/><circle cx="17.997" cy="17.997" r="17.997" transform="translate(2.308 71.307) rotate(-76.457)" fill="#413c41"/><circle cx="12.927" cy="12.927" r="12.927" transform="translate(10.43 46.579)" fill="#353035"/><path d="M147.646,102.692c-.587,0-1.167.03-1.74.085a18,18,0,0,1,0,35.824c.573.055,1.153.085,1.74.085a18,18,0,1,0,0-35.995Z" transform="translate(-123.627 -62.665)" fill="#2d292d"/><path d="M142.772,102.692a17.907,17.907,0,0,0-8.493,2.129.8.8,0,0,0-.148,1.3l.045.038a.792.792,0,0,0,.887.077,16.377,16.377,0,0,1,21.865,6.206.807.807,0,0,0,.884.387l.016,0a.806.806,0,0,0,.5-1.187A17.985,17.985,0,0,0,142.772,102.692Z" transform="translate(-118.753 -62.665)" fill="#4f4a4f"/><path d="M174.324,130.647a17.759,17.759,0,0,0-.2-2.662.8.8,0,0,0-1.052-.635l-.016.005a.8.8,0,0,0-.525.882,16.389,16.389,0,0,1-4.909,14.269.8.8,0,0,0-.173.941l.01.02a.8.8,0,0,0,1.267.222A17.941,17.941,0,0,0,174.324,130.647Z" transform="translate(-132.307 -72.623)" fill="#4f4a4f"/><path d="M125.567,111.915l-.049-.061a.776.776,0,0,0-1.164-.042,18.024,18.024,0,0,0-3.923,6.251.772.772,0,0,0,.482,1.01l.074.024a.763.763,0,0,0,.952-.451,16.39,16.39,0,0,1,3.572-5.7A.781.781,0,0,0,125.567,111.915Z" transform="translate(-113.301 -66.256)" fill="#4f4a4f"/><path d="M127.536,150.236a18,18,0,0,1-8.124-12.724h-.448A18.005,18.005,0,0,0,127.536,150.236Z" transform="translate(-112.728 -76.751)" fill="#fef1f0"/><path d="M150.524,105.538a17.98,17.98,0,0,0-21.5,1.564l.438.363a17.988,17.988,0,0,1,21.066-1.926Z" transform="translate(-116.796 -62.665)" fill="#fef1f0"/><path d="M117.375,106.036h0a2.5,2.5,0,0,0,.743,3.453l6.659,3.384c1.159.749,2.518.7,3.036-.1h0c.518-.8,0-2.06-1.161-2.808l-5.825-4.676A2.5,2.5,0,0,0,117.375,106.036Z" transform="translate(-111.923 -63.555)" fill="#f2c09a"/><path d="M110.5,116.42h0a2.9,2.9,0,0,0,2.171,3.48l8.606,1.077c1.561.362,3.028-.221,3.279-1.3h0c.25-1.08-.812-2.249-2.373-2.611l-8.2-2.817A2.9,2.9,0,0,0,110.5,116.42Z" transform="translate(-109.271 -67.31)" fill="#f2c09a"/><path d="M108.827,125.988h0a2.664,2.664,0,0,0,2.2,3.057l7.951.463c1.452.236,2.762-.386,2.926-1.392h0c.163-1.006-.881-2.012-2.333-2.248l-7.688-2.081A2.663,2.663,0,0,0,108.827,125.988Z" transform="translate(-108.613 -71.185)" fill="#f2c09a"/><path d="M108.5,132.366h0a2.129,2.129,0,0,0,1.981,2.266l6.36-.228c1.172.079,2.167-.515,2.222-1.327h0c.055-.812-.852-1.534-2.025-1.613l-6.271-1.079A2.128,2.128,0,0,0,108.5,132.366Z" transform="translate(-108.491 -73.866)" fill="#f2c09a"/><path d="M170.752,108.143h0a2.83,2.83,0,0,1-.843,3.913l-7.545,3.835c-1.313.848-2.853.8-3.441-.111h0c-.587-.909,0-2.334,1.315-3.181l6.6-5.3A2.83,2.83,0,0,1,170.752,108.143Z" transform="translate(-128.801 -64.346)" fill="#f2c09a"/><path d="M209.337,122.5h0a1.781,1.781,0,0,1-.9,2.351l-5.064,1.65c-.9.4-1.852.219-2.129-.4h0c-.276-.622.228-1.451,1.127-1.85l4.619-2.652A1.781,1.781,0,0,1,209.337,122.5Z" transform="translate(-145.981 -70.249)" fill="#e9937c"/><path d="M176.139,119.909h0a3.287,3.287,0,0,1-2.46,3.943l-9.752,1.221c-1.768.41-3.432-.251-3.715-1.474h0c-.283-1.224.92-2.549,2.688-2.959l9.295-3.191A3.287,3.287,0,0,1,176.139,119.909Z" transform="translate(-129.397 -68.6)" fill="#f2c09a"/><path d="M178.829,130.751h0a3.019,3.019,0,0,1-2.494,3.464l-9.009.525c-1.645.268-3.129-.438-3.315-1.577h0c-.185-1.139,1-2.279,2.644-2.547l8.711-2.359A3.019,3.019,0,0,1,178.829,130.751Z" transform="translate(-130.943 -72.991)" fill="#f2c09a"/><path d="M181.174,137.978h0a2.412,2.412,0,0,1-2.244,2.568l-7.206-.258c-1.328.09-2.456-.584-2.518-1.5h0c-.062-.92.965-1.738,2.294-1.827l7.106-1.222A2.411,2.411,0,0,1,181.174,137.978Z" transform="translate(-133.051 -76.03)" fill="#f2c09a"/><circle cx="11.528" cy="11.528" r="11.528" transform="translate(4.316 62.155) rotate(-45)" fill="#413c41"/><path d="M126.628,135.428a9.721,9.721,0,0,0,2.14,6.1.887.887,0,0,0,1.4,0l.007-.008a.875.875,0,0,0-.011-1.078,8.009,8.009,0,0,1,.045-10.076.876.876,0,0,0-.017-1.119l-.011-.014a.877.877,0,0,0-1.34,0A9.755,9.755,0,0,0,126.628,135.428Z" transform="translate(-115.828 -73.273)" fill="#4f4a4f"/><path d="M138.017,124.759a.869.869,0,0,0-1.087-.788,9.791,9.791,0,0,0-2.1.862.876.876,0,0,0-.236,1.323l.017.021a.871.871,0,0,0,1.093.2,7.946,7.946,0,0,1,1.678-.694.872.872,0,0,0,.635-.9Z" transform="translate(-118.969 -71.26)" fill="#4f4a4f"/><path d="M140.042,120.493a11.484,11.484,0,0,0-4.528.925,11.528,11.528,0,0,1,5.987,22.037,11.527,11.527,0,0,0-1.459-22.962Z" transform="translate(-119.423 -69.866)" fill="#2d292d"/><path d="M124.878,132.021a11.527,11.527,0,0,1,10.968-11.514c-.186-.009-.372-.014-.56-.014a11.528,11.528,0,0,0,0,23.057c.188,0,.374-.005.56-.014A11.528,11.528,0,0,1,124.878,132.021Z" transform="translate(-114.667 -69.866)" fill="#fef1f0"/><path d="M199.561,79.479h0a5.84,5.84,0,0,1-5.823-5.823v-7.29a5.84,5.84,0,0,1,5.823-5.823h0a5.84,5.84,0,0,1,5.822,5.823v7.29A5.84,5.84,0,0,1,199.561,79.479Z" transform="translate(-142.976 -45.614)" fill="#e3646a"/><g transform="translate(38.456)"><path d="M192.98,37.323h-1.521a3.718,3.718,0,0,0-3.186-1.851h-3.152a3.763,3.763,0,0,0-3.609,2.873H176.8a3.831,3.831,0,0,0,0,7.66h10.865a3.661,3.661,0,0,0,2.525-1.021h2.787a3.832,3.832,0,0,0,0-7.661Z" transform="translate(-173.072 -35.472)" fill="#fef1f0"/><path d="M205.713,60.524V53.851a4.049,4.049,0,0,1,4.038-4.038h0a4.049,4.049,0,0,1,4.038,4.038v6.673a4.05,4.05,0,0,1-4.038,4.038h0A4.05,4.05,0,0,1,205.713,60.524Z" transform="translate(-186.276 -41.273)" fill="#413c41"/><path d="M178.485,60.524V53.851a4.049,4.049,0,0,1,4.038-4.038h0a4.049,4.049,0,0,1,4.038,4.038v6.673a4.05,4.05,0,0,1-4.038,4.038h0A4.05,4.05,0,0,1,178.485,60.524Z" transform="translate(-175.262 -41.273)" fill="#413c41"/><path d="M178.957,60.524V53.851a4.048,4.048,0,0,1,3.8-4.026c-.079,0-.156-.012-.236-.012a4.049,4.049,0,0,0-4.038,4.038v6.673a4.05,4.05,0,0,0,4.038,4.038c.08,0,.157-.008.236-.012A4.048,4.048,0,0,1,178.957,60.524Z" transform="translate(-175.262 -41.273)" fill="#fef1f0"/><path d="M190.886,69.954h0a9.7,9.7,0,0,1-9.7-9.7V53.533a9.7,9.7,0,0,1,9.7-9.7h0a9.7,9.7,0,0,1,9.7,9.7v6.718A9.7,9.7,0,0,1,190.886,69.954Z" transform="translate(-176.353 -38.853)" fill="#f2c09a"/><path d="M195.055,43.829c-.055,0-.107.008-.161.008a9.677,9.677,0,0,0-3.405,7.373V66.38a9.67,9.67,0,0,0,.506,3.074,9.692,9.692,0,0,0,12.765-9.2V53.533A9.7,9.7,0,0,0,195.055,43.829Z" transform="translate(-180.522 -38.853)" fill="#e9937c"/><path d="M181.462,60.251V53.533a9.7,9.7,0,0,1,9.564-9.7c-.047,0-.093-.007-.14-.007a9.7,9.7,0,0,0-9.7,9.7v6.718a9.7,9.7,0,0,0,9.7,9.7c.047,0,.093-.006.14-.007A9.7,9.7,0,0,1,181.462,60.251Z" transform="translate(-176.353 -38.853)" fill="#fef1f0"/><path d="M190.069,64.575c-.017.024-.037.043-.054.068l-1.691,2.543c-.711,1.068-.663,2.362.106,2.873s1.98.056,2.691-1.013l1.691-2.543c.017-.024.027-.051.043-.076Z" transform="translate(-179.038 -47.245)" fill="#e9937c"/><path d="M200.564,60.059a1.032,1.032,0,1,1-1.032-1.033A1.032,1.032,0,0,1,200.564,60.059Z" transform="translate(-183.359 -45)" fill="#413c41"/><path d="M187.547,60.059a1.032,1.032,0,1,1-1.032-1.033A1.032,1.032,0,0,1,187.547,60.059Z" transform="translate(-178.092 -45)" fill="#494549"/><path d="M186.241,59.485a.606.606,0,1,1-.606-.607A.606.606,0,0,1,186.241,59.485Z" transform="translate(-177.909 -44.941)" fill="#f2c09a"/><path d="M199.325,59.485a.606.606,0,1,1-.606-.607A.606.606,0,0,1,199.325,59.485Z" transform="translate(-183.202 -44.941)" fill="#e9937c"/><path d="M200.479,58.779h-3.885a.556.556,0,0,1-.555-.555h0a.556.556,0,0,1,.555-.555h3.885a.557.557,0,0,1,.556.555h0A.557.557,0,0,1,200.479,58.779Z" transform="translate(-182.363 -44.452)" fill="#413c41"/><path d="M200.253,58.224a.556.556,0,0,0-.555-.555h-3.1a.555.555,0,0,0,0,1.11h3.1A.556.556,0,0,0,200.253,58.224Z" transform="translate(-182.363 -44.452)" fill="#494549"/><path d="M187.233,58.779h-3.886a.556.556,0,0,1-.555-.555h0a.556.556,0,0,1,.555-.555h3.886a.557.557,0,0,1,.555.555h0A.557.557,0,0,1,187.233,58.779Z" transform="translate(-177.004 -44.452)" fill="#494549"/><path d="M189.545,57.669h-1.037a.555.555,0,0,1,0,1.11h1.037a.555.555,0,0,0,0-1.11Z" transform="translate(-179.316 -44.452)" fill="#413c41"/><path d="M199.26,77.829h0a.376.376,0,0,0,.438.369,3.715,3.715,0,0,0,3.076-3.19.376.376,0,0,0-.371-.425h0a.365.365,0,0,0-.366.313,2.967,2.967,0,0,1-2.478,2.57A.364.364,0,0,0,199.26,77.829Z" transform="translate(-183.666 -51.294)" fill="#413c41"/><path d="M188.514,48.09H177.649a3.743,3.743,0,0,1-3.732-3.732h0a3.743,3.743,0,0,1,3.732-3.732h10.865a3.743,3.743,0,0,1,3.732,3.732h0A3.743,3.743,0,0,1,188.514,48.09Z" transform="translate(-173.414 -37.557)" fill="#413c41"/><rect width="10.616" height="7.464" rx="3.732" transform="translate(8.286 0.27)" fill="#fef1f0"/><path d="M207.654,50.18h-4.661a3.744,3.744,0,0,1-3.732-3.732h0a3.744,3.744,0,0,1,3.732-3.732h4.661a3.743,3.743,0,0,1,3.732,3.732h0A3.743,3.743,0,0,1,207.654,50.18Z" transform="translate(-183.666 -38.402)" fill="#413c41"/><path d="M201.648,46.419h-4.661a3.743,3.743,0,0,1-3.732-3.732h0a3.743,3.743,0,0,1,3.732-3.732h4.661a3.744,3.744,0,0,1,3.732,3.732h0A3.744,3.744,0,0,1,201.648,46.419Z" transform="translate(-181.237 -36.881)" fill="#413c41"/><rect width="10.616" height="7.464" rx="3.732" transform="translate(8.82 0.27)" fill="#413c41"/><path d="M213.618,55.251v5.805a2.9,2.9,0,1,0,0-5.805Z" transform="translate(-189.474 -43.473)" fill="#e9937c"/><path d="M213.618,58.21v2.9a1.451,1.451,0,0,0,0-2.9Z" transform="translate(-189.474 -44.67)" fill="#f2c09a"/><path d="M209.326,60.032h0a1.825,1.825,0,0,1-1.82-1.82V54.006a1.825,1.825,0,0,1,1.82-1.82h0a1.825,1.825,0,0,1,1.82,1.82v4.206A1.825,1.825,0,0,1,209.326,60.032Z" transform="translate(-187.002 -42.233)" fill="#413c41"/></g><path d="M200.733,63.908a1.6,1.6,0,0,1,1.568,1.275,1.6,1.6,0,1,0-3.136,0A1.6,1.6,0,0,1,200.733,63.908Z" transform="translate(-145.158 -46.711)" fill="#fef1f0"/><path d="M184.394,63.908a1.6,1.6,0,0,1,1.568,1.275,1.6,1.6,0,1,0-3.136,0A1.6,1.6,0,0,1,184.394,63.908Z" transform="translate(-138.548 -46.711)" fill="#fef1f0"/><path d="M183.019,120.514a1.8,1.8,0,1,1-1.8-1.8A1.8,1.8,0,0,1,183.019,120.514Z" transform="translate(-137.181 -69.145)" fill="#f9dcc7"/><path d="M175.177,109.361a1.8,1.8,0,1,1-1.8-1.8A1.8,1.8,0,0,1,175.177,109.361Z" transform="translate(-134.009 -64.633)" fill="#f9dcc7"/><circle cx="1.803" cy="1.803" r="1.803" transform="translate(5.687 41.501)" fill="#f9dcc7"/><circle cx="1.803" cy="1.803" r="1.803" transform="translate(1.818 47.292)" fill="#f9dcc7"/><path d="M121.1,118.026a1.046,1.046,0,1,1-1.046-1.046A1.046,1.046,0,0,1,121.1,118.026Z" transform="translate(-112.747 -68.445)" fill="#f9dcc7"/><path d="M126.58,110a1.046,1.046,0,1,1-1.046-1.046A1.046,1.046,0,0,1,126.58,110Z" transform="translate(-114.962 -65.197)" fill="#f9dcc7"/><circle cx="1.159" cy="1.159" r="1.159" transform="translate(35.389 45.65)" fill="#f9dcc7"/><circle cx="1.159" cy="1.159" r="1.159" transform="translate(38.962 51.369)" fill="#f9dcc7"/><circle cx="1.017" cy="1.017" r="1.017" transform="translate(52.883 55.578)" fill="#e9937c"/></g><g transform="translate(51.357 22.721)"><path d="M94.365,28.117h0A2.687,2.687,0,0,1,96.5,31.249L81.349,111.1a2.688,2.688,0,0,1-3.132,2.134h0a2.687,2.687,0,0,1-2.133-3.132L91.233,30.251A2.688,2.688,0,0,1,94.365,28.117Z" transform="translate(-71.042 -28.07)" fill="#4f4a4f"/><path d="M95.784,45.406h0a2.688,2.688,0,0,1,2.133,3.132L89.639,92.17A2.688,2.688,0,0,1,86.507,94.3h0a2.688,2.688,0,0,1-2.133-3.132l8.278-43.632A2.688,2.688,0,0,1,95.784,45.406Z" transform="translate(-74.396 -35.064)" fill="#353035"/><path d="M90.173,67.177h0a2.688,2.688,0,0,1,2.133,3.132L81.894,125.188a2.688,2.688,0,0,1-3.132,2.134h0a2.688,2.688,0,0,1-2.134-3.132L87.04,69.31A2.687,2.687,0,0,1,90.173,67.177Z" transform="translate(-71.262 -43.871)" fill="#2d292d"/><path d="M80.733,94.106h0a1.5,1.5,0,0,1,1.192,1.751L77.3,120.242a1.5,1.5,0,0,1-1.751,1.192h0a1.5,1.5,0,0,1-1.192-1.751L78.983,95.3A1.5,1.5,0,0,1,80.733,94.106Z" transform="translate(-70.352 -54.774)" fill="#353035"/><path d="M75.245,107.042h0a1.5,1.5,0,0,1,1.192,1.75l-5.819,30.671a1.5,1.5,0,0,1-1.751,1.192h0a1.5,1.5,0,0,1-1.192-1.751l5.819-30.671A1.5,1.5,0,0,1,75.245,107.042Z" transform="translate(-67.649 -60.007)" fill="#2d292d"/><path d="M79.84,152.847l10.083-16.574,88.109,4.836-6.236,9.847c-10.605,9.916-26.788,13.033-41.294,12.4l-46.119-2A5.6,5.6,0,0,1,79.84,152.847Z" transform="translate(-72.248 -71.842)" fill="#413c41"/><path d="M169.867,134.289,86.92,131.852c-.037,0-.072.007-.108.008a2.61,2.61,0,0,0-.347.025c-.051.007-.1.015-.151.025a2.737,2.737,0,0,0-.406.113l-.055.021a2.647,2.647,0,0,0-1.348,1.133l-12.05,20.679a2.68,2.68,0,0,0,4.63,2.7l1.086-1.863a14.461,14.461,0,0,0,21.355,7.3,14.775,14.775,0,0,0,17.671-2.05,13.053,13.053,0,0,0,13.976-2.952,12.311,12.311,0,0,0,15.4-18.025l23.139.68a2.68,2.68,0,1,0,.157-5.357Z" transform="translate(-69.446 -70.054)" fill="#4f4a4f"/><path d="M101.262,174.953a13,13,0,0,1-14.837-10.859" transform="translate(-75.245 -83.097)" fill="none" stroke="#413c41" stroke-linecap="round" stroke-linejoin="round" stroke-width="3"/><path d="M197.021,151.932a.893.893,0,0,0-1.766.273,9.01,9.01,0,0,1,.1,1.6.884.884,0,0,0,.884.919h.018a.88.88,0,0,0,.879-.85A10.62,10.62,0,0,0,197.021,151.932Z" transform="translate(-119.266 -77.871)" fill="#413c41"/><path d="M189.794,160.964a.873.873,0,0,0-1.031.464,9.2,9.2,0,0,1-6.943,5.244.893.893,0,1,0,.273,1.765,10.975,10.975,0,0,0,8.282-6.247.886.886,0,0,0-.563-1.221Z" transform="translate(-113.529 -81.817)" fill="#413c41"/><path d="M135.652,135.349h0a1.345,1.345,0,0,1-1.375,1.3l-36.715-.96a1.344,1.344,0,0,1-1.3-1.374h0a1.344,1.344,0,0,1,1.374-1.3l36.715.96A1.344,1.344,0,0,1,135.652,135.349Z" transform="translate(-79.222 -70.524)" fill="#413c41"/><path d="M171.087,136.276h0a1.343,1.343,0,0,1-1.374,1.3l-3.174-.083a1.343,1.343,0,0,1-1.3-1.374h0a1.343,1.343,0,0,1,1.374-1.3l3.174.083A1.343,1.343,0,0,1,171.087,136.276Z" transform="translate(-107.126 -71.254)" fill="#413c41"/><path d="M206.321,142.869a1.192,1.192,0,0,0-1.213,1.273,1.249,1.249,0,0,0,1.249,1.111l14.909.308a1.18,1.18,0,0,0,1.178-.941l0-.024a1.177,1.177,0,0,0-1.129-1.416Z" transform="translate(-123.255 -74.51)" fill="#353035"/><path d="M240.311,143.9l-2.7-.055a1.175,1.175,0,0,0-1.189,1l0,.024a1.178,1.178,0,0,0,1.139,1.353l2.775.057a1.145,1.145,0,0,0,.208-.014,1.192,1.192,0,0,0,.988-1.394A1.245,1.245,0,0,0,240.311,143.9Z" transform="translate(-135.92 -74.904)" fill="#353035"/></g><g transform="translate(131.469 14.847)"><rect width="25.409" height="9.527" rx="4.764" transform="translate(0 7.095)" fill="#353035"/><path d="M224.707,26.773a3.255,3.255,0,0,1,.375,1.519v2.977a3.275,3.275,0,0,1-3.275,3.275H202.948c-.045,0-.089,0-.133-.007a3.273,3.273,0,0,0,2.9,1.756h18.859a3.275,3.275,0,0,0,3.275-3.275V30.042A3.273,3.273,0,0,0,224.707,26.773Z" transform="translate(-202.44 -19.671)" fill="#2d292d"/><path d="M220.524,27.006h0a1.779,1.779,0,0,1-1.322-2.131l2.028-8.66a1.778,1.778,0,0,1,2.131-1.322h0a1.778,1.778,0,0,1,1.323,2.131l-2.028,8.66A1.778,1.778,0,0,1,220.524,27.006Z" transform="translate(-209.05 -14.847)" fill="#353035"/><path d="M216.673,30.042H206.141a.448.448,0,0,1-.447-.447h0a.448.448,0,0,1,.447-.447h10.532a.448.448,0,0,1,.447.447h0A.448.448,0,0,1,216.673,30.042Z" transform="translate(-203.604 -20.632)" fill="#2d292d"/><path d="M227.3,30.042h-1.141a.448.448,0,0,1-.447-.447h0a.448.448,0,0,1,.447-.447H227.3a.448.448,0,0,1,.447.447h0A.448.448,0,0,1,227.3,30.042Z" transform="translate(-211.704 -20.632)" fill="#2d292d"/></g></g></svg>