<svg xmlns="http://www.w3.org/2000/svg" width="117.593" height="115.363" viewBox="0 0 117.593 115.363"><g transform="translate(5680.296 -12489.455)"><path d="M722.356,444.3l10.851,9.417,8.352,4.86,13.018-6.036,18.082-8.471,9.9,3.423s8.384.282,8.929-.437,5.291-.6,5.291-.6l3.48-1.013,4.124-6.075,3.351-4.683,4.9-1.519,8.765,2.785,6.316-1.139,1.8-4.177,5.027-7.468,5.282-7.847v48.475l-19.331,3.164-94.22,3.924-3.917-7.721Z" transform="translate(-6402.528 12077.905)" fill="#57a6dd" fill-rule="evenodd"/><path d="M837.246,696.1l-10.866-7.326-6.325-4.459-4.847.812-1.392.836-.928,1.671-4.021,1.139-3.712,3.569-6.651,2.278-4.362-2.364-6.851-3.56-8.661,2.278-2.475.836-4.631-1.221s-4.807-.564-4.257-.778-11.4,2.626-11.4,2.626l-7.611,6.026-5.346,2.43-7.028-2.042-8.81-2.819-4.72-5.541v21.191l11.768,3.143,20.156,4.647,18.53-7.79,34.943-3.6,19.2-2.527Z" transform="translate(-6402.528 11843.521)" fill="#4899d5" fill-rule="evenodd"/><path d="M808.857,750.9l10.7,9.05,2.707.759,2.127-3.607,3.151-4.177,4.329-1.348,6.019-3.836h1.937v19.593l-70.722,6.27-21.668,11.762-25.078-5.855V761.227l13.552,7.789,9.714,1.794,6.652-2.735,21.96-16.7,3.959.778,10.724,3.4,6.081,3.9,7.043-1.272,4.3-3.655Z" transform="translate(-6402.528 11788.26)" fill="#3083c6" fill-rule="evenodd"/><path d="M967.844,866.887l-7.277-2.946-2.352,1.035-3,.876-5.109-.8-23.1,4.6-13.07-1.093L899.5,869.674l-8.9-1.54s-18.386,17.859-18.583,17.414,39.518-11.695,39.518-11.695l20.881.835,8.2-2.278,5.336-.076,20.339-4.48Z" transform="translate(-6532.575 11687.018)" fill="#1d70b8" fill-rule="evenodd"/><path d="M950.31,883.111l-6.581-.849-3.547,1.954-6.833,1.614L926,887.1l-1.99-1.1-3.46.68-7.224,2.27s-15.41-3.545-14.407-3.654-3.244.8-3.244.8l-15.509,3.583s-30.084,12.058-30.612,12.641,3.872,3.04,3.872,3.04l28.881-9.5,40.535-1.906,10.542-1.195,11.792-4.143,5.137-2.8Z" transform="translate(-6513.014 11671.055)" fill="#0664ad" fill-rule="evenodd"/><path d="M954.277,899.977l-2.292.131L947.4,902.13l-3.056,3.131-9.965.978-7.773-.783s-5.026,2.96-4.65,2.544-34.66,1.081-34.66,1.081l-33.226,10.2,6.634,3.025,27.819-7.865,45.6-1.645,14.758-2.974,5.4-5.7Z" transform="translate(-6516.981 11655.619)" fill="#005094" fill-rule="evenodd"/><path d="M1011.72,841.667l-1.607.993-.006-1.883a.927.927,0,0,0,.527.29.368.368,0,0,1,.069-.309,2.347,2.347,0,0,0,.582.754,1.038,1.038,0,0,1,.014-.41,1,1,0,0,0,.423.565m-5.142,3.478-.974.748,0-1.321a.864.864,0,0,0,.492.271.344.344,0,0,1,.065-.289A2.138,2.138,0,0,0,1006.578,845.145Zm.182-.14-.071.055a1.023,1.023,0,0,1,.025-.184A.813.813,0,0,0,1006.76,845.005Zm2-1.51-.192.119-1.273.979a16.547,16.547,0,0,1-1.7-1.673v-.412a.766.766,0,0,0,.44.265.373.373,0,0,1,.059-.289,2.188,2.188,0,0,0,.492.7,1.081,1.081,0,0,1,.012-.384,1.025,1.025,0,0,0,.726.716.453.453,0,0,1-.053-.288.808.808,0,0,0,.445.421.36.36,0,0,1-.018-.268.978.978,0,0,0,.421.343.67.67,0,0,1-.113-.3A1.466,1.466,0,0,0,1008.762,843.5Zm-1.445-2.713a.754.754,0,0,0,.3-.213.3.3,0,0,1-.018.247.654.654,0,0,0,.457-.327.361.361,0,0,1-.054.261.833.833,0,0,0,.746-.561.93.93,0,0,1,.012.361,1.668,1.668,0,0,0,.505-.585.351.351,0,0,1,.06.278.74.74,0,0,0,.382-.122l-.03,2.807-.859.531q-1.1.006-3.231-2.607v-.421a.881.881,0,0,0,.426.287.353.353,0,0,1,.058-.283,2.48,2.48,0,0,0,.492.751,1.061,1.061,0,0,1,.012-.383,1.166,1.166,0,0,0,.726.784.48.48,0,0,1-.053-.292.923.923,0,0,0,.445.463.368.368,0,0,1-.017-.269,1.118,1.118,0,0,0,.422.383.73.73,0,0,1-.113-.309,1.53,1.53,0,0,0,.962.108Q1008.319,841.726,1007.317,840.783Zm-.2-.194a1.31,1.31,0,0,0,.181-.023.5.5,0,0,1-.047.156Zm-.458-2.437a1.523,1.523,0,0,0,.564,0,.5.5,0,0,1-.117.262.813.813,0,0,0,.433-.258.3.3,0,0,1-.018.248.654.654,0,0,0,.457-.327.361.361,0,0,1-.054.261.833.833,0,0,0,.746-.56.928.928,0,0,1,.012.36,1.665,1.665,0,0,0,.505-.585.352.352,0,0,1,.06.279.657.657,0,0,0,.484-.218l-.01.961a6.81,6.81,0,0,1-2.747,1.869,18.9,18.9,0,0,1-1.4-1.666l0-.557a.736.736,0,0,0,.289.2.416.416,0,0,1,.048-.283,2.586,2.586,0,0,0,.4.751,1.279,1.279,0,0,1,.01-.382,1.112,1.112,0,0,0,.6.784.57.57,0,0,1-.043-.293.87.87,0,0,0,.365.463.439.439,0,0,1-.014-.269,1.016,1.016,0,0,0,.346.383.835.835,0,0,1-.093-.31,1.053,1.053,0,0,0,.79.108Q1007.678,839.441,1006.66,838.152Zm-1.094-3.625h0m0,0-.045,1.309m-6.494,11.878-1.255.266,0-.9a.825.825,0,0,0,.47.259.33.33,0,0,1,.062-.276,2.092,2.092,0,0,0,.519.672.921.921,0,0,1,.012-.366A.822.822,0,0,0,999.026,847.713Zm-1.292-10.227h0m0,0q-.043,1.249-.042,1.249m-2.613,8.015a1.217,1.217,0,0,1-.7.022,1.542,1.542,0,0,0,.883.113.452.452,0,0,1-.1.234.725.725,0,0,0,.387-.23.27.27,0,0,1-.016.221.588.588,0,0,0,.408-.292.323.323,0,0,1-.049.233.743.743,0,0,0,.666-.5.825.825,0,0,1,.011.322,1.492,1.492,0,0,0,.451-.523.314.314,0,0,1,.054.249.662.662,0,0,0,.341-.109l-.016,1.533c-.8.076-3.032.289-5.271.523l-.011-3.1a.924.924,0,0,0,.527.291.369.369,0,0,1,.069-.31,2.35,2.35,0,0,0,.582.755,1.037,1.037,0,0,1,.014-.411,1.162,1.162,0,0,0,.86.767.449.449,0,0,1-.063-.308.919.919,0,0,0,.527.451.352.352,0,0,1-.021-.286A1.128,1.128,0,0,0,995.079,846.75Zm.512-.213a2.765,2.765,0,0,1-.5.208.671.671,0,0,1-.121-.3A1.821,1.821,0,0,0,995.591,846.537Zm18.649-6.427-1.779,1.1a14.543,14.543,0,0,1-2.36-2.2v-.441a.82.82,0,0,0,.47.282.4.4,0,0,1,.063-.309,2.331,2.331,0,0,0,.526.754,1.141,1.141,0,0,1,.013-.41,1.1,1.1,0,0,0,.776.765.488.488,0,0,1-.057-.307.864.864,0,0,0,.476.45.385.385,0,0,1-.019-.286,1.045,1.045,0,0,0,.451.367.714.714,0,0,1-.121-.319,1.6,1.6,0,0,0,1.029.019q-1.179.214-3.613-2.774v-.449a.94.94,0,0,0,.455.307.38.38,0,0,1,.063-.3,2.658,2.658,0,0,0,.526.8,1.136,1.136,0,0,1,.013-.409,1.248,1.248,0,0,0,.776.838.512.512,0,0,1-.056-.313.983.983,0,0,0,.476.5.39.39,0,0,1-.019-.288,1.2,1.2,0,0,0,.451.409.78.78,0,0,1-.121-.331,1.632,1.632,0,0,0,1.029.116q-1.176.1-3.6-3.093l0-.6a.784.784,0,0,0,.309.219.444.444,0,0,1,.052-.3,2.768,2.768,0,0,0,.432.8,1.38,1.38,0,0,1,.011-.409,1.188,1.188,0,0,0,.638.838.607.607,0,0,1-.046-.313.93.93,0,0,0,.391.5.469.469,0,0,1-.016-.288,1.085,1.085,0,0,0,.37.409.9.9,0,0,1-.1-.33,1.128,1.128,0,0,0,.845.115q-.95.1-2.891-2.991l0-.564a.729.729,0,0,0,.406.4.414.414,0,0,1,.048-.282,2.583,2.583,0,0,0,.4.748,1.275,1.275,0,0,1,.01-.381,1.107,1.107,0,0,0,.594.781.57.57,0,0,1-.043-.292.864.864,0,0,0,.364.461.439.439,0,0,1-.014-.268,1.014,1.014,0,0,0,.345.381.833.833,0,0,1-.093-.308,1.048,1.048,0,0,0,.787.108q-.914.1-2.812-2.977l-.006-1.672a.128.128,0,0,0-.232.007l-.013,1.225q-1.276,2.037-1.9,1.97a.735.735,0,0,0,.552-.076.587.587,0,0,1-.065.216.711.711,0,0,0,.242-.267.31.31,0,0,1-.01.188.611.611,0,0,0,.255-.324.4.4,0,0,1-.03.205.779.779,0,0,0,.417-.548.918.918,0,0,1,.007.267,1.806,1.806,0,0,0,.282-.525.29.29,0,0,1,.034.2.515.515,0,0,0,.2-.145l-.01,1q-1.723,2.76-2.562,2.671a.984.984,0,0,0,.739-.1.777.777,0,0,1-.087.289.944.944,0,0,0,.323-.358.409.409,0,0,1-.014.251.813.813,0,0,0,.342-.432.532.532,0,0,1-.041.274,1.037,1.037,0,0,0,.557-.732,1.2,1.2,0,0,1,.009.357,2.425,2.425,0,0,0,.377-.7.388.388,0,0,1,.045.264.686.686,0,0,0,.294-.221l-.007.69q-1.774,2.321-2.629,1.966a1,1,0,0,0,.739.127.6.6,0,0,1-.087.262.607.607,0,0,0,.324-.258.391.391,0,0,1-.014.248.525.525,0,0,0,.342-.327.465.465,0,0,1-.04.261.686.686,0,0,0,.557-.56,1.242,1.242,0,0,1,.009.36,1.628,1.628,0,0,0,.378-.585.447.447,0,0,1,.045.279.45.45,0,0,0,.361-.217l-.005.506q-2.023,1.976-3.153,2.008-.468-.605-1.025-1.491l0-.527a.681.681,0,0,0,.38.371.39.39,0,0,1,.045-.264,2.413,2.413,0,0,0,.376.7,1.2,1.2,0,0,1,.009-.357,1.036,1.036,0,0,0,.556.731.529.529,0,0,1-.04-.273.809.809,0,0,0,.34.431.412.412,0,0,1-.013-.25.947.947,0,0,0,.323.356.777.777,0,0,1-.087-.288.983.983,0,0,0,.736.1q-.855.091-2.63-2.784l-.005-1.564a.12.12,0,0,0-.217.006l-.012,1.146q-1.193,1.905-1.776,1.843a.688.688,0,0,0,.516-.071.547.547,0,0,1-.061.2.66.66,0,0,0,.226-.25.286.286,0,0,1-.009.176.568.568,0,0,0,.239-.3.376.376,0,0,1-.028.191.726.726,0,0,0,.39-.512.841.841,0,0,1,.006.25,1.691,1.691,0,0,0,.264-.49.271.271,0,0,1,.031.185.48.48,0,0,0,.19-.136l-.01.932q-1.612,2.581-2.4,2.5a.922.922,0,0,0,.691-.094.731.731,0,0,1-.081.27.885.885,0,0,0,.3-.334.386.386,0,0,1-.013.235.761.761,0,0,0,.319-.4.5.5,0,0,1-.038.256.97.97,0,0,0,.521-.685,1.112,1.112,0,0,1,.008.334,2.251,2.251,0,0,0,.353-.656.365.365,0,0,1,.042.248.647.647,0,0,0,.275-.207l-.007.646q-1.659,2.171-2.459,1.839a.93.93,0,0,0,.69.119.557.557,0,0,1-.081.245.569.569,0,0,0,.3-.241.366.366,0,0,1-.013.231.492.492,0,0,0,.32-.306.434.434,0,0,1-.038.244.642.642,0,0,0,.521-.524,1.159,1.159,0,0,1,.008.337,1.515,1.515,0,0,0,.353-.547.417.417,0,0,1,.042.26.42.42,0,0,0,.338-.2l0,.473q-2.218,2.166-3.287,1.834a1.618,1.618,0,0,0,.925.119.475.475,0,0,1-.109.245.765.765,0,0,0,.405-.241.28.28,0,0,1-.017.231.613.613,0,0,0,.428-.306.34.34,0,0,1-.051.245.779.779,0,0,0,.7-.524.862.862,0,0,1,.011.337,1.553,1.553,0,0,0,.473-.547.328.328,0,0,1,.056.26.613.613,0,0,0,.453-.2l-.01.9q-2.146,2.066-3.192,1.742a1.613,1.613,0,0,0,.925.119.472.472,0,0,1-.109.245.761.761,0,0,0,.405-.241.28.28,0,0,1-.017.231.611.611,0,0,0,.428-.306.339.339,0,0,1-.051.244.778.778,0,0,0,.7-.524.862.862,0,0,1,.011.337,1.555,1.555,0,0,0,.473-.547.329.329,0,0,1,.056.261.7.7,0,0,0,.358-.114l-.024,2.242-.363.279-4.887,1.036a12.487,12.487,0,0,1-2.189-2.02l0-.394a.732.732,0,0,0,.42.252.355.355,0,0,1,.056-.276,2.086,2.086,0,0,0,.469.672,1.024,1.024,0,0,1,.011-.366.979.979,0,0,0,.693.683.432.432,0,0,1-.051-.275.769.769,0,0,0,.425.4.345.345,0,0,1-.017-.255.933.933,0,0,0,.4.327.638.638,0,0,1-.108-.285,1.437,1.437,0,0,0,.918.017q-1.053.191-3.225-2.476v-.4a.839.839,0,0,0,.406.274.338.338,0,0,1,.056-.27,2.373,2.373,0,0,0,.469.717,1.015,1.015,0,0,1,.011-.365,1.114,1.114,0,0,0,.693.748.454.454,0,0,1-.05-.28.879.879,0,0,0,.424.442.35.35,0,0,1-.017-.257,1.067,1.067,0,0,0,.4.365.7.7,0,0,1-.108-.3,1.46,1.46,0,0,0,.918.1q-1.049.092-3.212-2.761l0-.532a.7.7,0,0,0,.276.2.4.4,0,0,1,.046-.27,2.475,2.475,0,0,0,.386.717,1.226,1.226,0,0,1,.009-.365,1.06,1.06,0,0,0,.569.748.541.541,0,0,1-.041-.28.83.83,0,0,0,.349.442.418.418,0,0,1-.014-.257.969.969,0,0,0,.33.365.8.8,0,0,1-.089-.3,1,1,0,0,0,.754.1q-.848.091-2.58-2.669l0-.5a.65.65,0,0,0,.363.354.373.373,0,0,1,.043-.252,2.307,2.307,0,0,0,.359.668,1.142,1.142,0,0,1,.009-.34.988.988,0,0,0,.53.7.5.5,0,0,1-.038-.261.773.773,0,0,0,.325.412.392.392,0,0,1-.013-.239.9.9,0,0,0,.308.34.736.736,0,0,1-.083-.275.939.939,0,0,0,.7.1q-.816.087-2.511-2.658l-.005-1.493a.114.114,0,0,0-.207.006l-.012,1.093q-1.139,1.818-1.7,1.759a.659.659,0,0,0,.493-.068.523.523,0,0,1-.058.193.633.633,0,0,0,.216-.238.278.278,0,0,1-.009.168.544.544,0,0,0,.228-.289.359.359,0,0,1-.027.183.694.694,0,0,0,.372-.489.8.8,0,0,1,.006.239,1.618,1.618,0,0,0,.252-.468.261.261,0,0,1,.03.177.461.461,0,0,0,.182-.13l-.01.889q-1.538,2.463-2.287,2.384a.88.88,0,0,0,.659-.09.7.7,0,0,1-.078.258.848.848,0,0,0,.289-.319.37.37,0,0,1-.012.224.726.726,0,0,0,.3-.386.475.475,0,0,1-.036.244.927.927,0,0,0,.5-.654,1.072,1.072,0,0,1,.008.319,2.154,2.154,0,0,0,.337-.626.348.348,0,0,1,.04.236.613.613,0,0,0,.262-.2l-.007.616q-1.583,2.072-2.347,1.755a.891.891,0,0,0,.659.114.535.535,0,0,1-.078.234.542.542,0,0,0,.289-.23.346.346,0,0,1-.012.221.469.469,0,0,0,.3-.292.416.416,0,0,1-.036.233.612.612,0,0,0,.5-.5,1.1,1.1,0,0,1,.008.322,1.449,1.449,0,0,0,.337-.522.4.4,0,0,1,.04.249.4.4,0,0,0,.322-.194l0,.452q-2.117,2.067-3.138,1.75a1.541,1.541,0,0,0,.883.113.451.451,0,0,1-.1.234.724.724,0,0,0,.387-.23.266.266,0,0,1-.016.221.584.584,0,0,0,.408-.292.323.323,0,0,1-.048.233.744.744,0,0,0,.666-.5.828.828,0,0,1,.011.322,1.486,1.486,0,0,0,.451-.522.314.314,0,0,1,.054.248.586.586,0,0,0,.432-.194l-.009.858a9.263,9.263,0,0,1-1.7,1.351q-1.293-.195-3.623-2.782l0-.442a.822.822,0,0,0,.471.283.4.4,0,0,1,.063-.309,2.338,2.338,0,0,0,.526.755,1.153,1.153,0,0,1,.013-.411,1.1,1.1,0,0,0,.777.767.489.489,0,0,1-.057-.308.865.865,0,0,0,.477.451.387.387,0,0,1-.019-.287,1.046,1.046,0,0,0,.451.367.714.714,0,0,1-.121-.32,1.605,1.605,0,0,0,1.03.019q-1.181.215-3.618-2.778v-.45a.94.94,0,0,0,.456.307.38.38,0,0,1,.062-.3,2.671,2.671,0,0,0,.527.8,1.14,1.14,0,0,1,.013-.41,1.249,1.249,0,0,0,.778.839.512.512,0,0,1-.057-.313.986.986,0,0,0,.476.5.393.393,0,0,1-.019-.288,1.2,1.2,0,0,0,.451.41.79.79,0,0,1-.121-.331,1.639,1.639,0,0,0,1.03.116q-1.177.1-3.6-3.1l0-.6a.789.789,0,0,0,.309.219.444.444,0,0,1,.052-.3,2.77,2.77,0,0,0,.433.8,1.374,1.374,0,0,1,.01-.409,1.192,1.192,0,0,0,.639.839.609.609,0,0,1-.047-.314.933.933,0,0,0,.391.5.472.472,0,0,1-.015-.289,1.085,1.085,0,0,0,.371.41.9.9,0,0,1-.1-.331,1.13,1.13,0,0,0,.847.116q-.951.1-2.9-2.995l0-.565a.728.728,0,0,0,.407.4.418.418,0,0,1,.048-.283,2.583,2.583,0,0,0,.4.749,1.29,1.29,0,0,1,.01-.382,1.108,1.108,0,0,0,.595.782.569.569,0,0,1-.043-.292.865.865,0,0,0,.365.462.441.441,0,0,1-.014-.269,1.012,1.012,0,0,0,.345.382.832.832,0,0,1-.093-.308,1.052,1.052,0,0,0,.789.108q-.915.1-2.817-2.981l-.006-1.675a.128.128,0,0,0-.232.006l-.013,1.227q-1.278,2.04-1.9,1.974a.739.739,0,0,0,.553-.076.58.58,0,0,1-.066.216.707.707,0,0,0,.243-.267.309.309,0,0,1-.01.188.608.608,0,0,0,.256-.324.4.4,0,0,1-.03.205.779.779,0,0,0,.417-.549.9.9,0,0,1,.006.268,1.809,1.809,0,0,0,.283-.525.291.291,0,0,1,.034.2.516.516,0,0,0,.2-.146l-.011,1q-1.726,2.764-2.566,2.674a.986.986,0,0,0,.74-.1.784.784,0,0,1-.087.289.946.946,0,0,0,.324-.358.416.416,0,0,1-.014.252.813.813,0,0,0,.342-.433.532.532,0,0,1-.04.274,1.04,1.04,0,0,0,.558-.734,1.213,1.213,0,0,1,.009.358,2.425,2.425,0,0,0,.378-.7.39.39,0,0,1,.045.265.688.688,0,0,0,.295-.222l-.007.692q-1.777,2.325-2.633,1.969a1,1,0,0,0,.74.127.594.594,0,0,1-.087.262.6.6,0,0,0,.324-.258.393.393,0,0,1-.013.248.528.528,0,0,0,.342-.328.466.466,0,0,1-.041.261.687.687,0,0,0,.558-.561,1.232,1.232,0,0,1,.009.361,1.62,1.62,0,0,0,.378-.586.448.448,0,0,1,.045.279.451.451,0,0,0,.362-.218l-.005.507q-2.375,2.319-3.521,1.964a1.731,1.731,0,0,0,.991.127.507.507,0,0,1-.117.263.816.816,0,0,0,.434-.258.3.3,0,0,1-.018.248.655.655,0,0,0,.458-.327.362.362,0,0,1-.054.261.835.835,0,0,0,.747-.561.927.927,0,0,1,.012.361,1.663,1.663,0,0,0,.506-.586.351.351,0,0,1,.06.279.656.656,0,0,0,.485-.218l-.01.963q-2.3,2.212-3.419,1.865a1.731,1.731,0,0,0,.99.127.509.509,0,0,1-.116.262.817.817,0,0,0,.434-.258.3.3,0,0,1-.018.248.656.656,0,0,0,.458-.328.362.362,0,0,1-.054.261.835.835,0,0,0,.747-.561.93.93,0,0,1,.012.361,1.665,1.665,0,0,0,.506-.586.35.35,0,0,1,.06.279.742.742,0,0,0,.383-.122l-.04,3.8a50.227,50.227,0,0,0-5.16.674c-.438.268-31.621-.428-31.058,0s-8.517.814-8.517.814l-23.857,8.554,42.2.045,48.961-5.327Z" transform="translate(-6576.943 11718.077)" fill="#003b74" fill-rule="evenodd"/><path d="M1032.6,990.189l-14.481,3.607-4.447,1.424-9.667-1.139-36.348.285-23.448,5.7,2,2.453,22.223-1.975,26.383-2.051,19.34,2.23,18.444-2.088Z" transform="translate(-6595.308 11577.018)" fill="#a3c536" fill-rule="evenodd"/><path d="M931.051,1038.866l37.886-3.709,12.691-.059,16.947,2.038,22.591-3.5v2.333l-11.933,6.461-20.436,2.753-50.511.891Z" transform="translate(-6583.87 11539.162)" fill="#99bd2c" fill-rule="evenodd"/><path d="M974.587,1084.331l32.974-1.546,9.973,2.31,32.826-1.146-27.7,10.972-21.918-2.356-18.239-1.907Z" transform="translate(-6621.7 11496.339)" fill="#8cb029" fill-rule="evenodd"/><path d="M1047.286,1120.5l17.02.912,8.539,1.622h22.914l-30.66,7.9-10.747-3.855Z" transform="translate(-6684.87 11463.475)" fill="#6d8e2c" fill-rule="evenodd"/><path d="M1218.077,1043.6l-21.192,8.154-6.444,3.964-32.778,4.616,7.028,5.745,39.6-6.974,13.783-6.842Z" transform="translate(-6780.78 11530.479)" fill="#a3c536" fill-rule="evenodd"/><path d="M1240.264,1099.668,1227,1102.726l-4.705,2.582s-9.792,2.6-9.342,2.786-29.756,4.689-29.756,4.689,8.724,3.459,8.083,4.581,20.012-2.406,20.012-2.406l24.358-7.95,4.614-3.194Z" transform="translate(-6802.967 11481.63)" fill="#8cb029" fill-rule="evenodd"/><path d="M1309.073,1120.259l-11.672,5.572-4.221.136-7.2,1.971s-23.748,4.051-23.6,3.6,11.349,6.183,11.349,6.183l11.418-1.291,12.525-4.485,11.4-5.3Z" transform="translate(-6871.776 11463.688)" fill="#7ea12c" fill-rule="evenodd"/><path d="M1368.013,1165.618l16.563-6.265,5.736-2.215,4.7-.7,4-1.582,1.844-1.9v6.645l-15.829,6.771-12.847,2.01Z" transform="translate(-6963.56 11435.195)" fill="#6d8e2c" fill-rule="evenodd"/><path d="M1384.931,1199.553l14.634-3.173,2.6-.311,4.5-3.172,5.322-.311,3.573-2.613v7.279l-8.869,2.829s-17.787.87-17.787,1.329-3.969-1.857-3.969-1.857" transform="translate(-6978.26 11402.947)" fill="#567029" fill-rule="evenodd"/><path d="M1450.336,1232.556l-6.707,1.121-1.868,1.835-3.737.713-10.006,1.462-3.061.716,3.988.569h21.392Z" transform="translate(-7013.04 11365.845)" fill="#3b4d1f" fill-rule="evenodd"/><path d="M722.356,965.049l8.354,1.215,3.712,1.782,6.881,2.92,17.783,11.29,5.858,2.8,7.094,1.62,2.392,1.7,5.28,3.726,19.881,5.306,21.112,8.485H806.937l-17.091-4.308-26.372-10.48-5.327-4.262-27.8-12.217-7.99-1.974Z" transform="translate(-6402.528 11598.923)" fill="#283213" fill-rule="evenodd"/><path d="M727.339,831.037a3.878,3.878,0,0,0,2.352-.806,1.486,1.486,0,0,1-.537-.785,1.593,1.593,0,0,0-.021.627,3.593,3.593,0,0,1-.89-1.153.562.562,0,0,0-.106.472,1.412,1.412,0,0,1-.805-.444Zm4.755-.467a1.189,1.189,0,0,1-.343.1,1.059,1.059,0,0,0,.157.289,1.891,1.891,0,0,1-.575-.354,2.558,2.558,0,0,1-.169.2l.014.028-.03-.012a2.693,2.693,0,0,1-.369.325,1.409,1.409,0,0,0-.015-.536l-.006,0a1.277,1.277,0,0,1-1.139.847.553.553,0,0,0,.083-.4,1,1,0,0,1-.7.5.459.459,0,0,0,.028-.378,1.244,1.244,0,0,1-.663.394.769.769,0,0,0,.178-.4,2.512,2.512,0,0,1-1.205-.083l.019,5.542,4.793,1.1.076-7.133C732.182,830.584,732.137,830.577,732.093,830.57Zm-3.87-3.355a5.467,5.467,0,0,0,1.083-.508,1.466,1.466,0,0,1-.347-.65,1.75,1.75,0,0,0-.019.628,3.567,3.567,0,0,1-.8-1.153.61.61,0,0,0-.1.472,1.255,1.255,0,0,1-.72-.433l0,.675Q727.786,826.761,728.223,827.214Zm2.716.011c-.056.054-.115.106-.177.155a.606.606,0,0,0,.026.064l-.069-.031-.056.042c0-.021.007-.043.01-.065a1.515,1.515,0,0,1-.207-.128,1.45,1.45,0,0,1-.963.5.555.555,0,0,0,.083-.4,1,1,0,0,1-.7.5.459.459,0,0,0,.028-.378,1.049,1.049,0,0,1-.225.2,18,18,0,0,0,2.047,1.784q.711-.57,1.517-1.346l.01-.909a2.325,2.325,0,0,1-1-.137,1.086,1.086,0,0,0,.185.488A1.693,1.693,0,0,1,730.939,827.226Zm.6-.381a.621.621,0,0,0-.1-.283c-.031.06-.064.118-.1.175C731.406,826.776,731.474,826.811,731.54,826.844Zm.729-.189a.9.9,0,0,1-.494.3,2.555,2.555,0,0,0,.489.149Zm-2.246-3.042.009-.007-.006-.016Zm-1.592.565a1.642,1.642,0,0,0,1.262-.333,1.784,1.784,0,0,1-.768-1.059,1.742,1.742,0,0,0-.019.626,4.068,4.068,0,0,1-.8-1.228.579.579,0,0,0-.1.463,1.437,1.437,0,0,1-.7-.47l0,.688Q727.894,823.582,728.43,824.178Zm2.889-.111c-.022.028-.045.056-.068.084a1.217,1.217,0,0,0,.163.381,1.943,1.943,0,0,1-.488-.368,1.038,1.038,0,0,1-.689.451.711.711,0,0,0,.062-.4.805.805,0,0,1-.523.5.6.6,0,0,0,.021-.378.926.926,0,0,1-.5.394.913.913,0,0,0,.133-.4,1.455,1.455,0,0,1-.969-.113,17.568,17.568,0,0,0,1.847,1.8,21.584,21.584,0,0,0,1.981-1.737v-.026A2.477,2.477,0,0,1,731.319,824.067Zm.174-.258a3.037,3.037,0,0,0,.8.348l.007-.648a.689.689,0,0,1-.553.332.684.684,0,0,0-.069-.426A2.611,2.611,0,0,1,731.493,823.809Zm-2.305-2.036q.131.144.258.279a1.193,1.193,0,0,0,.13-.436A1.5,1.5,0,0,1,729.188,821.773Zm1.114-1.21a1.646,1.646,0,0,1-.3-.408.721.721,0,0,0,.024.44,1.422,1.422,0,0,1-.6-.757.928.928,0,0,0,.071.479,1.816,1.816,0,0,1-.975-1.282,2.1,2.1,0,0,0-.016.626,4.236,4.236,0,0,1-.661-1.228.682.682,0,0,0-.078.464,1.207,1.207,0,0,1-.473-.336l0,.911q.941,1.242,1.759,2.157A4.605,4.605,0,0,0,730.3,820.563Zm.206-.24c-.031-.016-.061-.032-.091-.049a1.332,1.332,0,0,0,.02.134Zm1.126.132c.026,0,.051,0,.075,0l-.083.019a3.7,3.7,0,0,1-.383.609,1.841,1.841,0,0,0-.014-.547,1.589,1.589,0,0,1-.852,1.121.814.814,0,0,0,.062-.418,1.243,1.243,0,0,1-.523.661.628.628,0,0,0,.021-.385,1.447,1.447,0,0,1-.489.543,14.119,14.119,0,0,0,1.126,1.083,17.039,17.039,0,0,0,1.754-2.009l.011-1.056a1.053,1.053,0,0,1-.45.339.6.6,0,0,0-.069-.405A3.644,3.644,0,0,1,731.633,820.456Zm-1.191-3.512-.07-.038c0,.03.007.059.012.089Zm.842.108a.924.924,0,0,0,.293.019,1.626,1.626,0,0,1-.361.05,1.2,1.2,0,0,1-.277.192.607.607,0,0,0,.049-.2l-.045-.006a.931.931,0,0,1-.348.39.474.474,0,0,0,.016-.288,1.085,1.085,0,0,1-.1.159l.006.011-.01-.007a1.1,1.1,0,0,1-.265.245.894.894,0,0,0,.1-.331,1.126,1.126,0,0,1-.845.115,1.085,1.085,0,0,0,.725-.274,1.526,1.526,0,0,1-.232-.332.671.671,0,0,0,.022.41,1.327,1.327,0,0,1-.557-.706.869.869,0,0,0,.066.447,1.693,1.693,0,0,1-.909-1.2,1.945,1.945,0,0,0-.015.583,3.938,3.938,0,0,1-.616-1.144.634.634,0,0,0-.073.432,1.113,1.113,0,0,1-.622-.607l0,.863a15.412,15.412,0,0,0,3.405,4.222,25.744,25.744,0,0,0,1.673-2.413l.016-1.524a.788.788,0,0,1-.311.222.446.446,0,0,0-.052-.3,2.772,2.772,0,0,1-.432.8,1.385,1.385,0,0,0-.01-.409A1.178,1.178,0,0,1,731.285,817.052Zm6.092,16.395q.12-.113.243-.231v-.1a2.533,2.533,0,0,1-.41-.1A1.02,1.02,0,0,0,737.377,833.447Zm-2.745-1.285.074-.037a1.338,1.338,0,0,1-.043-.135A1.712,1.712,0,0,0,734.632,832.162Zm.694.7q-.07.016-.146.027a.451.451,0,0,0,.049-.1c-.035-.026-.068-.054-.1-.082a.989.989,0,0,1-.5.266.406.406,0,0,0,.024-.336,1.1,1.1,0,0,1-.588.35.685.685,0,0,0,.158-.356,2.345,2.345,0,0,1-1.342-.172,2.123,2.123,0,0,0,1.436-.164,3.453,3.453,0,0,1-.57-.84.563.563,0,0,0-.106.472,1.411,1.411,0,0,1-.805-.444l.022,6.392,3.593.821,1.1.957.046-4.349a1.007,1.007,0,0,1-.519.166A.475.475,0,0,0,737,835.1a2.253,2.253,0,0,1-.686.794,1.257,1.257,0,0,0-.016-.489,1.13,1.13,0,0,1-1.013.76.491.491,0,0,0,.073-.354.889.889,0,0,1-.621.444.407.407,0,0,0,.025-.336,1.1,1.1,0,0,1-.588.349.685.685,0,0,0,.158-.356,2.345,2.345,0,0,1-1.342-.173q1.451.45,4.361-2.27a1.711,1.711,0,0,1-.695-.533.539.539,0,0,0,.032.438,1.405,1.405,0,0,1-.8-.688.684.684,0,0,0,.1.471A2.349,2.349,0,0,1,735.326,832.867Zm2.308-.956a.89.89,0,0,1-.657.3.476.476,0,0,0-.082-.378,2.138,2.138,0,0,1-.294.436,6.212,6.212,0,0,0,1.023.56Zm-.853-2.283-.007.01a1.092,1.092,0,0,0,.184.475,1.675,1.675,0,0,1-.54-.374.887.887,0,0,1-.155.164.571.571,0,0,0,.034.086c-.031-.013-.062-.027-.092-.042a.972.972,0,0,1-.373.154.629.629,0,0,0,.055-.354.714.714,0,0,1-.464.444.531.531,0,0,0,.018-.336.822.822,0,0,1-.439.349.813.813,0,0,0,.118-.356,1.354,1.354,0,0,1-1-.172,1.2,1.2,0,0,0,1.032-.142,1.544,1.544,0,0,1-.683-.934,1.754,1.754,0,0,0-.019.627,3.574,3.574,0,0,1-.8-1.152.608.608,0,0,0-.1.472,1.257,1.257,0,0,1-.72-.432l0,.674a26.863,26.863,0,0,0,2.8,2.754,17.85,17.85,0,0,0,2.021-1.736v-.04A2.3,2.3,0,0,1,736.781,829.628Zm.883-.508a.614.614,0,0,1-.49.295.61.61,0,0,0-.061-.378,2.393,2.393,0,0,1-.145.311,3.1,3.1,0,0,0,.69.271Zm-2.991-1.616a3.542,3.542,0,0,0,1.154-.929,1.363,1.363,0,0,1-.293-.441.781.781,0,0,0,.086.479,1.909,1.909,0,0,1-1.187-1.282,1.743,1.743,0,0,0-.019.626,4.067,4.067,0,0,1-.8-1.228.579.579,0,0,0-.1.463,1.436,1.436,0,0,1-.7-.47l0,.688Q733.815,826.632,734.673,827.5Zm2.264-.849q-.061.1-.129.2a1.259,1.259,0,0,0,.115.226,2.09,2.09,0,0,1-.194-.119l-.005.006v-.009c-.049-.033-.1-.069-.14-.106a1.418,1.418,0,0,1-.63.624.719.719,0,0,0,.055-.371,1.1,1.1,0,0,1-.464.587.558.558,0,0,0,.018-.341,1.288,1.288,0,0,1-.439.485,1.06,1.06,0,0,0,.118-.392,1.329,1.329,0,0,1-.47.165,13.068,13.068,0,0,0,1.347,1.195,15.093,15.093,0,0,0,1.566-1.792l0-.208A2.477,2.477,0,0,1,736.937,826.654Zm.14-.258a3.1,3.1,0,0,0,.612.273l.006-.6a.932.932,0,0,1-.4.3.528.528,0,0,0-.061-.359A3.276,3.276,0,0,1,737.077,826.4Zm-.753-3.41a1.71,1.71,0,0,1-.4-.168,1.371,1.371,0,0,0,.123.447Q736.181,823.143,736.325,822.987Zm.871.01.022,0-.025.006a2.438,2.438,0,0,1-.164.24,1.223,1.223,0,0,0,.008-.21l-.061.008a1.057,1.057,0,0,1-.521.583.541.541,0,0,0,.041-.277.826.826,0,0,1-.346.439.419.419,0,0,0,.014-.255.964.964,0,0,1-.328.363.794.794,0,0,0,.088-.293,1,1,0,0,1-.75.1,1.209,1.209,0,0,0,.851-.413,1.659,1.659,0,0,1-.512-.589.719.719,0,0,0,.024.44,1.423,1.423,0,0,1-.6-.757.932.932,0,0,0,.071.479,1.817,1.817,0,0,1-.975-1.282,2.107,2.107,0,0,0-.016.625,4.236,4.236,0,0,1-.661-1.228.683.683,0,0,0-.079.464,1.2,1.2,0,0,1-.472-.336l0,.911a21.708,21.708,0,0,0,3.565,3.9q.614-.793,1.346-1.965l.015-1.352a.7.7,0,0,1-.276.2.393.393,0,0,0-.046-.269A2.459,2.459,0,0,1,737.2,823Zm-.2-.006.042,0c0-.039-.008-.078-.015-.116A1.054,1.054,0,0,1,736.991,822.992Zm-15.459,12.3,5.1,1.165.091-8.513a1.138,1.138,0,0,1-.585.187.537.537,0,0,0-.092-.427,2.544,2.544,0,0,1-.773.9,1.409,1.409,0,0,0-.019-.551,1.274,1.274,0,0,1-1.141.857.555.555,0,0,0,.083-.4,1,1,0,0,1-.7.5.458.458,0,0,0,.028-.378,1.247,1.247,0,0,1-.663.394.773.773,0,0,0,.178-.4,2.642,2.642,0,0,1-1.513-.194q1.712.531,5.222-2.849l.016-1.47a1,1,0,0,1-.74.333.536.536,0,0,0-.092-.426,2.541,2.541,0,0,1-.773.9,1.413,1.413,0,0,0-.019-.551,1.274,1.274,0,0,1-1.141.858.554.554,0,0,0,.083-.4,1,1,0,0,1-.7.5.459.459,0,0,0,.028-.379,1.244,1.244,0,0,1-.663.394.775.775,0,0,0,.178-.4,2.644,2.644,0,0,1-1.513-.194q1.749.543,5.378-3l.008-.775a.689.689,0,0,1-.552.332.684.684,0,0,0-.069-.426,2.476,2.476,0,0,1-.577.895,1.879,1.879,0,0,0-.014-.551,1.05,1.05,0,0,1-.853.857.709.709,0,0,0,.062-.4.807.807,0,0,1-.522.5.6.6,0,0,0,.021-.379.927.927,0,0,1-.495.394.917.917,0,0,0,.133-.4,1.524,1.524,0,0,1-1.13-.194q1.308.543,4.022-3.008l.011-1.056a1.054,1.054,0,0,1-.45.339.6.6,0,0,0-.069-.405,3.7,3.7,0,0,1-.578,1.074,1.847,1.847,0,0,0-.014-.547,1.59,1.59,0,0,1-.852,1.121.815.815,0,0,0,.062-.419,1.243,1.243,0,0,1-.522.662.63.63,0,0,0,.021-.385,1.451,1.451,0,0,1-.495.547,1.194,1.194,0,0,0,.133-.442,1.507,1.507,0,0,1-1.13.155q1.283.137,3.919-4.085l.016-1.524a.79.79,0,0,1-.312.222.447.447,0,0,0-.052-.3,2.765,2.765,0,0,1-.432.8,1.387,1.387,0,0,0-.01-.409,1.19,1.19,0,0,1-.638.838.607.607,0,0,0,.046-.313.93.93,0,0,1-.391.495.47.47,0,0,0,.015-.288,1.088,1.088,0,0,1-.37.409.9.9,0,0,0,.1-.331,1.127,1.127,0,0,1-.845.115q.953.1,2.906-3.015l.02-1.874a.2.2,0,0,1,.355-.01l.009,2.559h0a15.075,15.075,0,0,0,3.37,4.235,14.214,14.214,0,0,0,1.755-2.366l.02-1.874a.2.2,0,0,1,.355-.01l.009,2.558q2.9,4.7,4.3,4.554a1.605,1.605,0,0,1-1.2-.165,1.269,1.269,0,0,0,.142.471,1.545,1.545,0,0,1-.528-.583.67.67,0,0,0,.022.41,1.327,1.327,0,0,1-.557-.705.865.865,0,0,0,.066.446,1.694,1.694,0,0,1-.909-1.195,1.973,1.973,0,0,0-.015.583,3.95,3.95,0,0,1-.616-1.144.635.635,0,0,0-.073.432,1.116,1.116,0,0,1-.622-.607l0,.863q2.295,3.655,3.684,4.393a15.207,15.207,0,0,0,1.271-1.787l.018-1.663a.174.174,0,0,1,.315-.009l.008,2.27q2.577,4.172,3.817,4.04a1.424,1.424,0,0,1-1.069-.146,1.125,1.125,0,0,0,.126.418,1.369,1.369,0,0,1-.468-.517.6.6,0,0,0,.02.364,1.177,1.177,0,0,1-.494-.626.769.769,0,0,0,.059.4,1.5,1.5,0,0,1-.806-1.06,1.739,1.739,0,0,0-.013.517,3.5,3.5,0,0,1-.546-1.015.563.563,0,0,0-.065.383.989.989,0,0,1-.552-.539l0,.765q2.634,4.2,3.923,4.059a1.53,1.53,0,0,1-1.147-.157,1.212,1.212,0,0,0,.135.449,1.47,1.47,0,0,1-.5-.555.638.638,0,0,0,.021.391,1.263,1.263,0,0,1-.531-.672.827.827,0,0,0,.063.425,1.612,1.612,0,0,1-.865-1.137,1.872,1.872,0,0,0-.014.555,3.756,3.756,0,0,1-.586-1.089.605.605,0,0,0-.07.411,1.068,1.068,0,0,1-.419-.3l0,.809q3.288,4.338,4.883,4.2a2.222,2.222,0,0,1-1.4-.157,1.056,1.056,0,0,0,.165.449,1.618,1.618,0,0,1-.612-.555.531.531,0,0,0,.025.391,1.337,1.337,0,0,1-.646-.672.694.694,0,0,0,.076.425,1.694,1.694,0,0,1-1.053-1.138,1.539,1.539,0,0,0-.017.555,3.6,3.6,0,0,1-.714-1.089.514.514,0,0,0-.085.411,1.273,1.273,0,0,1-.618-.417l0,.61q3.3,4.055,4.9,3.765a2.183,2.183,0,0,1-1.4-.026.966.966,0,0,0,.165.433,1.416,1.416,0,0,1-.612-.5.523.523,0,0,0,.026.388,1.171,1.171,0,0,1-.646-.611.663.663,0,0,0,.077.418,1.488,1.488,0,0,1-1.053-1.039,1.556,1.556,0,0,0-.017.557,3.163,3.163,0,0,1-.714-1.022.54.54,0,0,0-.085.419,1.113,1.113,0,0,1-.639-.384l0,.6q3.659,4.064,5.43,3.773a2.654,2.654,0,0,1-1.544-.026.911.911,0,0,0,.182.433,1.543,1.543,0,0,1-.677-.5.477.477,0,0,0,.028.388,1.247,1.247,0,0,1-.714-.611.609.609,0,0,0,.085.418,1.575,1.575,0,0,1-1.165-1.039,1.409,1.409,0,0,0-.019.557,3.188,3.188,0,0,1-.789-1.023.5.5,0,0,0-.094.419,1.253,1.253,0,0,1-.714-.394l.014,3.987,2.983,2.606s18.945,8.994,18.388,8.425,7.1,4.106,7.1,4.106l3.421.5,12.671,6.47s6.007.078,5.575.746,20.273,7.629,20.273,7.629h-12.31l-16.692-4.483L758.1,859.543l-31.965-11.771-4.6-3.8Z" transform="translate(-6401.704 11734.146)" fill="#3b4d1f" fill-rule="evenodd"/><path d="M722.356,1048.39l6.753,1.215,10.341,5.328,21.027,8.637,5.008,4.172,16.549,5.005,4.35,1.709,14.211,4.054H782.228l-30.451-6.759-3.867-2.99-25.554-10.3Z" transform="translate(-6402.528 11526.308)" fill="#567029" fill-rule="evenodd"/><path d="M722.356,1115.891l31.679,9.72,5.723,5.164,4.331-.759,9.125,1.974,7.734,3.341,11.136,1.991H755.736l-11.678-4.421-15.39-7.29-6.313-2.582Z" transform="translate(-6402.528 11467.494)" fill="#6d8e2c" fill-rule="evenodd"/><path d="M722.356,1174.7h35.969l-7.009-2.174-3.446-3.086-13.989-5.773-4.764-3.882-6.761-1Z" transform="translate(-6402.528 11430.117)" fill="#567029" fill-rule="evenodd"/><path d="M722.356,1214.015l16.521,3.265,1.547,1.9,11.214,3.639H722.356Z" transform="translate(-6402.528 11382)" fill="#3b4d1f" fill-rule="evenodd"/><path d="M722.356,1254.612l12.422-1.063,1.933.3,3.48,2.2,5.259,1.209H722.356Z" transform="translate(-6402.528 11347.555)" fill="#283213" fill-rule="evenodd"/><path d="M841.156,468.106l3.166,2.843,1.094-3.728-1.48,2.148Z" transform="translate(-6505.758 12032.678)" fill="#005094" fill-rule="evenodd"/><path d="M888.576,494.89l2.559,2.3.884-3.014-1.2,1.737Z" transform="translate(-6546.962 12009.193)" fill="#005094" fill-rule="evenodd"/><path d="M817.79,544.633l2.559,2.3.884-3.014-1.2,1.737Z" transform="translate(-6485.454 11965.853)" fill="#005094" fill-rule="evenodd"/><path d="M1226.9,481.436a7.607,7.607,0,1,1-7.746,7.606,7.677,7.677,0,0,1,7.746-7.606" transform="translate(-6834.212 12020.292)" fill="#fff" fill-rule="evenodd" opacity="0.19"/><path d="M1261.836,560.894a5.549,5.549,0,1,1-5.65,5.549,5.6,5.6,0,0,1,5.65-5.549" transform="translate(-6866.39 11951.061)" fill="#fff" fill-rule="evenodd" opacity="0.19"/><path d="M1330.5,680.464a4.062,4.062,0,1,1-4.136,4.062,4.1,4.1,0,0,1,4.136-4.062" transform="translate(-6927.373 11846.88)" fill="#fff" fill-rule="evenodd" opacity="0.19"/><path d="M794.133,928.73c-.4-.38-8.521-7.259-14.848-12.544-3.945-3.295-7.208-5.982-7.521-6.128l-.283.726c.25.117,3.462,2.769,7.367,6.031,6.327,5.285,14.427,12.142,14.813,12.51Z" transform="translate(-6445.214 11646.836)" fill="#e0e0df"/><path d="M912.953,995.855a1.222,1.222,0,0,0,.959.827,12.8,12.8,0,0,0,2.954-6.891,1.283,1.283,0,0,0-1.216-.11,13.513,13.513,0,0,1-2.7,6.174" transform="translate(-6568.144 11577.552)" fill="#868686" fill-rule="evenodd"/><path d="M1239.42,723.681l-3.7,6.587a1.408,1.408,0,0,1-.719.587,2.135,2.135,0,0,0-.154-.227,2.088,2.088,0,0,0-.028-.289v-.1a2.089,2.089,0,0,0-.049-.449l-.011-.056a2.077,2.077,0,0,0-.211-.612l-.012-.024a2.118,2.118,0,0,0-.869-.9l2.866-5.1a1.543,1.543,0,0,1,1.558-.674l.771.155a.721.721,0,0,1,.561,1.1" transform="translate(-6846.819 11810.343)" fill="#141414" fill-rule="evenodd"/><path d="M896.311,704.541h8.372a7.035,7.035,0,0,1,5.124,3.076c1.1,1.692.582,3.076-1.14,3.076h-8.373a7.036,7.036,0,0,1-5.124-3.076c-1.1-1.692-.582-3.076,1.141-3.076" transform="translate(-6552.191 11825.902)" fill="#141414" fill-rule="evenodd"/><path d="M1268.527,831.713l.783-.1a1.033,1.033,0,0,1,1.153.881l.929,7.321a1.02,1.02,0,0,1-.9,1.131l-.783.1a1.033,1.033,0,0,1-1.153-.881l-.929-7.322a1.02,1.02,0,0,1,.9-1.131" transform="translate(-6876.327 11715.188)" fill="#a5a5a5" fill-rule="evenodd"/><path d="M1270.868,836.878l.215-.026a.284.284,0,0,1,.317.243l1.115,8.78a.28.28,0,0,1-.247.311l-.215.026a.284.284,0,0,1-.317-.242l-1.115-8.78a.281.281,0,0,1,.247-.311" transform="translate(-6878.932 11710.623)" fill="#868686" fill-rule="evenodd"/><path d="M1281.212,835.592l.216-.026a.284.284,0,0,1,.317.243l1.115,8.78a.281.281,0,0,1-.247.311l-.215.026a.284.284,0,0,1-.317-.243l-1.115-8.78a.281.281,0,0,1,.246-.311" transform="translate(-6887.919 11711.742)" fill="#c1c1c0" fill-rule="evenodd"/><path d="M1273.265,884.637l2.167-.267a.519.519,0,0,1,.58.443l2.982,23.36a.513.513,0,0,1-.45.569l-2.167.267a.519.519,0,0,1-.58-.443l-2.982-23.36a.514.514,0,0,1,.451-.569" transform="translate(-6880.835 11669.221)" fill="#262626" fill-rule="evenodd"/><path d="M1275.656,885.814l.722-.089a.173.173,0,0,1,.193.147l3.068,24.035a.17.17,0,0,1-.15.19l-.721.089a.173.173,0,0,1-.193-.147L1275.506,886a.171.171,0,0,1,.15-.189" transform="translate(-6883.176 11668.038)" fill="#141414" fill-rule="evenodd"/><path d="M1288.848,884.367l.517-.064a.124.124,0,0,1,.138.105l3.08,24.131a.122.122,0,0,1-.108.136l-.517.064a.123.123,0,0,1-.138-.105l-3.08-24.13a.122.122,0,0,1,.107-.136" transform="translate(-6894.677 11669.276)" fill="#545454" fill-rule="evenodd"/><path d="M1233.749,763.2l3.059-.409a.223.223,0,0,1,.25.187l1.882,13.578a.22.22,0,0,1-.19.246l-3.058.409a.222.222,0,0,1-.25-.187l-1.882-13.577a.22.22,0,0,1,.19-.246" transform="translate(-6846.726 11775.151)" fill="#141414" fill-rule="evenodd"/><path d="M1237.012,764.622l1.126-.151a.082.082,0,0,1,.092.069l1.92,13.851a.081.081,0,0,1-.07.091l-1.126.15a.082.082,0,0,1-.092-.069l-1.92-13.851a.08.08,0,0,1,.07-.09" transform="translate(-6849.667 11773.686)" fill="#040505" fill-rule="evenodd"/><path d="M1005.311,813.373c-.8,4.432-.751,6.08.16,6.943a110.57,110.57,0,0,0,11.294-10.145c2.049-1.987.8-5.765-.5-8.528-3.589-.114-5.9.95-6.581,3.031.689.888.836,1.568.243,1.966-1.18.808-2.718,3.719-4.614,6.735" transform="translate(-6647.905 11741.306)" fill="#ee7140" fill-rule="evenodd"/><path d="M1012.349,825.312q.493,1.27.885.376l9.5-9.213q2.089-1.517.094-6.893-.935-.593-1.123-.17,1.655,5.062.175,6.216l-9.531,9.685" transform="translate(-6654.512 11734.683)" fill="#f89369" fill-rule="evenodd"/><path d="M1010.083,820.567q-1.534,3.051-1.173,3.692a51.834,51.834,0,0,1,6.485-8.034q2.535-1.854.961-5.451l-2.241,1.415q1.134,2.066-.16,2.988a28.875,28.875,0,0,0-3.871,5.391" transform="translate(-6651.464 11733.342)" fill="#d13d24" fill-rule="evenodd"/><path d="M821.309,875.8c-.258.5-4.744,10.629-8.174,18.5-2.138,4.907-3.872,8.959-3.939,9.324l.706.157c.053-.293,1.766-4.281,3.883-9.139,3.429-7.87,7.9-17.965,8.151-18.454Z" transform="translate(-6477.986 11676.681)" fill="#e0e0df"/><path d="M798.752,899.913c-.4.373-7.845,8.125-13.575,14.173-3.573,3.771-6.494,6.9-6.673,7.213l.611.418c.144-.253,3.025-3.329,6.562-7.062,5.731-6.048,13.149-13.778,13.54-14.14Z" transform="translate(-6451.316 11655.676)" fill="#e0e0df"/><path d="M783.75,934.853c-.5.194-9.944,4.592-17.244,8.052-4.551,2.157-8.286,3.962-8.556,4.189l.438.627c.216-.182,3.9-1.954,8.4-4.09,7.3-3.46,16.718-7.846,17.2-8.034Z" transform="translate(-6433.458 11625.232)" fill="#e0e0df"/><path d="M778.226,973.5c-.527,0-10.768.744-18.7,1.374-4.945.393-9.014.747-9.336.865l.226.75c.258-.094,4.266-.438,9.161-.827,7.932-.631,18.142-1.37,18.653-1.374Z" transform="translate(-6426.715 11591.556)" fill="#e0e0df"/><path d="M781.6,958.843c-.5-.189-10.377-3.241-18.046-5.55-4.781-1.44-8.724-2.595-9.063-2.6l-.016.79c.272.006,4.154,1.149,8.888,2.575,7.669,2.309,17.518,5.35,18,5.533Z" transform="translate(-6430.44 11611.434)" fill="#e0e0df"/><path d="M817.894,905.468c-.224-.523-5.135-10.408-8.986-18.04-2.4-4.759-4.4-8.66-4.634-8.932l-.526.54c.186.218,2.152,4.063,4.529,8.774,3.851,7.633,8.748,17.487,8.965,17.994Z" transform="translate(-6473.253 11674.336)" fill="#e0e0df"/><path d="M851.676,895.557c.01-.578-.41-11.826-.787-20.539-.235-5.432-.457-9.9-.556-10.259l-.689.229c.079.286.293,4.689.526,10.067.377,8.713.8,19.928.788,20.488Z" transform="translate(-6513.132 11686.305)" fill="#e0e0df"/><path d="M1232.995,973.9c-.288.5-5.3,10.629-9.13,18.5-2.388,4.907-4.326,8.959-4.4,9.325l.789.156c.06-.293,1.973-4.282,4.338-9.139,3.831-7.87,8.825-17.966,9.1-18.454Z" transform="translate(-6834.48 11591.208)" fill="#e0e0df"/><path d="M1207.8,998.011c-.45.373-8.763,8.125-15.164,14.173-3.991,3.771-7.254,6.9-7.454,7.213l.682.418c.161-.254,3.379-3.328,7.33-7.062,6.4-6.048,14.688-13.778,15.124-14.14Z" transform="translate(-6804.689 11570.203)" fill="#e0e0df"/><path d="M1191.041,1032.951c-.555.194-11.108,4.592-19.262,8.052-5.084,2.157-9.256,3.962-9.557,4.189l.49.627c.241-.182,4.353-1.954,9.386-4.09,8.154-3.46,18.675-7.846,19.213-8.035Z" transform="translate(-6784.742 11539.76)" fill="#e0e0df"/><path d="M1184.87,1071.6c-.588,0-12.028.744-20.888,1.374-5.524.393-10.069.748-10.428.865l.252.75c.289-.094,4.765-.437,10.234-.826,8.86-.631,20.265-1.37,20.836-1.375Z" transform="translate(-6777.209 11506.083)" fill="#e0e0df"/><path d="M1188.642,1056.941c-.556-.189-11.591-3.241-20.157-5.55-5.34-1.44-9.745-2.595-10.125-2.6l-.017.79c.3.006,4.64,1.15,9.928,2.575,8.566,2.309,19.569,5.35,20.108,5.533Z" transform="translate(-6781.371 11525.961)" fill="#e0e0df"/><path d="M1202.639,1026.828c-.444-.38-9.519-7.259-16.585-12.544-4.406-3.295-8.052-5.982-8.4-6.129l-.316.726c.28.117,3.867,2.769,8.23,6.031,7.067,5.285,16.116,12.142,16.546,12.51Z" transform="translate(-6797.875 11561.364)" fill="#e0e0df"/><path d="M1229.181,1003.565c-.25-.523-5.736-10.408-10.037-18.041-2.682-4.758-4.917-8.66-5.176-8.932l-.588.54c.208.218,2.4,4.063,5.059,8.775,4.3,7.632,9.771,17.487,10.015,17.994Z" transform="translate(-6829.194 11588.864)" fill="#e0e0df"/><path d="M1266.916,993.655c.011-.578-.458-11.826-.88-20.539-.263-5.432-.511-9.9-.621-10.259l-.77.229c.088.286.327,4.689.587,10.067.422,8.713.891,19.927.88,20.488Z" transform="translate(-6873.74 11600.833)" fill="#e0e0df"/><path d="M766.264,833.894c-.234,0-.412,0-.532.009a12.439,12.439,0,0,0-9.009,5.065,18.981,18.981,0,0,0-3.885,11.687q0,.605.022,1.026a16.9,16.9,0,0,0,3.9,10.272,10.953,10.953,0,0,0,8.265,3.976c.234,0,.412,0,.532-.009a12.437,12.437,0,0,0,9.009-5.064,18.982,18.982,0,0,0,3.885-11.687q0-.606-.022-1.026a16.9,16.9,0,0,0-3.9-10.271,10.952,10.952,0,0,0-8.265-3.976m-.706-3.408c.3-.015.53-.023.706-.023a14.316,14.316,0,0,1,10.833,5.155,20.327,20.327,0,0,1,4.743,12.349q.035.682.035,1.2a22.431,22.431,0,0,1-4.62,13.8,15.81,15.81,0,0,1-11.523,6.365c-.3.015-.53.023-.706.023a14.315,14.315,0,0,1-10.833-5.155,20.324,20.324,0,0,1-4.743-12.349c-.023-.455-.035-.855-.035-1.2a22.432,22.432,0,0,1,4.62-13.8A15.81,15.81,0,0,1,765.558,830.485Z" transform="translate(-6426.04 11716.187)" fill="#040505"/><path d="M775.3,856.062c-.2,0-.356,0-.46.008a10.8,10.8,0,0,0-7.782,4.287,15.858,15.858,0,0,0-3.355,9.892q0,.513.019.869a14.138,14.138,0,0,0,3.369,8.694,9.536,9.536,0,0,0,7.139,3.366c.2,0,.356,0,.46-.008a10.8,10.8,0,0,0,7.782-4.287,15.858,15.858,0,0,0,3.356-9.892q0-.513-.019-.869a14.141,14.141,0,0,0-3.37-8.695,9.536,9.536,0,0,0-7.139-3.366m-.61-2.884c.255-.013.458-.019.61-.019a12.464,12.464,0,0,1,9.356,4.364,17.011,17.011,0,0,1,4.1,10.452q.03.578.03,1.016a18.742,18.742,0,0,1-3.991,11.684,13.729,13.729,0,0,1-9.953,5.387q-.382.019-.61.019a12.463,12.463,0,0,1-9.356-4.363,17.007,17.007,0,0,1-4.1-10.452q-.03-.578-.03-1.016a18.74,18.74,0,0,1,3.991-11.684A13.728,13.728,0,0,1,774.691,853.178Z" transform="translate(-6435.887 11696.412)" fill="#545454"/><path d="M773.34,849.819q-.306,0-.561.012a12.947,12.947,0,0,0-9.352,5.118,18.493,18.493,0,0,0-3.922,11.533q0,.536.025,1.009a16.6,16.6,0,0,0,3.971,10.2,11.56,11.56,0,0,0,8.663,4.067c.2,0,.391,0,.561-.013a12.948,12.948,0,0,0,9.353-5.117A18.493,18.493,0,0,0,786,865.1q0-.536-.025-1.009a16.6,16.6,0,0,0-3.971-10.2,11.559,11.559,0,0,0-8.663-4.067m-.615-1.039q.337-.017.615-.017a12.625,12.625,0,0,1,9.47,4.43,17.644,17.644,0,0,1,4.236,10.843q.028.553.029,1.062a19.541,19.541,0,0,1-4.153,12.185A14.013,14.013,0,0,1,772.78,882.8q-.337.017-.615.017a12.623,12.623,0,0,1-9.469-4.43,17.642,17.642,0,0,1-4.236-10.843q-.029-.553-.029-1.062a19.542,19.542,0,0,1,4.153-12.185A14.014,14.014,0,0,1,772.725,848.78Z" transform="translate(-6433.874 11700.242)" fill="#c1c1c0"/><path d="M970.091,948.163l5.15-.005a4.631,4.631,0,0,1-2.807-3.537,5.317,5.317,0,0,1-2.121-.355,5.945,5.945,0,0,0-.222,3.9" transform="translate(-6617.595 11617.031)" fill="#040505" fill-rule="evenodd"/><path d="M875.941,852.06l-17.556,14.484-1.377-1.617,17.556-14.483Z" transform="translate(-6519.532 11698.777)" fill="#141414"/><path d="M972.8,685.97l.512,1.2q1.166.4,2.9-2.43c-2.335-1.137-3.343-.614-3.413,1.229m6.244-7.444,3.329,4.715A44.465,44.465,0,0,0,979.4,693.7c1.647,2.434,2.022,1.7,3.153.657a7.241,7.241,0,0,1,6.016-1.813c1.036.164.759-.148.174-1.84-1.971-5.889-3.737-10.881-5.841-14.667Q975.373,673.091,979.044,678.526Z" transform="translate(-6620.147 11851.641)" fill="#403d17" fill-rule="evenodd"/><path d="M1035.938,711.134q-.651,14.954-.652,14.954a8.964,8.964,0,0,1,4.112-2.96,13.233,13.233,0,0,1,.416-4.761c.644-2.984-.992-5.447-3.876-7.233" transform="translate(-6674.442 11820.157)" fill="#1d1c0f" fill-rule="evenodd"/><path d="M1000.139,803.613l31.456-6.485c0,.045.008.091.014.136.005.072.015.141.026.213a2.749,2.749,0,0,0,.063.3c.008.034,0-.024,0,.009l.009.075v.013a2.063,2.063,0,0,0,.053.5c.007.058.017.116.03.173v.165a2.087,2.087,0,0,0,.026.331,2.482,2.482,0,0,0,.3.875l.066.522-19.2,19.731-1.943-1.814,17.412-17.893-27.765,5.724Z" transform="translate(-6643.902 11745.231)" fill="#141414"/><path d="M1159.437,930.928c-3.025-3.152-6.438-6.141-11.048-6.141a16.322,16.322,0,0,0-11.811,5.1,18.132,18.132,0,0,0,0,24.862,15.05,15.05,0,0,0,11.429,4.607,15.231,15.231,0,0,0,11.411-4.871c3.047-3.175,4.311-7.157,4.311-12.018s-1.246-8.365-4.293-11.54m-11.048-8.975a19.215,19.215,0,0,1,13.907,6,20.9,20.9,0,0,1,0,28.735,19.121,19.121,0,0,1-27.815,0,20.9,20.9,0,0,1,0-28.735A19.215,19.215,0,0,1,1148.389,921.953Z" transform="translate(-6755.666 11636.472)" fill="#040505"/><path d="M1172.019,952.007a13.464,13.464,0,0,0-19.607,0,15.086,15.086,0,0,0,0,20.678,13.464,13.464,0,0,0,19.607,0,15.086,15.086,0,0,0,0-20.678m-9.8-7.069a16.443,16.443,0,0,1,11.9,5.132,17.856,17.856,0,0,1,0,24.552,16.363,16.363,0,0,1-23.8,0,17.856,17.856,0,0,1,0-24.552A16.444,16.444,0,0,1,1162.215,944.938Z" transform="translate(-6770.147 11616.445)" fill="#545454"/><path d="M1170.839,947.82a15.232,15.232,0,0,0-22.174,0,16.931,16.931,0,0,0,0,23.23,15.232,15.232,0,0,0,22.174,0,16.931,16.931,0,0,0,0-23.23m-11.087-6.223a16.786,16.786,0,0,1,12.149,5.241,18.334,18.334,0,0,1,0,25.193,16.7,16.7,0,0,1-24.3,0,18.335,18.335,0,0,1,0-25.193A16.787,16.787,0,0,1,1159.752,941.6Z" transform="translate(-6767.684 11619.355)" fill="#c1c1c0"/><path d="M1230.862,838.723l1.064-.114a1.4,1.4,0,0,1,1.545,1.218l.735,6.616a1.386,1.386,0,0,1-1.241,1.517l-1.064.114a1.4,1.4,0,0,1-1.545-1.218l-.735-6.615a1.386,1.386,0,0,1,1.241-1.517" transform="translate(-6843.299 11709.097)" fill="#a5a5a5" fill-rule="evenodd"/><path d="M1233.876,844.049l.293-.032a.385.385,0,0,1,.425.335l.955,8.6a.382.382,0,0,1-.342.418l-.293.031a.385.385,0,0,1-.425-.335l-.956-8.6a.381.381,0,0,1,.342-.417" transform="translate(-6846.705 11704.379)" fill="#868686" fill-rule="evenodd"/><path d="M1247.935,842.514l.292-.032a.386.386,0,0,1,.425.335l.955,8.6a.381.381,0,0,1-.341.417l-.293.031a.385.385,0,0,1-.425-.335l-.955-8.6a.381.381,0,0,1,.342-.417" transform="translate(-6858.922 11705.716)" fill="#c1c1c0" fill-rule="evenodd"/><path d="M1234.152,891.64l2.946-.318a.7.7,0,0,1,.777.612l2.582,23.04a.7.7,0,0,1-.623.763l-2.945.318a.7.7,0,0,1-.777-.612l-2.583-23.04a.7.7,0,0,1,.623-.763" transform="translate(-6846.699 11663.164)" fill="#262626" fill-rule="evenodd"/><path d="M1237.443,893.04l.98-.106a.234.234,0,0,1,.259.2l2.685,23.957a.232.232,0,0,1-.208.254l-.98.106a.235.235,0,0,1-.259-.2l-2.685-23.957a.232.232,0,0,1,.208-.254" transform="translate(-6849.922 11661.757)" fill="#141414" fill-rule="evenodd"/><path d="M1255.38,891.315l.7-.076a.168.168,0,0,1,.186.146l2.7,24.087a.166.166,0,0,1-.148.182l-.7.076a.167.167,0,0,1-.186-.146l-2.7-24.087a.166.166,0,0,1,.148-.182" transform="translate(-6865.56 11663.233)" fill="#545454" fill-rule="evenodd"/><path d="M1246.385,1049.908a1.293,1.293,0,0,0-1.9,0,1.641,1.641,0,0,0,0,2.218,1.292,1.292,0,0,0,1.9,0,1.64,1.64,0,0,0,0-2.218m-.947-3.2a4.155,4.155,0,0,1,3.01,1.3,4.365,4.365,0,0,1,0,6.029,4.146,4.146,0,0,1-6.02,0,4.365,4.365,0,0,1,0-6.029A4.156,4.156,0,0,1,1245.438,1046.708Z" transform="translate(-6853.385 11527.773)" fill="#6d6e6e"/><path d="M1253.416,1060.534a2.706,2.706,0,1,1-2.594,2.7,2.65,2.65,0,0,1,2.594-2.7" transform="translate(-6861.729 11515.727)" fill="#a5a5a5" fill-rule="evenodd"/><path d="M1261.064,1072.082a1.217,1.217,0,1,1-1.167,1.216,1.192,1.192,0,0,1,1.167-1.216" transform="translate(-6869.614 11505.665)" fill="#545454" fill-rule="evenodd"/><path d="M973.388,724.3l4.784.3s2.338-6.562,5.485-19.035a5.073,5.073,0,0,0-1.052-5.523s-.828-.972-2.172-2.4c-4.088-1.323-6.331.835-7.041,5.957l1.188.772c.887.6,1.26,1.181.907,1.641a14.967,14.967,0,0,0-2.556,9.911l.457,8.374" transform="translate(-6620.232 11832.245)" fill="#f58254" fill-rule="evenodd"/><path d="M979.87,741.759a4.264,4.264,0,0,0,1.476.358c-.379-8.454.986-11.5,3.492-15.139,1.419-2.144.61-4.229-2.677-6.882q-.866-.448-2.088,2.554c2.14,1.4,3.022,2.643,2.306,3.573-2.315,2.822-3.169,6.714-2.509,15.536" transform="translate(-6626.102 11812.399)" fill="#de482c" fill-rule="evenodd"/><path d="M1003.137,723.49l1.068-.19s1.6-5.538,4.811-16.613q.981-3.379-.573-5.1l-2.69-3.332-.548,1.06,2.4,2.723a5.549,5.549,0,0,1,.447,4.326l-4.912,17.126" transform="translate(-6646.507 11831.379)" fill="#fbb191" fill-rule="evenodd"/><path d="M914.516,634.108c.578-.315,2.422.595,2.136.213,0,0-2.6-2.859-6.454-7.18l-10.774-3.363a5.954,5.954,0,0,0-.783,7.2,61.319,61.319,0,0,0,8.4,11.178c.738.748,1.37.859,1.376.189.3-5.813,2.889-6.275,6.1-8.24" transform="translate(-6554.955 11896.27)" fill="#666121" fill-rule="evenodd"/><path d="M916.863,632.513q-4.7-2.492-7.354-1.928a5.045,5.045,0,0,0-.093,5.83,74.136,74.136,0,0,0,7.542,10.766,6.554,6.554,0,0,1,1.558-4.6c-5.84-6.183-5.319-10.329-1.653-10.071" transform="translate(-6564.305 11890.43)" fill="#403d17" fill-rule="evenodd"/><path d="M900.132,643.258l.611,1.106q3.3.687,6.661-6.89l-1.095-.32q-3.167,7.272-6.177,6.1" transform="translate(-6557.003 11884.616)" fill="#fff" fill-rule="evenodd"/><path d="M976.669,648.152q3.351.3,3.574,2.69l2.844,3.654a1.654,1.654,0,0,0-1.611.644l-4.807-6.988" transform="translate(-6623.508 11875.033)" fill="#8d8730" fill-rule="evenodd"/><path d="M1263.216,685.1l1.937-2.823a.568.568,0,0,1,.793-.142l.93.646a.577.577,0,0,1,.148.8l-1.937,2.823a.569.569,0,0,1-.793.142l-.93-.646a.578.578,0,0,1-.148-.8" transform="translate(-6872.412 11845.514)" fill="#141414" fill-rule="evenodd"/><path d="M1157.242,548.368a7.055,7.055,0,0,1,1.917-2.689c.553-.489-.078-1.269-.971-1.815l-6.674-4.88a3.642,3.642,0,0,1-1.444-2.645l-.69-6.456a5.161,5.161,0,0,0-2.511-4.2,4.89,4.89,0,0,0-2.464-.644,2.042,2.042,0,0,1-.4,1.206l-.053.071c-.092.124-.149.25-.234.375-.021.03-.042.06-.064.089.01.074.016.146.021.221a2.058,2.058,0,0,1-.356,1.336,54.515,54.515,0,0,1-1.173,1.966l-.213.226a3.986,3.986,0,0,1-.355.314,2.07,2.07,0,0,1-.589.344c-.092.037-.184.076-.278.107l2.547,7.637c.6,1.71,1.452,3.42,2.822,4.161l9.723,5.585c.651.353,1.182.4,1.439-.31" transform="translate(-6766.05 11982.301)" fill="#3e4f23" fill-rule="evenodd"/><path d="M1152.1,545.763l-1.621,3.74c1.606,5.343,2.53,7.957,2.53,7.957a3.8,3.8,0,0,0,1.283,2.034c6.745,4.133,9.964,6.287,9.964,6.287q.943.486,1.174-.177a4.028,4.028,0,0,1,.489-.843l-9.617-6.14a2.842,2.842,0,0,1-1.23-1.631l-2.971-11.227" transform="translate(-6774.534 11964.244)" fill="#273118" fill-rule="evenodd"/><path d="M924.523,486.126q-1.454,4.119-6.968-1.851c-2.325-2.6-7.105-3.391-9.992-3.148-2.784.23-2.628-2.328-1.556-3.46,15.207-18.009,18.942-19.953,23.412-19.884,7.033,6.969,10.237,10.537,10.237,10.537a10.423,10.423,0,0,1-3.907,6.754,21.733,21.733,0,0,0-3.244,3.4,52.891,52.891,0,0,1-6.13,5.359,4.682,4.682,0,0,0-1.853,2.3" transform="translate(-6561.485 12040.902)" fill="#1d2514" fill-rule="evenodd"/><path d="M1093.611,410.981c.813,7.938,2.292,15.091,3.628,16.78-2.5,3.334-2.5-2.65-4.868-4.062-1.823-1.146-3.008-4.273-4.529-7.02q-.461-.9.273-1.263a.9.9,0,0,0,.573-.8c0-1.515.194-1.984.942-2.647q3.1-2.98,3.981-.989" transform="translate(-6719.956 12082.374)" fill="#5d733f" fill-rule="evenodd"/><path d="M963.63,516.464a3.856,3.856,0,0,1,1.027.68,4.079,4.079,0,0,1,1.422-1.664,22.018,22.018,0,0,0,2.571-2.185L962.7,494.532q-3.356,2.551-10.647,11.025,4.686-3.116,5.437,2.669.264,4.117,6.136,8.237" transform="translate(-6602.123 12008.882)" fill="#11130e" fill-rule="evenodd"/><path d="M1196.049,553.955q1.039-.262.589-.587l-7.506-5.431a4.508,4.508,0,0,1-1.359-3.156s-.184-2.055-.553-6.166q-.47-3.107-1.964-3.71.454,1.8,1.336,9.957a5,5,0,0,0,1.778,3.77l7.678,5.323" transform="translate(-6804.757 11973.705)" fill="#67823e" fill-rule="evenodd"/><path d="M1149.163,455.233q-5.292,1.233-5.448,4.2c-.313,3.591.461,5.031,2.375,7.123,1.851,1.943,3.571,2.438,5.128-.209a20.8,20.8,0,0,1,1.655-2.4,4.753,4.753,0,0,0,.735-1.19,3.071,3.071,0,0,1,1.365-1.729,3.16,3.16,0,0,0,1.4-3.309,14.65,14.65,0,0,0-7.206-2.488" transform="translate(-6768.601 12043.123)" fill="#f58254" fill-rule="evenodd"/><path d="M1149.946,465.095q2.289,1.172,1.469-.45c-3.2-1.09-3.627-4.11.473-11.42-2.869-1.642-4.354.071-5.381,4.544q.32,3.1.32,3.1,2,2.627,3.119,4.223" transform="translate(-6771.086 12045.406)" fill="#c8371b" fill-rule="evenodd"/><path d="M1114.291,432.951q4.3-1.918,5.976,1.242-.015,1.223-4.336,5.415a3.231,3.231,0,0,1-1.608,2.3,3.344,3.344,0,0,1-2.831.213,2.438,2.438,0,0,0,1.876-.35,2.351,2.351,0,0,0,1.022-1.584,2.072,2.072,0,0,1-1.95.807q1.97-.24,1.164-3.86a2.536,2.536,0,0,1-2.6.422,2.236,2.236,0,0,0,1.749-.522,2.166,2.166,0,0,0,.615-.883,3.612,3.612,0,0,1,.174-2.254,1.883,1.883,0,0,1-.6-.059,1.833,1.833,0,0,1-1.282-1.212,1.666,1.666,0,0,0,1.233.805,1.686,1.686,0,0,0,1.228-.329c.055-.051.111-.1.171-.149Z" transform="translate(-6740.235 12063.168)" fill="#040505" fill-rule="evenodd"/><path d="M1175.536,470.547a2.123,2.123,0,1,1-2.29,1.989,2.137,2.137,0,0,1,2.29-1.989" transform="translate(-6794.317 12029.783)" fill="#a42c1a" fill-rule="evenodd"/><path d="M1182.433,471.934a1.671,1.671,0,1,1-1.8,1.565,1.682,1.682,0,0,1,1.8-1.565" transform="translate(-6800.735 12028.573)" fill="#fff" fill-rule="evenodd"/><path d="M1189.481,479.288a1.017,1.017,0,1,1-1.1.953,1.024,1.024,0,0,1,1.1-.953" transform="translate(-6807.473 12022.165)" fill="#1a5589" fill-rule="evenodd"/><path d="M1192.349,482.618a.588.588,0,1,1-.634.551.592.592,0,0,1,.634-.551" transform="translate(-6810.368 12019.263)" fill="#040505" fill-rule="evenodd"/><path d="M1190.209,480.242a.369.369,0,1,1-.4.346.372.372,0,0,1,.4-.346" transform="translate(-6808.714 12021.333)" fill="#fff" fill-rule="evenodd"/><path d="M1207.268,488.847a1.676,1.676,0,1,1-1.73,2.184.264.264,0,0,0,.266-.278.261.261,0,0,0,.148-.219l.025-.4c.011-.071.022-.142.032-.213,0-.007,0-.013,0-.02l.037-.583a.262.262,0,0,0,0-.066,1.721,1.721,0,0,1,1.226-.409" transform="translate(-6822.38 12013.838)" fill="#a42c1a" fill-rule="evenodd"/><path d="M1212.179,489.943a1.319,1.319,0,1,1-1.423,1.236,1.328,1.328,0,0,1,1.423-1.236" transform="translate(-6826.912 12012.882)" fill="#fff" fill-rule="evenodd"/><path d="M1217.744,495.75a.8.8,0,1,1-.866.752.808.808,0,0,1,.866-.752" transform="translate(-6832.232 12007.822)" fill="#1a5589" fill-rule="evenodd"/><path d="M1220.009,498.379a.464.464,0,1,1-.5.435.468.468,0,0,1,.5-.435" transform="translate(-6834.519 12005.53)" fill="#040505" fill-rule="evenodd"/><path d="M1218.4,495.551a.292.292,0,1,1-.315.273.293.293,0,0,1,.315-.273" transform="translate(-6833.285 12007.994)" fill="#fff" fill-rule="evenodd"/><path d="M1219.526,481.99a.155.155,0,0,1-.028.207.226.226,0,0,1-.239.032q-.387-.493-2.313.769a.721.721,0,0,1-.682-.447.567.567,0,0,1,.29-.684q2.36-1.237,2.972.123" transform="translate(-6831.674 12020.43)" fill="#040505" fill-rule="evenodd"/><path d="M1173.6,517.24a4.338,4.338,0,0,0,2.9,2.358,5.5,5.5,0,0,0,1.357-1.529.25.25,0,0,1-.1-.138l-.011-.04a7.093,7.093,0,0,1-2.854-1.564.259.259,0,0,1-.1,0l-.121-.019-.23-.014a.234.234,0,0,1-.081.008l-.5-.03a.258.258,0,0,1-.083-.019,7.161,7.161,0,0,0-.182.982" transform="translate(-6794.625 11989.952)" fill="#7d0c15" fill-rule="evenodd"/><path d="M1176.9,515.475a1.781,1.781,0,0,0-.095.643,7.769,7.769,0,0,0,2.949,1.949,5.267,5.267,0,0,0,.508-.538,9.693,9.693,0,0,1-3.362-2.054" transform="translate(-6797.415 11990.634)" fill="#fff" fill-rule="evenodd"/><path d="M1144.531,464.049c.357.407.891,1.211,1.594,1.276-.871-1.64-.671-3.934,3.027-10.307l-1.831-.515c-2.624,5.563-3.492,8.8-2.79,9.546" transform="translate(-6769.167 12043.759)" fill="#262f19" fill-rule="evenodd"/><path d="M1144.073,455.628a.832.832,0,0,0,.864.522.8.8,0,0,0,.664-.753,9.778,9.778,0,0,1,.982-2.4,1.452,1.452,0,0,0-.131-1.479,1.514,1.514,0,0,0-2.6.255,4.512,4.512,0,0,0,.221,3.855" transform="translate(-6768.492 12046.903)" fill="#f99e76" fill-rule="evenodd"/><path d="M1148.127,459.5a.512.512,0,0,0,.531.321c.233-.035.349-.181.408-.463.006-.028.014-.059.022-.092a.249.249,0,0,1-.1-.215l.017-.271a.239.239,0,0,1-.009-.069.219.219,0,0,1-.009-.082l.011-.176a.247.247,0,0,1,.042-.123.633.633,0,0,1,.089-.138.253.253,0,0,1,.053-.072.38.38,0,0,1,.069-.111.251.251,0,0,1,.074-.09c.007-.01.014-.02.022-.029a.252.252,0,0,1,.141-.147.36.36,0,0,1,.245-.032.893.893,0,0,0-.142-.739.931.931,0,0,0-1.6.157,2.773,2.773,0,0,0,.136,2.37" transform="translate(-6772.2 12041.943)" fill="#ae131b" fill-rule="evenodd"/><path d="M1150.165,482.326a.467.467,0,1,1-.53.435.484.484,0,0,1,.53-.435" transform="translate(-6773.804 12019.518)" fill="#040505" fill-rule="evenodd"/><path d="M1153.526,462.993a7.52,7.52,0,0,0-.574,1.414q-.919-.1-.618-1.516a.7.7,0,0,1,.592-.5.71.71,0,0,1,.7.34.952.952,0,0,1-.1.263" transform="translate(-6776.085 12036.892)" fill="#cb2e1b" fill-rule="evenodd"/><path d="M1134.316,393.506q2.167,3.759,3.892,3.446c1.457-.345,3.43.467,5.53,1.656a3.606,3.606,0,0,0,1.472.546q1.548.08,1.915-.431a5.015,5.015,0,0,0,.881-3.744c-.39-2.489-1.637-3.816-3.812-5.676q-1.971-1.672-6.8-2.177c-1.919-.168-3.187,0-3.7.677-.819.99-1.114,1.606-.964,2.365l-.153-.19a3.1,3.1,0,0,0-1.427,4.1q2.855.508,3.163-.576" transform="translate(-6757.482 12102.517)" fill="#151810" fill-rule="evenodd"/><path d="M1134.6,437l.729,1.164a5.027,5.027,0,0,0-2.791-.062,1.016,1.016,0,0,1-1.131-.448c-.286-.376-.155-.671.551-.791a5.694,5.694,0,0,1,2.641.137" transform="translate(-6757.841 12059.21)" fill="#282f1d" fill-rule="evenodd"/><path d="M1252.713,431.569q.034,1.2.034,1.2a4.2,4.2,0,0,0,.831-.909c.167-.243.119-.56-.143-1.1-.112-.234-.269-.224-.394.062l-.328.743" transform="translate(-6863.372 12064.586)" fill="#3d4c27" fill-rule="evenodd"/><path d="M1248.7,450.491l-.326,1.305a5.2,5.2,0,0,0,1.767-1.654,1.21,1.21,0,0,0,.209-.654c-.037-.714-.218-1-.409-.623a6.584,6.584,0,0,1-1.24,1.625" transform="translate(-6859.604 12048.816)" fill="#3d4c27" fill-rule="evenodd"/><path d="M1155.951,388.3a4.578,4.578,0,0,1,2.217,2.555,9.309,9.309,0,0,1-.133,6.555.394.394,0,0,1-.447.251c-.169-.031-.229-.077-.153-.321,1.072-2.972.291-6.642-1.422-8.426-.447-.4-.323-.715-.061-.614m-8.981,3.255,1.381,1.709q5.363,3.6,7.256,2.8l-.8-.934q-.926.3-4.371-1.5-2.447-1.364,1.994-.381.918.234.508-.12-.9-.889-4.548-4.25-1.214.433-3.355-1.266a.3.3,0,0,0-.448.088,2.37,2.37,0,0,0-.333.7l1.6,1.5a14.779,14.779,0,0,1,4.128,1.157c1.178.648,1.208,1.013-.347.7A13.144,13.144,0,0,0,1146.97,391.556Zm0-5.4,1.16.864a21.036,21.036,0,0,1,6.688,5.464.249.249,0,0,0,.361.069.262.262,0,0,0,.1-.347,11.4,11.4,0,0,0-4.762-5.133,5.386,5.386,0,0,0-2.017-.984A8.11,8.11,0,0,0,1146.969,386.152Z" transform="translate(-6769.128 12103.377)" fill="#536834" fill-rule="evenodd"/><path d="M1146.136,396.136c1.12.365,2.411.23,1.855-.375a80.474,80.474,0,0,1-5.355-7.292.745.745,0,0,0-1.022-.128c-.32.238-.357.532-.151,1,1.383,3.591,3.219,6.285,4.673,6.795m7.567,1.29c.165.251.6.3.666.094a9.386,9.386,0,0,0-2.869-10.132,1.9,1.9,0,0,0-1.166-.58c-1.575-.186-2.013.117-1.248.633a9.717,9.717,0,0,1,4.418,6.692c.145.691-.068.781-.669-.011q-4.164-5.484-7.109-7.446c-.728-.5-1.1-.66-1.585-.57-.8.132-1.223.562-.867.842Q1151.372,393.647,1153.7,397.426Z" transform="translate(-6766.592 12103.373)" fill="#3d4c27" fill-rule="evenodd"/><path d="M1163.653,515.777q.452-.08.192.226c-.771.827-1.9.754-3.334-.138q-1.839-1.125.247-5.54a.237.237,0,0,1,.3-.081.254.254,0,0,1,.144.288c-1.081,3.1-.931,3.918.065,4.512.706.424,1.076.512,1.354.062l.622-.973a1.672,1.672,0,0,0,.665.261l-.66,1.1q-.255.384.4.282" transform="translate(-6782.506 11995.213)" fill="#040505" fill-rule="evenodd"/><path d="M1178.6,460.993a.209.209,0,0,0-.151.248.213.213,0,0,0,.246.16,3.718,3.718,0,0,1,3.407,3.158.655.655,0,0,0,.685.214.64.64,0,0,0,.464-.539,3.5,3.5,0,0,0-1.508-2.752,3.639,3.639,0,0,0-3.143-.488" transform="translate(-6798.84 12038.243)" fill="#040505" fill-rule="evenodd"/><path d="M1172.546,518.038c.01.053.014.074.049.092a.094.094,0,0,0,.1-.011c.029-.025.029-.046.027-.1a2.9,2.9,0,0,0-1.779-2.768,4.105,4.105,0,0,0-3.621-.019.1.1,0,0,0-.042.134.107.107,0,0,0,.131.053,4.455,4.455,0,0,1,3.012.521q1.919.955,2.118,2.1" transform="translate(-6789.131 11991.205)" fill="#040505" fill-rule="evenodd"/><path d="M1189.724,492.8q.292.345.362.121l.618-1.813a.564.564,0,0,1,.612-.265.552.552,0,0,1,.433.5q.051.819.11,2.15c.262,1.825-1.436,2.295-2.115,1.028a.743.743,0,0,0-.738-.332.78.78,0,0,1-.787-.686.842.842,0,0,1,.476-.922.872.872,0,0,1,1.029.218" transform="translate(-6807.318 12012.106)" fill="#ca2c1b" fill-rule="evenodd"/><path d="M1206.4,507.252c.32.023.54.5.492,1.067s-.346,1.008-.665.985-.54-.5-.491-1.067.346-1.008.665-.985" transform="translate(-6822.542 11997.799)" fill="#eb3f1d" fill-rule="evenodd"/><path d="M1208.131,511.414c.234.032.371.394.305.809s-.308.726-.542.693-.37-.394-.3-.809.307-.726.541-.694" transform="translate(-6824.149 11994.175)" fill="#ee5437" fill-rule="evenodd"/><path d="M1209.758,515.218c.156.021.247.263.2.539s-.2.483-.361.462-.247-.263-.2-.539.2-.483.36-.462" transform="translate(-6825.724 11990.859)" fill="#f37c63" fill-rule="evenodd"/><path d="M1098.881,537.589a3.353,3.353,0,0,1,.867.946,2.542,2.542,0,0,1,.364,1.084,2.461,2.461,0,0,1-.162,1.1,3.505,3.505,0,0,1-.648,1.054,5.209,5.209,0,0,1-.966.87,5,5,0,0,1-1.052.57,3,3,0,0,1-.991.229,1.548,1.548,0,0,1-.864-.214,2.351,2.351,0,0,1-.955-1.71,4.933,4.933,0,0,1-.038-1.259,4.742,4.742,0,0,1,.326-1.327,3.623,3.623,0,0,1,.719-1.128,2.9,2.9,0,0,1,1.015-.7,1.881,1.881,0,0,1,1.2-.1,3.525,3.525,0,0,1,1.181.589" transform="translate(-6725.819 11971.929)" fill="#8e8725" fill-rule="evenodd"/><path d="M1119.615,553.5a1.075,1.075,0,0,1,.451.685.9.9,0,0,1-.216.728,1.253,1.253,0,0,1-.687.413.882.882,0,0,1-.7-.111.969.969,0,0,1-.377-.639,1.307,1.307,0,0,1,.115-.827.853.853,0,0,1,.613-.459,1.1,1.1,0,0,1,.806.211" transform="translate(-6746.368 11957.695)" fill="#1d2514" fill-rule="evenodd"/><path d="M1106.279,563.838a.647.647,0,0,0,.6.043.867.867,0,0,0,.439-.477,1.444,1.444,0,0,0,.1-.691.646.646,0,0,0-.225-.476.535.535,0,0,0-.5.015,1.415,1.415,0,0,0-.556.435.878.878,0,0,0-.2.637.7.7,0,0,0,.342.515" transform="translate(-6735.829 11949.939)" fill="#1d2514" fill-rule="evenodd"/><path d="M1105.258,543.373a1.129,1.129,0,0,1,.48.733.945.945,0,0,1-.2.766,1.472,1.472,0,0,1-.688.466.871.871,0,0,1-.721-.038.886.886,0,0,1-.406-.6,1.342,1.342,0,0,1,.091-.846,1.041,1.041,0,0,1,.609-.561.955.955,0,0,1,.831.081" transform="translate(-6733.886 11966.448)" fill="#1d2514" fill-rule="evenodd"/><path d="M1093.344,573.474h0a.328.328,0,0,1,.109.434q-.319.6-.63,1.2a.282.282,0,0,1-.4.125h0a.335.335,0,0,1-.113-.433q.307-.6.623-1.2a.3.3,0,0,1,.409-.126" transform="translate(-6723.962 11940.134)" fill="#8e8725" fill-rule="evenodd"/><path d="M1098.231,576.641h0a.326.326,0,0,1,.1.434c-.217.4-.433.8-.644,1.2a.285.285,0,0,1-.4.125h0a.335.335,0,0,1-.109-.434q.313-.6.636-1.2a.3.3,0,0,1,.411-.126" transform="translate(-6728.195 11937.375)" fill="#8e8725" fill-rule="evenodd"/><path d="M1103.6,579.7h0a.323.323,0,0,1,.1.433q-.331.6-.653,1.192a.286.286,0,0,1-.4.124h0a.33.33,0,0,1-.1-.432q.318-.6.646-1.191a.3.3,0,0,1,.41-.125" transform="translate(-6732.852 11934.713)" fill="#8e8725" fill-rule="evenodd"/><path d="M1148.775,544.317a.421.421,0,0,1,.387.446.412.412,0,0,1-.435.392.42.42,0,0,1-.387-.446.411.411,0,0,1,.435-.392" transform="translate(-6772.678 11965.505)" fill="#1d2514" fill-rule="evenodd"/><path d="M874,981.524l-21.739-7.161-.679,2,21.739,7.161Z" transform="translate(-6514.82 11590.807)" fill="#141414"/><path d="M833.271,949.938a1.084,1.084,0,0,0-.843-.413,1.233,1.233,0,0,0-.892.413,1.776,1.776,0,0,0-.461,1.109,1.594,1.594,0,0,0,.329,1.109,1.084,1.084,0,0,0,.843.413,1.232,1.232,0,0,0,.892-.413,1.775,1.775,0,0,0,.461-1.109,1.594,1.594,0,0,0-.329-1.109m-.678-3.2a3.433,3.433,0,0,1,2.679,1.3,4.335,4.335,0,0,1,.927,3.015,4.842,4.842,0,0,1-1.284,3.014,3.9,3.9,0,0,1-2.832,1.3,3.432,3.432,0,0,1-2.679-1.3,4.335,4.335,0,0,1-.927-3.014,4.842,4.842,0,0,1,1.284-3.015A3.9,3.9,0,0,1,832.593,946.738Z" transform="translate(-6494.732 11614.877)" fill="#6d6e6e"/><path d="M839.745,960.564a2.382,2.382,0,0,1,2.215,2.7,2.746,2.746,0,0,1-2.535,2.7,2.383,2.383,0,0,1-2.215-2.7,2.747,2.747,0,0,1,2.535-2.7" transform="translate(-6502.323 11602.83)" fill="#a5a5a5" fill-rule="evenodd"/><path d="M846.679,972.113a1.071,1.071,0,0,1,1,1.216,1.235,1.235,0,0,1-1.14,1.216,1.072,1.072,0,0,1-1-1.216,1.236,1.236,0,0,1,1.141-1.216" transform="translate(-6509.563 11592.768)" fill="#545454" fill-rule="evenodd"/><path d="M890.874,958.3l-25.06-6.536.273-1.019,25.06,6.536Z" transform="translate(-6527.183 11611.385)" fill="#6d6e6e"/><path d="M879.665,1014.227l-24.674-9.541.327-.98,24.675,9.541Z" transform="translate(-6517.778 11565.241)" fill="#6d6e6e"/><path d="M1008.675,997.7a4.923,4.923,0,0,1,5.359,5.066,6.052,6.052,0,0,1-5.126,6.185,4.923,4.923,0,0,1-5.359-5.066,6.052,6.052,0,0,1,5.126-6.185" transform="translate(-6646.864 11570.495)" fill="#3d3d3d" fill-rule="evenodd"/><path d="M1017.043,1008.235a3.742,3.742,0,0,1,4.074,3.851,4.6,4.6,0,0,1-3.9,4.7,3.742,3.742,0,0,1-4.073-3.851,4.6,4.6,0,0,1,3.9-4.7" transform="translate(-6655.204 11561.313)" fill="#6d6e6e" fill-rule="evenodd"/><path d="M1029.763,1024.242a1.947,1.947,0,0,1,2.119,2,2.393,2.393,0,0,1-2.027,2.446,1.946,1.946,0,0,1-2.119-2,2.393,2.393,0,0,1,2.027-2.446" transform="translate(-6667.882 11547.357)" fill="#262626" fill-rule="evenodd"/><path d="M1015.672,967.843l3.225,9.213a.588.588,0,0,1-.373.749l-.4.135a.605.605,0,0,1-.763-.366l-3.225-9.213a.589.589,0,0,1,.373-.749l.4-.135a.605.605,0,0,1,.763.366" transform="translate(-6656.038 11596.835)" fill="#a5a5a5" fill-rule="evenodd"/><path d="M997.661,985.133l5.972-.2a.917.917,0,0,1,.952.872l.023.635a.914.914,0,0,1-.889.935l-5.972.2a.916.916,0,0,1-.952-.872l-.022-.635a.914.914,0,0,1,.888-.935" transform="translate(-6640.977 11581.602)" fill="#141414" fill-rule="evenodd"/><path d="M1110.757,809.941l-18.4,18.893-.3-.7,18.694-19.208Z" transform="translate(-6723.766 11734.952)" fill="#262626" fill-rule="evenodd"/><path d="M972.839,888.356q.91,3.938,5.061.995s.45-2.832,1.351-8.5l-6.262-.483s-.05,2.662-.15,7.985" transform="translate(-6620.181 11672.702)" fill="#141414" fill-rule="evenodd"/><path d="M976.293,892.626l1.7.394s.151-2.827.452-8.48l-1.774-.107q-.378,8.193-.377,8.193" transform="translate(-6623.182 11669.163)" fill="#040505" fill-rule="evenodd"/><path d="M1001.773,896.444l-.754.69.676-7.775.868.1-.79,6.985" transform="translate(-6644.667 11664.871)" fill="#3d3d3d" fill-rule="evenodd"/><path d="M983.961,937.6,966,938.2a6.1,6.1,0,0,1,.485-4.9,5.093,5.093,0,0,0,5.393-.307,1.893,1.893,0,0,1,1.838-.418l6.833,2q2.854.909,3.417,3.029" transform="translate(-6613.971 11627.297)" fill="#7a7524" fill-rule="evenodd"/><path d="M1008.968,947.816l2.476-.165q-.315.277,1.184-2.521l-1.882-1.276-1.777,3.962" transform="translate(-6651.574 11617.39)" fill="#fff" fill-rule="evenodd"/><path d="M1032.349,953.37a15.811,15.811,0,0,1,2.272.279,30.392,30.392,0,0,1,1.091-3.02,20.15,20.15,0,0,1-2.251.561c-.717,1.462-1.113,2.18-1.113,2.18" transform="translate(-6671.891 11611.486)" fill="#fff" fill-rule="evenodd"/><path d="M965.139,969.25l18.13-.644a.286.286,0,0,1,.3.272l.07,1.892a.285.285,0,0,1-.277.292l-18.13.645a.286.286,0,0,1-.3-.272l-.07-1.892a.286.286,0,0,1,.277-.293" transform="translate(-6613.249 11595.823)" fill="#e0e0df" fill-rule="evenodd"/><path d="M977.521,976.967l-8.578.351s-.024-.492-.073-1.474l6.955-.233a2.354,2.354,0,0,0,1.7,1.356" transform="translate(-6616.731 11589.72)" fill="#a5a5a5" fill-rule="evenodd"/><path d="M1039.524,806.716l25.242-5.159,0,.766-25.617,5.275Z" transform="translate(-6677.803 11741.372)" fill="#262626"/><path d="M1158.327,694.415l22.191,3.228a1.008,1.008,0,0,1,.861,1.217l-.166.771a1.187,1.187,0,0,1-1.315.9l-22.191-3.227a1.009,1.009,0,0,1-.86-1.217l.166-.771a1.188,1.188,0,0,1,1.316-.9" transform="translate(-6780.049 11834.735)" fill="#262626" fill-rule="evenodd"/><path d="M1144.19,671.87q3.51.253,3.5,2.825-.282,2.127,2.187,2.538,3.98.676,2.717-3.44-.7-3.755-3.886-4.2l-1.972-.219-2.544,2.5" transform="translate(-6769.073 11856.544)" fill="#f58254" fill-rule="evenodd"/><path d="M1129.692,660.737l2.7-2.917a.62.62,0,0,1,.862-.04l.892.8a.594.594,0,0,1,.041.847l-2.7,2.917a.62.62,0,0,1-.862.039l-.892-.8a.593.593,0,0,1-.04-.846" transform="translate(-6756.337 11866.78)" fill="#151810" fill-rule="evenodd"/><path d="M1037.29,491.93a9.026,9.026,0,0,1,2.85-2.7c.749-.458.232-1.434-.641-2.19l-6.321-6.552a3.816,3.816,0,0,1-.967-3.2l.851-7.342a5.384,5.384,0,0,0-1.781-5.113,5.311,5.311,0,0,0-5.454-.722c-1.81.793-3.308,2.5-3.1,4.467l1.116,10.5c.243,2.013.779,4.066,2.142,5.12l9.595,7.838c.647.5,1.236.646,1.707-.113" transform="translate(-6663.515 12035.772)" fill="#495e2a" fill-rule="evenodd"/><path d="M1033.939,476.545a5.543,5.543,0,0,1,3.041-4.057,4.792,4.792,0,0,0-3.807.545,4.631,4.631,0,0,0-2.128,3.147q1.178,10.4,1.178,10.4a8.979,8.979,0,0,0,1.5,4.358l9.466,7.968a.9.9,0,0,0,1.093.111,5.606,5.606,0,0,1,1.234-1.524l-9.245-7.513a5.614,5.614,0,0,1-1.315-3.437q-1.015-10-1.015-9.995" transform="translate(-6670.758 12028.24)" fill="#283318" fill-rule="evenodd"/><path d="M1084.531,501.334q1.237-.149.8-.578l-7.271-7.15a4.771,4.771,0,0,1-.819-3.735s.26-2.335.782-7.006q.177-3.557-1.378-4.442.1,2.085-.761,11.375-.282,3.131,1.155,4.484l7.49,7.053" transform="translate(-6709.682 12022.917)" fill="#67823e" fill-rule="evenodd"/><path d="M1281.343,696.526c1.933.139,2.667.963,2.661,2.38q-.233,1.758,1.807,2.1c2.192.373,2.6-.365,2.245-2.841a3.672,3.672,0,0,0-3.211-3.471s-1-.217-2.091-.337c-.978,1.541-1.411,2.173-1.411,2.173" transform="translate(-6888.25 11834.778)" fill="#f58254" fill-rule="evenodd"/><path d="M1231.272,697.337l8.1,1.166a.621.621,0,0,1,.532.729l-.759,4.04a.689.689,0,0,1-.77.542l-8.1-1.166a.621.621,0,0,1-.532-.729l.759-4.04a.689.689,0,0,1,.771-.542" transform="translate(-6843.402 11832.185)" fill="#3d3d3d" fill-rule="evenodd"/><path d="M1243.1,705.327l5.535.8a.424.424,0,0,1,.363.5l-.519,2.76a.47.47,0,0,1-.526.37l-5.535-.8a.424.424,0,0,1-.363-.5l.518-2.76a.471.471,0,0,1,.526-.37" transform="translate(-6854.104 11825.221)" fill="#6d6e6e" fill-rule="evenodd"/><path d="M1258.567,709.168l.134,1.415,1.436.185-1.33.563.264,1.4-.956-1.068-1.272.679.738-1.223-1.05-.978,1.412.312Z" transform="translate(-6866.69 11821.87)" fill="#c1c1c0" fill-rule="evenodd"/><path d="M1336.374,1076.445a1.664,1.664,0,0,0,1.423.961,17.247,17.247,0,0,0,2.844-9.72,1.738,1.738,0,0,0-1.651.044,18.21,18.21,0,0,1-2.616,8.715" transform="translate(-6936.067 11509.659)" fill="#6d6e6e" fill-rule="evenodd"/><path d="M1177.258,1014.266a1.688,1.688,0,0,1-1.719-.148,17.321,17.321,0,0,1,4.106-9.275,1.7,1.7,0,0,1,1.245,1.066,18.279,18.279,0,0,0-3.631,8.357" transform="translate(-6796.313 11564.25)" fill="#6d6e6e" fill-rule="evenodd"/><path d="M795.922,920.989a1.249,1.249,0,0,1-1.271-.109,12.806,12.806,0,0,1,3.036-6.858,1.256,1.256,0,0,1,.92.788,13.514,13.514,0,0,0-2.685,6.179" transform="translate(-6465.348 11643.382)" fill="#868686" fill-rule="evenodd"/><path d="M859.558,1108.38l-5.611-7.07-3.575,1.073-5.859,4.047Z" transform="translate(-6508.674 11480.198)" fill="#567029" fill-rule="evenodd"/><path d="M1147.237,1198.692l11.737-.56,6.194-.188,5.107,3.723,5.493,6.174-17.592-3.12Z" transform="translate(-6771.721 11396.002)" fill="#3b4d1f" fill-rule="evenodd"/><path d="M1379.049,1235.166a1.146,1.146,0,1,1-1.167,1.146,1.156,1.156,0,0,1,1.167-1.146" transform="translate(-6972.135 11363.571)" fill="#fff" fill-rule="evenodd"/><path d="M1388.29,1211.949a.827.827,0,1,1-.842.827.834.834,0,0,1,.842-.827" transform="translate(-6980.447 11383.8)" fill="#fff" fill-rule="evenodd"/><path d="M1427.032,1227.873a.73.73,0,1,1-.743.729.736.736,0,0,1,.743-.729" transform="translate(-7014.197 11369.926)" fill="#fff" fill-rule="evenodd"/><path d="M1425.569,1204.533a.591.591,0,1,1-.6.591.6.6,0,0,1,.6-.591" transform="translate(-7013.049 11390.262)" fill="#fff" fill-rule="evenodd"/><path d="M1457.083,1228.133a.441.441,0,1,1-.45.442.445.445,0,0,1,.45-.442" transform="translate(-7040.564 11369.699)" fill="#fff" fill-rule="evenodd"/><path d="M1425.948,1175.8a.441.441,0,1,1-.449.441.445.445,0,0,1,.449-.441" transform="translate(-7013.511 11415.293)" fill="#fff" fill-rule="evenodd"/><path d="M1474.465,1265.775a.591.591,0,1,1-.6.592.6.6,0,0,1,.6-.592" transform="translate(-7055.536 11336.901)" fill="#fff" fill-rule="evenodd"/><path d="M1502.584,1179.741a.4.4,0,1,1-.408.4.4.4,0,0,1,.408-.4" transform="translate(-7080.138 11411.862)" fill="#fff" fill-rule="evenodd"/><path d="M1478.787,1140.374a.4.4,0,1,1-.408.4.4.4,0,0,1,.408-.4" transform="translate(-7059.46 11446.162)" fill="#fff" fill-rule="evenodd"/><path d="M1442.722,1132.935a.441.441,0,1,1-.45.442.445.445,0,0,1,.45-.442" transform="translate(-7028.085 11452.645)" fill="#fff" fill-rule="evenodd"/><path d="M1461.406,1111.153a.331.331,0,1,1-.337.331.334.334,0,0,1,.337-.331" transform="translate(-7044.42 11471.623)" fill="#fff" fill-rule="evenodd"/><path d="M1454.6,1105.561a.255.255,0,1,1-.26.255.258.258,0,0,1,.26-.255" transform="translate(-7038.57 11476.495)" fill="#fff" fill-rule="evenodd"/><path d="M1473.742,1096.926a.255.255,0,1,1-.26.255.257.257,0,0,1,.26-.255" transform="translate(-7055.205 11484.019)" fill="#fff" fill-rule="evenodd"/></g></svg>