<svg xmlns="http://www.w3.org/2000/svg" xmlns:xlink="http://www.w3.org/1999/xlink" width="132.706" height="97.394" viewBox="0 0 132.706 97.394"><defs><linearGradient id="a" x1="0.5" y1="1.789" x2="0.5" y2="-0.346" gradientUnits="objectBoundingBox"><stop offset="0" stop-color="#7c39e8"/><stop offset="0.002" stop-color="#090835"/><stop offset="0.413" stop-color="#232257"/><stop offset="0.807" stop-color="#62c1aa"/><stop offset="1" stop-color="#14b28b"/></linearGradient><linearGradient id="b" x1="0.487" y1="1.121" x2="0.52" y2="0.081" gradientUnits="objectBoundingBox"><stop offset="0" stop-color="#e6aa8b"/><stop offset="0.458" stop-color="#f1c7b1"/><stop offset="1" stop-color="#ffe8db"/></linearGradient><linearGradient id="c" x1="0" y1="0.5" x2="1" y2="0.5" xlink:href="#b"/><linearGradient id="d" x1="0.125" y1="0.976" x2="0.869" y2="-0.088" gradientUnits="objectBoundingBox"><stop offset="0" stop-color="#c94a73"/><stop offset="0.002" stop-color="#46457b"/><stop offset="0.527" stop-color="#525196"/><stop offset="1" stop-color="#7877ce"/></linearGradient><linearGradient id="e" y1="0.5" x2="1" y2="0.5" gradientUnits="objectBoundingBox"><stop offset="0" stop-color="#c94a73"/><stop offset="0.002" stop-color="#46457b"/><stop offset="0.527" stop-color="#55549a"/><stop offset="1" stop-color="#7877ce"/></linearGradient><linearGradient id="f" x1="0.375" y1="1.237" x2="0.991" y2="-0.076" gradientUnits="objectBoundingBox"><stop offset="0" stop-color="#c94a73"/><stop offset="0.002" stop-color="#46457b"/><stop offset="0.527" stop-color="#515096"/><stop offset="1" stop-color="#7877ce"/></linearGradient><linearGradient id="g" y1="0.5" x2="1" y2="0.5" gradientUnits="objectBoundingBox"><stop offset="0" stop-color="#f75b87"/><stop offset="0.002" stop-color="#6868aa"/><stop offset="1" stop-color="#7877ce"/></linearGradient><linearGradient id="h" y1="0.5" x2="1" y2="0.5" gradientUnits="objectBoundingBox"><stop offset="0" stop-color="#c94a73"/><stop offset="0.002" stop-color="#46457b"/><stop offset="0.527" stop-color="#6664aa"/><stop offset="1" stop-color="#7877ce"/></linearGradient><linearGradient id="i" x1="0.531" y1="0.349" x2="0.343" y2="1.279" gradientUnits="objectBoundingBox"><stop offset="0" stop-color="#c94a73"/><stop offset="0.002" stop-color="#46457b"/><stop offset="0.527" stop-color="#6160a8"/><stop offset="1" stop-color="#7877ce"/></linearGradient><linearGradient id="j" x1="1.098" y1="0.168" x2="-0.194" y2="1.495" gradientUnits="objectBoundingBox"><stop offset="0" stop-color="#c94a73"/><stop offset="0.002" stop-color="#46457b"/><stop offset="0.527" stop-color="#5c5baf"/><stop offset="1" stop-color="#7877ce"/></linearGradient><linearGradient id="l" x1="1.319" y1="-0.737" x2="-0.216" y2="1.407" xlink:href="#b"/><linearGradient id="m" x1="0.857" y1="1.951" x2="-0.033" y2="-1.745" xlink:href="#b"/><linearGradient id="n" x1="0.742" y1="1.367" x2="0.205" y2="-0.95" xlink:href="#b"/><linearGradient id="p" x1="-0.167" y1="1.088" x2="1.021" y2="-0.151" gradientUnits="objectBoundingBox"><stop offset="0" stop-color="#ad94fd"/><stop offset="0.002" stop-color="#14b28b"/><stop offset="1" stop-color="#232257"/></linearGradient></defs><g transform="translate(0.474)"><path d="M680.274,331.489c-7.809,3.447-13.881,9.664-25.264,2.758-19.062-11.565-35.831,36.686-57.9,44.308s-40.395-60.111-48.877,12.434" transform="translate(-548.235 -309.048)" fill="none" stroke="#090835" stroke-miterlimit="10" stroke-width="0.954"/><path d="M680.254,331.753c-7.635,3.451-13.482,9.694-24.533,3.978-8.186-4.234-16.069,2.746-24.287,11.062-10.331,10.454-21.2,25.742-33.6,29.8-21.9,7.168-40.373-55.289-49.6,14.62" transform="translate(-548.235 -309.27)" fill="none" stroke="#232257" stroke-miterlimit="10" stroke-width="0.954"/><path d="M680.234,332.018c-7.461,3.456-13.112,9.712-23.8,5.2-7.962-3.363-15.717,4.017-23.949,11.031-10.35,8.819-21.428,22.519-33.922,26.382-21.733,6.721-40.352-50.466-50.326,16.806" transform="translate(-548.235 -309.494)" fill="none" stroke="#313076" stroke-miterlimit="10" stroke-width="0.954"/><path d="M680.214,332.282c-7.287,3.46-12.782,9.727-23.07,6.417-7.774-2.5-15.378,5.3-23.612,11-10.384,7.2-21.652,19.3-34.246,22.965-21.563,6.279-40.331-45.645-51.051,18.992" transform="translate(-548.235 -309.716)" fill="none" stroke="#3a388b" stroke-miterlimit="10" stroke-width="0.954"/><path d="M680.194,332.547c-7.113,3.464-12.5,9.753-22.339,7.637-7.63-1.641-15.055,6.58-23.274,10.971-10.44,5.578-21.875,16.079-34.57,19.548-21.388,5.844-40.31-40.823-51.776,21.178" transform="translate(-548.235 -309.94)" fill="none" stroke="#4a4898" stroke-miterlimit="10" stroke-width="0.954"/><path d="M680.174,332.812c-6.939,3.469-12.27,9.811-21.608,8.857-7.534-.77-14.753,7.861-22.937,10.941-10.523,3.961-22.1,12.865-34.894,16.131-21.212,5.414-40.289-36-52.5,23.364" transform="translate(-548.235 -310.163)" fill="none" stroke="#504f98" stroke-miterlimit="10" stroke-width="0.954"/><path d="M680.154,333.076c-6.764,3.473-12.091,9.926-20.876,10.077-7.484.129-14.474,9.13-22.6,10.911-10.636,2.33-22.317,9.653-35.218,12.714-21.033,4.991-40.268-31.178-53.225,25.549" transform="translate(-548.235 -310.386)" fill="none" stroke="#63629b" stroke-miterlimit="10" stroke-width="0.954"/><path d="M680.134,333.341c-6.59,3.478-11.945,10.115-20.146,11.3-7.468,1.076-14.212,10.377-22.262,10.881-10.771.674-22.536,6.445-35.542,9.3-20.852,4.574-40.247-26.356-53.95,27.735" transform="translate(-548.235 -310.609)" fill="none" stroke="#8f8ec4" stroke-miterlimit="10" stroke-width="0.954"/><path d="M680.114,333.605c-6.416,3.482-11.809,10.388-19.414,12.516-7.463,2.089-13.957,11.6-21.924,10.851-10.917-1.021-22.753,3.24-35.866,5.88-20.67,4.162-40.225-21.534-54.675,29.921" transform="translate(-548.235 -310.831)" fill="none" stroke="#189b7b" stroke-miterlimit="10" stroke-width="0.954"/><path d="M680.094,333.87c-6.242,3.487-11.654,10.736-18.683,13.736-7.439,3.175-13.7,12.786-21.587,10.821-11.054-2.754-22.97.039-36.189,2.463-20.487,3.757-40.2-16.712-55.4,32.107" transform="translate(-548.235 -311.056)" fill="none" stroke="#129676" stroke-miterlimit="10" stroke-width="0.954"/><path d="M680.074,334.135c-6.068,3.491-11.456,11.139-17.952,14.956-7.367,4.328-13.42,13.957-21.249,10.79-11.168-4.517-23.187-3.158-36.513-.954-20.3,3.358-40.183-11.89-56.125,34.293" transform="translate(-548.235 -311.279)" fill="none" stroke="#14a380" stroke-miterlimit="10" stroke-width="0.954"/><path d="M680.054,334.4c-5.893,3.5-11.2,11.571-17.221,16.176-7.228,5.531-13.124,15.117-20.912,10.76-11.255-6.3-23.4-6.35-36.837-4.371-20.117,2.964-40.162-7.068-56.849,36.479" transform="translate(-548.235 -311.501)" fill="none" stroke="#14ac86" stroke-miterlimit="10" stroke-width="0.954"/><path d="M680.034,334.664c-5.719,3.5-10.893,12-16.49,17.4-7.016,6.759-12.809,16.276-20.574,10.73-11.314-8.081-23.619-9.539-37.161-7.788-19.932,2.577-40.141-2.245-57.574,38.664" transform="translate(-548.235 -311.725)" fill="none" stroke="#14b28b" stroke-miterlimit="10" stroke-width="0.954"/><path d="M680.014,334.928c-5.545,3.5-10.534,12.422-15.759,18.615-6.739,7.988-12.479,17.439-20.237,10.7-11.352-9.862-23.834-12.722-37.485-11.2-19.747,2.2-40.12,2.577-58.3,40.85" transform="translate(-548.235 -311.947)" fill="none" stroke="#14b28b" stroke-miterlimit="10" stroke-width="0.954"/><path d="M679.994,335.193c-5.371,3.509-10.136,12.814-15.027,19.835-6.411,9.2-12.138,18.609-19.9,10.67-11.375-11.635-24.051-15.9-37.809-14.621-19.561,1.82-40.1,7.4-59.023,43.036" transform="translate(-548.235 -312.171)" fill="none" stroke="#62c1aa" stroke-miterlimit="10" stroke-width="0.954"/><path d="M679.974,335.458c-5.2,3.513-9.709,13.177-14.3,21.055-6.05,10.39-11.79,19.785-19.562,10.64-11.387-13.4-24.267-19.076-38.133-18.039-19.378,1.45-40.077,12.221-59.748,45.222" transform="translate(-548.235 -312.395)" fill="none" stroke="#62c1aa" stroke-miterlimit="10" stroke-width="0.954"/><path d="M679.954,335.722c-11.642,8.154-19.093,51.1-32.789,32.885-27.045-35.97-63.65-26.517-98.93,25.952" transform="translate(-548.235 -312.617)" fill="none" stroke="#62c1aa" stroke-miterlimit="10" stroke-width="0.954"/><g transform="translate(13.314 0)"><g transform="translate(0 0)"><ellipse cx="48.714" cy="6.318" rx="48.714" ry="6.318" transform="translate(0 84.757)" fill="url(#a)"/><path d="M953.7,308.671l-1.79,4.844,4.714.214,4.615-4.333-2,1.087a1.624,1.624,0,0,1-1.134.066Z" transform="translate(-902.189 -289.803)" fill="#ffe7d4" fill-rule="evenodd"/><path d="M953.473,312.6l-1.563,4.229,4.714.214,2.512-2.358a3.076,3.076,0,0,1-1.645-.185Z" transform="translate(-902.189 -293.113)" fill-rule="evenodd" fill="url(#b)"/><path d="M853.41,566.561l2.025,2.777q-1.543.483-3.367,4.039L848.6,571.5q-.993-.4-.575-1.154l.6-1.175-1.9-1.068a.949.949,0,0,1-.682-1.2l.713-1.589a15.307,15.307,0,0,0,3.867.841A2.962,2.962,0,0,1,853.41,566.561Z" transform="translate(-812.827 -506.25)" fill="#46457b" fill-rule="evenodd"/><path d="M873.758,653.232,875.405,652a91.193,91.193,0,0,1,3.323-14.251,103,103,0,0,0-6.6,10.939l1.278,4.188A.481.481,0,0,0,873.758,653.232Z" transform="translate(-834.863 -567.343)" fill-rule="evenodd" fill="url(#c)"/><path d="M852.367,590.687l4.8.043a9.585,9.585,0,0,1-2.514,3.832Q846.766,607.4,846.09,609.2a2.939,2.939,0,0,1-2.921,1.072,2.623,2.623,0,0,1-2.107-2.026c5.339-7.5,6.006-17.17,10.125-18.161A1.025,1.025,0,0,0,852.367,590.687Z" transform="translate(-808.651 -527.144)" fill="#ffe7d4" fill-rule="evenodd"/><path d="M901.355,200.589a2.069,2.069,0,0,1,1.213.855,7.8,7.8,0,0,1,.8,2.328c.179.826.275,1.533.494,2.279a13.21,13.21,0,0,0,1.068,2.487,10.565,10.565,0,0,1,1.315,3.031,3.465,3.465,0,0,1-.628,2.3,2.544,2.544,0,0,1-.937,1.048,1.878,1.878,0,0,1-1.11.048,6.613,6.613,0,0,0-1.46-.145c-.568.026-1.233.18-1.785.187a3,3,0,0,1-1.246-.247c-.253-.114-.318-.2-.336-.545a11.162,11.162,0,0,1,.061-1.451,2.387,2.387,0,0,1,.326-1.188,1.351,1.351,0,0,1,.952-.4,10.089,10.089,0,0,0,1.238-.162c.307-.091.409-.256.466-.627s.068-.946.165-1.37a4.84,4.84,0,0,1,.423-1.02,3.206,3.206,0,0,0,.278-1.031,2.374,2.374,0,0,0-.108-.889,5.811,5.811,0,0,0-.258-.615,1.022,1.022,0,0,1-.114-.61,2.917,2.917,0,0,0,.235-.712,3.7,3.7,0,0,0-.241-1.29,5.126,5.126,0,0,0-.591-1.214,6.826,6.826,0,0,0-.758-.92c-.219-.225-.361-.345-.27-.353A3.877,3.877,0,0,1,901.355,200.589Z" transform="translate(-857.321 -198.457)" fill="#090835" fill-rule="evenodd"/><path d="M693.451,269.253a2.114,2.114,0,0,0,.5-1.337,18.62,18.62,0,0,1,5.808,1.593l4.033,1.624q.359-.052.341.37l-2.06,5.655q-.115.192-.483.114l-3.039-1.681c1.659,3.073,1.189,4.743-.247,7.625a22.324,22.324,0,0,1-1.684,2.859,2.243,2.243,0,0,0-.4.684s-.019.817-.057,2.45q1.546,10.026,2.783,18.346l2.783,8.148q.446,1.492-1.136,1.367l-4.487.057a1.782,1.782,0,0,1-1.988-1.026L692.5,313.71a1.763,1.763,0,0,0-1.6-.353c-3.6.464-7.164-2.445-12.886-2.895a1.325,1.325,0,0,0-1.022.285l-2.954,4.216q-.566.884-2.272.456c-5.927-2.544-5.152-8.846-9.25-14.275-1.445-1.913-5.387-1.569-6.655-5.211q-.7-1.747,1.25-2.336a86.042,86.042,0,0,1,27.721-7.008,78.932,78.932,0,0,0,.341-9.629,5.207,5.207,0,0,1-2.7-1.382.274.274,0,0,1-.171-.385l.81-2.293a9.1,9.1,0,0,1,1.25-3.989,15.681,15.681,0,0,1,5.027-3.689,21.222,21.222,0,0,0,3.594,3.291A.741.741,0,0,1,693.451,269.253Z" transform="translate(-652.21 -253.159)" fill="#7877ce" fill-rule="evenodd"/><path d="M737.839,445.248l-2.954,4.216q-.566.884-2.272.456a9.147,9.147,0,0,1-4.832-4.964l19.529-20.2a.691.691,0,0,1,.818,1.06Z" transform="translate(-713.059 -387.66)" fill-rule="evenodd" fill="url(#d)"/><path d="M660.556,415.757c-1.714-.758-3.83-1.386-4.7-3.875q-.7-1.748,1.25-2.336a77.553,77.553,0,0,1,16.471-5.317q7.695-1.123,11.554-1.483a.528.528,0,0,1,.73.551l-25.308,12.46Z" transform="translate(-652.21 -369.108)" fill-rule="evenodd" fill="url(#e)"/><path d="M849.788,396.81l-.05,2.149.024.156q-9.543-.4-12.1-2.7l.738-.074q.061-.435.111-.985Q840.806,396.06,849.788,396.81Z" transform="translate(-805.786 -362.909)" fill="#e9e9e9" fill-rule="evenodd"/><path d="M858.654,445.372a2.807,2.807,0,0,0-.5.047,9.768,9.768,0,0,1-4.276-.635l3.7-22.537a.575.575,0,0,1,1.129.064l-.057,23.061Z" transform="translate(-819.465 -385.222)" fill-rule="evenodd" fill="url(#f)"/><path d="M906.348,431.874q1,6.54,1.851,12.271s-1.495-5.239-4.484-15.718a.9.9,0,0,1,1.466-.991Z" transform="translate(-861.463 -389.748)" fill-rule="evenodd" fill="url(#g)"/><path d="M897.6,283.762a2.115,2.115,0,0,0,.5-1.337,10.239,10.239,0,0,1,2.6.471,4.221,4.221,0,0,1-2.892,1.122Z" transform="translate(-856.364 -267.668)" fill="#46457b" fill-rule="evenodd"/><path d="M929.2,317.348l-.781,2.146c-.077.128-.237.166-.483.114l-3.039-1.681-.925-1.824a.45.45,0,0,1,.383-.684Z" transform="translate(-878.559 -295.494)" fill-rule="evenodd" fill="url(#h)"/><path d="M858.206,363.1c-.524,1.051-2.253,4.421-2.852,5.275a2.232,2.232,0,0,0-.4.684l-9.593-.977q-1.543-.322-1.581-1.668h0L851.4,363.5l4.363-.684C857.77,362.428,877.254,371.325,858.206,363.1Z" transform="translate(-810.947 -335.456)" fill-rule="evenodd" fill="url(#i)"/><path d="M848.86,325.454c.863.626,2.544.545,4.841.193l-1.7-6.855q-.12-.138-.341-.014s-.132,1.121-.4,3.362q0,.339-.327.285l-.509-.033Z" transform="translate(-815.231 -298.278)" fill-rule="evenodd" fill="url(#j)"/><path d="M824.235,334c-2.156-.337-3.73-.676-4.651-1.517a47.282,47.282,0,0,0-1.555,6.417q-.793,3.181,1.534,3.476a26.179,26.179,0,0,0,9.486-3.048,5.945,5.945,0,0,1,1.846-.028,4.546,4.546,0,0,1,.611-2.934q-6.84,1.431-8.663.684Z" transform="translate(-789.045 -309.882)" fill="#ffe7d4" fill-rule="evenodd"/><path d="M894.5,360.146q.418,0,.994.051a4.546,4.546,0,0,1,.611-2.934q-.675.141-1.3.261a1.293,1.293,0,0,0-.121,1.036A1.759,1.759,0,0,0,894.5,360.146Z" transform="translate(-853.644 -330.784)" fill-rule="evenodd" fill="url(#c)"/><path d="M836.512,339.157a22.313,22.313,0,0,1-2.752-.559l-1.384,3.9q0,.528.66.523a3.737,3.737,0,0,1,2.084-.814Z" transform="translate(-801.321 -315.043)" fill-rule="evenodd" fill="url(#l)"/><path d="M1012.12,205.009a5.958,5.958,0,0,0-9.192-7.457,7.511,7.511,0,0,0-2.215,3.376.89.89,0,0,0,0,.769l.426.855-.724,1.56a.392.392,0,0,0-.032.449l.554.449.234,3.4a1.663,1.663,0,0,0,1.874,1.453l1.236-.086,1.193,1.688,6.732-4.145Q1012.12,205.009,1012.12,205.009Z" transform="translate(-943.046 -194.654)" fill="#ffe7d4" fill-rule="evenodd"/><path d="M1010.181,278.141a1.658,1.658,0,0,0,1.18.287l1.236-.085,1.193,1.688,1.88-1.158-1.022-1.437a.481.481,0,0,0-.594-.255A11.482,11.482,0,0,1,1010.181,278.141Z" transform="translate(-951.361 -263.224)" fill-rule="evenodd" fill="url(#m)"/><path d="M1003.335,191.584a5.858,5.858,0,0,1,.831.563c.224.189.316.331.295.534a2.669,2.669,0,0,1-.309.769,9.355,9.355,0,0,0-.412.89,1.036,1.036,0,0,0-.078.523.561.561,0,0,0,.227.381,2.019,2.019,0,0,1,.571.581,1.379,1.379,0,0,1-.032.883c-.081.32-.181.648-.114.776s.3.057.508-.1a1.921,1.921,0,0,0,.55-.766c.167-.367.323-.858.476-1.15s.3-.385.472-.374a.866.866,0,0,1,.547.331,1.72,1.72,0,0,1,.419.873,3.2,3.2,0,0,1-.075,1.1,3.272,3.272,0,0,1-.206.634.579.579,0,0,0,0,.577,4.892,4.892,0,0,0,1,1.143c.533.491,1.264,1.09,1.711,1.432s.611.427.873.4a2.667,2.667,0,0,0,1.083-.47,15.363,15.363,0,0,0,1.388-1.076,3.55,3.55,0,0,0,.735-.751,6.559,6.559,0,0,0,.475-1.026c.2-.474.465-1.115.724-1.82s.508-1.474.664-1.987a4.007,4.007,0,0,0,.228-1,1.106,1.106,0,0,0-.217-.7,8.16,8.16,0,0,0-.7-.819c-.224-.246-.373-.424-.515-.467a.523.523,0,0,0-.4.128c-.128.078-.249.143-.263.089a1.413,1.413,0,0,1,.142-.381.525.525,0,0,0-.046-.545,6.35,6.35,0,0,0-.884-1c-.412-.41-.909-.88-1.246-1.161a1.308,1.308,0,0,0-.955-.392,11.258,11.258,0,0,0-1.917.157c-.774.117-1.619.3-2.492.5s-1.775.441-2.453.63a10.345,10.345,0,0,0-1.423.467c-.291.135-.419.263-.451.413a.607.607,0,0,0,.167.488,2.009,2.009,0,0,0,.518.434C1002.934,191.4,1003.083,191.446,1003.335,191.584Z" transform="translate(-944.512 -188.205)" fill="#090835" fill-rule="evenodd"/><path d="M868.806,194.738a5.438,5.438,0,0,1,.941,1.268,5.884,5.884,0,0,1,.447,1.56,1.953,1.953,0,0,1,.018.826c-.05.171-.149.285-.185.424a.755.755,0,0,0,.053.452c.061.15.153.285.224.5a2.694,2.694,0,0,1,.117.837,2.84,2.84,0,0,1-.178.969,4.174,4.174,0,0,1-.408.755.981.981,0,0,0-.192.541c-.029.278-.036.748-.039,1.143a1.881,1.881,0,0,1-.131.915c-.128.2-.383.278-.781.317a12.606,12.606,0,0,0-1.306.121.842.842,0,0,0-.689.559,4.057,4.057,0,0,0-.174,1.257,4.529,4.529,0,0,1-.092,1.225c-.1.246-.33.239-.781.046a7.37,7.37,0,0,1-1.661-1.015,8.008,8.008,0,0,1-1.272-1.408c-.338-.45-.616-.836-.894-1.223a8.787,8.787,0,0,1-.022-1.049,5.541,5.541,0,0,0-.057-1.555,8.553,8.553,0,0,0-.728-1.6,7.71,7.71,0,0,1-.675-2.09,6.364,6.364,0,0,1,.038-2.937,3.629,3.629,0,0,1,1.744-1.988,4.721,4.721,0,0,1,2.581-.595,7.747,7.747,0,0,1,2.734.666A3.918,3.918,0,0,1,868.806,194.738Z" transform="translate(-824.791 -192.239)" fill="#ffe7d4" fill-rule="evenodd"/><path d="M893.666,264.784a.587.587,0,0,1-.063.136c-.128.2-.383.278-.781.317a12.572,12.572,0,0,0-1.306.121.842.842,0,0,0-.689.559,4.075,4.075,0,0,0-.174,1.257,4.525,4.525,0,0,1-.092,1.225c-.1.246-.33.239-.781.046-.155-.066-.337-.154-.531-.26l-.466-3.7a.568.568,0,0,1,.809-.3A12.529,12.529,0,0,0,893.666,264.784Z" transform="translate(-848.92 -252.23)" fill-rule="evenodd" fill="url(#n)"/><path d="M784.379,192.373a2.947,2.947,0,0,1-.13,1.473,2.089,2.089,0,0,1-.991,1.108,6.323,6.323,0,0,1-1.684.456c-.588.111-1.145.237-1.434.3s-.313.08-.364.2-.131.348-.224.65a2.085,2.085,0,0,1-.432.895.611.611,0,0,1-.793.091,2.144,2.144,0,0,1-.372-.877.681.681,0,0,0-.375-.467.521.521,0,0,0-.565.086,1.344,1.344,0,0,0-.42.9,2.558,2.558,0,0,0,.23,1.111,1.489,1.489,0,0,0,.364.538,1.415,1.415,0,0,0,.455.328c.162.06.326.043.27.339a6.234,6.234,0,0,1-.582,1.352,3.081,3.081,0,0,1-1.234,1.238c-.773.51-2.1,1.248-3.12,1.81a8.466,8.466,0,0,1-2.406,1.07,4.313,4.313,0,0,1-2.164-.3,4.829,4.829,0,0,1-2.261-1.319c-.48-.638-.474-1.51-.875-1.849s-1.207-.145-2.085-.1a4.286,4.286,0,0,1-2.5-.507,3.366,3.366,0,0,1-1.27-1.994,3.64,3.64,0,0,1,.023-2.219,2.962,2.962,0,0,1,1.412-1.53,10.32,10.32,0,0,0,1.75-.789,2.321,2.321,0,0,0,.506-1.439,1.492,1.492,0,0,1,.676-1.222,4.994,4.994,0,0,1,2.2-.39c.889-.009,1.832.083,3.059.04a21.046,21.046,0,0,0,4.175-.576c1.437-.356,2.8-.892,4.181-1.128a9.771,9.771,0,0,1,3.877.1,5.271,5.271,0,0,1,2.383,1.225A2.266,2.266,0,0,1,784.379,192.373Z" transform="translate(-739.62 -189.296)" fill="#090835" fill-rule="evenodd"/><path d="M1123.564,695.592a9.311,9.311,0,0,1-4.729,4.765,16.2,16.2,0,0,1-2.557,4.936,1.192,1.192,0,0,0-.3,1.389,10.261,10.261,0,0,0,7.051-5.149q.079-1.016.66-1.218l.4.15q.355.147.49-.021l1.682-2.03a.392.392,0,0,0,.043-.577A5.937,5.937,0,0,0,1123.564,695.592Z" transform="translate(-1040.541 -616.123)" fill="#333e46" fill-rule="evenodd"/><path d="M999.674,455.041q.739.179.889-.405a11.886,11.886,0,0,1-.937,10.113,106.907,106.907,0,0,1-12.213,12.478,1.443,1.443,0,0,0-.284,2.222q8.743,5.773,15.11,10.769a1.067,1.067,0,0,1,.426,1.51,9.764,9.764,0,0,1-7.953,6.524.8.8,0,0,1-.937-.37l-8.833-8.461,4.5,9.429q.264.777-.142,1.14a23.636,23.636,0,0,1-10.026,2.621.612.612,0,0,1-.568-.427l-6.163-22.164q-1.692-4.762-.256-7.065a124.922,124.922,0,0,1,11.332-15.64l1.122-1.5,1.193.912a1.558,1.558,0,0,0,1.15.271l4.417-.7a1.549,1.549,0,0,0,.823-.442,2.008,2.008,0,0,1,2.677-.947Z" transform="translate(-918.829 -412.907)" fill="#f5f5f5" fill-rule="evenodd"/><path d="M984.941,495.784l4.5,9.429q.264.777-.142,1.14a23.639,23.639,0,0,1-10.026,2.621.611.611,0,0,1-.568-.427l-6.163-22.164q-1.692-4.762-.256-7.065a124.959,124.959,0,0,1,11.332-15.641l1.122-1.5,1.193.912a1.568,1.568,0,0,0,1.1.279L976.964,481.69q-2.437,4.169-.189,6.78Z" transform="translate(-918.829 -419.27)" fill="#d7d8d8" fill-rule="evenodd"/><path d="M901.284,358.945a3.839,3.839,0,0,1,1.142-3.128l-1.04-1.333a1.342,1.342,0,0,0-1.687-.41l-1.517-.171a.748.748,0,0,0-.772.654.883.883,0,0,0-.437,1.226.959.959,0,0,0-.068,1.333.769.769,0,0,0,.2,1.06l1.193.53A5.951,5.951,0,0,0,901.284,358.945Z" transform="translate(-855.573 -327.95)" fill="#ffe7d4" fill-rule="evenodd"/><path d="M901.869,370.563a3.867,3.867,0,0,1,.869-2.834.581.581,0,0,0-.642.105,3.907,3.907,0,0,0-.88,1.674.875.875,0,0,1-.6.328,6.949,6.949,0,0,1-3.2-.961.769.769,0,0,0,.278.919l1.193.53A5.951,5.951,0,0,0,901.869,370.563Z" transform="translate(-856.158 -339.567)" fill-rule="evenodd" fill="url(#c)"/><path d="M949.6,256.341q4.2,1.9,7.158,10.119a45.6,45.6,0,0,1,2.692,8.786,9.459,9.459,0,0,0,.886,3.419q.588.225.682,1.3l.648,5.709a.829.829,0,0,1-.886.718l-5.078-.205q-1.743-.4-2.352.615a1.7,1.7,0,0,1-1.193.855l-4.533.615a1.447,1.447,0,0,1-.988-.205l-2.215-1.778a2.362,2.362,0,0,1-.887-1.573l.1-8.17-.648-1.2-2.249,1.4a4.325,4.325,0,0,1-3.442.957l-8.077-.342a1.328,1.328,0,0,1-.716-.342l-.528-.94-2.88-.444a3.979,3.979,0,0,1,1.432-4.2l-.026-.031h0l.122.034a5.342,5.342,0,0,0,.226-1.982,37.531,37.531,0,0,0,3.854-1.405q.707-.686,2.778-.205,5.855-5.422,8.095-7.094a.66.66,0,0,1,.341-.735l5.573-5.4q1.145-.851,1.824.239Z" transform="translate(-879.473 -243.898)" fill="#62c1aa" fill-rule="evenodd"/><path d="M1044.237,363.731a1.977,1.977,0,0,1-.353-.157l-2.215-1.777a2.36,2.36,0,0,1-.886-1.573s.034-2.723.1-8.17l-.647-1.2,3.6-2.36a3.293,3.293,0,0,0,1.641-1.434l2.649-3.29a2.03,2.03,0,0,1,.925,2.067Z" transform="translate(-976.724 -319.407)" fill-rule="evenodd" fill="url(#p)"/><path d="M935,304.507a37.628,37.628,0,0,0,3.854-1.406q.708-.686,2.778-.205,5.855-5.422,8.095-7.094a1.91,1.91,0,0,1,.425,1.5l-4.022,5.2a.772.772,0,0,0-.273.923l-2.795,2.6-2.914-.222q-2.281-.511-2.727.769l-2.647-.083a5.345,5.345,0,0,0,.226-1.982Zm-.226,1.982-.095,0-.026-.03Z" transform="translate(-887.623 -278.95)" fill="#53a793" fill-rule="evenodd"/><path d="M991.3,744.389a20.86,20.86,0,0,0,9.956-2.731,17.331,17.331,0,0,1,.639,4.145.6.6,0,0,1-.454.47,32.2,32.2,0,0,0-3.753.323.342.342,0,0,1-.412-.271l-.209-.451a2.036,2.036,0,0,0-2,.826q-6.479,1.507-9.251-.63a1.369,1.369,0,0,1,1.245-1.2A9.716,9.716,0,0,0,991.3,744.389Z" transform="translate(-930.8 -654.974)" fill="#333e46" fill-rule="evenodd"/><path d="M855.777,729.31q-.663-.1-.164-1.226l.406-2.439a.728.728,0,0,1,.94-.336q1.276,1.172,2.781-.188l1.451-1.233a.486.486,0,0,1,.958.077L864.9,726.9l2.617.869q1.49.627,1.43,1.649-.734,1.082-3.545.966a3.9,3.9,0,0,1-3.433-.649,1.468,1.468,0,0,0-1.559.023,1.7,1.7,0,0,1-1.167.18Z" transform="translate(-820.748 -639.672)" fill="#e9e9e9" fill-rule="evenodd"/><path d="M855.777,755.531q-.563-.083-.288-.909a2.45,2.45,0,0,1,.269-.017c.755-.007,2.071.266,2.966.363a8.65,8.65,0,0,0,1.848-.008,3.209,3.209,0,0,1,1.327.137c.362.146.6.421.977.6a3.528,3.528,0,0,0,1.706.2c.815-.049,1.928-.223,2.663-.349a5.632,5.632,0,0,0,1.41-.349c.07-.032.138-.067.206-.1a1.215,1.215,0,0,1,.089.542q-.734,1.082-3.545.967a3.9,3.9,0,0,1-3.433-.649,1.467,1.467,0,0,0-1.559.023,1.7,1.7,0,0,1-1.167.181Z" transform="translate(-820.748 -665.893)" fill="#6a69bc" fill-rule="evenodd"/><path d="M821.833,707.589q-.553-.425.469-1.2l1.6-2.009a.757.757,0,0,1,1.022.171q.568,1.711,2.62,1.239l1.938-.385a.506.506,0,0,1,.831.556l1.022,4.059,1.939,2.115q1.037,1.324.469,2.222-1.212.611-3.706-.918a4.067,4.067,0,0,1-2.79-2.329,1.528,1.528,0,0,0-1.427-.769,1.764,1.764,0,0,1-1.15-.428Z" transform="translate(-792.26 -623.431)" fill="#f5f5f5" fill-rule="evenodd"/><path d="M821.833,719.668q-.514-.4.333-1.09c.092.074.2.168.345.286.63.532,1.808,1.557,2.454,2.108s.76.627.9.665a3.009,3.009,0,0,1,.565.144,2.872,2.872,0,0,1,.846.551,4.107,4.107,0,0,1,.51.724,2.868,2.868,0,0,0,.943.836,17.5,17.5,0,0,0,2.4,1.268,10.294,10.294,0,0,0,2.082.65,2.877,2.877,0,0,0,.717.044h.014a1.261,1.261,0,0,1-.2.585q-1.212.611-3.707-.919a4.068,4.068,0,0,1-2.791-2.329,1.526,1.526,0,0,0-1.427-.769,1.764,1.764,0,0,1-1.15-.428Z" transform="translate(-792.26 -635.509)" fill="#7877ce" fill-rule="evenodd"/></g></g></g></svg>