<svg xmlns="http://www.w3.org/2000/svg" width="130" height="88.985" viewBox="0 0 130 88.985"><path d="M395.9,302.4q113.42,7,121.349,0a62.907,62.907,0,1,0-121.349,0" transform="translate(-390.664 -222.882)" fill="#fbf8dc" fill-rule="evenodd"/><path d="M1354.249,421.854a11.568,11.568,0,1,1-11.568,11.568,11.568,11.568,0,0,1,11.568-11.568" transform="translate(-1263.89 -405.964)" fill="#fff" fill-rule="evenodd"/><path d="M641.511,331.356l-2.283.049v-9.594h-3.214V320.39H634.89v1.421h-1.965v-2.639h-1.717v2.639h-.657v1.634l-4.651-2.362v-3.665h-1.306v3l-1.023-.52-.048-4.7-3.632.01v-1.269h-.312v1.27l-1.249,0v-5.87h-2.186v2.732h-2.264v-8.04h-1.171v-3.278h-.351v3.278h-1.522v2.576h-1.093v2.455H608.53v.366h-.572v3.444h-.72v7.1h-.393v.413H604.93v-5.582h-6.705v2.506h-1.29v.332h-1v3.332h-1.521v-3.655h-.557v3.655h-.586v-3.655h-.557v3.655h-.689v-3.655h-.557v3.655H590.3v-1.924h-.38v-4.5H588.2v4.5h-.937v-2.776H583.2v3.893l-2.377,1.989v-2.455h-1.032v6.241h-1.9v-4.66h-5.523v2.727h-.489v.513h.489v.395h-.489v.513h.489v2.112h-.5v1.622h-.739V331.5h-.381v-8.1H569.31V312.965h-4.059v2.743h-.781v7.636H564.1v1.486h-.928l-3.6,2.875v.9l-1.83.031.053,21.243,83.788.12Z" transform="translate(-541.636 -294.539)" fill="#f1ec97" fill-rule="evenodd"/><path d="M639.751,564.214v-.9l-3.6-2.875h-.929v-1.486h-.183v-3.524h1.209V552.97h-1.209v-2.833h-1.189v-1.9h-1.377v1.9h-2.566v8.871h-.961V548.784H627v4.436h-2.4V554.7h-1.163v1.354h1.163v1.473h-1.163v.616h1.163v1.48h-.069v.513h.069v.395h-.069v.512h.069v2.11h-2.3v-1.6h-.947V554.7h.583V552.22h-1.24v-2.6h-.263v2.6h-.977V554.7h.977v6.856h-.9v-2.923l-1.546-1.294V554.7h-.712v2.043l-.984-.823V543.7h-.8v-3.615h-.952V543.7H612.1v2.588H611v8.377h-1.975v1.924h-1.171v-3.655H607.3v3.655h-.689v-3.655h-.557v3.655h-.587v-3.655h-.557v3.655h-1.521v-3.332h-1v-.332h-2.268v.357h-.447v-6.306h-3.257v6.306h-2.024V556h-1.916v-.413h-.393v-7.1h-.72v-3.444h-.572v-.366h-2.026V542.9h-2.672v5.617h-.186v7.1h-.378v4.855h-.569V548.784h-4.133v2.038l-3.153-.009V549.2h-2.806v6.757l-1.915.972V554.7h-1.688v3.088l-3.884,1.973v.543H567.1v1.506h-.646v1.417h-.79v-7.8h-4.683v11.6l-3.174-.068-.07,18.644,83.788-.12.053-21.243Z" transform="translate(-541.636 -514.751)" fill="#e3e26f" fill-rule="evenodd"/><path d="M641.511,676.549l-3.267.07v-3.808h-1.008v-11.4h-2.124V650.778h-.9v10.636H633.2v11.4h-.336v-1.417h-.646v-1.506h-.277v-.543l-2.781-1.412V655.96h-1.252V667.3l-1.982-1.007v-6.8h-1.249v6.167l-1.107-.562-.048-4.7-5.419.015v-3.366h-3.571V649.03h-2.994v5.232H608.53v.366h-.572v3.444h-.72v7.1h-.393v.413H604.93v-2.719h-.024v-6.032H603.75v-5.1h-.856v5.1h-3.222v6.032h-.47v-.357h-1.248v-5.464h-.271v-5.307h-.6v5.307h-2.1v9.129h-.573v-3.655h-.557v3.655h-.407v-10.5h-3.822v8.575h-4.8v-5.123h-2.949v7.35l-2.082,1.743v2.923h-2.767v1.6h-1.358v-7.284h-4.405v-3.259h-2.371v-4.527h-6.06V670.29L559.57,672.9v.9l-1.83.031.053,21.244,83.788.12Z" transform="translate(-541.636 -614.996)" fill="#cad150" fill-rule="evenodd"/><path d="M640.015,776.4v-.9l-.1-.08v-6.182h-1.34v5.112l-2.159-1.725h-.929v-1.486H633.9v-.357h-.319v-9.064H620.715v12.024h-.925v-2.923l-4.3-3.6v-.367h-3.123v-4.548h-1.9v-8.264H609.4v8.264h-3.083V746.731h-1.5v15.575h-2.473v2.807h-1.963v.357h-1.291v-9.078H596.68v9.078h-2.024v2.719H592.74v-.413h-.393v-7.1h-.72v-3.444h-.572v-.366h-1.3v-5.4h-3.132v9.242h-.457v7.1h-.378v4.855h-.8V771.04h-1.361v-5.531h-.977l-.058-2.491-3.518-.01v-5.151h-.57v5.15L576.063,763l-.048,4.7-3.378,1.716v-3.73H568.95v-8.243H567.7V763.7h-7.866v15.495l-1.761-.038-.047,12.507h3.127l2.769-.146,1.325-.12,1.084-.362a2.567,2.567,0,0,1,.493-.112l1.041-.13,2.109-.562a2.542,2.542,0,0,1,.271-.057l1.948-.3,6.049-1.059q.089-.015.178-.025l4.4-.456.113-.009,5.164-.3c.05,0,.1,0,.151,0h5.872l11.492-.454c.061,0,.123,0,.184,0l4.7.152,5.311.152c.041,0,.082,0,.123.006l1.974.152.046,0,3.189.3q.09.009.179.023l.7.117h10.722a5.194,5.194,0,0,1,1.013.152h.353a2.567,2.567,0,0,1,1.147.271l.3.152.084.032a2.925,2.925,0,0,1,.347.026l1.063.152a28.993,28.993,0,0,0,1.115.278h.345a2.563,2.563,0,0,1,.811.132l.408.136a13.026,13.026,0,0,0,1.74.63,2.564,2.564,0,0,1,.327.138l.035-14.137Z" transform="translate(-541.9 -704.895)" fill="#afb63b" fill-rule="evenodd"/><path d="M1164.023,305.364l3.842.123.194-82.549q-1.635-.069-3.272-.053-.764,82.478-.764,82.478" transform="translate(-1099.5 -222.883)" fill="#78854e" fill-rule="evenodd"/><path d="M1101.072,305.185l6.415-.483v-81.82q-3.146,0-6.279.313l-.136,81.989" transform="translate(-1041.577 -222.883)" fill="#ccd893" fill-rule="evenodd"/><path d="M1714.582,494.338l4.464,1.853s-.426-21.461-1.277-64.382q-1.626-1.723-3.378-3.319.192,65.849.191,65.849" transform="translate(-1605.914 -412.069)" fill="#9da878" fill-rule="evenodd"/><path d="M1756.82,514.688l-15.682,2.212q-.586-25.643-.506-63.3a62.915,62.915,0,0,1,16.188,61.092" transform="translate(-1630.054 -435.171)" fill="#c9d3a3" fill-rule="evenodd"/><path d="M1799.167,575.991l1.729,1.111s-.082-18.723-.246-56.17l-1.847-2.428.364,57.486" transform="translate(-1683.585 -494.896)" fill="#f5f5d4" fill-rule="evenodd"/><path d="M1884.352,688.236l-5.124,1.44s.019-15.823.056-47.469a62.9,62.9,0,0,1,5.069,46.029" transform="translate(-1757.587 -608.719)" fill="#9da779" fill-rule="evenodd"/><rect width="4.601" height="8.826" transform="translate(120.046 50.457)" fill="#7e875f"/><rect width="4.602" height="8.826" transform="translate(118.9 49.365)" fill="#fff"/><rect width="1.283" height="2.461" transform="translate(120.559 52.547)" fill="#86925f"/><path d="M596.847,494.338l-4.464,1.853s.426-21.461,1.277-64.382q1.626-1.723,3.378-3.319-.191,65.849-.191,65.849" transform="translate(-573.513 -412.069)" fill="#78854e" fill-rule="evenodd"/><path d="M395.928,514.688l15.682,2.212q.586-25.643.505-63.3a62.915,62.915,0,0,0-16.188,61.092" transform="translate(-390.692 -435.171)" fill="#c9d3a3" fill-rule="evenodd"/><path d="M541.784,575.991l-1.729,1.111s.082-18.723.246-56.17l1.847-2.428q-.364,57.486-.364,57.486" transform="translate(-525.364 -494.896)" fill="#f5f5d4" fill-rule="evenodd"/><path d="M395.932,688.236l5.124,1.44s-.019-15.823-.056-47.469a62.9,62.9,0,0,0-5.069,46.029" transform="translate(-390.695 -608.719)" fill="#9da779" fill-rule="evenodd"/><path d="M1478.649,733.3l-6.288,31.889s-1.933-4.232-4.443-14.168a25.022,25.022,0,0,1,.491-12.116,6.614,6.614,0,0,1,10.239-5.6" transform="translate(-1378.641 -691.544)" fill="#92563a" fill-rule="evenodd"/><path d="M1170.365,916.058a4.909,4.909,0,1,1-4.909,4.909,4.909,4.909,0,0,1,4.909-4.909" transform="translate(-1100.819 -860.699)" fill="#5f892e" fill-rule="evenodd"/><path d="M1184.2,886.031a6.083,6.083,0,1,1-6.083,6.083,6.083,6.083,0,0,1,6.083-6.083" transform="translate(-1112.472 -833.07)" fill="#3f5d25" fill-rule="evenodd"/><path d="M1239.568,941.749l4.833,4.466a6.893,6.893,0,0,1-4.19,2.47q-3.272-.731-.643-6.936" transform="translate(-1167.934 -884.338)" fill="#2f441c" fill-rule="evenodd"/><path d="M1506.372,746.428a53.288,53.288,0,0,0,20.064,0q-1.023-4.264.29-16.25,1.726-10.652,1.344-16.7a5.694,5.694,0,0,1-1.7-3.547,7.091,7.091,0,0,0-2.009-4.071c-.732-.821-3.233-1.034-4.34-1.266-1.216-.255-8.5,3.421-9.835,3-2.2.591-5.89,5.163-6.109,10.941-.013,1.745.107,2.769.675,3.245,1.045.939,1.177,3.3.935,6.8l.682,17.843" transform="translate(-1412.398 -666.109)" fill="#202413" fill-rule="evenodd"/><path d="M1552.906,674.29c6.583-.611,7.259,4.671,7.259,4.671.087-1.732-1.034-4.184-1.786-6.147a1.889,1.889,0,0,1-.806-.263l-.2-.12h0a1.887,1.887,0,0,1-.768-.881c-.087-.11-.17-.217-.255-.33a3.282,3.282,0,0,1-.19-.3,76.694,76.694,0,0,1-7.668,1.708,2.829,2.829,0,0,1-1.826,2.5,9.122,9.122,0,0,0-3.243,2.016c-5.644,6.621-.882,8.726,2.393,2.911,1.492-3.055,3.782-5.466,7.092-5.769" transform="translate(-1446.191 -635.142)" fill="#92563a" fill-rule="evenodd"/><path d="M1691.21,673.111l-5.433,2.993a11.943,11.943,0,0,0,6.048-1.143,14.642,14.642,0,0,1-.615-1.851" transform="translate(-1579.586 -637.155)" fill="#76422b" fill-rule="evenodd"/><path d="M1569.024,391.216a9.177,9.177,0,0,0,18.111,2.972q.588-4.548.848-7.008a9.292,9.292,0,0,0-18.148-2.375q-.511,3.62-.811,6.41" transform="translate(-1472.053 -365.883)" fill="#a66a4d" fill-rule="evenodd"/><path d="M1570.91,425.09q7.391,5.529,8.658,3.048c-2.021-.527-2.529-2.071-2.906-4.649a6.13,6.13,0,0,1-2.69-4.115,2.229,2.229,0,1,0-.106-4.183c.226-2.336.782-4.84,1.142-7.227q-3.584-1.051-3.293,3.679a17.738,17.738,0,0,0-.806,13.447" transform="translate(-1473.013 -393.007)" fill="#884f35" fill-rule="evenodd"/><path d="M1546.011,473.964l-.551,5.955q-1.793-.14-2.2-4.642a1.629,1.629,0,0,1,2.753-1.313" transform="translate(-1448.443 -453.494)" fill="#cb8362" fill-rule="evenodd"/><path d="M1557.57,488.232l-.344,3.714q-1.118-.087-1.373-2.9a1.016,1.016,0,0,1,1.717-.819" transform="translate(-1460.034 -466.78)" fill="#a74e2b" fill-rule="evenodd"/><path d="M1792.5,506.228l-.989,5.9q1.769.323,3.315-3.925a1.629,1.629,0,0,0-2.326-1.973" transform="translate(-1676.872 -483.411)" fill="#cb8362" fill-rule="evenodd"/><path d="M1794.029,519.108q-.617,3.679-.617,3.679,1.1.2,2.067-2.448a1.016,1.016,0,0,0-1.45-1.231" transform="translate(-1678.625 -495.333)" fill="#a74e2b" fill-rule="evenodd"/><path d="M1569.468,458.2l.4.056a30.754,30.754,0,0,1,1.307-4.637,4.119,4.119,0,0,0,1.059-1.88q-.981-.928-1.887.273a26.1,26.1,0,0,0-.879,6.188" transform="translate(-1472.565 -433.088)" fill="#5c3726" fill-rule="evenodd"/><path d="M1785.018,481.563c.145.267.342.289.47.181q.412-3.121.848-7.008-1.417-2.067-1.855-.811a3.82,3.82,0,0,0,.8,1.673,48.058,48.058,0,0,1-.267,5.965" transform="translate(-1670.407 -453.439)" fill="#7a4c37" fill-rule="evenodd"/><path d="M1724.819,520.3a2.228,2.228,0,1,1-2.5,1.923,2.229,2.229,0,0,1,2.5-1.923" transform="translate(-1613.195 -496.528)" fill="#884f35" fill-rule="evenodd"/><path d="M1721.517,500.573a2.457,2.457,0,1,1-2.754,2.12,2.458,2.458,0,0,1,2.754-2.12" transform="translate(-1609.919 -478.376)" fill="#fff" fill-rule="evenodd"/><path d="M1733.96,519.4a1.521,1.521,0,1,1-1.7,1.312,1.521,1.521,0,0,1,1.7-1.312" transform="translate(-1622.341 -495.71)" fill="#868686" fill-rule="evenodd"/><path d="M1740.726,526.834a.927.927,0,1,1-1.039.8.927.927,0,0,1,1.039-.8" transform="translate(-1629.183 -502.552)" fill="#040505" fill-rule="evenodd"/><path d="M1760.093,532a.476.476,0,1,1-.534.411.476.476,0,0,1,.534-.411" transform="translate(-1647.472 -507.306)" fill="#fff" fill-rule="evenodd"/><path d="M1596.751,334.441a4.145,4.145,0,0,1,1.855.812q.337-2.113.877-5.037c.849-4.476-2.855-6.926-11.2-8.325a2.526,2.526,0,0,0-2.893,2.826c-2.837.023-4.566,1.313-4.7,4.025q-.151,2.252-.227,4.137a3.082,3.082,0,0,1,1.888-.274,4.892,4.892,0,0,0,.068-2.063.684.684,0,0,1,.416-.888,13.083,13.083,0,0,1,13.987,1.542c.475.372.653.748.442,1.081a3.3,3.3,0,0,0-.507,2.164" transform="translate(-1482.677 -313.956)" fill="#191611" fill-rule="evenodd"/><path d="M1585.812,575.779a13.443,13.443,0,0,0,1.494-.63c3.773-1.841,5.844-4.946,6.484-9.742a.263.263,0,0,0-.517-.081,5.819,5.819,0,0,1-4.63,4c-.462.1-.664.026-.655-.314-.032-1.379-1.1-2.164-3.12-2.325-.2-.005-.253.1-.285.344l-.078.738q-.041.361.225.428c1.873.286,2.31.422,2.23,1.493-.243,2.385-1.83,2.273-3.28,2.056s-3.094-.5-2.656-2.918c.137-.834.678-.946,2.289-.718.222.025.328-.069.34-.253l.09-.963q.038-.275-.172-.3c-1.612-.239-2.669,0-3.221,1.122q-.163.335-.708.135a5.667,5.667,0,0,1-3.34-3.478l-.116.892-.015-.074a1.786,1.786,0,0,1,.027.347l0,.215-.05-.142a1.769,1.769,0,0,1,.078.729c.01.044.02.088.027.133a3.21,3.21,0,0,1,.137.812,1.777,1.777,0,0,1,.054.36q.01.052.016.1.04.082.072.17a1.8,1.8,0,0,1,.206.362,1.948,1.948,0,0,1,.146.331c.021.039.042.079.061.12a1.8,1.8,0,0,1,.124.212l.086.173q.023.045.043.091a1.788,1.788,0,0,1,.357.543q.034.06.064.122.025.032.048.065c.044.053.086.109.128.164a1.769,1.769,0,0,1,.251.421,1.871,1.871,0,0,1,.142.318c.02.04.041.081.06.121l.028.037a1.766,1.766,0,0,1,.28.5l.027.035a1.779,1.779,0,0,1,.31.629l.006.013c.025.044.048.089.07.136a1.781,1.781,0,0,1,.209.417l.012.035a1.734,1.734,0,0,1,.084.173,1.759,1.759,0,0,1,.094.19,1.789,1.789,0,0,1,.126.272l.056.072a1.519,1.519,0,0,0,.454.663,1.793,1.793,0,0,1,.232.231l.146.019a1.781,1.781,0,0,1,.628.2l.379.149a1.773,1.773,0,0,1,.458.252l.348.045a2.36,2.36,0,0,0,1.617.329l.583.076a1.781,1.781,0,0,1,.443.117l.424.055a1.773,1.773,0,0,1,.552.166" transform="translate(-1478.709 -537.101)" fill="#191611" fill-rule="evenodd"/><path d="M1650.719,523.019q2.674-7.268,3.222.445a1.021,1.021,0,0,1-.179,2,2.262,2.262,0,0,1-3.067-.328,1.067,1.067,0,0,1,.024-2.115" transform="translate(-1546.462 -495.804)" fill="#703820" fill-rule="evenodd"/><path d="M1604.307,474.676a2.457,2.457,0,1,1-2.754,2.12,2.457,2.457,0,0,1,2.754-2.12" transform="translate(-1502.068 -454.548)" fill="#fff" fill-rule="evenodd"/><path d="M1616.75,493.5a1.521,1.521,0,1,1-1.7,1.312,1.521,1.521,0,0,1,1.7-1.312" transform="translate(-1514.491 -471.88)" fill="#868686" fill-rule="evenodd"/><path d="M1623.516,500.936a.927.927,0,1,1-1.039.8.927.927,0,0,1,1.039-.8" transform="translate(-1521.334 -478.723)" fill="#040505" fill-rule="evenodd"/><path d="M1642.883,506.1a.476.476,0,1,1-.534.411.476.476,0,0,1,.534-.411" transform="translate(-1539.623 -483.477)" fill="#fff" fill-rule="evenodd"/><path d="M1597.96,448.383a.276.276,0,0,1-.465-.3q1.7-3.372,6.062.031a.812.812,0,0,1-1.024,1.251q-3.2-2.847-4.573-.986" transform="translate(-1498.317 -428.557)" fill="#191611" fill-rule="evenodd"/><path d="M1716.15,492.53a.276.276,0,0,0,.473-.283q-1.61-3.418-6.061-.138a.812.812,0,0,0,.989,1.279q3.274-2.756,4.6-.858" transform="translate(-1602.151 -469.13)" fill="#191611" fill-rule="evenodd"/><path d="M1737.036,431.1c.85.257,1.43.824,1.3,1.266s-.931.592-1.781.335-1.43-.824-1.3-1.266.931-.592,1.781-.335" transform="translate(-1625.094 -414.354)" fill="#c18163" fill-rule="evenodd"/><path d="M1663.947,565.446c.261.034.426.416.37.854s-.315.765-.575.731-.427-.416-.37-.854.315-.765.575-.731" transform="translate(-1558.959 -538.086)" fill="#905134" fill-rule="evenodd"/><path d="M1659.15,331.271a3.113,3.113,0,0,0-.032,2.693,3.037,3.037,0,0,1,1.07-4.9,3.148,3.148,0,0,0-.161,3.145,2.294,2.294,0,0,1,.63-2.216,2.876,2.876,0,0,0,.533,2.546,2.065,2.065,0,0,1,.57-1.881,2.817,2.817,0,0,0,.742,2.817,2.561,2.561,0,0,1-.986-1.071,2.364,2.364,0,0,0,.206,1.226,3.058,3.058,0,0,1-1.32-1.8,2.051,2.051,0,0,0,.183,1.557,2.8,2.8,0,0,1-1.435-2.116" transform="translate(-1554.292 -320.582)" fill="#584c3c" fill-rule="evenodd"/><path d="M1577.453,549.338a14.178,14.178,0,0,0,2.947-1.432q-8.056,2.744-10.443-7.311a5.667,5.667,0,0,1-2.22-4.8.206.206,0,0,0-.393-.072,24.922,24.922,0,0,0-.113,4.967,9.144,9.144,0,0,0,1.312,4.036,15.364,15.364,0,0,0,3.878,4.034,5.244,5.244,0,0,0,5.033.575" transform="translate(-1470.434 -510.631)" fill="#0f0e0d" fill-rule="evenodd"/><path d="M1709.965,359.737a1.879,1.879,0,0,0-.019,1.625,1.832,1.832,0,0,1,.646-2.958,1.9,1.9,0,0,0-.1,1.9,1.384,1.384,0,0,1,.38-1.337,1.734,1.734,0,0,0,.321,1.536,1.246,1.246,0,0,1,.344-1.135,1.7,1.7,0,0,0,.448,1.7,1.545,1.545,0,0,1-.595-.646,1.425,1.425,0,0,0,.124.74,1.844,1.844,0,0,1-.8-1.085,1.236,1.236,0,0,0,.111.939,1.687,1.687,0,0,1-.866-1.276" transform="translate(-1601.363 -347.581)" fill="#584c3c" fill-rule="evenodd"/><path d="M1670.488,626.36c.511.049.871.4.8.773a.92.92,0,0,1-1.045.6c-.511-.049-.871-.4-.8-.773a.92.92,0,0,1,1.046-.6" transform="translate(-1564.548 -594.132)" fill="#441b0e" fill-rule="evenodd"/><path d="M1766.506,446.173c.107.51.429.765.429,1.02s-.107.51-.429.51-.429-.255-.429-.51.322-.51.429-1.02" transform="translate(-1653.473 -428.34)" fill="#fff"/><path d="M1526.969,876.147a7.322,7.322,0,0,0,2.193,3.457c7.928,6.827,11.279,3.821,13.332-1.053a105.972,105.972,0,0,1,5.341-12.086,91.233,91.233,0,0,0,.982-10.767L1530,875.235l-2.245.491-.789.42m.1-8.673q5.122,2.232,3.726-6.836-1.948,3.58-4.24.8Q1527.282,862.958,1527.074,867.474Z" transform="translate(-1433.084 -805.16)" fill="#11120e" fill-rule="evenodd"/><path d="M1256.512,737.037l3.467,5.269c3.19,1.405,6.041,2.228,8.472,2.048q5.114-.4,7.1.873c.753.52,1.207-.013,1.094-1.24-.328-3.989.521-7.443,3.431-10.2a2.038,2.038,0,0,0,.483-1.712,7.975,7.975,0,1,1,13.473,4.716,2.049,2.049,0,0,0-.591,1.691q.63,7.2-5.7,13.78a3.331,3.331,0,0,0-1.017,1.641c-.521,2.36-1.187,3.054-3.836,2.941-6.211-.38-11.341-3.2-16.326-5.625a48.052,48.052,0,0,1-8.613-4.978,4.029,4.029,0,0,0-2.086-.808c-2.54-.239-3.822-.9-3.952-2.054-.442-3.158.6-5.394,1.576-5.645l3.025-.7" transform="translate(-1180.273 -683.149)" fill="#a66a4d" fill-rule="evenodd"/><path d="M1305.645,821.822a6.479,6.479,0,1,1-6.479,6.479,6.479,6.479,0,0,1,6.479-6.479" transform="translate(-1223.85 -773.989)" fill="#3f5d25" fill-rule="evenodd"/><path d="M1330.758,818.277a5.768,5.768,0,1,1-5.768,5.768,5.768,5.768,0,0,1,5.768-5.768" transform="translate(-1247.612 -770.727)" fill="#5f892e" fill-rule="evenodd"/><path d="M1376.246,859.8a2.32,2.32,0,1,1-2.321,2.321,2.32,2.32,0,0,1,2.321-2.321" transform="translate(-1292.639 -808.932)" fill="#97c026" fill-rule="evenodd"/><path d="M1396.381,863.3l-.053.026h0a1.04,1.04,0,1,1-.611-1.971h0l2.642-1.173,1.3,1.539q-1.353.622-3.276,1.577" transform="translate(-1311.895 -809.286)" fill="#2e441c" fill-rule="evenodd"/><path d="M1582.923,748.108a7.925,7.925,0,0,0-7.093.764,7.54,7.54,0,0,0-3.282,6.334,10.652,10.652,0,0,1,3.366-9.29,3.013,3.013,0,0,0,.7-2.292,6.727,6.727,0,0,1,4.646-7.442,7.582,7.582,0,0,1,5.523.325,5.855,5.855,0,0,0-3.565,10.885c1.346.832,1.078,1.147-.3.715" transform="translate(-1475.311 -694.846)" fill="#80472e" fill-rule="evenodd"/><path d="M1366.411,1024.346c-6.575-.507-14.454-3.049-23.43-7.986q14.671,8.774,23.436,9.511,3.157.225,3.438-1.937a3.021,3.021,0,0,1,.841-1.883,3.255,3.255,0,0,0-1.933,1.489c-.459.854-1.064.909-2.351.806" transform="translate(-1264.166 -952.991)" fill="#80472e" fill-rule="evenodd"/><path d="M1759.431,789.476a2.016,2.016,0,1,1-1.5,1.949,1.769,1.769,0,0,1,1.5-1.949" transform="translate(-1645.977 -744.226)" fill="#bd8268" fill-rule="evenodd"/><path d="M1734.572,937.526c.474,0,.8.617.721,1.377s-.522,1.377-1,1.377-.8-.617-.721-1.377.522-1.377,1-1.377" transform="translate(-1623.556 -880.453)" fill="#bd8268" fill-rule="evenodd"/><path d="M1437.391,854.686a1.04,1.04,0,1,1-1.04,1.04,1.04,1.04,0,0,1,1.04-1.04" transform="translate(-1350.079 -804.229)" fill="#97c026" fill-rule="evenodd"/><path d="M875.723,1110.123h.822a.524.524,0,0,1,.522.522v2.814a.524.524,0,0,1-.522.522h-.822a.524.524,0,0,1-.522-.522v-2.814a.524.524,0,0,1,.522-.522" transform="translate(-833.744 -1039.266)" fill="#5f892e" fill-rule="evenodd"/><path d="M1202.6,1110.123h-.822a.524.524,0,0,0-.522.522v2.814a.524.524,0,0,0,.522.522h.822a.524.524,0,0,0,.522-.522v-2.814a.524.524,0,0,0-.522-.522" transform="translate(-1133.759 -1039.266)" fill="#5f892e" fill-rule="evenodd"/><path d="M884.267,1102.727h.93a.592.592,0,0,1,.591.591v3.858a.592.592,0,0,1-.591.591h-.93a.592.592,0,0,1-.591-.591v-3.858a.592.592,0,0,1,.591-.591" transform="translate(-841.542 -1032.46)" fill="#3f5d25" fill-rule="evenodd"/><path d="M1191.234,1102.727h-.93a.592.592,0,0,0-.591.591v3.858a.592.592,0,0,0,.591.591h.93a.592.592,0,0,0,.59-.591v-3.858a.592.592,0,0,0-.59-.591" transform="translate(-1123.139 -1032.46)" fill="#3f5d25" fill-rule="evenodd"/><path d="M899.8,1059.264a.671.671,0,0,1-.12.011c-1.189,0-2.154-3.194-2.154-7.133s.964-7.133,2.154-7.133l3.3.015q.107,14.252.107,14.252l-3.283-.011Z" transform="translate(-854.285 -979.351)" fill="#5f892e" fill-rule="evenodd"/><path d="M1137.142,1059.264a.67.67,0,0,0,.12.011c1.189,0,2.154-3.194,2.154-7.133s-.964-7.133-2.154-7.133l-3.3.015q-.107,14.252-.107,14.252l3.283-.011Z" transform="translate(-1071.745 -979.351)" fill="#5f892e" fill-rule="evenodd"/><path d="M947.881,1045.008c.921,0,1.668,3.194,1.668,7.133s-.747,7.133-1.668,7.133-1.668-3.194-1.668-7.133.747-7.133,1.668-7.133" transform="translate(-899.085 -979.351)" fill="#3f5d25" fill-rule="evenodd"/><path d="M957.857,1069.018c.459,0,.83,2.237.83,5s-.372,5-.83,5-.83-2.237-.83-5,.372-5,.83-5" transform="translate(-909.035 -1001.443)" fill="#97c026" fill-rule="evenodd"/><path d="M1114.638,1045.008c-.921,0-1.668,3.194-1.668,7.133s.747,7.133,1.668,7.133,1.668-3.194,1.668-7.133-.747-7.133-1.668-7.133" transform="translate(-1052.524 -979.351)" fill="#3f5d25" fill-rule="evenodd"/><path d="M1123.973,1069.018c-.459,0-.83,2.237-.83,5s.372,5,.83,5,.83-2.237.83-5-.372-5-.83-5" transform="translate(-1061.885 -1001.443)" fill="#97c026" fill-rule="evenodd"/><path d="M962.613,1108.9H975.87a5.235,5.235,0,0,1,0,4H962.613a6.517,6.517,0,0,1,0-4" transform="translate(-913.886 -1038.144)" fill="#5f892e" fill-rule="evenodd"/><rect width="4.602" height="8.826" transform="translate(7.355 50.457)" fill="#7e875f"/><rect width="4.602" height="8.826" transform="translate(8.5 49.365)" fill="#fff"/><rect width="1.283" height="2.461" transform="translate(10.16 52.547)" fill="#86925f"/><path d="M489.01,1217.083H595.087a4.62,4.62,0,0,1,4.607,4.607v.372a4.62,4.62,0,0,1-4.607,4.607H489.01a4.621,4.621,0,0,1-4.607-4.607v-.372a4.62,4.62,0,0,1,4.607-4.607" transform="translate(-474.156 -1137.683)" fill="#434b2b" fill-rule="evenodd"/><path d="M381.37,1212.132H504.617a2.473,2.473,0,0,1,2.466,2.466v.2a2.473,2.473,0,0,1-2.466,2.466H381.37a2.473,2.473,0,0,1-2.466-2.466v-.2a2.473,2.473,0,0,1,2.466-2.466" transform="translate(-377.083 -1133.128)" fill="#6e7a45" fill-rule="evenodd"/><path d="M609.724,1212.132h61.655a2.473,2.473,0,0,1,2.466,2.466v.2a2.473,2.473,0,0,1-2.466,2.466H609.724a2.473,2.473,0,0,1-2.466-2.466v-.2a2.473,2.473,0,0,1,2.466-2.466" transform="translate(-587.2 -1133.128)" fill="#5a6634" fill-rule="evenodd"/><path d="M1485.7,1212.132h24.121a2.473,2.473,0,0,1,2.466,2.466v.2a2.473,2.473,0,0,1-2.466,2.466H1485.7a2.473,2.473,0,0,1-2.466-2.466v-.2a2.473,2.473,0,0,1,2.466-2.466" transform="translate(-1393.214 -1133.128)" fill="#849256" fill-rule="evenodd"/><path d="M846.819,391.947l1.507,2.885,1.291-3-1.367,1.5Z" transform="translate(-807.629 -378.341)" fill="#8c8751" fill-rule="evenodd"/><path d="M768.733,466.22l1.162,2.226,1-2.313-1.055,1.156Z" transform="translate(-735.779 -446.706)" fill="#8c8751" fill-rule="evenodd"/><path d="M1032.862,409.1l.872,1.669.747-1.735-.791.867Z" transform="translate(-978.814 -394.168)" fill="#8c8751" fill-rule="evenodd"/><path d="M1214.19,1181.088a1.492,1.492,0,1,1-1.492,1.492,1.492,1.492,0,0,1,1.492-1.492" transform="translate(-1144.288 -1104.563)" fill="#fff" fill-rule="evenodd"/><path d="M1155.039,1155.527a.984.984,0,1,1-.984.984.984.984,0,0,1,.984-.984" transform="translate(-1090.328 -1081.043)" fill="#fff" fill-rule="evenodd"/><path d="M1279.466,1120.964a.984.984,0,1,1-.984.984.984.984,0,0,1,.984-.984" transform="translate(-1204.818 -1049.241)" fill="#fff" fill-rule="evenodd"/><path d="M1322.484,1182.478a.84.84,0,1,1-.84.84.84.84,0,0,1,.84-.84" transform="translate(-1244.533 -1105.842)" fill="#fff" fill-rule="evenodd"/><path d="M1491.876,1165.52a1.659,1.659,0,1,1-1.659,1.659,1.659,1.659,0,0,1,1.659-1.659" transform="translate(-1399.643 -1090.238)" fill="#fff" fill-rule="evenodd"/><path d="M1402.264,1125.33a1.336,1.336,0,1,1-1.336,1.336,1.336,1.336,0,0,1,1.336-1.336" transform="translate(-1317.485 -1053.258)" fill="#fff" fill-rule="evenodd"/><path d="M1302.632,1075.273a.817.817,0,1,1-.817.817.817.817,0,0,1,.817-.817" transform="translate(-1226.288 -1007.199)" fill="#fff" fill-rule="evenodd"/><path d="M1366.772,1078.576a.616.616,0,1,1-.616.616.616.616,0,0,1,.616-.616" transform="translate(-1285.49 -1010.238)" fill="#fff" fill-rule="evenodd"/><path d="M1256.834,1070.982a.5.5,0,1,1-.5.5.5.5,0,0,1,.5-.5" transform="translate(-1184.438 -1003.251)" fill="#fff" fill-rule="evenodd"/><path d="M1185.275,1042.417a.5.5,0,1,1-.5.5.5.5,0,0,1,.5-.5" transform="translate(-1118.594 -976.967)" fill="#fff" fill-rule="evenodd"/><path d="M1587.556,1203.129a.992.992,0,1,1-.992.992.992.992,0,0,1,.992-.992" transform="translate(-1488.296 -1124.844)" fill="#fff" fill-rule="evenodd"/><path d="M1516.124,1087.253a.828.828,0,1,1-.829.828.828.828,0,0,1,.829-.828" transform="translate(-1422.719 -1018.222)" fill="#fff" fill-rule="evenodd"/><path d="M1034.316,1219.9a.668.668,0,1,1-.668.668.668.668,0,0,1,.668-.668" transform="translate(-979.537 -1140.279)" fill="#fff" fill-rule="evenodd"/><path d="M1056.156,1166.826a.668.668,0,1,1-.668.668.668.668,0,0,1,.668-.668" transform="translate(-999.633 -1091.44)" fill="#fff" fill-rule="evenodd"/><path d="M947.666,1140.828a.668.668,0,1,1-.668.668.668.668,0,0,1,.668-.668" transform="translate(-899.807 -1067.518)" fill="#fff" fill-rule="evenodd"/><path d="M1495.106,1009.272a.652.652,0,1,1-.652.652.652.652,0,0,1,.652-.652" transform="translate(-1403.542 -946.469)" fill="#fff" fill-rule="evenodd"/><path d="M1281.114,1012.874a.326.326,0,1,1-.326.326.326.326,0,0,1,.326-.326" transform="translate(-1206.94 -949.783)" fill="#fff" fill-rule="evenodd"/><path d="M996.909,1008.3a.693.693,0,1,1-.693.693.693.693,0,0,1,.693-.693" transform="translate(-945.095 -945.574)" fill="#fff" fill-rule="evenodd"/><path d="M860.543,1000.328a.57.57,0,1,1-.57.57.57.57,0,0,1,.57-.57" transform="translate(-819.732 -938.239)" fill="#fff" fill-rule="evenodd"/><path d="M979.627,916.464a.541.541,0,1,1-.541.541.541.541,0,0,1,.541-.541" transform="translate(-929.333 -861.073)" fill="#fff" fill-rule="evenodd"/><path d="M1058.168,951.755a.271.271,0,1,1-.271.271.271.271,0,0,1,.271-.271" transform="translate(-1001.85 -893.545)" fill="#fff" fill-rule="evenodd"/><path d="M909.643,893a.271.271,0,1,1-.271.271.271.271,0,0,1,.271-.271" transform="translate(-865.186 -839.481)" fill="#fff" fill-rule="evenodd"/><path d="M807.9,1011.2a.57.57,0,1,1-.57.57.57.57,0,0,1,.57-.57" transform="translate(-771.296 -948.244)" fill="#fff" fill-rule="evenodd"/><path d="M727.636,919.795a.554.554,0,1,1-.554.554.554.554,0,0,1,.554-.554" transform="translate(-697.454 -864.138)" fill="#fff" fill-rule="evenodd"/><path d="M764.218,1125.114a.693.693,0,1,1-.693.693.692.692,0,0,1,.693-.693" transform="translate(-730.987 -1053.059)" fill="#fff" fill-rule="evenodd"/><path d="M357.807,517.815c2.167-3.855,5.557-6.061,7.573-4.928s1.893,5.176-.273,9.031-5.557,6.061-7.573,4.928-1.893-5.176.273-9.031" transform="translate(-356.099 -489.453)" fill="#c9d3a3" fill-rule="evenodd"/><path d="M358.17,450.79c1.528-1.6,3.444-2.245,4.28-1.446s.274,2.742-1.254,4.34-3.444,2.246-4.28,1.446-.274-2.742,1.254-4.34" transform="translate(-356.494 -430.943)" fill="#c9d3a3" fill-rule="evenodd"/></svg>