<svg xmlns="http://www.w3.org/2000/svg" width="122.906" height="111.324" viewBox="0 0 122.906 111.324"><g transform="translate(-69.429 -70.528)"><path d="M173.351,142.735c-.659-20.579-18.815-37.073-41.119-37.073-14.575,0-27.378,7.045-34.685,17.669h0q-3.377,4.719-10.521,8.124-.655.279-1.293.592l-.041.018h0c-9.592,4.728-16.265,15.219-16.265,27.4a32.438,32.438,0,0,0,1.213,8.827,17.944,17.944,0,0,1,9.3,7.424q.106.105.211.212.579.564,1.106,1.178.562.482,1.082,1.009a17.938,17.938,0,0,1,1.491,1.2,17.984,17.984,0,0,1,1.952,1.6l.293.123a17.79,17.79,0,0,1,2.553.821,17.767,17.767,0,0,1,4.045,1.324,17.774,17.774,0,0,1,2.89,1.115,17.754,17.754,0,0,1,2.973,1.021l.017-.008-2.422-1.211h6.188a17.785,17.785,0,0,1,2.817-.543,17.81,17.81,0,0,1,2.5-.375,17.807,17.807,0,0,1,2.288-.325,17.882,17.882,0,0,1,3.63-.372h10.017a17.853,17.853,0,0,1,6.157,1.088q.32.1.634.2a17.854,17.854,0,0,1,6.154,1.089q.428.13.848.28a17.767,17.767,0,0,1,4.384,1.566,17.82,17.82,0,0,1,2.327,1,17.792,17.792,0,0,1,3.688,1.538,17.788,17.788,0,0,1,2.452,1.047,17.794,17.794,0,0,1,2.567.966,17.807,17.807,0,0,1,2.316.651l1.56.52c.595.1,1.167.24,1.753.387H162.2a17.947,17.947,0,0,1,2.782-.315,17.791,17.791,0,0,1,1.9-.422q.535-.206,1.08-.378l.687-.229c.544-.181,1.086-.37,1.637-.53q.441-.206.888-.387a17.764,17.764,0,0,1,2.593-1.3,17.887,17.887,0,0,1,3.463-1.615q.28-.157.566-.3.513-.385,1.046-.728l.341-.227a17.992,17.992,0,0,1,1.571-1.255l.156-.17a25.514,25.514,0,0,1,9.361-9.669l1.026-.513a27.089,27.089,0,0,0-6.885-11.38h0l-.019-.017q-.713-.713-1.48-1.383-9.143-8.917-9.561-19.28Z" transform="translate(0 -28.136)" fill="#faf5d7" fill-rule="evenodd"/><path d="M285.2,298.3a10.544,10.544,0,1,1-10.544,10.543A10.544,10.544,0,0,1,285.2,298.3" transform="translate(-164.349 -182.403)" fill="#fff" fill-rule="evenodd"/><path d="M142.7,374.543c4.683,8.4,12.631,13.061,20.845,12.228s15.444-7.034,18.962-16.263q-.432-6.342-7.737-4.645-4.659.873-8.393-6.822-4.05-8.982-23.677,15.5" transform="translate(-58.674 -229.12)" fill="#f2f5bc" fill-rule="evenodd"/><path d="M334.173,375.644c-3.939,8.153-10.626,12.68-17.536,11.872s-12.992-6.829-15.951-15.79q.363-6.157,6.508-4.509,3.919.848,7.06-6.623,3.407-8.721,19.918,15.051" transform="translate(-185.198 -230.419)" fill="#f2f5bc" fill-rule="evenodd"/><path d="M334.255,170.383l-1.217-.743,1.448,1.546.322-2.047-.553,1.244" transform="translate(-211.106 -78.971)" fill="#d9c562" fill-rule="evenodd"/><path d="M213.884,369.129c4.513,5.706,12.173,8.873,20.09,8.308s14.885-4.779,18.275-11.049q-.416-4.309-7.457-3.156-4.49.593-8.089-4.635c-1.475-2.307-5.9-5.746-9.779.725-1.961,3.271-2.564,7.608-13.041,9.807" transform="translate(-115.684 -228.29)" fill="#dfe391" fill-rule="evenodd"/><path d="M191.464,384.6l-76.112,7.734L70.5,376.93a32.317,32.317,0,0,1-.865-6,2.435,2.435,0,0,1,4.016,1.983,4.187,4.187,0,0,1,7.672,2.485,4.5,4.5,0,0,1,5.835-1.191l8.953.8a4.527,4.527,0,0,1,7.473,4.68,4.587,4.587,0,0,1,7.628,4.1,4.291,4.291,0,0,1,6.607,1.063,3.134,3.134,0,0,1,5.291-.954,2.673,2.673,0,0,1,4.788-.052,3.663,3.663,0,0,1,5.968-3.678,3.528,3.528,0,0,1,4.441-5.2,3.321,3.321,0,1,1,5.485-3.747,3.609,3.609,0,0,1,6.847-1.564l18.252,6.231A3.739,3.739,0,0,1,175.38,377a3.063,3.063,0,0,1,5.735,1.188,3.922,3.922,0,0,1,6-2.066,26.43,26.43,0,0,1,4.344,8.475" transform="translate(-0.167 -237.939)" fill="#becc64" fill-rule="evenodd"/><path d="M256.969,197.511l6.606,0s.241-24.09.723-72.27c-1.105.492-2.2,1.084-3.261,1.664q-3.146,71.592-4.068,70.6" transform="translate(-150.188 -43.82)" fill="#918a3a" fill-rule="evenodd"/><path d="M76.451,408.268Q99.2,422.285,138.7,414.64l15.172-13.23q1.776,1.278.236-2.786a4.644,4.644,0,0,0-8.466,3.231A2.127,2.127,0,0,0,142.6,403.6a3.235,3.235,0,0,0-5.305,3.557,2.4,2.4,0,0,0-3.6,2.978,2.443,2.443,0,0,0-4.35,1.592,2.485,2.485,0,0,0-4.537-.233,2.638,2.638,0,1,0-5.274.045,2.321,2.321,0,0,0-4.265,1.034,2.092,2.092,0,0,0-3.722-.451,2.421,2.421,0,0,0-4.053-1.9,3.473,3.473,0,0,0-4.434-3.146L88.85,403.808a2.306,2.306,0,0,0-3.2.355,3.033,3.033,0,0,0-4.378-1.972,3.107,3.107,0,0,0-4.5-2.209,2.083,2.083,0,0,0-3.766-.745,31.38,31.38,0,0,0,3.437,9.032" transform="translate(-2.871 -261.087)" fill="#a1b54b" fill-rule="evenodd"/><path d="M281.432,432.762a27.4,27.4,0,0,1,2.307,1.608l41.575-5.232q18.415-1.459,23.8-5.131a25.1,25.1,0,0,0-1.624-5.885,2.245,2.245,0,0,0-3.678,1.392,2.488,2.488,0,0,0-4.3.158,2.882,2.882,0,0,0-5.01-2.406,3.02,3.02,0,0,0-5.68.039,3.16,3.16,0,0,0-5.779.9,3.973,3.973,0,0,0-7.4-.7q-7.38-3.55-7.71-3.284a3.317,3.317,0,0,0-6.179,2.093,2.162,2.162,0,0,0-2.477,2.96,3.037,3.037,0,0,0-3.916,2.482,2.408,2.408,0,0,0-3.712,2.816,1.948,1.948,0,0,0-2.9,1.613,2.547,2.547,0,0,0-4.012,2.316,3.1,3.1,0,0,0-5.958.933,2.553,2.553,0,0,0-5.015-.414,1.706,1.706,0,0,0-2.947.207,2.965,2.965,0,0,0-5.283-.075l2.876,2.355a15.248,15.248,0,0,1,13.018,1.259" transform="translate(-157.05 -273.877)" fill="#7a9931" fill-rule="evenodd"/><path d="M97.932,456.5q17.594,3.495,24.747,1.585a23.611,23.611,0,0,1,3.7-1.483,2.383,2.383,0,0,0-3.849-1.9A2.03,2.03,0,0,0,119.5,453a2.79,2.79,0,0,0-4.568-1.266l-13.845-3.373A2.41,2.41,0,0,0,97,447.119a3.248,3.248,0,0,0-5.207-1.716,2.208,2.208,0,0,0-4.085-.061A29.227,29.227,0,0,0,97.932,456.5" transform="translate(-14.639 -299.09)" fill="#57802c" fill-rule="evenodd"/><path d="M124.322,474.5l-3.638,4.693a30.493,30.493,0,0,1-3.231-2.544l-.418-1.238a2,2,0,0,1,3.383-1.041,2.024,2.024,0,0,1,3.9.13" transform="translate(-38.125 -322.262)" fill="#3e6316" fill-rule="evenodd"/><path d="M532.612,445.276a25.064,25.064,0,0,1,.306,6l-22.206,3.746-13.806-7.573-2.116-7.086a2.883,2.883,0,0,1,4.467,3.019,2,2,0,1,1,3.787,1.288l3.84,2.876a2.575,2.575,0,0,1,4.459.271A2.242,2.242,0,0,1,514.6,445.7a3.155,3.155,0,1,1,6.31-.065,2.352,2.352,0,0,1,4.279,1.474,2.154,2.154,0,0,1,3.964-.356,1.964,1.964,0,0,1,3.46-1.475" transform="translate(-340.643 -295.75)" fill="#57802c" fill-rule="evenodd"/><path d="M409.675,448.773q-15.489,13.216-42.79,6.728a4.025,4.025,0,0,0-1.853-6.956,15.759,15.759,0,0,1-20.764,3.475,18.436,18.436,0,0,0-3.147-2.072,1.872,1.872,0,0,1,3.454.726,2.1,2.1,0,0,1,3.393-.7,1.961,1.961,0,0,1,3.077-1.435,2.621,2.621,0,0,1,4.442-1.508,2.393,2.393,0,0,1,2.9-2.859,2.228,2.228,0,0,1,1.961-3.638,1.481,1.481,0,0,1,2.541-1.509,1.685,1.685,0,0,1,1.719-2.606,1.787,1.787,0,0,1,3.165-1.213,3.156,3.156,0,0,1-.218,4.928,2.45,2.45,0,0,1-.2.924q-.629.732,7.066.519a1.742,1.742,0,0,1,2.885,1.954,1.657,1.657,0,0,1,2.513,1.675l4.162,2.369a1.711,1.711,0,0,1,3.177.745,2.1,2.1,0,0,1,3.673-.943,1.689,1.689,0,0,1,2.339-1.879,2.089,2.089,0,0,1,4.12-.39,2.351,2.351,0,0,1,4.294,1.691,1.514,1.514,0,0,1,2.6.26,1.862,1.862,0,0,1,3.543-.759,1.218,1.218,0,0,1,2.185-.987,24.983,24.983,0,0,1-.239,3.456" transform="translate(-217.579 -291.527)" fill="#40611d" fill-rule="evenodd"/><path d="M431.449,476.656q11.265-.589,6.621-8.872a2.057,2.057,0,0,0-3.5,2.054A1.37,1.37,0,0,0,433,471.874a2.714,2.714,0,0,0-1.55,4.782" transform="translate(-289.143 -317.543)" fill="#192e02" fill-rule="evenodd"/><path d="M582.906,511.166a12.907,12.907,0,0,0,15.333-7.706,2.577,2.577,0,0,0-3.693.371,1.987,1.987,0,0,0-3.672,1.474,1.626,1.626,0,0,0-2.15,1.817,1.494,1.494,0,0,0-2.34,1.544,2.226,2.226,0,0,0-3.478,2.5" transform="translate(-411.102 -346.138)" fill="#192e02" fill-rule="evenodd"/><path d="M369.163,501.857q37.394,6.433,46.7-3.469a25.377,25.377,0,0,0,3.071-9.5,10,10,0,0,0-9.048,3.143,13.494,13.494,0,0,1-19.813-.4A13.655,13.655,0,0,0,379.5,485.47c-4.3-.269-7.961,1.527-11.261,4.791a12.6,12.6,0,0,1-15.653,1.848,26.852,26.852,0,0,1,5.492,5.549q4.665,6.132,11.09,4.2" transform="translate(-226.758 -332.277)" fill="#96810c" fill-rule="evenodd"/><path d="M148.356,153.018a22.944,22.944,0,0,1-6.954,6.357l-8.766,55.273a25.967,25.967,0,0,0,18.347,4.664l7.464-76.236a39.794,39.794,0,0,0-10.09,9.943" transform="translate(-50.618 -58.098)" fill="#575220" fill-rule="evenodd"/><path d="M96.069,287.042a29.347,29.347,0,0,0,4.93,5.643l4.323-49.836a27.592,27.592,0,0,0-3.6,2.518l-5.654,41.675" transform="translate(-21.334 -138)" fill="#5c5721" fill-rule="evenodd"/><path d="M492.358,498.028l-3.4.728-8.616-8.325,1.275-1.024,5.534,6.518-6.084-8.959,2.872-1.038,4.747,9.768-4.11-11.559,2.715-.474,1.994,9.3-.854-10.3,3.729.673-1.562,11.9,3.2-11.286,2.626,1.226L492.3,495.307l4.777-8.876,2.127,1.177-6.842,10.42" transform="translate(-329.069 -330.049)" fill="#363609" fill-rule="evenodd"/><path d="M382.752,544.435q16.843,8.462,41.4,1.879a28.919,28.919,0,0,0,9.764-11.088,17.7,17.7,0,0,1-20.532,1.1,21.343,21.343,0,0,0-23.96.707,11.135,11.135,0,0,1-15.1-2.755,36.3,36.3,0,0,1,2.248,2.972,28.6,28.6,0,0,0,6.185,7.19" transform="translate(-244.165 -370.349)" fill="#b59f21" fill-rule="evenodd"/><path d="M558.1,533.292l3.294,1.526,10.687-6.483L571.024,527l-7.134,5.355,8.256-7.711-2.682-1.718-7.083,8.843,6.848-10.812-2.653-1.109-4.174,9,3.245-10.285-3.95-.176s-.385,4.157-1.157,12.472l-.654-12.221-2.955.641,1.862,11.257-2.812-10.133-2.436.707,4.557,12.18" transform="translate(-387.696 -358.661)" fill="#574a00" fill-rule="evenodd"/><path d="M420.323,589.375a35.2,35.2,0,0,0,33.165-3.749,25.675,25.675,0,0,0-21.985-1.113A24.269,24.269,0,0,1,410.252,583a31.93,31.93,0,0,0,10.071,6.371" transform="translate(-272.941 -410.052)" fill="#ded462" fill-rule="evenodd"/><path d="M413.4,530.306l-3.2,1.968-11.764-5.36.927-1.5,7.978,4.633-9.417-6.917,2.546-2.091,8.349,8.222-8.347-10.274,2.59-1.461,5.381,8.739L403.867,516.1l4.035-.66,2.7,12.67s-.271-4.21-.813-12.632l3.113.3-.544,11.788,1.657-10.749,2.588.43-3.2,13.064" transform="translate(-263.074 -356.295)" fill="#574a00" fill-rule="evenodd"/><path d="M420.883,324.05h1.23a.9.9,0,0,1,.895.894v12.088a.9.9,0,0,1-.895.894h-1.23a.9.9,0,0,1-.894-.894V324.944a.9.9,0,0,1,.894-.894" transform="translate(-280.739 -203.028)" fill="#757536" fill-rule="evenodd"/><path d="M387.2,204.261h6a8.514,8.514,0,0,1,8.489,8.49v11.855a8.514,8.514,0,0,1-8.489,8.49h-6a8.514,8.514,0,0,1-8.49-8.49V212.751a8.514,8.514,0,0,1,8.49-8.49" transform="translate(-247.68 -107.098)" fill="#3b3b18" fill-rule="evenodd"/><path d="M391.347,217.076l4.086,24.392a7.015,7.015,0,0,1-6.669-10.935l-.853-6.2c-.8-4.154,2.986-3.652,3.436-7.253" transform="translate(-254.743 -117.36)" fill="#262610" fill-rule="evenodd"/><path d="M416.129,157.334h7.584a10.765,10.765,0,0,1,10.734,10.734v18.981a10.765,10.765,0,0,1-10.734,10.734h-7.584a10.765,10.765,0,0,1-10.734-10.734V168.068a10.766,10.766,0,0,1,10.734-10.734" transform="translate(-269.052 -69.517)" fill="#575726" fill-rule="evenodd"/><path d="M413.148,170.678q7.226-.714,2.688,1.887l-4.771-.022a7.622,7.622,0,0,1,2.083-1.865m-1.346,10.79q5.012,13.336,2.365,23.978a4.214,4.214,0,0,1-3.956-4.892l-1.166-14.136a3.357,3.357,0,0,1,1.206-2.623A4.938,4.938,0,0,0,411.8,181.468Z" transform="translate(-271.974 -80.08)" fill="#333313" fill-rule="evenodd"/><path d="M404.677,119.078h26.667a5.432,5.432,0,0,1,0,10.865H404.677a5.432,5.432,0,1,1,0-10.865" transform="translate(-264.127 -38.88)" fill="#99872f" fill-rule="evenodd"/><path d="M401.6,119.078h0a4.443,4.443,0,0,1,4.431,4.431v2a4.443,4.443,0,0,1-4.431,4.431h0a4.443,4.443,0,0,1-4.431-4.431v-2a4.443,4.443,0,0,1,4.431-4.431" transform="translate(-262.463 -38.88)" fill="#594d14" fill-rule="evenodd"/><path d="M460.178,125.868l4.367,1.49a5.048,5.048,0,0,0-1.155-8.733l-11.68-3.388a9.939,9.939,0,0,0-.7,3.5,2.975,2.975,0,0,1-4.389,2.457,4.35,4.35,0,0,0-5.752,4.922l19.311-.244" transform="translate(-297.395 -35.804)" fill="#7d6d1d" fill-rule="evenodd"/><path d="M479.362,149.228l-17.6-.509a2.758,2.758,0,0,1,4.132-2.478,2.479,2.479,0,0,0,3.682-2.982l8.751,2.1a2.759,2.759,0,0,1,1.03,3.871" transform="translate(-314.195 -58.244)" fill="#574b0e" fill-rule="evenodd"/><path d="M453.436,129.156a4.941,4.941,0,0,0,.926-3.017v-2.1a4.966,4.966,0,0,0-4.81-4.953h2.832a4.968,4.968,0,0,1,4.775,4.951v2.573a5.106,5.106,0,0,1-.926,2.543h-2.8" transform="translate(-304.414 -38.888)" fill="#baa955" fill-rule="evenodd"/><path d="M471.594,151.95h1.87a5.218,5.218,0,0,0,.951-2.873s0-.509.012-1.526a3.311,3.311,0,0,1-2.016.531q.022.982.022.982a5.265,5.265,0,0,1-.84,2.886" transform="translate(-322.066 -61.682)" fill="#99872f" fill-rule="evenodd"/><path d="M408.539,133.33a4.2,4.2,0,0,1,.3,1.561v1.863a4.065,4.065,0,0,1-3.982,4.12,3.98,3.98,0,0,1-3.533-2.227,5.484,5.484,0,0,0,1.355.17h.239c3,0,1.321-4.161,5.623-5.488" transform="translate(-265.79 -50.294)" fill="#362e08" fill-rule="evenodd"/><path d="M408.752,130.03h0a2.659,2.659,0,0,1,2.652,2.652v1.2a2.659,2.659,0,0,1-2.652,2.651h0a2.659,2.659,0,0,1-2.651-2.651v-1.2a2.659,2.659,0,0,1,2.651-2.652" transform="translate(-269.617 -47.651)" fill="#99872f" fill-rule="evenodd"/><path d="M414.49,138.815h0a1.228,1.228,0,0,1,1.224,1.224v.554a1.228,1.228,0,0,1-1.224,1.225h0a1.228,1.228,0,0,1-1.224-1.225v-.554a1.228,1.228,0,0,1,1.224-1.224" transform="translate(-275.354 -54.686)" fill="#594d14" fill-rule="evenodd"/><path d="M431.835,168.75H443a8.971,8.971,0,0,1,8.945,8.945v20.286A8.971,8.971,0,0,1,443,206.926H431.835a8.971,8.971,0,0,1-8.945-8.945V177.695a8.971,8.971,0,0,1,8.945-8.945" transform="translate(-283.062 -78.659)" fill="#827b34" fill-rule="evenodd"/><path d="M431.378,183.945q14.166,4.535-.5,16.091a2.981,2.981,0,0,1-2.159-5.166,2.976,2.976,0,0,0,.4-4.16,4.075,4.075,0,0,1,2.257-6.765" transform="translate(-286.967 -90.828)" fill="#695d21" fill-rule="evenodd"/><path d="M431.641,276.217q14.736-2.023,6.5,14.729a2.981,2.981,0,0,1-4.177-3.728,2.976,2.976,0,0,0-1.436-3.925,4.075,4.075,0,0,1-.884-7.077" transform="translate(-288.728 -164.548)" fill="#695d21" fill-rule="evenodd"/><path d="M434.133,259.768q12.35-8.289,12.306,10.379a2.981,2.981,0,0,1-5.39-1.515,2.976,2.976,0,0,0-3.014-2.9,4.075,4.075,0,0,1-3.9-5.97" transform="translate(-291.687 -149.508)" fill="#38310f" fill-rule="evenodd"/><path d="M547.2,190.873c.153.7.728,1.006,1.648.984a16.51,16.51,0,0,0,7.894-1.655c.55-.313.726-.778.486-1.714l-1.324-5.224a6.652,6.652,0,0,0-3.588-4.659,4.457,4.457,0,0,0-5.046.954,6.105,6.105,0,0,0-1.394,5.6c.807,3.836,1.323,5.714,1.323,5.714" transform="translate(-381.416 -86.235)" fill="#ab8754" fill-rule="evenodd"/><path d="M561.19,193.623q4.338,6.165,7.122,4.891a2.671,2.671,0,0,1-.071-.782,2.682,2.682,0,0,1-2.65-3.5,3.009,3.009,0,0,0-4.3-3.53.92.92,0,0,1-1.32-1.077,3.3,3.3,0,0,0-.461.646,2.207,2.207,0,0,0-.073,1.967,2.82,2.82,0,0,0,1.756,1.389" transform="translate(-392.254 -95.373)" fill="#9c7845" fill-rule="evenodd"/><path d="M560.507,203.011a7.773,7.773,0,0,0,6.015-1.8,2.7,2.7,0,0,1-.012-.759,2.66,2.66,0,0,1-3.179-2.819,2.884,2.884,0,0,0-1.07-2.422,3.2,3.2,0,0,0-2.595-.528,1.638,1.638,0,0,1-1.615-2.492,5.341,5.341,0,0,0-.415,4.486Z" transform="translate(-390.721 -97.43)" fill="#875c32" fill-rule="evenodd"/><path d="M580.632,238.519l-1.442-3.889a8.4,8.4,0,0,0-.44-1q-.083.024-.168.044a2.669,2.669,0,0,1-.84.9,4.908,4.908,0,0,1-.756.441c-.068.029-.129.07-.213.111l-.845.422q-.1.053-.207.1a2.693,2.693,0,0,1-2.216.341l.084.088.084.081.762.762a4.03,4.03,0,0,1,.375.418l.113.079.2.08c.128.028.255.061.381.1a4.031,4.031,0,0,1,1,.2l.215.072c.115.014.23.034.345.058a4.005,4.005,0,0,1,.753.163,15.406,15.406,0,0,1,1.842.283c.068.016.138.026.207.039a4,4,0,0,1,.661.114l.106.007" transform="translate(-403.679 -130.613)" fill="#fcc858" fill-rule="evenodd"/><path d="M553.784,233.838a.917.917,0,0,1-.9-.87.824.824,0,0,1,.8-.893,17.942,17.942,0,0,0,4.624-.672,17.633,17.633,0,0,0,4.269-1.843.864.864,0,0,1,1.178.334.874.874,0,0,1-.269,1.2,19.232,19.232,0,0,1-4.652,2.009,19.585,19.585,0,0,1-5.049.734" transform="translate(-387.161 -127.266)" fill="#fff"/><path d="M556.943,188.633l-.005-.025a11.825,11.825,0,0,0-.229-1.375,28.25,28.25,0,0,0,1.3-3.216,12.879,12.879,0,0,0,.774-5.64,4.213,4.213,0,0,0-1.208-2.535,4.022,4.022,0,0,0-1.087-1.878l-.118-.118a4.022,4.022,0,0,0-1.128-.8q-.11-.058-.224-.109t-.226-.116q-.111-.059-.225-.11a4.011,4.011,0,0,0-.788-.333l-.061-.022a9.01,9.01,0,0,1,4.1.938,6.062,6.062,0,0,1,3.177,4.764,15.016,15.016,0,0,1-.862,6.654,32.557,32.557,0,0,1-2.207,5.062,4,4,0,0,0-.981-1.145" transform="translate(-387.833 -81.55)" fill="#a8a859"/><path d="M531.069,445.723a35.05,35.05,0,0,0-.908,11.571s.447,4.788,1.339,14.363a2.773,2.773,0,0,0,4.937-.152c1.013-13.615,1.739-20.585,1.739-20.585.932-1.2,1.585-3.883,1.047-5.292-5.35.874-8.155.1-8.155.1" transform="translate(-368.839 -300.391)" fill="#fcc858" fill-rule="evenodd"/><path d="M461.839,444.033c5.41-1.035,8.691.933,8.691.933a14.1,14.1,0,0,1-1.074,7l-4.539,21-4.984-.2c.781-8.9,1.905-28.737,1.905-28.737" transform="translate(-312.728 -298.873)" fill="#fcc858" fill-rule="evenodd"/><path d="M535.044,472.025a2.476,2.476,0,0,0,4.117-1.3,4.517,4.517,0,0,1-3.244-2.7,4.114,4.114,0,0,1,.409-4.2,8.427,8.427,0,0,0,.977-8.879,3.6,3.6,0,0,1,1.742-4.915c.889-.377,2.336-1.831,1.54-4.9a8.558,8.558,0,0,0-6.311,3.327,19.244,19.244,0,0,0-.5,7.13l1.267,16.448" transform="translate(-371.76 -299.985)" fill="#e39426" fill-rule="evenodd"/><path d="M464.484,474.521l1.736.2a4.661,4.661,0,0,1,.338-5.785,4.188,4.188,0,0,0,1.378-3.3,5.1,5.1,0,0,1,2.276-4.19,3.893,3.893,0,0,0,1.4-2.2c.362-1.521-.339-2.661-1.424-4.078-1.107-1.44-1.218-5.407,3-6.431l-4.655-.745-2.313,2.761Z" transform="translate(-316.372 -302.285)" fill="#e39426" fill-rule="evenodd"/><path d="M533.721,455.594l.738,9.58a5.888,5.888,0,0,1,1.564-3.736,4.021,4.021,0,0,0-.4-4.825,5,5,0,0,1-1.087-4.415c.732-3.454,3.44-4.675,4.307-6.4a4.046,4.046,0,0,0-4.129-.177,25.061,25.061,0,0,0-.991,9.97" transform="translate(-371.704 -300.002)" fill="#d46e15" fill-rule="evenodd"/><path d="M468.2,463.523a3.108,3.108,0,0,1-1.266,2.891l1.485-20.205a22.392,22.392,0,0,1,4.923,1.176c-4.551.178-5.362,6.724-3.663,8.628a3.483,3.483,0,0,1-.3,4.462,4.3,4.3,0,0,0-1.182,3.048" transform="translate(-318.333 -300.857)" fill="#d46e15" fill-rule="evenodd"/><path d="M518.758,360.561a15.759,15.759,0,0,0,9.737-.154l1.724-21.135L515.8,341.2l2.962,19.357" transform="translate(-357.464 -215.218)" fill="#877a69" fill-rule="evenodd"/><path d="M534.479,385.547q3.217-8.365,7.676-5.431a1.177,1.177,0,0,1-1.317,1.59,1.327,1.327,0,0,0-1.476,1.916,3.659,3.659,0,0,1-2.513,5.316,1.943,1.943,0,0,0-.26,3.563,10.132,10.132,0,0,1-3.6-.486l-.132-.832q-.419-3.748,1.624-5.635" transform="translate(-371.068 -247.317)" fill="#7d6e5b" fill-rule="evenodd"/><path d="M527.587,362.195q-.118,7.07-.118,7.07l1.145,7.474a3.959,3.959,0,0,1,2.714-4.526,3.09,3.09,0,0,0,2.182-4.206,1.582,1.582,0,0,1,2.32-1.942,1.792,1.792,0,0,0,2.715-1.728q-9.809-4.938-10.959-2.143" transform="translate(-366.812 -232.766)" fill="#73644e" fill-rule="evenodd"/><path d="M526.46,368.611q-1.693-13.285,8.039-5.159a2.391,2.391,0,0,1-2.457,1.155,2.552,2.552,0,0,0-2.413,3.554,2.011,2.011,0,0,1-1.072,2.629,2.348,2.348,0,0,0-1.511,1.649l-.586-3.827" transform="translate(-365.804 -232.112)" fill="#5c4d39" fill-rule="evenodd"/><path d="M466.151,368.454a16.941,16.941,0,0,0,9.833,1.121l5.894-19.679s-4.863-.462-14.8-.5c-.552,12.409-.931,19.058-.931,19.058" transform="translate(-317.707 -223.326)" fill="#9c9080" fill-rule="evenodd"/><path d="M482.02,356.882q-5.333.564-7.424,11.527h0a14.681,14.681,0,0,0-1.7,5.484,13.479,13.479,0,0,0,3.654,1.279,2.629,2.629,0,0,1,1.224-5.052,4.222,4.222,0,0,0,3.658-1.456,4.062,4.062,0,0,0-.042-5.2,2.259,2.259,0,0,1,2.337-3.579,1.465,1.465,0,0,0,1.1-.129,1.342,1.342,0,0,0,.628-.912,4.762,4.762,0,0,0-3.434-1.965" transform="translate(-323.108 -229.321)" fill="#918574" fill-rule="evenodd"/><path d="M485.691,353.291q3.4-4.274-11.928-2.934l-.868,18.054a7.4,7.4,0,0,1,4.8-5.758,4.049,4.049,0,0,0,2.278-2.5,4.3,4.3,0,0,0-.413-3.357,3,3,0,0,1-.023-3.141,2.872,2.872,0,0,1,4.432-.493,1.274,1.274,0,0,0,1.721.128" transform="translate(-323.108 -223.839)" fill="#857763" fill-rule="evenodd"/><path d="M475.233,351.816q4.972-1.475,6.637.536a3.11,3.11,0,0,0-3.634,4.233,3.19,3.19,0,0,1-2.561,4.4,1.208,1.208,0,0,0-.912.62q.47-9.788.471-9.788" transform="translate(-324.603 -224.764)" fill="#6b5c48" fill-rule="evenodd"/><path d="M475.235,350.44a.335.335,0,0,1,.663-.1,5.165,5.165,0,0,1-6.431,5.77.335.335,0,1,1,.17-.647,4.494,4.494,0,0,0,5.6-5.023" transform="translate(-320.163 -223.854)" fill="#f2ece4"/><path d="M619.827,193.05a11.792,11.792,0,0,0,12.814-2.955,10.206,10.206,0,0,0-5.617-12.218,16.774,16.774,0,0,1-7.2,15.174" transform="translate(-440.775 -85.968)" fill="#edd5a5" fill-rule="evenodd"/><path d="M620,216.815q7.607.8,12.25-2.8a9.823,9.823,0,0,0-.207-6.932c-.974,1.812.035,3.016-.965,4.148a4.479,4.479,0,0,1-4,1.467,3.62,3.62,0,0,0-3.431.682A17.554,17.554,0,0,1,620,216.815" transform="translate(-440.912 -109.36)" fill="#d6b87c" fill-rule="evenodd"/><path d="M623.756,245.969a24.531,24.531,0,0,0,3.384.957,2.677,2.677,0,0,1,1.239-.678,2.718,2.718,0,0,1,.377-.095,8.359,8.359,0,0,1,.839-.234l.143-.043.269-.1a4.74,4.74,0,0,1,.565-.151,5.373,5.373,0,0,1,.575-.188l.936-.22.123-.041c.126-.057.252-.118.381-.166l.41-.154a3.922,3.922,0,0,1,.509-.233c.061-.035.121-.07.18-.109a2.9,2.9,0,0,1,.323-.185c.045-.035.09-.069.137-.1l.048-.047a3.155,3.155,0,0,1,.292-.324l.048-.068a4.477,4.477,0,0,1-2.926-.145,3.62,3.62,0,0,0-3.5-.149,17.561,17.561,0,0,1-4.357,2.471" transform="translate(-443.922 -138.214)" fill="#ba9659" fill-rule="evenodd"/><path d="M624.666,199.027a17.892,17.892,0,0,0,7.138-13.648l.011-.309.252.178a9.843,9.843,0,0,1,3.428,11.766l-.309-.126a9.508,9.508,0,0,0-3.063-11.184,18.225,18.225,0,0,1-7.257,13.59Z" transform="translate(-444.651 -91.729)" fill="#9c702e"/><path d="M481.5,190.313q-5.115,15.358-8.365,16.967a41.347,41.347,0,0,1-11.5-.194c-.989-.165-1.793-.6-1.708-1.833,0,0,.311-3.972-1.344-13.029l-1.131-18.592a50.523,50.523,0,0,1,7.066-3.212,23,23,0,0,0,12.588.281,7.2,7.2,0,0,1,5.441,8.11l-1.043,11.5" transform="translate(-310.741 -79.997)" fill="#634924" fill-rule="evenodd"/><path d="M494.494,166.874a14.14,14.14,0,0,0-1.567.706c5.043,7.273,13.406,6.248,12.588.281l-1.237-.485-.211.416a8.834,8.834,0,0,1-3.745-.077.932.932,0,0,1-.68.293,1.018,1.018,0,0,1-.321-.041l.077.026a1.038,1.038,0,0,1-.376-.053,1.97,1.97,0,0,1-.234-.076.928.928,0,0,1-.325-.1.863.863,0,0,1-.09-.025,1.9,1.9,0,0,1-.264-.1l-.006,0a.976.976,0,0,1-.26-.077.931.931,0,0,1-.336-.115l.06.036a1.052,1.052,0,0,1-.228-.067c-.1-.018-.208-.055-.3-.082-.034-.01-.069-.024-.1-.033s-.1-.019-.143-.033a.93.93,0,0,1-.423-.173l.181.136h-1.313a.934.934,0,0,1-.739-.362" transform="translate(-339.15 -77.157)" fill="#fff" fill-rule="evenodd"/><path d="M508.883,152.634l-7-1.581-.436,2.959-.853.207c3.839,5.867,10.46,5.131,9.824.488l-1.1-.03-.43-2.043" transform="translate(-345.29 -64.487)" fill="#fcc858" fill-rule="evenodd"/><path d="M504.336,150a7.329,7.329,0,0,0,6.448,2.323,4.556,4.556,0,0,1-7.16,2.634,7.592,7.592,0,0,1-.8-.946l.99-.288.517-3.723" transform="translate(-347.08 -63.644)" fill="#e39426" fill-rule="evenodd"/><path d="M508.183,154.848q4.155,2.442,4.088,2.482a3.566,3.566,0,0,1-4.471.275l.383-2.757" transform="translate(-351.061 -67.526)" fill="#c95c08" fill-rule="evenodd"/><path d="M507.253,83.6q-1.974,13.384,9.041,7.863a8.156,8.156,0,0,0,.466-3.571,4.032,4.032,0,0,1,.225-1.56,6.2,6.2,0,0,0,.2-2.388,4.923,4.923,0,0,0-4.832-4.648,4.868,4.868,0,0,0-5.1,4.3" transform="translate(-350.382 -7.023)" fill="#fcc858" fill-rule="evenodd"/><path d="M505.989,90.559q1.807,1.672-.08,1.876a5.5,5.5,0,0,1-6.534-2.7,5.011,5.011,0,0,1,1.9-6.541,4.84,4.84,0,0,1,9.417,1.238,3.958,3.958,0,0,0-4.224-.5,3.644,3.644,0,0,0-2.016,2.615c-.169.655-.828.816-1.388,1.322a1.878,1.878,0,0,0-.581,1.931A2.007,2.007,0,0,0,504,91.2a2.06,2.06,0,0,0,1.985-.644" transform="translate(-343.884 -7.511)" fill="#e39426" fill-rule="evenodd"/><path d="M503.7,89.194l.219-1.582a2.949,2.949,0,0,0,.1-.365q.043-.14.07-.281a2.949,2.949,0,0,0,.209-.594l.024-.092a2.97,2.97,0,0,0,.253-.85l.016-.1a2.96,2.96,0,0,0,.031-.658,3.494,3.494,0,0,0-.039-.4,3.228,3.228,0,0,0,.9-.488q.114-.071.221-.15t.192-.136c.042-.027.091-.049.135-.073a3.192,3.192,0,0,0,.453-.254,7.918,7.918,0,0,1,1.05-.55,3.213,3.213,0,0,0,.874-.435,2631.163,2631.163,0,0,0,1.191-.4q.112-.015.221-.037a3.3,3.3,0,0,0,.662-.144l.019,0c.137-.019.267-.049.4-.078.1-.015.188-.031.282-.053l.045.016h0l.014,0a3.37,3.37,0,0,0,.467.117c.029.012.058.023.087.037a3.333,3.333,0,0,0,.5.2l.11.054a20.974,20.974,0,0,1,1.152.583c.114.066.228.133.344.195l0,0-.006,0,.01.007a3.247,3.247,0,0,0,.407.329l.053.045q.08.085.165.164a4.676,4.676,0,0,1,.055,1.373,4.178,4.178,0,0,0-4.368-1.064,3.912,3.912,0,0,0-2.483,2.485c-.268.666-.984.75-1.642,1.209a2,2,0,0,0-.8,2.29l-.032,0a4.778,4.778,0,0,0-.565-.11,5.958,5.958,0,0,0-.995-.2" transform="translate(-347.777 -8.76)" fill="#c95c08" fill-rule="evenodd"/><path d="M510.318,139.318c-.06-.134-.127-.266-.191-.4a4.911,4.911,0,0,0-.217-.5q-.071-.192-.157-.376a37.457,37.457,0,0,1-.36-1.325l-.02-.063a5.1,5.1,0,0,0,1.492-1.451,2.6,2.6,0,0,0,.446.533,1.174,1.174,0,0,0,1.718,0,2.246,2.246,0,0,1,1.578-.735c2.395-.153,3.677.29,3.656,1.344-.136,3.884-2.263,5.5-4.792,5.244-.107-.123-.219-.238-.333-.354a10.369,10.369,0,0,0-1.965-1.387,5.314,5.314,0,0,0-.8-.43Z" transform="translate(-352.32 -51.607)" fill="#40211a" fill-rule="evenodd"/><path d="M529.573,115.952a.406.406,0,0,1,.4.407.4.4,0,0,1-.422.381.405.405,0,0,1-.4-.407.4.4,0,0,1,.422-.381" transform="translate(-368.16 -36.377)" fill-rule="evenodd"/><path d="M548.1,116.712a.408.408,0,0,1,.4.41.4.4,0,0,1-.424.384.408.408,0,0,1-.4-.41.4.4,0,0,1,.424-.384" transform="translate(-382.991 -36.986)" fill-rule="evenodd"/><path d="M501.96,110.645c-2.689-1.589-3.825-4.825-3.456-9.592q.016-1.89,3.027-3.539c-.875,3.73-.217,6.994.936,8.143a2.828,2.828,0,0,0-.23,1.35c.483,2.672,2.53,1.485,2.847,4.613a6.653,6.653,0,0,1-3.123-.974" transform="translate(-343.562 -21.611)" fill="#260f09" fill-rule="evenodd"/><path d="M537.537,114.825c.036-1.216.49-1.3.79-.273l.794,2.572a.867.867,0,0,1,.538.8.9.9,0,0,1-.606.769,1.269,1.269,0,0,1-.491.089q-.177-.048-.356-.083-.146-.123-.3-.236-.167-.134-.345-.256l0,0q-.079-.182-.173-.356a4.78,4.78,0,0,0-.035-1.093Z" transform="translate(-374.725 -34.687)" fill="#ed751a" fill-rule="evenodd"/><path d="M507.575,110.077a1.268,1.268,0,0,0-.911-.438,1.255,1.255,0,0,0-.933.38,1.495,1.495,0,0,0-.053,2.009,1.244,1.244,0,0,0,1.844.058,1.495,1.495,0,0,0,.053-2.009m-3.677-.207a1.667,1.667,0,0,0-2.286-.072,1.506,1.506,0,0,0-.5,1.081,1.521,1.521,0,0,0,.445,1.111,1.667,1.667,0,0,0,2.286.072,1.505,1.505,0,0,0,.5-1.081A1.521,1.521,0,0,0,503.9,109.87Zm2.772-.462a1.511,1.511,0,0,1,1.088.521,1.7,1.7,0,0,1,.419,1.172,1.682,1.682,0,0,1-.481,1.143,1.5,1.5,0,0,1-1.113.452,1.51,1.51,0,0,1-1.087-.521,1.7,1.7,0,0,1-.419-1.172c0-.021,0-.041,0-.062a.75.75,0,0,0-.276-.057.739.739,0,0,0-.219.029c0,.024,0,.049,0,.074a1.731,1.731,0,0,1-.577,1.242,1.915,1.915,0,0,1-2.626-.082,1.748,1.748,0,0,1-.511-1.276,1.708,1.708,0,0,1,.137-.628l-5.016,1.886-.088-.215,5.28-1.985a1.792,1.792,0,0,1,.265-.3,1.916,1.916,0,0,1,2.626.082,1.762,1.762,0,0,1,.491.968,1,1,0,0,1,.546.026,1.668,1.668,0,0,1,.447-.847A1.5,1.5,0,0,1,506.67,109.408Z" transform="translate(-341.532 -30.929)"/><path d="M537.289,144.479a.6.6,0,0,1,.59.6.59.59,0,0,1-.62.561.6.6,0,0,1-.59-.6.59.59,0,0,1,.62-.561" transform="translate(-374.179 -59.222)" fill="#fcc858" fill-rule="evenodd"/><path d="M499.881,81.523a26.678,26.678,0,0,1,2.162-1.87,9.617,9.617,0,0,1,.021-3.952,10.812,10.812,0,0,0-3.071,2.137,2.937,2.937,0,0,1-.424.813l-.305.414c-.021.042-.043.083-.066.124l-.087.194a3.524,3.524,0,0,1-.158.368q-.046.118-.1.234c-.014.047-.03.093-.047.14s-.018.087-.028.13c-.008.087-.02.171-.035.255s-.016.144-.028.216l-.005.2-.021-.065,0,.017q.029.09.052.182a3.758,3.758,0,0,1,.486.042l.163,0a3.242,3.242,0,0,1,1.5.416" transform="translate(-342.959 -4.143)" fill="#7d6442" fill-rule="evenodd"/><path d="M524.122,100.532c-.182.221-.086.361.23.215a3.971,3.971,0,0,1,2.177-.2.481.481,0,0,0,.453-.176.439.439,0,0,0,.048-.467.484.484,0,0,0-.408-.263,2.629,2.629,0,0,0-2.5.887" transform="translate(-364.059 -23.297)" fill="#1f0d08" fill-rule="evenodd"/><path d="M547.387,106.108c.127.222.028.334-.221.163a3.241,3.241,0,0,0-1.816-.456.406.406,0,0,1-.362-.216.417.417,0,0,1,.017-.425.406.406,0,0,1,.377-.182,2.215,2.215,0,0,1,2,1.116" transform="translate(-380.803 -27.599)" fill="#1f0d08" fill-rule="evenodd"/><path d="M515.217,77.327c2.453-1.609,4.616-2.762,4.614-3.233-1.186-1.577-7.714-.848-4.614,3.233" transform="translate(-356.339 -2.239)" fill="#ebdfce" fill-rule="evenodd"/><path d="M522.6,79.391q-.141.151-.279.281a1.264,1.264,0,0,0-.268.016,1.348,1.348,0,0,0-.339.093.858.858,0,0,0-.312.164,3.175,3.175,0,0,1-.412.3c-.02.012-.039.025-.058.039a.825.825,0,0,0-.116.074c-.831-2.114-.357-3.369,1.229-3.47a.987.987,0,0,1,.952.526.691.691,0,0,1-.2.922.871.871,0,0,0-.2,1.059" transform="translate(-361.162 -5.089)" fill="#cfc1b2" fill-rule="evenodd"/><path d="M527.34,81.359a.934.934,0,0,0-.143.053c-.158.076-.32.127-.471.212a1.053,1.053,0,0,0-.273.15.894.894,0,0,0-.2.2l-.018.025c-.5-1.505-.086-2.392,1.106-2.468.7-.047,1.136.768.605,1.165a.639.639,0,0,0-.229.419.837.837,0,0,0-.377.246" transform="translate(-365.658 -7.207)" fill="#8f7e6b" fill-rule="evenodd"/><path d="M529.985,73.739c.264-1.15-.908-2.2-3.378-2.937a4.035,4.035,0,0,0-4.22.721l-3.468,3.1c-.291.267-.428.392-.4.464q.185.459.155.4-.01.051.622-.407.114-.155.105-.216a9.146,9.146,0,0,1,2.664-.519q.111-.185.241-.362a4.932,4.932,0,0,1,6.612-1.136,4.839,4.839,0,0,1,.825.664l.02.02c.074.067.146.137.216.208" transform="translate(-359.645)" fill="#3b2c17" fill-rule="evenodd"/><path d="M527.117,78.665c.083.293.23.367.412.243,0,0,.722-.489,2.1-1.618,2.184-1.709,1.307-3.409-2.227-4.46a4.035,4.035,0,0,0-4.22.721l-3.469,3.1c-.6.555-.545.6.318.3a10,10,0,0,1,1.934-.5A1.032,1.032,0,0,1,523,75.713l1.254.039a1.036,1.036,0,0,1,.53.158c.026.011.051.022.076.035a3.559,3.559,0,0,1,.333.151,1.082,1.082,0,0,1,.153.065c.031.016.064.029.1.044a1.085,1.085,0,0,1,.191.075,1.105,1.105,0,0,1,.111.044,1.408,1.408,0,0,1,.209.093,2.088,2.088,0,0,1,.2.075l.023.009a1.438,1.438,0,0,1,.38.191,1.206,1.206,0,0,1,.365.28,1.077,1.077,0,0,1,.3.446.969.969,0,0,1-.171,1.034,2.229,2.229,0,0,1,.067.213" transform="translate(-360.279 -1.623)" fill="#7d6442" fill-rule="evenodd"/><path d="M535.436,83.706a2.962,2.962,0,0,1,1.64,1.7l1.613-1.215a1.7,1.7,0,0,0,.568-1.686,1.86,1.86,0,0,0-2.6-1.208,4.24,4.24,0,0,1-2.218.207,2.187,2.187,0,0,0-1.782.313,2,2,0,0,0-.868,1.521,7.627,7.627,0,0,1,1.727-.1,5.293,5.293,0,0,1,1.922.463" transform="translate(-370.27 -8.485)" fill="#523f24" fill-rule="evenodd"/><path d="M495.615,89.912c.148.5.452.4.665.161a23.728,23.728,0,0,1,1.916-2.066c.135-1.427-1.932-.532-.908-3.314a2.852,2.852,0,0,1,.4-.729,5.624,5.624,0,0,0-2.074,5.947" transform="translate(-341.134 -10.761)" fill="#523f24" fill-rule="evenodd"/><path d="M494.33,120.119c-.584.8-1.433.855-2.247-.021a2.763,2.763,0,0,1-.715-2.319,1.435,1.435,0,0,1,1.365-1.323,2.049,2.049,0,0,1,1.711,1.352,2.414,2.414,0,0,1-.114,2.311" transform="translate(-337.873 -36.78)" fill="#fcc858" fill-rule="evenodd"/><path d="M497.674,124.156c-.27.517-.7.636-1.136.225a1.509,1.509,0,0,1-.433-1.241.936.936,0,0,1,.648-.895.882.882,0,0,1,.907.587,1.543,1.543,0,0,1,.014,1.324" transform="translate(-341.688 -41.408)" fill="#f07b22" fill-rule="evenodd"/><path d="M500.539,126.033c-.16.3-.412.375-.671.133a.89.89,0,0,1-.256-.732.553.553,0,0,1,.383-.528.521.521,0,0,1,.535.346.911.911,0,0,1,.008.781" transform="translate(-344.5 -43.542)" fill="#c93c00" fill-rule="evenodd"/><path d="M535.266,127.764a1.257,1.257,0,0,1-.9-.145.967.967,0,0,0-.9-.211.643.643,0,0,1-.581-.5c-.057-.4.372-.717.836-.64l.115-1.175c.185,1.029.053,2.348,1.432,2.675" transform="translate(-371.144 -43.694)" fill="#c94110" fill-rule="evenodd"/><path d="M498.871,214.1l-7.143,7.641a7.089,7.089,0,0,0,11.308-8.386l-4.165.745m-9.6-16.663q2.827,20.032,14.659,12.732a6.01,6.01,0,0,0-2.161-4.109,6.383,6.383,0,0,0-4.443-1.344,3.009,3.009,0,0,1-3.132-2.794A5.067,5.067,0,0,0,489.27,197.436Z" transform="translate(-336.221 -101.632)" fill="#573e1b" fill-rule="evenodd"/><path d="M466.7,215.447a6.836,6.836,0,0,0,7.569-8.414s-.574-.2-.829-3.1c-.534-1.778-3.3-1.272-4.66-2.538-1.2-1.117-1.2-3.285-.992-4.972a7.045,7.045,0,0,0-7.879-7.755q-3.23,3.83,1.22,19.716A86.857,86.857,0,0,1,462,219.221a3.9,3.9,0,0,1,4.7-3.774" transform="translate(-311.623 -94.567)" fill="#4a3313" fill-rule="evenodd"/><path d="M526.261,250.419a20.617,20.617,0,0,0,23.876-.44A50.256,50.256,0,0,1,557.71,226a22.069,22.069,0,0,1-26.589-3.289q2.286,10.827-4.86,27.712" transform="translate(-365.845 -121.87)" fill="#f5e7c9" fill-rule="evenodd"/><path d="M472.542,223.735a5.038,5.038,0,0,0-.166,9.411c1.927.73,6.219.685,7.514-.962-8.15-.351-2.829-5.549-7.348-8.449m-2.849,13.549c5.871-1.824,9.926-1.789,11.989-1.062a3.042,3.042,0,0,1-1.206,2.677,2.817,2.817,0,0,1-2.838.312,5.039,5.039,0,0,0-5.12.605c-1.482,1.128-1.932,3.034-2.044,4.868C470.041,240.135,469.611,236.685,469.693,237.284Z" transform="translate(-320.163 -122.693)" fill="#301f0d" fill-rule="evenodd"/><path d="M560.97,254.666l-4.687.8q-.242,8.7-6.688,22.256a13.881,13.881,0,0,0,2.87.828,3.1,3.1,0,0,0,2.513-4.485,3.52,3.52,0,0,1,3.223-5.024,8.527,8.527,0,0,0,6.9-14.033q-1.845-.088-4.13-.345" transform="translate(-384.531 -147.463)" fill="#edd5a5" fill-rule="evenodd"/><path d="M530.4,255.263a16.151,16.151,0,0,0,3.824,1.954A4.518,4.518,0,0,0,538.46,252q-.948-5.238,5.155-7.9a6.124,6.124,0,0,0,1.98-9.938,24.941,24.941,0,0,1-10.477-5.1c1.236,5.64-.432,14.521-4.722,26.206" transform="translate(-369.156 -126.955)" fill="#d6b87c" fill-rule="evenodd"/><path d="M549.769,267.71a8.619,8.619,0,0,0,6.428-4.179,5.93,5.93,0,0,1-7.1,7.318l.67-3.139" transform="translate(-384.134 -154.563)" fill="#ba9659" fill-rule="evenodd"/><path d="M561.9,237.567a.167.167,0,0,1,.136.305,23.75,23.75,0,0,1-23.472-2.375,30.922,30.922,0,0,1-.317,9.279,12.8,12.8,0,0,0,5.429-2.507,6.009,6.009,0,0,1-5.723,4.089,76.868,76.868,0,0,1-4.17,13.29,19.241,19.241,0,0,0,21.345-.817.167.167,0,0,1,.2.271,19.579,19.579,0,0,1-21.833.76.168.168,0,0,1-.072-.208,76.944,76.944,0,0,0,4.194-13.307,6.058,6.058,0,0,1-.716-.088l.266-1.221q.373-.083.729-.171a30.207,30.207,0,0,0,.284-9.706.167.167,0,0,1,.264-.166,23.418,23.418,0,0,0,23.459,2.573" transform="translate(-371.568 -131.683)" fill="#9c702e"/><path d="M457.755,582.33q-.135.679.268,0a4.153,4.153,0,1,0-8.175,0,10.131,10.131,0,0,0,7.907,0" transform="translate(-304.599 -405.952)" fill="#2b1914" fill-rule="evenodd"/><path d="M550.258,577.067q-11.878,1.518-14.492-.076a14.721,14.721,0,0,1,.226-4.8,3.206,3.206,0,0,0,4.1.026,1.145,1.145,0,0,1,1.778-.859l4.452,2.684,1.857.565a2.465,2.465,0,0,1,2.082,2.463" transform="translate(-373.376 -400.923)" fill="#2b1914" fill-rule="evenodd"/><path d="M568.579,574.219h0a.46.46,0,0,1,.216.612l-.45.941a.46.46,0,0,1-.612.216h0a.46.46,0,0,1-.216-.612l.45-.94a.46.46,0,0,1,.612-.216" transform="translate(-398.848 -403.336)" fill="#fff" fill-rule="evenodd"/><path d="M574.565,577.591h0a.46.46,0,0,1,.216.612l-.337.7a.461.461,0,0,1-.612.216h0a.46.46,0,0,1-.216-.612l.337-.7a.461.461,0,0,1,.612-.216" transform="translate(-403.733 -406.036)" fill="#fff" fill-rule="evenodd"/><path d="M580.421,580.99h0a.461.461,0,0,1,.216.612l-.2.427a.46.46,0,0,1-.612.216h0a.46.46,0,0,1-.216-.612l.2-.427a.46.46,0,0,1,.612-.216" transform="translate(-408.528 -408.758)" fill="#fff" fill-rule="evenodd"/><path d="M546.833,583.427a62.91,62.91,0,0,1-7.924.569,16.192,16.192,0,0,1,0-4.188,4.392,4.392,0,0,0,4.157-.61,2.753,2.753,0,0,1,2.056,2.6,1.677,1.677,0,0,0,1.711,1.628" transform="translate(-375.865 -407.358)" fill="#1a0e0b" fill-rule="evenodd"/><path d="M453.93,584.878l5.7.22a1.707,1.707,0,0,0-1.564-2.016,1.249,1.249,0,0,1-.582-2.34c.364-.183.286-.361-.259-.323a3.608,3.608,0,0,0-3.3,4.459" transform="translate(-307.837 -408.332)" fill="#1a0e0b" fill-rule="evenodd"/><path d="M448.416,601.132h8.18a.42.42,0,0,1,.419.419v.848a.42.42,0,0,1-.419.419h-8.18A.42.42,0,0,1,448,602.4v-.848a.42.42,0,0,1,.419-.419" transform="translate(-303.169 -424.924)" fill="#fff" fill-rule="evenodd"/><path d="M534.553,600.432h14.377a.382.382,0,0,1,.38.38v.77a.382.382,0,0,1-.38.381H534.553a.382.382,0,0,1-.38-.381v-.77a.382.382,0,0,1,.38-.38" transform="translate(-372.181 -424.363)" fill="#fff" fill-rule="evenodd"/><path d="M432.535,179.3a.894.894,0,1,1-.825-1.586c2.546-1.325,4.693-1.416,6.341-.6a5.7,5.7,0,0,1,2.748,3.251,12.037,12.037,0,0,1,.587,5.1c-.445,5.815-4.083,13.648-11.836,19.88a.892.892,0,1,1-1.118-1.391c7.326-5.889,10.758-13.214,11.172-18.622a10.283,10.283,0,0,0-.475-4.34,3.975,3.975,0,0,0-1.868-2.28c-1.143-.565-2.734-.449-4.727.588" transform="translate(-287.235 -84.935)" fill="#a8a859"/><path d="M455.735,231.97c.2-.217.385-.283.535-.238.616.184.506.88.135,2.053-.184.732.611.974,1.786.411,3.937-1.994,6.063,2.352,2.19,4.776a5.023,5.023,0,0,1-5.269.121c-5.781.748-11.711,1.474-17.2,1.821a6.062,6.062,0,0,1-4.7-1.83,7.177,7.177,0,0,1-1.385-5.155,25.754,25.754,0,0,1,1.005-5.961c5.21.8,9.031,1.571,9.031,1.571a16.583,16.583,0,0,1-.768,2.245c-.383,1.614-.763,2.432.086,2.556a121.9,121.9,0,0,0,13.238.434,5.02,5.02,0,0,1,1.31-2.8" transform="translate(-290.206 -126.084)" fill="#fcc858" fill-rule="evenodd"/><path d="M431.513,193.3c-.129.7.279,1.209,1.135,1.548a16.509,16.509,0,0,0,7.916,1.546c.629-.074.971-.435,1.114-1.391l.813-5.327A6.653,6.653,0,0,0,441,183.988a4.457,4.457,0,0,0-5.019-1.084,6.105,6.105,0,0,0-3.463,4.617c-.748,3.848-1,5.779-1,5.779" transform="translate(-289.949 -89.71)" fill="#ab8754" fill-rule="evenodd"/><path d="M533.761,259.242h.754a.448.448,0,0,1,.447.447v4.631a.448.448,0,0,1-.447.447h-.754a.448.448,0,0,1-.447-.447v-4.631a.448.448,0,0,1,.447-.447" transform="translate(-371.493 -151.128)" fill="#1f1911" fill-rule="evenodd"/><path d="M448.8,189.742q.172,9.688,5.111,7.761a2.683,2.683,0,0,1-1.807-4.792,3.009,3.009,0,0,0-1.583-5.336.92.92,0,0,1-.488-1.631,3.284,3.284,0,0,0-.744.276,2.207,2.207,0,0,0-1.164,1.588,2.819,2.819,0,0,0,.675,2.135" transform="translate(-303.247 -92.268)" fill="#9c7845" fill-rule="evenodd"/><path d="M434.49,197.121a7.774,7.774,0,0,0,7.943,1.4,2.66,2.66,0,0,1-2.588-4.273,2.884,2.884,0,0,0,.472-2.605,3.2,3.2,0,0,0-1.852-1.892,1.638,1.638,0,0,1,.061-2.969,5.34,5.34,0,0,0-2.859,3.481l-1.177,6.857" transform="translate(-292.352 -93.101)" fill="#875c32" fill-rule="evenodd"/><path d="M434.846,206.332a5.19,5.19,0,0,0,4.7,1.517,3.751,3.751,0,0,1-.417-.056,3.8,3.8,0,0,0,.624-.163,3.155,3.155,0,0,1-2.083-5.193,2.125,2.125,0,0,0-1.309-3.636,5.332,5.332,0,0,0-.225.505l0,.007v0l0,.009h0l0,.009v0l0,.007,0,0,0,0,0,.006v0l0,.008h0l0,.009h0l0,.008v0l0,.006,0,.005v0l0,.007v0l0,.009h0l0,.009v0l0,.007,0,0,0,0,0,.006v0l0,.009h0l0,.009h0l0,.008v0h0q-.068.2-.12.4l-1.106,6.443" transform="translate(-292.637 -102.725)" fill="#70482b" fill-rule="evenodd"/><path d="M448.886,252.682a28.954,28.954,0,0,0,7.51.832l2.545-.307a5.026,5.026,0,0,1-3.383-1.9,4.172,4.172,0,0,0-6.126-.1,1.422,1.422,0,0,1-1.871-2.139,7.8,7.8,0,0,0,1.527-2.666q-4.344-1.417-4.241-.037a3.927,3.927,0,0,0,4.039,6.311" transform="translate(-299.912 -140.275)" fill="#f2b141" fill-rule="evenodd"/><path d="M448.428,251.521a3.286,3.286,0,0,0,2.995,1.54q-3.295.356-5.74.511a2.686,2.686,0,0,0-.788-.118h-.6c-.06-.009-.121-.016-.182-.021l-.074-.023a2.577,2.577,0,0,0-.844-.138h-2.636l-.017-.007-.069-.068a4.064,4.064,0,0,0-.39-.421,4.112,4.112,0,0,0-.9-.659c-.083-.043-.171-.087-.256-.125l-.023-.036a2.679,2.679,0,0,0-.239-.359q-.068-.1-.143-.186a3.824,3.824,0,0,0-.164-.47c-.025-.09-.055-.182-.087-.271a2.673,2.673,0,0,0-.355-.725c-.025-.052-.052-.1-.079-.152a2.665,2.665,0,0,0-.116-.368l-.006-.034.164.328v-.245a2.689,2.689,0,0,0-.1-.728l.018-.069.051.1,0-.386a2.7,2.7,0,0,0,.073-.4,2.658,2.658,0,0,0,.036-.275l.014-.062q.021-.06.038-.12a2.655,2.655,0,0,0,.115-.4l0-.015a2.768,2.768,0,0,0,.164-.4,2.682,2.682,0,0,0,.112-.31,2.709,2.709,0,0,0,.132-.371l.061-.14a2.685,2.685,0,0,0,.2-.771l4.674.8a2.767,2.767,0,0,0-2.5,4.8,2.9,2.9,0,0,0,3.48.041,2.877,2.877,0,0,1,3.969.762" transform="translate(-294.939 -139.822)" fill="#e08f1d" fill-rule="evenodd"/><path d="M441.856,251.239q2.245-.032,3.677-.15a4.271,4.271,0,0,0-3.793-.854,3.588,3.588,0,0,1-2.126-6.817q-1.253-2.1-2.606-.925-1.1,8.491,4.848,8.747" transform="translate(-294.231 -137.376)" fill="#d46e15" fill-rule="evenodd"/><path d="M428.578,235.364a.917.917,0,0,1-.383-1.2.824.824,0,0,1,1.13-.405,17.942,17.942,0,0,0,4.39,1.6,17.63,17.63,0,0,0,4.632.4.864.864,0,0,1,.879.853.874.874,0,0,1-.807.929,19.222,19.222,0,0,1-5.049-.438,19.581,19.581,0,0,1-4.793-1.749" transform="translate(-287.24 -130.65)" fill="#fff"/><path d="M382.605,253.007h5.187a1.359,1.359,0,0,1-.031-.979l1.45,1.229h0a2.378,2.378,0,0,1,.924,1.908v9.819a1.986,1.986,0,0,1-1.731,2.158h-5.8a1.528,1.528,0,0,1-1.086-.481h0l-1.528-1.275a.847.847,0,0,1,.883-.455v-9.766a1.986,1.986,0,0,1,1.731-2.158" transform="translate(-248.708 -145.351)" fill="#575726" fill-rule="evenodd"/><path d="M378.828,250.322h5.8a1.736,1.736,0,0,1,1.731,1.731v10.675a1.736,1.736,0,0,1-1.731,1.731h-5.8a1.736,1.736,0,0,1-1.731-1.731V252.053a1.736,1.736,0,0,1,1.731-1.731" transform="translate(-246.39 -143.985)" fill="#a8a859" fill-rule="evenodd"/><path d="M463.193,443a.669.669,0,0,1,.535-1.226,16.267,16.267,0,0,0,9.445,1.077.669.669,0,1,1,.241,1.316A17.556,17.556,0,0,1,463.193,443" transform="translate(-315.017 -297.264)" fill="#fff"/><path d="M527.661,445.708a.669.669,0,1,1,.419-1.271,16.27,16.27,0,0,0,9.5.2.669.669,0,1,1,.362,1.287,17.556,17.556,0,0,1-10.285-.214" transform="translate(-366.598 -299.411)" fill="#fff"/><path d="M382.295,258.156l-2.429,10.3a1.38,1.38,0,0,0,1.369,1.018l5.465-.008a1.129,1.129,0,0,0,1.21-1.2q.069-2.479.069-2.479a4.11,4.11,0,0,1-1.62-5.081,2.415,2.415,0,0,0-4.064-2.544" transform="translate(-248.607 -149.541)" fill="#757536" fill-rule="evenodd"/><path d="M372.437,261.759h4.922a1.473,1.473,0,0,1,1.469,1.469v7.6a1.473,1.473,0,0,1-1.469,1.469h-4.922a1.473,1.473,0,0,1-1.469-1.469v-7.6a1.473,1.473,0,0,1,1.469-1.469" transform="translate(-241.482 -153.144)" fill="#c2c27a" fill-rule="evenodd"/><path d="M381.111,277.489a1.359,1.359,0,0,1-1.892-1.1,3.64,3.64,0,0,0-2.956-3.176q-1.19-.336-1.55-2.686s0,.252,0,.757v5.894q-.016,1.343.84,1.366l4.364.017a1.126,1.126,0,0,0,1.193-1.075" transform="translate(-244.481 -160.168)" fill="#a1a15d" fill-rule="evenodd"/><path d="M376.045,294.579a1.328,1.328,0,0,1,1.334,1.2l-1.822-.007q-.817.019-.84-1.366v-2.368c.223,1.565.571,2.481,1.327,2.544" transform="translate(-244.485 -177.39)" fill="#8a8a49" fill-rule="evenodd"/><path d="M485.88,559.865l-3.015.749-7.634-8.565,1.13-1.053,4.9,6.706-5.39-9.217,2.544-1.068,4.205,10.049-3.641-11.893,2.405-.488,1.766,9.568-.756-10.6,3.3.693-1.384,12.247,2.836-11.611,2.326,1.261-3.656,10.42,4.232-9.132,1.885,1.211-6.062,10.72" transform="translate(-324.979 -379.215)" fill="#917c06" fill-rule="evenodd"/><path d="M487.942,609.927a35.681,35.681,0,0,0,18.569-.853,6.668,6.668,0,0,1-4.651-.984,10.211,10.211,0,0,0-13.918,1.837" transform="translate(-335.158 -428.942)" fill="#f5ec8b" fill-rule="evenodd"/><path d="M176.578,278.03l7.58-.5q1.952-3.954-.448-8.875-1.631-3.483,1.415-9.511a13.11,13.11,0,0,0-2.611-16.056,6.145,6.145,0,0,1,.345-8.617,5.92,5.92,0,0,0-1.182-9.833,4.073,4.073,0,0,1-1.5-5.142q-2.832,5.656-1.18,10.2-3.435,39.909-2.418,48.332" transform="translate(-85.622 -119.302)" fill="#474518" fill-rule="evenodd"/><path d="M144.443,266.06a88.083,88.083,0,0,0,9.526-.755,14.4,14.4,0,0,1-1.4-16.3c2.322-4.615,2.987-10.434.691-14.811-1.529-2.542-4.283-7.486.059-11.715,2.809-2.944.345-4.825-.651-8.52a12.6,12.6,0,0,1,1.506-9.716,24.728,24.728,0,0,1-3.8,3.244l-8.2,57.386a22.958,22.958,0,0,0,2.264,1.186" transform="translate(-58.26 -107.084)" fill="#383610" fill-rule="evenodd"/><path d="M144.443,343.671l2.222-.63q2.072-3.73-.113-10.838a9.806,9.806,0,0,1,1.5-8.31q3.191-4.218,1.163-11.444-1.342-3.561-1.132-11.292l-5.906,41.328a22.971,22.971,0,0,0,2.264,1.186" transform="translate(-58.26 -184.695)" fill="#262509" fill-rule="evenodd"/><path d="M174.562,499.9a25.774,25.774,0,0,1-22.809.1,1.928,1.928,0,0,1,3.435-.694,2.747,2.747,0,0,1,5.332-.909,1.93,1.93,0,0,1,3.392.7,2.318,2.318,0,0,1,4.447.556,2.145,2.145,0,0,1,3.732.437,1.46,1.46,0,0,1,2.471-.192" transform="translate(-65.928 -341.195)" fill="#4b6e26" fill-rule="evenodd"/><path d="M377.548,183.193l-1.41-.861,1.677,1.791.373-2.371-.64,1.441" transform="translate(-245.622 -89.072)" fill="#d9c562" fill-rule="evenodd"/><path d="M315.661,214.262l-1.41-.861,1.677,1.791.374-2.37-.64,1.44" transform="translate(-196.061 -113.953)" fill="#d9c562" fill-rule="evenodd"/></g></svg>