<svg xmlns="http://www.w3.org/2000/svg" width="115.352" height="72.48" viewBox="0 0 115.352 72.48"><path d="M576.156,286.417c2.466,3.883,3.131,7.877,1.487,8.922s-4.977-1.256-7.443-5.139-3.131-7.877-1.487-8.922,4.977,1.256,7.443,5.139M481.08,330.261q86.685,7.086,91.241.409a48.2,48.2,0,1,0-91.241-.409Z" transform="translate(-469.708 -266.71)" fill="#fff4c4" fill-rule="evenodd"/><path d="M940.892,370.1a16.525,16.525,0,1,1-16.525,16.525A16.525,16.525,0,0,1,940.892,370.1" transform="translate(-884.034 -362.797)" fill="#fff" fill-rule="evenodd"/><path d="M480.4,321.517a127.1,127.1,0,0,0,96.074-.9,48.271,48.271,0,0,0-1.953-9.833,82.956,82.956,0,0,1-52.536,14.971l-2.1-48.156-1.519.3s0,15.858.014,47.571a82.88,82.88,0,0,1-36.509-12.759,48.254,48.254,0,0,0-1.475,8.8" transform="translate(-471.409 -276.833)" fill="#fbe86c" fill-rule="evenodd"/><path d="M478.634,328.619a178.887,178.887,0,0,0,96.3-.561,48.138,48.138,0,0,0-.492-9.093,108.311,108.311,0,0,1-36.156,10.624l-.745-50.48-1.752-.367-.644,51.151a108.47,108.47,0,0,1-19.587-.166l-3.006-49.694-2.268.762.1,48.293a108.313,108.313,0,0,1-31.354-9.662,48.136,48.136,0,0,0-.4,9.192" transform="translate(-469.71 -277.893)" fill="#e7d34e" fill-rule="evenodd"/><path d="M573.992,407.418a266.977,266.977,0,0,1-94.592-.751,48.05,48.05,0,0,1-.832-9.282q7.022,2.187,14.178,3.718l.153-27.382-.007,0v-.055a1.121,1.121,0,0,0-.042-.306v-.265a1.039,1.039,0,0,1,.021-.4,1.081,1.081,0,0,0,.01-.152v-.412a1.093,1.093,0,0,0-.006-.117l.155-8.691,1.041-.989,1.723,39.4q1.8.349,3.6.656l-.134-44.236q1.482-.972,1.566-1.02l1.888,45.788a161.439,161.439,0,0,0,46.233.213h0c.223-5.288.913-22.265,1.672-47.271q-.234-.135,1.415.839l-.254,46.01q3.137-.5,6.258-1.116l.575-40.03,1.049.949s.18,2.212.542,6.636l3-2.968.686.809-3.475,3.748.84,30.184q6.919-1.522,13.724-3.658a48.044,48.044,0,0,1-.979,10.159" transform="translate(-469.708 -349.546)" fill="#c7b434" fill-rule="evenodd"/><path d="M490.347,580.661q83.612,4.842,91.783-.159a48.23,48.23,0,0,0,1.79-7.758q-2.071.282-4.145.542l-.834-17.254,3.684-3.2-.266-.914-3.475,2.7.074-11.052-1.2-2.169-.9,18.326-6.51-5.137-.259.383,6.608,6.312-.724,12.465a394.606,394.606,0,0,1-77.119,1.328l-.284-14.485.02-.019v-.829a1.111,1.111,0,0,1-.014-.179v-.442a1.109,1.109,0,0,1-.014-.2v-.043a1.119,1.119,0,0,1-.028-.27c0-.041,0-.082,0-.123l-.725-21.781-1.372,1.9L496.2,554.14l-.056-.055v.255a1.081,1.081,0,0,1-.025.237,1.107,1.107,0,0,1-.024.135l0,.027v.069a1.048,1.048,0,0,1-.025.229c0,.026-.007.053-.011.079v.5a2.486,2.486,0,0,1-.122.594,1.124,1.124,0,0,1-.039.163c-.006.033-.013.065-.022.1l-.738,18.279q-3.205-.289-6.407-.631a48.255,48.255,0,0,0,1.621,6.539" transform="translate(-479.15 -517.642)" fill="#a49323" fill-rule="evenodd"/><path d="M410.774,1124.961c31.854,0,57.676,2.66,57.676,5.942s-25.823,5.942-57.676,5.942-57.676-2.661-57.676-5.942,25.823-5.942,57.676-5.942" transform="translate(-353.098 -1064.366)" fill="#94561b" fill-rule="evenodd"/><path d="M596.32,1166.112c24.7,0,44.722,1.36,44.722,3.037s-20.023,3.037-44.722,3.037-44.722-1.36-44.722-3.037,20.023-3.037,44.722-3.037" transform="translate(-537.583 -1102.611)" fill="#6d3715" fill-rule="evenodd"/><path d="M1056.451,482.59q4.368,1.782,4.9,2.688l4.677,5.284,2.736-2.726-5.717-4.347a1.1,1.1,0,0,0-.794-.844c-1.911-2.2-2.99-2.938-4.027-2.556q-4.246,1.54-1.775,2.5" transform="translate(-1005.948 -464.933)" fill="#f58254" fill-rule="evenodd"/><path d="M1144.2,546.111l-1.065.749-4.94-5.412a.157.157,0,0,1,.2-.21l5.8,4.873" transform="translate(-1082.754 -521.845)" fill="#df5134" fill-rule="evenodd"/><path d="M1369.155,1075.906a5.208,5.208,0,0,0,2.4-.043.455.455,0,0,0,.113-.389.289.289,0,0,0-.263-.219,1.773,1.773,0,0,1-.894-.122l-3.171-1.946c-.271-.607.181-3.21,1.033-6.451a9.063,9.063,0,0,1-3.121-1.1,10.756,10.756,0,0,0-.342,5.443,7.859,7.859,0,0,1-.019,3.052,1.353,1.353,0,0,0-.171,1.3,1.022,1.022,0,0,0,1.049.545,18.031,18.031,0,0,1,3.388-.075" transform="translate(-1293.203 -1009.233)" fill="#f58254" fill-rule="evenodd"/><path d="M1374.309,1068.829a1.1,1.1,0,0,0-1.38-.556,10.241,10.241,0,0,0-.481,5.1,9.671,9.671,0,0,1-.016,3.114,2.089,2.089,0,0,1,1.067,0,30.03,30.03,0,0,0-.012-3.083c.015-2.291.376-4.054.822-4.579" transform="translate(-1300.379 -1011.62)" fill="#df5134" fill-rule="evenodd"/><path d="M1202.1,591.571q7.216,2.847,1.427,12.285a62.322,62.322,0,0,1,.02,11.145c-1.11.154-2.7-.313-5.138-1.681q.78-4.336-1.25-15.811a6.1,6.1,0,0,0-1.313-2.505c-3.972-5.7-7.107-9.292-9.549-10.822a11.791,11.791,0,0,1,3.428-4.776q7.183,7.047,12.375,12.166" transform="translate(-1127.47 -557.328)" fill="#847334" fill-rule="evenodd"/><path d="M1219.048,660.509a78.156,78.156,0,0,0,.158-9.748s.578-1.934-.784-9.489L1206.9,629.9l-.754,1.156q7.949,8.073,10.034,12.372,2.168,11.818,1.338,15.9a3.15,3.15,0,0,0,1.531,1.187" transform="translate(-1145.917 -604.255)" fill="#61521d" fill-rule="evenodd"/><path d="M1381.382,664.211a8.219,8.219,0,0,1-3.18,3.527l-9.179-3.906,1.465-3.418q6.07,2.14,10.895,3.8" transform="translate(-1297.295 -632.617)" fill="#847334" fill-rule="evenodd"/><path d="M1386.931,691.392l-1.147,1.229-8.175-3.408.295-1.081,9.027,3.26" transform="translate(-1305.275 -658.378)" fill="#61521d" fill-rule="evenodd"/><path d="M1561.319,843.371a11.353,11.353,0,0,1,3.56,2.445q2.188-4.379,2.67-5.723a39.44,39.44,0,0,0-5.243,2.143,2.063,2.063,0,0,1-.987,1.134" transform="translate(-1476.014 -799.611)" fill="#847334" fill-rule="evenodd"/><path d="M1569.085,843.279l1.068.154q1.7-.88,3.373-1.812l.775-1.931-4.506,2.253a3.8,3.8,0,0,1-.71,1.336" transform="translate(-1483.232 -799.236)" fill="#61521d" fill-rule="evenodd"/><path d="M1371.169,714.112l-.508,2.207-5.9-5.82a12.1,12.1,0,0,0,4.043,2.148q1.981.536,2.363,1.465m.325,2.664q4.748,1.5,6.338,1.132.262-1.056,2.007-6.139a6.564,6.564,0,0,0-2.986-1.2c-2.563-.3-3.412,4.422-5.133,4.085A2.805,2.805,0,0,0,1371.493,716.776Z" transform="translate(-1293.336 -679.166)" fill="#9f8c4a" fill-rule="evenodd"/><path d="M1560.67,758.9q-3.489,6.7,4.834.3-1.387-.356-1.07-1.1-3.66-.307-3.764.8" transform="translate(-1474.454 -723.346)" fill="#ee6a34" fill-rule="evenodd"/><path d="M1572.673,758.07l-.628,1.362a23.88,23.88,0,0,0,4.3-1.066,1.2,1.2,0,0,1-.619-.659c-2.5-.668-3.717-.863-3.058.363" transform="translate(-1485.983 -722.548)" fill="#c2321b" fill-rule="evenodd"/><path d="M1365.536,803.655q7.916-2.433,6.035,4c-.6,6.359-1.87,6.627-1.51,7.811q-3.965-3.54-4.524-11.816m6.75-1.059q4.9,3.609,12.64.152c.881,1.21,1,2.514.355,2.817-1.543,1.572-12.136,4.988-12.878,1.055A13.922,13.922,0,0,1,1372.286,802.6Z" transform="translate(-1294.054 -764.761)" fill="#9f8c4a" fill-rule="evenodd"/><path d="M1527.354,880.163l-1.205,4.015a17.194,17.194,0,0,0,5.761-.879c.957-.352-.272-2.418-1.257-2.621q-1.655-.216-3.3-.515" transform="translate(-1443.328 -836.851)" fill="#9f8c4a" fill-rule="evenodd"/><path d="M1275.815,611.669l-1.208,2.887s-1.548-1-3.809-2.515c-.856.085-1.132.319-1.913-.15-.69-.415-.773-1.191-.093-2.751q.709-1.507,1.855-.874.864-.625,1.281,1.669l3.2,1.442.691.292" transform="translate(-1203.703 -583.977)" fill="#f58254" fill-rule="evenodd"/><path d="M1380.475,772.051q6.252.921,5.819-.239a8.876,8.876,0,0,1-6.314-2.553c-.224,1.4-.05,2.752.495,2.791m-1.555,1.708-1.025,1.5c-.182-1.849-2.443-1.347-4.112-.983a8.152,8.152,0,0,1-.128-1.775Q1379.969,770.114,1378.92,773.759Zm3.714-.671q6.6.1,9.453-1.338a2.552,2.552,0,0,1,.379.889,15.265,15.265,0,0,1-7.935,2.406q-2.01-.087-.28,1.59Q1380.717,776.161,1382.634,773.088Z" transform="translate(-1301.597 -733.778)" fill="#877327" fill-rule="evenodd"/><path d="M1537.643,733.057l-1.875.25c.74-1.63,1.869-4.166,2.959-6.652,1.215.377.561,2.408.561,2.408-1.033,2.666-1.645,3.994-1.645,3.994" transform="translate(-1452.267 -694.181)" fill="#d2c380" fill-rule="evenodd"/><path d="M1579.412,637.641a20.213,20.213,0,0,0-2.776,4.578c-.627,1.119-1.558,1.174-3.64,1.307a3.779,3.779,0,0,1-1.969-.572,1.077,1.077,0,0,1-.474-1.452,32.274,32.274,0,0,0,.625-3.457,1.273,1.273,0,0,1,.776-1.13.491.491,0,0,0,.239-.561q-.13-.93,1.477-2.344,5.783.932,5.742,3.632" transform="translate(-1484.506 -608.076)" fill="#f58254" fill-rule="evenodd"/><path d="M1592.345,657.205a1.258,1.258,0,0,1,.94.449,1.81,1.81,0,0,1,.575-1.359q.811-.787-.533-1.489,2.668-.891,2.155,1.808a11.11,11.11,0,0,1-1.971,4.014c-1.183,1.673-1.68,1.434-4.642,1.755q-.5-.114-.313-.634c2.361-.3,3.468-.445,4.316-2.149a1.261,1.261,0,1,1-.526-2.394" transform="translate(-1501.28 -627.2)" fill="#d03f23" fill-rule="evenodd"/><path d="M1620.221,617.865a10.9,10.9,0,0,0,1.794-.518,1.643,1.643,0,0,0,.157-.995,1.382,1.382,0,0,1,.176.727,5.159,5.159,0,0,0,.423-2,2.2,2.2,0,0,1,.12.957,4.029,4.029,0,0,0,.035-2.368,2.836,2.836,0,0,1,.394,1.147,3.67,3.67,0,0,0-.91-2.73,1.2,1.2,0,0,1,.733.676q-.078-.949-1.741-1.672a2.894,2.894,0,0,1,.737.13,3.953,3.953,0,0,0-2.214-.75,3.49,3.49,0,0,1,.6-.151,2.447,2.447,0,0,0-1.667.02q.066-.172.452-.348a2.761,2.761,0,0,0-2.03.768,1.474,1.474,0,0,1,.249-.531,2.918,2.918,0,0,0-.871.782,1.352,1.352,0,0,1,.181-.5,3.182,3.182,0,0,0-.706.807q-.383.6.134.539a1.559,1.559,0,0,1,1.322.871c.222.4.771.563,1.7.707,1.295.141,1.828.818,1.043,1.559a.542.542,0,0,0-.1.777c.2.281.117.671-.13,1.138l-1.386,2.951a.228.228,0,0,0,.3-.016l1.2-1.971" transform="translate(-1526.806 -585.747)" fill="#19120e" fill-rule="evenodd"/><path d="M1663.188,709.247l1.773-1.187a1.037,1.037,0,1,0-1.377-1.491l-1.061,2.078a.468.468,0,0,0,.666.6" transform="translate(-1570.031 -675.109)" fill="#f58254" fill-rule="evenodd"/><path d="M1672.85,714.407l1.089-.729a.637.637,0,1,0-.846-.916l-.652,1.277a.288.288,0,0,0,.409.369" transform="translate(-1579.266 -681.021)" fill="#ad181b" fill-rule="evenodd"/><path d="M1626.328,688.955A1.066,1.066,0,1,1,1625.24,690a1.067,1.067,0,0,1,1.088-1.045" transform="translate(-1535.422 -659.143)" fill="#fff" fill-rule="evenodd"/><path d="M1626.235,695a.765.765,0,1,1-.781.75.765.765,0,0,1,.781-.75" transform="translate(-1535.622 -664.758)" fill="#868686" fill-rule="evenodd"/><path d="M1630.149,699.215a.468.468,0,1,1-.477.458.468.468,0,0,1,.477-.458" transform="translate(-1539.542 -668.678)" fill="#040505" fill-rule="evenodd"/><path d="M1629.024,693.128a.319.319,0,1,1-.326.313.319.319,0,0,1,.326-.313" transform="translate(-1538.636 -663.021)" fill="#fff" fill-rule="evenodd"/><path d="M1584.759,668.964a1,1,0,1,1-1.022.983,1,1,0,0,1,1.022-.983" transform="translate(-1496.849 -640.564)" fill="#ba2f1b" fill-rule="evenodd"/><path d="M1585.555,666.3a.873.873,0,1,1-.89.855.873.873,0,0,1,.89-.855" transform="translate(-1497.712 -638.088)" fill="#fff" fill-rule="evenodd"/><path d="M1585.888,670.455a.609.609,0,1,1-.621.6.609.609,0,0,1,.621-.6" transform="translate(-1498.272 -641.949)" fill="#868686" fill-rule="evenodd"/><path d="M1589,673.811a.372.372,0,1,1-.379.365.372.372,0,0,1,.379-.365" transform="translate(-1501.39 -645.068)" fill="#040505" fill-rule="evenodd"/><path d="M1588.638,670.193a.254.254,0,1,1-.259.249.254.254,0,0,1,.259-.249" transform="translate(-1501.164 -641.706)" fill="#fff" fill-rule="evenodd"/><path d="M1583.9,714.9c.052-.015.1.028.12.1a.223.223,0,0,1-.049.2,1.535,1.535,0,0,1-2.621.041,1.773,1.773,0,0,1-.044-1.191.3.3,0,0,1,.127-.2.125.125,0,0,1,.176.025,1.939,1.939,0,0,0,2.29,1.016" transform="translate(-1494.521 -682.265)" fill="#861417" fill-rule="evenodd"/><path d="M1591.045,652.564a.082.082,0,0,1-.127-.044.151.151,0,0,1,.048-.165q1.2-1.223,1.877,1.25a.489.489,0,0,1-.2.526.27.27,0,0,1-.41-.164q-.452-1.9-1.185-1.4" transform="translate(-1503.516 -624.752)" fill="#19120e" fill-rule="evenodd"/><path d="M1628.078,678.333a.123.123,0,0,0,.239-.057q-.061-1.812-2.666-.905a.4.4,0,0,0,.243.765q1.942-.751,2.184.2" transform="translate(-1535.554 -648.095)" fill="#19120e" fill-rule="evenodd"/><path d="M1586.157,717.959c.189-.151.272-.361.3-.347a1.879,1.879,0,0,1-2.248-1.036,1.3,1.3,0,0,0-.084.536,1.8,1.8,0,0,0,2.033.846" transform="translate(-1497.208 -684.815)" fill="#fff" fill-rule="evenodd"/><path d="M1628.212,622a2.426,2.426,0,0,0-.893.587,1.727,1.727,0,0,1,1.759-.809.905.905,0,0,0-.812.431,1.544,1.544,0,0,1,1.4-.075,1.781,1.781,0,0,0-.858.354,1.142,1.142,0,0,1,.527-.061,1.223,1.223,0,0,0-.786.673.885.885,0,0,1,.181-.423.548.548,0,0,0-.311.216.813.813,0,0,1,.517-.719,1.142,1.142,0,0,0-1.008.618,1.264,1.264,0,0,1,.284-.792" transform="translate(-1537.355 -596.683)" fill="#806757" fill-rule="evenodd"/><path d="M1644.6,636.935a2.011,2.011,0,0,0-.74.487,1.433,1.433,0,0,1,1.459-.671.751.751,0,0,0-.673.358,1.281,1.281,0,0,1,1.16-.062,1.477,1.477,0,0,0-.711.293.948.948,0,0,1,.437-.051,1.014,1.014,0,0,0-.652.558.734.734,0,0,1,.151-.351.454.454,0,0,0-.258.179.674.674,0,0,1,.429-.6.948.948,0,0,0-.836.513,1.05,1.05,0,0,1,.236-.657" transform="translate(-1552.724 -610.607)" fill="#806757" fill-rule="evenodd"/><path d="M1687.9,659.927a1.729,1.729,0,0,1,.038.76,1.23,1.23,0,0,0-.275-1.351.645.645,0,0,1,.094.648,1.1,1.1,0,0,0-.545-.835,1.269,1.269,0,0,1,.158.642.816.816,0,0,0-.187-.329.871.871,0,0,1-.056.735.631.631,0,0,0,.167-.282.388.388,0,0,1,.007.269.578.578,0,0,0,.2-.6.814.814,0,0,1,.069.839.9.9,0,0,0,.335-.5" transform="translate(-1592.944 -631.441)" fill="#806757" fill-rule="evenodd"/><path d="M1665.223,742.6a.468.468,0,1,1-.477.458.468.468,0,0,1,.477-.458" transform="translate(-1572.139 -708.998)" fill="#040505" fill-rule="evenodd"/><path d="M1572.9,743.559q.187,1.13,1.964,1.019-1.183-.277-.645-1.418a.243.243,0,0,0-.412-.255q-.374,1.02-.907.655" transform="translate(-1486.779 -709.192)" fill="#19120e" fill-rule="evenodd"/><path d="M1639.763,663.1c.3.006.535.14.532.3s-.246.283-.543.278-.535-.14-.532-.3.247-.284.543-.278" transform="translate(-1548.415 -635.115)" fill="#fbb697" fill-rule="evenodd"/><path d="M1591.283,680.708a.509.509,0,0,0,.265.389.5.5,0,0,0,.466,0,.681.681,0,0,0,.693.133.661.661,0,0,0,.425-.553.689.689,0,0,0-.3-.64l.9-1.466a.3.3,0,0,0-.136-.353.289.289,0,0,0-.368.069l-1.566,1.336q-.861.3-.6.807a.328.328,0,0,1,.223.275" transform="translate(-1503.598 -649.132)" fill="#ba241b" fill-rule="evenodd"/><path d="M1597.072,685.165a.444.444,0,0,0,.743.044.553.553,0,0,1-.092-.763l1.116-1.378a.072.072,0,0,0-.083-.09l-1.458,1.288a.734.734,0,0,0-.227.9" transform="translate(-1509.179 -653.587)" fill="#d63723" fill-rule="evenodd"/><path d="M1594.3,702.892c.133-.06.267-.024.3.08a.272.272,0,0,1-.18.3c-.133.06-.267.024-.3-.08a.272.272,0,0,1,.18-.3" transform="translate(-1506.492 -672.069)" fill="#ef5e49" fill-rule="evenodd"/><path d="M1678.772,719.927a.747.747,0,0,1-.224.23l-1.089.729a.223.223,0,0,1-.044-.306l.454-.857a.479.479,0,0,1,.9.2" transform="translate(-1583.874 -687.5)" fill="#c43c21" fill-rule="evenodd"/><path d="M1359.167,776.1q.063,1.465.063,1.465a10.731,10.731,0,0,0-6.113.488l-.508-1.465a11.915,11.915,0,0,1,6.558-.489m.519-1.032-.231,1.723c3.614,2.858,9.4,2.622,13.457-.105a2.519,2.519,0,0,0,.18-2.132C1368.629,777.856,1363.029,778.07,1359.685,775.066Z" transform="translate(-1282.04 -738.697)" fill="#e4d89e" fill-rule="evenodd"/><path d="M1507.966,724.7c.564-.53,1.251-.714,1.535-.412s.058.977-.506,1.507-1.251.714-1.535.412-.058-.977.506-1.507" transform="translate(-1425.844 -691.848)" fill="#b19e57" fill-rule="evenodd"/><path d="M1527.926,910.623q.025,1.207.025,1.207a21.1,21.1,0,0,0,5.4-.621.944.944,0,0,0-.341-.755l-5.085.169" transform="translate(-1444.979 -865.003)" fill="#89762d" fill-rule="evenodd"/><path d="M1437.983,850.795l.787,1.725q-.115,6.55.566,8.636a2.564,2.564,0,0,1-1.465.391,35.388,35.388,0,0,1,.113-10.751" transform="translate(-1360.949 -809.557)" fill="#191810" fill-rule="evenodd"/><path d="M1413.061,824.891l.393,1.143a9.607,9.607,0,0,0-1.375,6.6l-1.238.3q-1.021-2.519,2.219-8.042" transform="translate(-1335.934 -785.482)" fill="#191810" fill-rule="evenodd"/><path d="M1443.688,763.259a2.241,2.241,0,0,0,1.322-.031,15.667,15.667,0,0,1,.014-7.462,1.884,1.884,0,0,1-1.1-.944c-.824,2.543-1.165,7-.237,8.437" transform="translate(-1366.172 -720.36)" fill="#222113" fill-rule="evenodd"/><path d="M1449.2,809.014a1.69,1.69,0,0,0,1.544,1.213l2.659,4.013q.592-.751.466-3.669l-1.578-1.826q.708-2.766-.251-1.947-.288-1.5-1.68-.762-2,1.542-1.16,2.978" transform="translate(-1371.578 -767.732)" fill="#f58254" fill-rule="evenodd"/><path d="M1457.649,837.321l-.225,1.387-2.755-4.087a1.566,1.566,0,0,1-1.457-.96,1.2,1.2,0,0,1,.039-1.245,1.346,1.346,0,0,0,1.74,1.319l2.658,3.586" transform="translate(-1375.399 -792.476)" fill="#df5134" fill-rule="evenodd"/><path d="M1500.944,869.858a1.794,1.794,0,0,0,1.8.553,6.713,6.713,0,0,0,1.167-4.833l-1.945-.819q.174,3.443-1.024,5.1" transform="translate(-1419.902 -822.535)" fill="#e4d89e" fill-rule="evenodd"/><path d="M1506.419,909.834a1.164,1.164,0,0,0,1.073.427,5.887,5.887,0,0,0,.863-2.059,8.551,8.551,0,0,1-1.234-.243,5.866,5.866,0,0,1-.7,1.875" transform="translate(-1424.991 -862.685)" fill="#c3b36e" fill-rule="evenodd"/><path d="M1291.679,627.508l-.586,1.056-3.455-2.3q-1.28.147-1.406.012a18.411,18.411,0,0,1,1.015-2.526,4.234,4.234,0,0,0,.764,1.726l3.667,2.03" transform="translate(-1220.35 -598.517)" fill="#df5134" fill-rule="evenodd"/><path d="M1266.472,610.046h0a1.3,1.3,0,0,1,.92,1.559l-.3,1.215a1.236,1.236,0,0,1-1.525.9h0a1.3,1.3,0,0,1-.92-1.559l.3-1.215a1.236,1.236,0,0,1,1.524-.9" transform="translate(-1200.256 -585.766)" fill="#f99e78" fill-rule="evenodd"/><path d="M1293.512,607.186a3.572,3.572,0,0,1,.291,1.169.279.279,0,0,1-.528.121q-.328-.616-.407-.3-.247.636-.681.382-.627-.407.421-1.443c.458-.4.725-.359.9.074" transform="translate(-1225.666 -582.823)" fill="#fbb191" fill-rule="evenodd"/><path d="M1349.513,653.357a2.948,2.948,0,0,0,1.927.964l1.435-4.141q-.869-.3-1.722-.635l-1.64,3.813" transform="translate(-1279.163 -622.515)" fill="#e4d89e" fill-rule="evenodd"/><path d="M1356.62,682.268a2.073,2.073,0,0,0,1.176.508l.563-1.48-1.148-.43Z" transform="translate(-1285.768 -651.625)" fill="#c3b36e" fill-rule="evenodd"/><path d="M1667.993,671.316c.046.273.184.409.184.545s-.046.273-.184.273-.184-.136-.184-.273.138-.273.184-.545" transform="translate(-1574.986 -642.749)" fill="#fff"/><path d="M1660.8,714.06c.035.207.14.31.14.414s-.035.207-.14.207-.14-.1-.14-.207.1-.207.14-.414" transform="translate(-1568.344 -682.475)" fill="#fff"/><path d="M1189.736,1079.8a15.554,15.554,0,0,0,2.511-.042c.959-.135.836-1.319-.37-2.992.11-.175-.161-.731-.6-.776l-5.893-5.756-1.683,3.719,5.374,3.278a.868.868,0,0,1,.295.983q-.625,1.567.368,1.586" transform="translate(-1125.057 -1013.506)" fill="#f58254" fill-rule="evenodd"/><path d="M1203.155,1109.036l.9-1.145,3.788,3.55a1.482,1.482,0,0,1,.476,1.864,1.543,1.543,0,0,0-.277,1.051,1.757,1.757,0,0,1-.505.013,1.965,1.965,0,0,1,.234-1.117,1.087,1.087,0,0,0-.457-1.34l-4.153-2.876" transform="translate(-1143.138 -1048.501)" fill="#df5134" fill-rule="evenodd"/><path d="M712.618,1074.7a4.979,4.979,0,0,1-2.294-.041.435.435,0,0,1-.108-.372.276.276,0,0,1,.252-.21,1.7,1.7,0,0,0,.855-.116l3.033-1.861c.259-.58-.173-3.07-.988-6.169a8.669,8.669,0,0,0,2.985-1.048,10.286,10.286,0,0,1,.328,5.206,7.518,7.518,0,0,0,.018,2.918,1.294,1.294,0,0,1,.164,1.244.978.978,0,0,1-1,.521,17.257,17.257,0,0,0-3.24-.071" transform="translate(-684.993 -1008.529)" fill="#f58254" fill-rule="evenodd"/><path d="M771.765,1067.932a1.056,1.056,0,0,1,1.32-.531,9.794,9.794,0,0,1,.46,4.881,9.251,9.251,0,0,0,.016,2.978,1.993,1.993,0,0,0-1.02,0,28.706,28.706,0,0,1,.011-2.948c-.015-2.191-.36-3.877-.786-4.379" transform="translate(-742.206 -1010.812)" fill="#df5134" fill-rule="evenodd"/><path d="M754.187,927.107a43.155,43.155,0,0,1,.318-4.383c.078-.549.184-.925.671-1.143,0,0,1.716-.672,5.078-1.642,0,0-.276-3.2-.911-6.867-5.294,3.17-8.193,5.332-8.193,5.332-1.021.654-1.268,1.338-1.32,2.891q.143,5.632.143,5.632a12.708,12.708,0,0,0,4.213.181" transform="translate(-721.82 -867.437)" fill="#847334" fill-rule="evenodd"/><path d="M790.3,936.017l.4-5.406-1.859,1.162a25.057,25.057,0,0,0-.436,3.166l-2.637,1.456a2.54,2.54,0,0,0-1.441,1.976q-.06,4.052-.06,4.052a7.08,7.08,0,0,0,1.139.019l.277-3.892a1.48,1.48,0,0,1,1-1.366l3.62-1.167" transform="translate(-753.826 -883.737)" fill="#5f5324" fill-rule="evenodd"/><path d="M977.837,866.026a8.7,8.7,0,0,0,2.7-3.392s-5.191-5.738-13.09-14.247c-6.524-4.53-7.41-3.253-5.142.863l1.194,5.855,14.338,10.92" transform="translate(-918.245 -804.662)" fill="#847334" fill-rule="evenodd"/><path d="M1002.35,900.713l1.158-.843-15.3-15.234,1.262,6.125,12.878,9.952" transform="translate(-943.369 -841.008)" fill="#5f5324" fill-rule="evenodd"/><path d="M1110.865,771.645l-.741,2.918,5.547,1.1a9.316,9.316,0,0,0,2.266,1.491.456.456,0,0,0,.745-.357c.8.363,1.08-.206,1.192-1.9.062-1.121-1.231-1.263-2.215-1.31l-1.878-.149-4.916-1.795" transform="translate(-1056.675 -735.995)" fill="#f58254" fill-rule="evenodd"/><path d="M1133.728,799.26a16.32,16.32,0,0,0,1.783,1.229,22.118,22.118,0,0,1-1.939-2.078l-3.641-.972q-.749.717-.24,1.019l4.036.8" transform="translate(-1074.67 -759.969)" fill="#df5134" fill-rule="evenodd"/><path d="M687.379,680.195a52.662,52.662,0,0,1,.169,6.292c-4.728-3.659-6.981-4.531-7.641-6.889l-.738-2.691a50.075,50.075,0,0,0,4.916-1.013l1.042,2.474a3.893,3.893,0,0,0,2.252,1.828" transform="translate(-656.147 -647.003)" fill="#847334" fill-rule="evenodd"/><path d="M720.876,688.574l-.372,2.765q-4.737-3.564-4.694-6.367l1.906-.372.79,1.836a4.147,4.147,0,0,0,2.37,2.138" transform="translate(-690.201 -655.096)" fill="#5c4f1e" fill-rule="evenodd"/><path d="M945.64,712.294l-.731,3.5-11.127-2.4a4.041,4.041,0,0,1-1.122-5.324l12.98,4.222" transform="translate(-891.24 -676.91)" fill="#847334" fill-rule="evenodd"/><path d="M951.52,748.963l-.4,1.191-11.393-2.528-.658-1.956,12.447,3.294" transform="translate(-897.701 -711.853)" fill="#5c4f1e" fill-rule="evenodd"/><path d="M779.51,736.65q-1.009,4.517-.152,6.624-3.611-.888-6.217-9.5-.149-1.359,1.534-2.008l4.835,4.886" transform="translate(-743.474 -698.93)" fill="#9f8c4a" fill-rule="evenodd"/><path d="M807.088,713.61l3.867,2.149q.762,7.061-4.379-1.194a.733.733,0,0,0,.511-.956" transform="translate(-774.56 -682.057)" fill="#ee6a34" fill-rule="evenodd"/><path d="M869.28,867.217a7.183,7.183,0,0,1-6.578,3.178,11.809,11.809,0,0,0-1.078,7.116,14.806,14.806,0,0,0,11.721-4.016,7.658,7.658,0,0,1-2.276-3.5,4.747,4.747,0,0,0-1.788-2.782" transform="translate(-825.57 -824.819)" fill="#9f8c4a" fill-rule="evenodd"/><path d="M982.641,842.947a1.708,1.708,0,0,1,1.7-.254q-4.308-4.151-6.738-3.953l-.532,1.982q1.192.963,5.574,2.225" transform="translate(-933.013 -798.344)" fill="#9f8c4a" fill-rule="evenodd"/><path d="M827.4,788.705q3.434.263,1.009,6.557a6.232,6.232,0,0,1-1.3-1.275,16.557,16.557,0,0,1,.29-5.281" transform="translate(-793.539 -751.85)" fill="#786a32" fill-rule="evenodd"/><path d="M795.328,724.309a7.86,7.86,0,0,1-.047,1.707c-2.575-1.867-4.3-3.914-4.7-5.333.217-.294.96-.647,1.216-.918q.143,1.716,3.527,4.544" transform="translate(-759.697 -687.778)" fill="#d2c380" fill-rule="evenodd"/><path d="M925.044,904.3q-1.205-.3-.905.329a9.461,9.461,0,0,1,1.787,5.877,6.215,6.215,0,0,0,1.592-.582q-1.118-5.825-2.474-5.624" transform="translate(-883.766 -859.193)" fill="#786a32" fill-rule="evenodd"/><path d="M871.076,834.4c-.234.248-.118.467-.031.8s.762.774,1.088.875a7.312,7.312,0,0,0,7.112-5.028,2.691,2.691,0,0,0-.917-1.128c-2.382,3.294-6.432,4.593-7.252,4.484" transform="translate(-834.377 -790.148)" fill="#222113" fill-rule="evenodd"/><path d="M930.845,905.713l1.234.142q-.3-9.4-3.518-9.58L927.7,897q3.014-.18,3.147,8.708" transform="translate(-887.129 -851.826)" fill="#222113" fill-rule="evenodd"/><path d="M878.264,911.256l-1.2.3q-.942-9.358,2.227-9.96l.951.609q-3.012.218-1.974,9.047" transform="translate(-839.865 -856.775)" fill="#222113" fill-rule="evenodd"/><path d="M861.059,703.188q-3.113,13.793.446,13.161a6.847,6.847,0,0,0,6.48-4.226c.267-.562-.017-1.3-.622-2.162-1.308-2.05-2.223-4.382-2.02-6.226q.5-2.152-4.284-.548" transform="translate(-823.846 -671.734)" fill="#9f8c4a" fill-rule="evenodd"/><path d="M846.87,747.291q.873-.085.991-.43c-1.958-.2-1.671-3.439-.494-11.453,0,0-.79-.027-1.454-.075-1.053,8.348-1.9,11.481.956,11.959" transform="translate(-810.202 -702.246)" fill="#e4d89e" fill-rule="evenodd"/><path d="M786.18,593.9l4.576.115a2.038,2.038,0,0,1,1.323,2.542q-.344,1.142.3,1.645a1.483,1.483,0,0,1,.586,1.345,30.041,30.041,0,0,0-.377,3.457,1.3,1.3,0,0,1-.59,1.107,2.831,2.831,0,0,1-2.751-.019c-2.213-1-2.826-1.463-3.136-3.56q-1.817-6.949.069-6.632" transform="translate(-754.71 -570.79)" fill="#f58254" fill-rule="evenodd"/><path d="M789.241,603.255a1.347,1.347,0,1,1-1.052,2.187,3.671,3.671,0,0,0,1.936,2.89s0,.208.008.624a4.051,4.051,0,0,1-3.04-3.133q-1.18-3.519-.712-4.857-1.24-2.329,1.775-.785-1.285.251-.29,1.041a1.586,1.586,0,0,1,.466,1.715q-.086.421-.134.813a1.344,1.344,0,0,1,1.043-.494" transform="translate(-755.454 -576.064)" fill="#d03f23" fill-rule="evenodd"/><path d="M754.3,571.615a2.619,2.619,0,0,0-1.736-2.517,1.669,1.669,0,0,0-.583-1.175,1.466,1.466,0,0,1-.05-2.219,1.426,1.426,0,0,0-.829.536,1.624,1.624,0,0,1,1.075-1.061,2.128,2.128,0,0,1-.066-1.534,1.781,1.781,0,0,0,.194,1.131,2.7,2.7,0,0,1,.4-1.689,1.579,1.579,0,0,0-.076,1.115q.6-2.775,5.039-1.113,1.557.573,2.059.026a1.061,1.061,0,0,1-.982.491,1.4,1.4,0,0,0,1.768-.485,1.3,1.3,0,0,1-1.2.9,1.641,1.641,0,0,0,1.73-.14,2.284,2.284,0,0,1-2.164,1.2,2.175,2.175,0,0,0,1.561,0,3.132,3.132,0,0,1-2.51.282,1.28,1.28,0,0,0,.792.47,1.966,1.966,0,0,1-1.429-.255.646.646,0,0,0,.517.532,3.7,3.7,0,0,1-2.571-.4c-.935-.527-1.588-.069-.985.837a2.257,2.257,0,0,1,.315,2.1,3.292,3.292,0,0,0,.363,2.729.566.566,0,0,1-.627.243" transform="translate(-723.003 -541.585)" fill="#19120e" fill-rule="evenodd"/><path d="M757.763,656.728a.6.6,0,0,0,.941-.578,4.341,4.341,0,0,0-.979-2.391,1.152,1.152,0,0,0-1.167-.312,1.2,1.2,0,0,0-.506,2.023,17.386,17.386,0,0,0,1.711,1.258" transform="translate(-727.255 -626.101)" fill="#f58254" fill-rule="evenodd"/><path d="M764.537,661.942a.372.372,0,0,0,.581-.356,2.679,2.679,0,0,0-.6-1.475.711.711,0,0,0-.72-.193.738.738,0,0,0-.312,1.248,10.7,10.7,0,0,0,1.055.776" transform="translate(-734.293 -632.131)" fill="#af1f1b" fill-rule="evenodd"/><path d="M819.2,650.457a1.191,1.191,0,1,1-1.191,1.191,1.191,1.191,0,0,1,1.191-1.191" transform="translate(-785.184 -623.363)" fill="#fff" fill-rule="evenodd"/><path d="M828.375,653.973a.76.76,0,1,1-.76.76.76.76,0,0,1,.76-.76" transform="translate(-794.112 -626.631)" fill="#6d6e6e" fill-rule="evenodd"/><path d="M832.036,657.912a.482.482,0,1,1-.482.482.482.482,0,0,1,.482-.482" transform="translate(-797.773 -630.292)" fill="#040505" fill-rule="evenodd"/><path d="M839.951,654.312a.22.22,0,1,1-.22.22.22.22,0,0,1,.22-.22" transform="translate(-805.373 -626.946)" fill="#fff" fill-rule="evenodd"/><path d="M857.178,637.716a1.115,1.115,0,1,1-1.115,1.115,1.115,1.115,0,0,1,1.115-1.115" transform="translate(-820.552 -611.522)" fill="#d03f23" fill-rule="evenodd"/><path d="M861.552,636.571a.987.987,0,1,1-.987.987.987.987,0,0,1,.987-.987" transform="translate(-824.737 -610.457)" fill="#fff" fill-rule="evenodd"/><path d="M869.15,639.482a.63.63,0,1,1-.629.63.63.63,0,0,1,.629-.63" transform="translate(-832.13 -613.163)" fill="#6d6e6e" fill-rule="evenodd"/><path d="M872.182,642.744a.4.4,0,1,1-.4.4.4.4,0,0,1,.4-.4" transform="translate(-835.162 -616.195)" fill="#040505" fill-rule="evenodd"/><path d="M878.737,639.763a.182.182,0,1,1-.182.182.182.182,0,0,1,.182-.182" transform="translate(-841.456 -613.424)" fill="#fff" fill-rule="evenodd"/><path d="M847.4,649.406a.247.247,0,0,0-.423.226l.257,1.891a.5.5,0,0,0,.4.924.752.752,0,0,1,.523-.018.36.36,0,0,0,.459-.038q1.241-1.114.132-1.252l-1.351-1.734" transform="translate(-812.085 -622.31)" fill="#ba241b" fill-rule="evenodd"/><path d="M836.256,695.353a2.48,2.48,0,0,0,3.019.876c.208-.076.2-.5.221-1.137q.011-.5-.493-.3a3.021,3.021,0,0,1-2.516.262c-.083-.038-.127-.053-.19-.027a.19.19,0,0,0-.117.152c-.009.068.014.1.075.177" transform="translate(-802.072 -664.513)" fill="#861417" fill-rule="evenodd"/><path d="M840.335,697.82l.045.2q.766.6,2.755.035v-.335q0-.224-.19-.16a3.505,3.505,0,0,1-2.61.26" transform="translate(-805.934 -667.128)" fill="#fff" fill-rule="evenodd"/><path d="M806.827,636.525a.186.186,0,0,0,.35.1,12.283,12.283,0,0,1,2.838-1.332.453.453,0,0,0-.467-.77q-2.721,1.523-2.721,2.006" transform="translate(-774.792 -608.51)" fill="#19120e" fill-rule="evenodd"/><path d="M857.589,608.386a.15.15,0,0,0,.3-.02,1.554,1.554,0,0,1,1.106-1.546.45.45,0,0,0-.451-.778,2.063,2.063,0,0,0-.952,2.345" transform="translate(-821.93 -582.034)" fill="#19120e" fill-rule="evenodd"/><path d="M845.246,718.31a.537.537,0,0,1,.308.524,2.2,2.2,0,0,0-.112-2.058.108.108,0,0,0-.161.105,1.113,1.113,0,0,1-.813,1.3q-1.66.4-1.871-1.153a.142.142,0,0,0-.277.018q-.087,2.118,1.1,2.266a.4.4,0,0,1-.16-.461,1.963,1.963,0,0,0,1.376.867.8.8,0,0,1-.364-.844.375.375,0,0,1,.224.537.684.684,0,0,0,.3-.649.486.486,0,0,1,.185.621,2.16,2.16,0,0,0,.268-1.068" transform="translate(-807.773 -684.987)" fill="#19120e" fill-rule="evenodd"/><path d="M853.981,658.637a.414.414,0,0,1-.69-.083.516.516,0,0,0,.211-.685l-.8-1.45a.068.068,0,0,1,.091-.069l1.124,1.425a.684.684,0,0,1,.059.862" transform="translate(-817.433 -628.836)" fill="#d63723" fill-rule="evenodd"/><path d="M869.508,679.242c.1-.1.235-.121.3-.039a.268.268,0,0,1-.054.337c-.1.1-.235.121-.3.039a.268.268,0,0,1,.054-.337" transform="translate(-832.961 -650.031)" fill="#ef5e49" fill-rule="evenodd"/><path d="M765.294,667.833a10.187,10.187,0,0,0,1.1.8q.228-.371-.311-1.357a.484.484,0,1,0-.793.552" transform="translate(-736.105 -638.798)" fill="#c43c21" fill-rule="evenodd"/><path d="M783.494,695.195a.482.482,0,1,1-.482.482.482.482,0,0,1,.482-.482" transform="translate(-752.659 -664.942)" fill="#040505" fill-rule="evenodd"/><path d="M823.077,619.1c.292.006.527.138.524.295s-.243.279-.536.274-.527-.138-.524-.295.243-.28.535-.274" transform="translate(-789.397 -594.22)" fill="#fbb697" fill-rule="evenodd"/><path d="M812.669,575.016a2.973,2.973,0,0,1-1.266-.335,2.118,2.118,0,0,0,2.36.257,1.11,1.11,0,0,1-1.112-.186,1.893,1.893,0,0,0,1.655-.457,2.182,2.182,0,0,1-1.135-.078,1.4,1.4,0,0,0,.637-.134,1.5,1.5,0,0,1-1.176-.477,1.084,1.084,0,0,0,.375.421.672.672,0,0,1-.445-.13,1,1,0,0,0,.88.635,1.4,1.4,0,0,1-1.412-.327,1.55,1.55,0,0,0,.638.81" transform="translate(-779.045 -551.939)" fill="#806757" fill-rule="evenodd"/><path d="M766.4,609.675a2.774,2.774,0,0,1,.141-1.272,1.72,1.72,0,0,0,.124,2.2.947.947,0,0,1,.01-1.065,1.193,1.193,0,0,0,.754,1.234,1.674,1.674,0,0,1-.107-1.034.87.87,0,0,0,.246.5,1.586,1.586,0,0,1,.3-1.261,1.664,1.664,0,0,0-.379.531.643.643,0,0,1,.062-.453,1.29,1.29,0,0,0-.519,1.077,1.267,1.267,0,0,1,.108-1.4,2.434,2.434,0,0,0-.743.948" transform="translate(-737.043 -584.278)" fill="#806757" fill-rule="evenodd"/><path d="M891.83,717.485q.959-.458.833.045-.287,2.259,1.816,6.1a7.241,7.241,0,0,1,.864,1.811,6.894,6.894,0,0,1-5.61,4.059q4.3-2.273,2.58-6.825-1.276-3.365-.483-5.189" transform="translate(-851.844 -685.456)" fill="#786a32" fill-rule="evenodd"/><path d="M694.98,529.711c1.575-.456,2.549-1.986.8-2.081-.655-.036-1.272-.922-2.344-1.46a2.67,2.67,0,0,0-.632,2.49s-1.736,2.434-5.106,7.059a1.622,1.622,0,0,0,0,1.925l3.913-.676a2.9,2.9,0,0,1,.12-1.108l3.25-6.148" transform="translate(-663.778 -507.85)" fill="#f58254" fill-rule="evenodd"/><path d="M1109.342,795.723a1.142,1.142,0,0,0,.883.312l.537-2.294-1.023-.177-.4,2.159" transform="translate(-1055.949 -756.366)" fill="#c3b36e" fill-rule="evenodd"/><path d="M710.78,557.261l1.695-.433,3.706-7.026q1.681-.516,1.995-1.146l-2.8-.568a1.264,1.264,0,0,1-.012,1.277l-4.584,7.9" transform="translate(-685.526 -528.223)" fill="#df5134" fill-rule="evenodd"/><path d="M706.57,676.037a2.838,2.838,0,0,0,1.819.263l1.08-4.6-1.932-.608-.968,4.944M676.72,667.07l5.725-.978s-.146-.651-.3-1.779c0,0-1.744.161-5.5.86A4.585,4.585,0,0,0,676.72,667.07Z" transform="translate(-653.736 -636.241)" fill="#e4d89e" fill-rule="evenodd"/><path d="M769.408,514.532c.21.116.413.242.618.358s.409.227.613.334a1.591,1.591,0,0,1,.725.762,1.246,1.246,0,0,1,.021.971h0a1.274,1.274,0,0,1-.678.7,1.222,1.222,0,0,1-.984-.006c-.2-.085-.394-.164-.59-.24s-.39-.149-.584-.217a1.183,1.183,0,0,1-.7-.644,1.429,1.429,0,0,1-.033-1.019h0a1.755,1.755,0,0,1,.632-.89.856.856,0,0,1,.955-.112" transform="translate(-738.467 -496.942)" fill="#f99e78" fill-rule="evenodd"/><path d="M894.8,809.506c-.011-.773.317-1.405.732-1.411s.76.616.771,1.39-.317,1.405-.732,1.411-.76-.616-.771-1.39" transform="translate(-856.554 -769.872)" fill="#b19e57" fill-rule="evenodd"/><path d="M588.884,710.77l.493-10.006c1.344,5.891.8,9.145-.493,10.006" transform="translate(-572.237 -670.118)" fill="#a49323" fill-rule="evenodd"/><path d="M1334.006,1210.259a.661.661,0,1,1-.661.661.661.661,0,0,1,.661-.661" transform="translate(-1264.136 -1143.641)" fill="#fff" fill-rule="evenodd"/><path d="M1339.421,1185.986a.467.467,0,1,1-.467.467.467.467,0,0,1,.467-.467" transform="translate(-1269.349 -1121.082)" fill="#fff" fill-rule="evenodd"/><path d="M1314.175,1167.139a.326.326,0,1,1-.326.327.326.326,0,0,1,.326-.327" transform="translate(-1246.017 -1103.566)" fill="#fff" fill-rule="evenodd"/><path d="M1409.013,1208.283a.326.326,0,1,1-.326.326.326.326,0,0,1,.326-.326" transform="translate(-1334.159 -1141.805)" fill="#fff" fill-rule="evenodd"/><path d="M1212.876,1195.367a.467.467,0,1,1-.467.468.468.468,0,0,1,.467-.468" transform="translate(-1151.739 -1129.801)" fill="#fff" fill-rule="evenodd"/><path d="M1292.346,1113.92a.326.326,0,1,1-.326.326.326.326,0,0,1,.326-.326" transform="translate(-1225.729 -1054.104)" fill="#fff" fill-rule="evenodd"/><path d="M1321.707,1077.787a.378.378,0,1,1-.378.378.378.378,0,0,1,.378-.378" transform="translate(-1252.969 -1020.522)" fill="#fff" fill-rule="evenodd"/><path d="M1297.173,1067.716a.27.27,0,1,1-.27.27.27.27,0,0,1,.27-.27" transform="translate(-1230.267 -1011.162)" fill="#fff" fill-rule="evenodd"/><path d="M1317.931,1040.993a.27.27,0,1,1-.27.27.27.27,0,0,1,.27-.27" transform="translate(-1249.559 -986.326)" fill="#fff" fill-rule="evenodd"/><path d="M1174.078,1134.371a.467.467,0,1,1-.468.467.467.467,0,0,1,.468-.467" transform="translate(-1115.68 -1073.111)" fill="#fff" fill-rule="evenodd"/><path d="M1132.17,1112.639a.341.341,0,1,1-.341.341.341.341,0,0,1,.341-.341" transform="translate(-1076.848 -1052.914)" fill="#fff" fill-rule="evenodd"/><path d="M1022.943,1157.94a.642.642,0,1,1-.642.642.642.642,0,0,1,.642-.642" transform="translate(-975.053 -1095.016)" fill="#fff" fill-rule="evenodd"/><path d="M1468.872,1164.49a.467.467,0,1,1-.468.467.467.467,0,0,1,.468-.467" transform="translate(-1389.66 -1101.104)" fill="#fff" fill-rule="evenodd"/><path d="M1482.19,1147.4a.315.315,0,1,1-.315.315.315.315,0,0,1,.315-.315" transform="translate(-1402.179 -1085.22)" fill="#fff" fill-rule="evenodd"/><path d="M1467.608,1103.272a.315.315,0,1,1-.315.315.315.315,0,0,1,.315-.315" transform="translate(-1388.627 -1044.208)" fill="#fff" fill-rule="evenodd"/><path d="M1539.453,1069.145a.315.315,0,1,1-.315.315.315.315,0,0,1,.315-.315" transform="translate(-1455.399 -1012.49)" fill="#fff" fill-rule="evenodd"/><path d="M1231.847,991.766a.378.378,0,1,1-.378.378.378.378,0,0,1,.378-.378" transform="translate(-1169.453 -940.575)" fill="#fff" fill-rule="evenodd"/><path d="M1585.756,1113.755a.378.378,0,1,1-.378.378.378.378,0,0,1,.378-.378" transform="translate(-1498.375 -1053.951)" fill="#fff" fill-rule="evenodd"/><path d="M1596.146,1096.212a.285.285,0,1,1-.285.285.285.285,0,0,1,.285-.285" transform="translate(-1508.118 -1037.646)" fill="#fff" fill-rule="evenodd"/><path d="M1594.027,1029.61a.285.285,0,1,1-.285.285.285.285,0,0,1,.285-.285" transform="translate(-1506.148 -975.747)" fill="#fff" fill-rule="evenodd"/><path d="M1110.111,903.122c.063-.843,17.9,10.847,17.9,10.847l-16.644-.926,16.785,8.526-24.568-10.24,17.153.316Z" transform="translate(-1050.6 -858.148)" fill="#fff" fill-rule="evenodd"/><path d="M777.844,984.98a.467.467,0,1,1-.467.467.468.468,0,0,1,.467-.467" transform="translate(-747.421 -934.268)" fill="#fff" fill-rule="evenodd"/><path d="M849.024,1041.047a.335.335,0,1,1-.335.335.335.335,0,0,1,.335-.335" transform="translate(-813.699 -986.376)" fill="#fff" fill-rule="evenodd"/><path d="M645.7,1102.861a.642.642,0,1,1-.642.642.642.642,0,0,1,.642-.642" transform="translate(-624.442 -1043.826)" fill="#fff" fill-rule="evenodd"/><path d="M1095.417,1140.231a.64.64,0,1,1-.64.64.64.64,0,0,1,.64-.64" transform="translate(-1042.412 -1078.557)" fill="#fff" fill-rule="evenodd"/><path d="M988.151,1196.4a.341.341,0,1,1-.341.341.341.341,0,0,1,.341-.341" transform="translate(-942.997 -1130.765)" fill="#fff" fill-rule="evenodd"/><path d="M1540.294,1184.629a.467.467,0,1,1-.467.467.467.467,0,0,1,.467-.467" transform="translate(-1456.04 -1119.821)" fill="#fff" fill-rule="evenodd"/><path d="M1502.686,996.55a.336.336,0,1,1-.336.336.336.336,0,0,1,.336-.336" transform="translate(-1421.21 -945.021)" fill="#fff" fill-rule="evenodd"/><path d="M1503.782,958.376a.256.256,0,1,1-.256.256.256.256,0,0,1,.256-.256" transform="translate(-1422.302 -909.542)" fill="#fff" fill-rule="evenodd"/><path d="M1474.339,968.831a.194.194,0,1,1-.194.194.194.194,0,0,1,.194-.194" transform="translate(-1394.995 -919.259)" fill="#fff" fill-rule="evenodd"/><path d="M1486.672,951.348a.194.194,0,1,1-.194.194.194.194,0,0,1,.194-.194" transform="translate(-1406.458 -903.01)" fill="#fff" fill-rule="evenodd"/><path d="M1074.043,1068.654a.4.4,0,1,1-.4.4.4.4,0,0,1,.4-.4" transform="translate(-1022.773 -1012.034)" fill="#fff" fill-rule="evenodd"/><path d="M1031.329,1049.475a.266.266,0,1,1-.266.266.266.266,0,0,1,.266-.266" transform="translate(-983.196 -994.209)" fill="#fff" fill-rule="evenodd"/><path d="M1087.129,1027.029a.266.266,0,1,1-.266.266.266.266,0,0,1,.266-.266" transform="translate(-1035.057 -973.348)" fill="#fff" fill-rule="evenodd"/><path d="M1028.279,1104.185a.467.467,0,1,1-.468.468.467.467,0,0,1,.468-.468" transform="translate(-980.174 -1045.057)" fill="#fff" fill-rule="evenodd"/><path d="M719.976,897.015a.467.467,0,1,1-.467.467.467.467,0,0,1,.467-.467" transform="translate(-693.639 -852.513)" fill="#fff" fill-rule="evenodd"/><path d="M1086.624,573.6q.109.565.888.776a.36.36,0,1,0,.055-.7,1.288,1.288,0,0,1-.943-.08" transform="translate(-1034.835 -551.929)" fill="#e7d34e" fill-rule="evenodd"/><path d="M1192.985,501.162q.206-1.064,1.673-1.461a.679.679,0,1,1,.1,1.309,2.427,2.427,0,0,0-1.776.152" transform="translate(-1133.686 -483.216)" fill="#e7d34e" fill-rule="evenodd"/><path d="M1372,603.24q.206,1.064,1.673,1.461a.679.679,0,1,0,.1-1.309,2.426,2.426,0,0,1-1.776-.151" transform="translate(-1300.059 -579.48)" fill="#e7d34e" fill-rule="evenodd"/><path d="M1154.049,710.808q.14.726,1.141,1a.463.463,0,1,0,.07-.893,1.654,1.654,0,0,1-1.211-.1" transform="translate(-1097.499 -679.453)" fill="#e7d34e" fill-rule="evenodd"/><path d="M891.718,550.189q.141-.726,1.141-1a.463.463,0,1,1,.07.893,1.655,1.655,0,0,0-1.211.1" transform="translate(-853.69 -529.225)" fill="#e7d34e" fill-rule="evenodd"/><path d="M1145.867,853.205a1.978,1.978,0,0,0,2.129-.555.672.672,0,1,0-1.014-.814q-.568,1.2-1.114,1.369" transform="translate(-1089.895 -810.154)" fill="#e7d34e" fill-rule="evenodd"/><path d="M1731.337,1208.171c2.362,0,4.276.281,4.276.629s-1.914.629-4.276.629-4.276-.281-4.276-.629,1.914-.629,4.276-.629" transform="translate(-1630.055 -1141.701)" fill="#ba7731" fill-rule="evenodd"/><path d="M1601.132,1197.24c1.525,0,2.76.182,2.76.406s-1.236.406-2.76.406-2.76-.182-2.76-.406,1.236-.406,2.76-.406" transform="translate(-1510.451 -1131.542)" fill="#ba7731" fill-rule="evenodd"/><path d="M512.751,1208.8c2.362,0,4.276.281,4.276.629s-1.914.629-4.276.629-4.276-.281-4.276-.629,1.914-.629,4.276-.629" transform="translate(-497.505 -1142.289)" fill="#ba7731" fill-rule="evenodd"/><path d="M593.354,1180.133c1.544,0,2.8.184,2.8.411s-1.252.411-2.8.411-2.8-.184-2.8-.411,1.252-.411,2.8-.411" transform="translate(-573.793 -1115.642)" fill="#ba7731" fill-rule="evenodd"/></svg>