<svg xmlns="http://www.w3.org/2000/svg" width="457.952" height="432" viewBox="0 0 457.952 432"><g transform="translate(-565.615 -209.865)"><path d="M818.745,646.032l.721.287M589.565,539.1c20.12,57.622,65.69,84.79,122.585,74.388a96.249,96.249,0,0,1,38.413.9,126.87,126.87,0,0,1,39.528,16.646c14.387,9.3,30.167,16.8,46.857,20.871,28.432,6.937,56.308,3.139,81.673-12.351,39.245-23.967,58.5-70.33,48.432-116.591q-1.326-5.777-2.2-11.318h0q-6.641-42.281,13.261-70.813c28.309-42.285,25.181-78.512-13.487-106.578-21.156-15.619-28.729-32.709-32.1-51.486-4.117-24.091-19.334-41.8-38.59-51.379a59.352,59.352,0,0,1-6.13,22.172l-1.629,3.259a59.721,59.721,0,0,1-7.281,11.607l-3.288,4.11-4.433,6.207c-1.305,1.828-2.7,3.62-4.044,5.418l-3.225,4.3a59.505,59.505,0,0,1-5.53,6.376l-4.3,4.3a59.718,59.718,0,0,1-10.512,8.382A59.742,59.742,0,0,1,833.386,320.9a59.863,59.863,0,0,1-14.764,14.38,59.679,59.679,0,0,1-8.167,5.657q-2.345,1.793-4.868,3.352a59.815,59.815,0,0,1-8.611,6.459,59.65,59.65,0,0,1-5.071,4.093,59.749,59.749,0,0,1-9.982,7.735q-.542.488-1.1.965a60.69,60.69,0,0,1-106.359-22.854,157.208,157.208,0,0,0-27.7,10.174v1.891a59.525,59.525,0,0,1-6.57,27.222l-.327,1.245a59.614,59.614,0,0,1-3.68,10.925,59.11,59.11,0,0,1-2.6,9.788,59.2,59.2,0,0,1-7.882,19.241,59.092,59.092,0,0,1-6.291,12.151q-.8,1.5-1.681,2.96-1.009,2.506-2.237,4.893-.712,2.043-1.568,4.018a59.231,59.231,0,0,1-4.9,13.228q-.162.465-.332.927-.208.678-.432,1.354a59.529,59.529,0,0,1-2.161,8.657q-.1.565-.206,1.129v2.774a59.142,59.142,0,0,1-1.753,15.384q-.242,1.59-.568,3.153a59.349,59.349,0,0,1-6.115,21.987l-.553,1.108a59.674,59.674,0,0,1-10.3,15.087q1.353,4.7,2.911,9.161Z" transform="translate(-13.049 -13.369)" fill="#c2aad1" fill-rule="evenodd"/><path d="M819.511,654.74l.721.286M590.331,547.8c14.2,40.671,41.083,66.167,75.675,73.992a59.534,59.534,0,0,1,95.091,3.946,132.448,132.448,0,0,1,29.76,14,166.073,166.073,0,0,0,31.711,16.183,59.537,59.537,0,0,1,70.612-38.039l4.239,1.06a59.135,59.135,0,0,1,14.257,5.258,59.658,59.658,0,0,1,13.851,4.91l2.208,1.1q2.681.719,5.324,1.7,2.6.758,5.1,1.74c26.323-25.67,37.96-63.859,29.658-101.992q-1.327-5.777-2.2-11.318h0q-6.641-42.281,13.261-70.813c28.309-42.286,25.181-78.511-13.487-106.578-21.156-15.619-28.73-32.708-32.105-51.486a69.324,69.324,0,0,0-29.551-46.067A59.261,59.261,0,0,1,882.82,274.7l-.057.042.41-.411a78.081,78.081,0,0,1-6.632,5.772l.611-.611-2.659,2.659a59.273,59.273,0,0,1-5.751,5.229,59.374,59.374,0,0,1-10.882,10.557,59.272,59.272,0,0,1-9.836,8.1l-3.561,3.561a59.538,59.538,0,0,1-12.053,9.3,59.7,59.7,0,0,1-21.292,15.413q-1.2,1.284-2.469,2.5c-.45.474-.908.938-1.37,1.4a59.393,59.393,0,0,1-4.053,5.031,59.165,59.165,0,0,1-8.252,9.369,59.865,59.865,0,0,1-8.992,7.883,59.746,59.746,0,0,1-4.223,5.267A59.551,59.551,0,0,1,676.328,349.1a161.1,161.1,0,0,0-25.571,8.956,59.268,59.268,0,0,1-6.28,27.876l-1.616,3.232a59.264,59.264,0,0,1-5.306,9.014q-1.388,2.237-2.991,4.373-.433.845-.894,1.679a59.182,59.182,0,0,1-8.659,13.786,59.51,59.51,0,0,1-6.115,8.374,59.847,59.847,0,0,1-2.373,9.809l-.8,2.405q-.105.328-.214.656a59.2,59.2,0,0,1-1.307,5.829v9.919a59.751,59.751,0,0,1-2.151,15.891v1.313a59.768,59.768,0,0,1-2.189,16.034,59.733,59.733,0,0,1-2.657,15.687,59.422,59.422,0,0,1-19.349,36.35q1.15,3.865,2.444,7.565Z" transform="translate(-13.815 -22.078)" fill="#d4bedd" fill-rule="evenodd"/><path d="M1626.716,820.821c5.667-19.779,22.085-31.718,36.669-26.667s21.813,25.178,16.145,44.958-22.085,31.718-36.669,26.667-21.812-25.179-16.145-44.958" transform="translate(-657.895 -362.207)" fill="#e8d8ea" fill-rule="evenodd"/><path d="M963.741,429.43q.65-.992,1.329-1.968c24.983-37.317,25.476-69.914-1.329-96.349ZM927.628,499.6a119.172,119.172,0,0,1,16.268-1.434V314.623A74.527,74.527,0,0,1,927.628,294.1ZM657.054,482.625a89.34,89.34,0,0,1,80.461,118.393,126.721,126.721,0,0,1,39.527,16.646c16.032,10.367,32.228,17.488,48.238,21.2a119.089,119.089,0,0,1,51.455-118.507l1.717-1.145q4.613-3.176,9.487-5.9v-291.3c-33-21.111-82.308-16.042-105.375,25.713-26.532,46.437-63.182,67.442-105.845,76.115a195.249,195.249,0,0,0-19.664,4.7Zm-91.429-16.769c1.068,22.593,4.82,42.624,10.861,59.916l2.305-3.458a89.036,89.036,0,0,1,58.418-38.336V335.859Q564.824,368.44,565.624,465.856Z" transform="translate(0 0)" fill="#eadded" fill-rule="evenodd"/><path d="M960.943,1156.02l-5.627,30.389c22.594-1.107,44.588,5.981,64.439,18.654l2.481-5.292a2.013,2.013,0,0,1,3.669.085l4.983,12.079c21.826,12.366,44.109,18.369,65.927,17.554l-9.528-67.275h-39.2a89.3,89.3,0,0,1-11.426-.734h-9.128a175.719,175.719,0,0,1-26.343-2.937h-19.17a89.309,89.309,0,0,1-21.077-2.523" transform="translate(-242.059 -587.697)" fill="#040505" fill-rule="evenodd"/><path d="M789.447,991.83q-.824,10.357,5.315,22.853c6.432,13.087,16.05,24.474,30.751,24.212a30.939,30.939,0,0,0,11.055-59.614q-40.871-15.326-47.121-21.6-2.07,22.5,10.887,38.685a17.618,17.618,0,0,1-10.888-4.536" transform="translate(-138.855 -464.5)" fill="#75529d" fill-rule="evenodd"/><path d="M794.076,965.842c-.294-.589-.826-1.381-1.414-1.087s-.537.931-.243,1.52a375.645,375.645,0,0,0,23.292,40.734,264.606,264.606,0,0,0,25.634,33,1.2,1.2,0,0,0,1.764-1.614,262.288,262.288,0,0,1-25.4-32.7c-8.109-12.22-16.3-25.08-23.629-39.845" transform="translate(-140.745 -468.854)" fill="#fff"/><path d="M872.239,1141.39a1,1,0,0,0-.646-1.885,31.194,31.194,0,0,1-19.217.357,1,1,0,1,0-.576,1.909,33.307,33.307,0,0,0,20.439-.381" transform="translate(-177.321 -577.405)" fill="#fff"/><path d="M844.124,1103.417a1,1,0,0,0-.646-1.885,31.194,31.194,0,0,1-19.217.357,1,1,0,0,0-.576,1.909,33.317,33.317,0,0,0,20.439-.381" transform="translate(-159.857 -553.818)" fill="#fff"/><path d="M851.78,1033.825a1,1,0,0,1-1.548-1.256,31.189,31.189,0,0,0,6.942-17.922,1,1,0,0,1,1.991.115,33.32,33.32,0,0,1-7.384,19.063" transform="translate(-176.649 -499.301)" fill="#fff"/><path d="M889.52,1084.64a1,1,0,1,1-1.548-1.255,31.185,31.185,0,0,0,6.942-17.922,1,1,0,0,1,1.991.116,33.319,33.319,0,0,1-7.385,19.062" transform="translate(-200.091 -530.864)" fill="#fff"/><path d="M1357.65,937.5q1.025,12.882-6.61,28.424c-8,16.278-19.962,30.439-38.248,30.113a38.481,38.481,0,0,1-13.75-74.145q50.834-19.061,58.607-26.865,2.574,27.98-13.541,48.115a21.919,21.919,0,0,0,13.542-5.643" transform="translate(-440.625 -425.586)" fill="#75529d" fill-rule="evenodd"/><path d="M1383.549,905.182c.367-.732,1.026-1.718,1.759-1.352s.668,1.159.3,1.891a467.141,467.141,0,0,1-28.969,50.663,329.221,329.221,0,0,1-31.882,41.038,1.487,1.487,0,0,1-2.195-2.007,326.12,326.12,0,0,0,31.6-40.673c10.085-15.2,20.275-31.193,29.389-49.558" transform="translate(-469.931 -431.002)" fill="#fff"/><path d="M1346.276,1123.521a1.239,1.239,0,1,1,.8-2.345,38.8,38.8,0,0,0,23.9.444,1.24,1.24,0,1,1,.718,2.374,41.432,41.432,0,0,1-25.421-.473" transform="translate(-484.381 -566.012)" fill="#fff"/><path d="M1381.244,1076.293a1.24,1.24,0,0,1,.8-2.345,38.8,38.8,0,0,0,23.9.445,1.239,1.239,0,1,1,.717,2.373,41.437,41.437,0,0,1-25.421-.473" transform="translate(-506.101 -536.676)" fill="#fff"/><path d="M1397.548,989.736a1.239,1.239,0,0,0,1.925-1.562,38.8,38.8,0,0,1-8.634-22.29,1.24,1.24,0,0,0-2.476.143,41.443,41.443,0,0,0,9.185,23.709" transform="translate(-511.042 -468.87)" fill="#fff"/><path d="M1350.609,1052.939a1.24,1.24,0,0,0,1.926-1.562,38.783,38.783,0,0,1-8.634-22.291,1.24,1.24,0,0,0-2.476.143,41.442,41.442,0,0,0,9.184,23.709" transform="translate(-481.886 -508.128)" fill="#fff"/><path d="M1375.715,1105.708q-4.232,7.545-14.271,13.342c-10.517,6.07-22.447,9.485-32.494,2.489a25.762,25.762,0,0,1,19.991-46.357q35.373,8.35,42.6,6.907-9,16.519-25.465,21.709a14.678,14.678,0,0,0,9.634,1.91" transform="translate(-467.282 -537.145)" fill="#8f6bac" fill-rule="evenodd"/><path d="M1390.628,1097.339c.476-.271,1.211-.573,1.481-.1s-.059.893-.537,1.164a312.755,312.755,0,0,1-34.993,17.375,220.331,220.331,0,0,1-33.026,10.937,1,1,0,1,1-.473-1.934,218.381,218.381,0,0,0,32.732-10.84,302.4,302.4,0,0,0,34.815-16.6" transform="translate(-470.022 -551.032)" fill="#fff"/><path d="M1344.435,1167.144a.83.83,0,1,1,1.321-1,25.975,25.975,0,0,0,13.125,9.156.83.83,0,1,1-.487,1.586,27.73,27.73,0,0,1-13.959-9.739" transform="translate(-483.652 -593.779)" fill="#fff"/><path d="M1381.485,1153.915a.83.83,0,1,1,1.322-1,25.971,25.971,0,0,0,13.125,9.155.83.83,0,1,1-.486,1.587,27.744,27.744,0,0,1-13.96-9.739" transform="translate(-506.666 -585.562)" fill="#fff"/><path d="M1416.7,1111.859a.83.83,0,0,0,1.653-.151,25.974,25.974,0,0,1,3.508-15.613.83.83,0,0,0-1.431-.843,27.744,27.744,0,0,0-3.73,16.607" transform="translate(-528.572 -549.697)" fill="#fff"/><path d="M1367.038,1129.509a.83.83,0,0,0,1.652-.151,25.982,25.982,0,0,1,3.508-15.613.83.83,0,1,0-1.43-.843,27.737,27.737,0,0,0-3.73,16.607" transform="translate(-497.726 -560.66)" fill="#fff"/><path d="M1084.586,716.929l34.546-5.614s1.407,61.266,4.22,183.8a53.455,53.455,0,0,1-35.48,2.1q-3.286-180.289-3.286-180.29" transform="translate(-322.355 -311.472)" fill="#bfaad2" fill-rule="evenodd"/><path d="M1085.482,921.427l4.872,3.445q15.082,3.068,27.563-.447s-2.329-54.326-6.983-162.98q-2.873,135.02-25.452,159.982" transform="translate(-322.911 -342.61)" fill="#a484bb" fill-rule="evenodd"/><path d="M1287.517,742.54l22.144-1.363q-5.723-38.7-5.724-38.7c-1.9-13.074-13.043-23.328-31.318-31.391l14.9,71.454" transform="translate(-439.15 -286.484)" fill="#4f3586" fill-rule="evenodd"/><path d="M887.18,771.552l19.479,2.388s2.1-27.636,6.29-82.909q-14.687,7.252-18.353,28.4s-2.472,17.372-7.416,52.117" transform="translate(-199.737 -298.873)" fill="#4f3586" fill-rule="evenodd"/><path d="M1152.662,701.253l40.525-36.714c13.083,5.666,20.4,15.046,20.785,35.23t7.815,166.531a98.2,98.2,0,0,1-65.187,11.011s-1.312-58.686-3.938-176.059" transform="translate(-364.64 -282.417)" fill="#332168" fill-rule="evenodd"/><path d="M999.451,701.253,957.36,664.539c-12.841,5.666-19.763,15.046-19.282,35.23L937.364,866.3a100.187,100.187,0,0,0,65.656,11.011s-1.19-58.686-3.569-176.059" transform="translate(-230.909 -282.417)" fill="#332168" fill-rule="evenodd"/><path d="M1087.527,647.6q-67.652,12.6-71.526,4.073l-7.033,2.083a44.03,44.03,0,0,0,85.934-4.9q-7.628-1.681-7.375-1.256" transform="translate(-275.385 -271.84)" fill="#fff" fill-rule="evenodd"/><path d="M1077.379,529.545l-35.356,37.949-.113,7.551-14.378,3.351a36.751,36.751,0,0,0,71.534-4.127l-14.205-2.566q-7.482-42.159-7.482-42.158" transform="translate(-286.916 -198.567)" fill="#faa77f" fill-rule="evenodd"/><path d="M1072.408,568.753l30.6-32.843,6.624,38.5c-4.978,4.548-29.537,19.507-36.159,10.592q-1.065-16.248-1.064-16.247" transform="translate(-314.79 -202.52)" fill="#dc604e" fill-rule="evenodd"/><path d="M1073.626,583.671c21.329-19.4,31.155-35.09,31.155-35.09s1.559,10.172,3,18.546c-12.3,17.774-25.6,29.435-34.017,18.64q-.138-2.1-.137-2.1" transform="translate(-315.547 -210.391)" fill="#ab302c" fill-rule="evenodd"/><path d="M1021.6,400.471q-7.729,30.312,11.972,37.674c10.4-2.288,11.986-12.949,7.115-35.837-5.259-25.736-23.544-32.185-65.821-32.179-8.14.009-14.952,5.661-15.79,13.667A15.267,15.267,0,0,0,971.7,400.434q38.851-21.693,49.9.036" transform="translate(-244.344 -99.547)" fill="#0e0e0e" fill-rule="evenodd"/><path d="M1007.014,495.57c15.882-3.217,28.388-9.957,36.313-21.909q5.8-8.82,2.166-25.3l-7.236-1.624q-4.748-8.365-1.756-24.428c-.524-14.209-20.275-18.269-32.5-14.972s-19.855,12.915-22.758,26.265c-1.559,7.208-1.05,9.828,3.1,12.581q4.671,3.019,2.831,7.252c-1.374,2.947-.7,5.5,2.106,10.914q11.311,21.94,11.31,21.941.439,10.489,6.433,9.283" transform="translate(-257.657 -121.987)" fill="#fbae89" fill-rule="evenodd"/><path d="M1060.525,452.334a9.81,9.81,0,1,1-9.81,9.81,9.81,9.81,0,0,1,9.81-9.81" transform="translate(-301.316 -150.608)" fill="#b73731" fill-rule="evenodd"/><path d="M1055.314,451.6a8.791,8.791,0,1,1-8.791,8.79,8.791,8.791,0,0,1,8.791-8.79" transform="translate(-298.712 -150.15)" fill="#fff" fill-rule="evenodd"/><path d="M1064.413,453.551a5.227,5.227,0,1,1-5.227,5.227,5.226,5.226,0,0,1,5.227-5.227" transform="translate(-306.577 -151.364)" fill="#368952" fill-rule="evenodd"/><path d="M1070.436,455.121a3.013,3.013,0,1,1-3.012,3.013,3.013,3.013,0,0,1,3.012-3.013" transform="translate(-311.694 -152.339)" fill="#040505" fill-rule="evenodd"/><path d="M1061.18,457.283a1.984,1.984,0,1,1-1.984,1.983,1.983,1.983,0,0,1,1.984-1.983" transform="translate(-306.584 -153.682)" fill="#fff" fill-rule="evenodd"/><path d="M998.8,484.666a8.594,8.594,0,1,1-8.594,8.594,8.594,8.594,0,0,1,8.594-8.594" transform="translate(-263.73 -170.69)" fill="#b73731" fill-rule="evenodd"/><path d="M994,482.016a7.831,7.831,0,1,1-7.831,7.831A7.831,7.831,0,0,1,994,482.016" transform="translate(-261.223 -169.045)" fill="#fff" fill-rule="evenodd"/><path d="M1002.407,484.453a4.656,4.656,0,1,1-4.656,4.656,4.656,4.656,0,0,1,4.656-4.656" transform="translate(-268.417 -170.558)" fill="#368952" fill-rule="evenodd"/><path d="M1007.771,485.852a2.684,2.684,0,1,1-2.684,2.684,2.684,2.684,0,0,1,2.684-2.684" transform="translate(-272.974 -171.427)" fill="#040505" fill-rule="evenodd"/><path d="M997.259,486.685a1.767,1.767,0,1,1-1.767,1.767,1.767,1.767,0,0,1,1.767-1.767" transform="translate(-267.015 -171.945)" fill="#fff" fill-rule="evenodd"/><path d="M1023.409,473.561c.17-1.74.582-2.832,2-3.163a2.676,2.676,0,0,1,3.194,1.951l4.3,16.188a3.889,3.889,0,1,1,5.447,5.024q-4.383-.346-4.165,3.754a7.336,7.336,0,1,1-12.422-7.78l1.645-15.974" transform="translate(-282.524 -161.783)" fill="#d05641" fill-rule="evenodd"/><path d="M1047.81,544.259q7.585-5.853,4-18.687a3.06,3.06,0,0,0-2.13-1.49q.852,6.226-7.967,10.554l-16.108,5.4a110.144,110.144,0,0,1,6.689,11.856q7.746-3.84,15.518-7.635" transform="translate(-285.718 -195.173)" fill="#8a1f1a" fill-rule="evenodd"/><path d="M1053.082,547.278a26.47,26.47,0,0,1-5.605,4.525l-13.9,5.619-1.887-3.214,14.441-5.113a26.547,26.547,0,0,0,6.13-4.247l.822,2.43" transform="translate(-289.498 -208.072)" fill="#fff" fill-rule="evenodd"/><path d="M1066.184,581.776a118.239,118.239,0,0,1-13,4.949l12.139-6.111a7.833,7.833,0,0,0,3.034-2.418,10.81,10.81,0,0,1-2.17,3.58" transform="translate(-302.848 -228.786)" fill="#8a1f1a" fill-rule="evenodd"/><path d="M1036.693,421.564c12.536-3.313,23.675,1.084,22.508,10.4q-4.129-8.666-22.506-4.947c-2.13.382-4.3-1.284-5.272-3.323a5.484,5.484,0,0,1,.81-6.042,3.712,3.712,0,0,0,1.266,3.064,3.491,3.491,0,0,0,3.194.846" transform="translate(-288.987 -129.066)" fill="#171513" fill-rule="evenodd"/><path d="M985.631,464.273c-5.587,4.625-8.51,8.6-6.117,13.117q.141-3.282,9.384-8.866a4.877,4.877,0,0,0,1.878-5.756,5.157,5.157,0,0,0-4.886-3.576,3.748,3.748,0,0,1-.259,5.081" transform="translate(-256.567 -154.868)" fill="#171513" fill-rule="evenodd"/><path d="M1034.02,524.729a4.467,4.467,0,1,1-4.468,4.467,4.467,4.467,0,0,1,4.468-4.467" transform="translate(-288.171 -195.575)" fill="#e7715c" fill-rule="evenodd"/><path d="M1028.462,530.213a2.281,2.281,0,1,1-2.282,2.281,2.281,2.281,0,0,1,2.282-2.281" transform="translate(-286.076 -198.982)" fill="#f58c79" fill-rule="evenodd"/><path d="M1097.314,486.611q-11.216,12.861-20.347,14.337c12.113-8.727,18.714-17.565,14.195-40.263q-5.106-12.7-1.291-27.562a18.826,18.826,0,0,0-.789-11.784q5.828,4.714,5.8,10.94-3.677,14.07,1.939,24.7l7.609,1.592q2.252,17.982-7.113,28.044" transform="translate(-317.622 -131.355)" fill="#dc604e" fill-rule="evenodd"/><path d="M1110.872,474.3l13.338,4.743-.454,1.287-13.339-4.743Z" transform="translate(-338.4 -164.252)" fill="#040505"/><path d="M995.285,459.224a9.917,9.917,0,1,0,2.9,7.013,9.886,9.886,0,0,0-2.9-7.013m28.261-11.286a12.264,12.264,0,1,0,3.592,8.671A12.224,12.224,0,0,0,1023.545,447.938Zm-35.273,7.014a11.3,11.3,0,0,1,9.989,6.031l3.335-1.274a13.583,13.583,0,1,1,.378,1.318l-3.149,1.2a11.288,11.288,0,1,1-10.553-7.278Z" transform="translate(-255.52 -144.796)" fill="#040505"/><path d="M1036.859,586.27c8.826-1.965,19.168-5.108,26.693-10.735,4.7-3.6,2.955-13.642-3.92-29.61a1.271,1.271,0,0,0-2.28,1.121c3.531,11.648,3.788,18.3.841,20.816a58.394,58.394,0,0,1-23.168,11.667c-2.651.764-4.428-2.125-5.332-7.581l-4.15-8.6a1.279,1.279,0,0,0-2.318,1.08q3.379,8.577,3.38,8.576c-.376,9.652,3.171,14.731,10.254,13.261" transform="translate(-284.173 -208.327)" fill="#171513" fill-rule="evenodd"/><path d="M1142.611,490.13a5.9,5.9,0,0,0,4.864,3.368,5.517,5.517,0,0,0,5.247-2.407,35.524,35.524,0,0,0,3.988-11.129c.756-3.967.955-5.85-1.176-8.205a9.091,9.091,0,0,0-8.677-2.683,7.386,7.386,0,0,0-5.863,6.029q-1.145,8.819,1.617,15.027" transform="translate(-357.184 -160.865)" fill="#fbae89" fill-rule="evenodd"/><path d="M1150.661,494.689a3.519,3.519,0,0,0,2.9,2.008,3.289,3.289,0,0,0,3.127-1.435,21.185,21.185,0,0,0,2.377-6.633c.452-2.365.569-3.487-.7-4.891a5.419,5.419,0,0,0-5.172-1.6,4.4,4.4,0,0,0-3.494,3.594,16.579,16.579,0,0,0,.964,8.956" transform="translate(-362.674 -169.037)" fill="#c64b39" fill-rule="evenodd"/><path d="M1150.037,497.069a2.1,2.1,0,0,0,1.728,1.2,1.962,1.962,0,0,0,1.864-.855,12.612,12.612,0,0,0,1.417-3.954c.269-1.409.339-2.078-.417-2.915a3.232,3.232,0,0,0-3.083-.953,2.624,2.624,0,0,0-2.082,2.142,9.88,9.88,0,0,0,.574,5.338" transform="translate(-362.579 -173.699)" fill="#8a2218" fill-rule="evenodd"/><path d="M1162.284,744.24h9.209l2.853,180.04h-9.208Z" transform="translate(-370.616 -331.923)" fill="#472c84" fill-rule="evenodd"/><path d="M957.2,766.774h33.976V799.2H957.2Zm41.573-11.114h9.209l2.854,175.714h-9.209Z" transform="translate(-243.231 -339.016)" fill="#472c84" fill-rule="evenodd"/><path d="M1074.914,776.321a2.617,2.617,0,1,1-2.617,2.617,2.616,2.616,0,0,1,2.617-2.617" transform="translate(-314.721 -351.85)" fill="#886faf" fill-rule="evenodd"/><path d="M1074.914,838a2.617,2.617,0,1,1-2.617,2.617,2.617,2.617,0,0,1,2.617-2.617" transform="translate(-314.721 -390.161)" fill="#886faf" fill-rule="evenodd"/><path d="M1077.513,970.064a2.617,2.617,0,1,1-2.617,2.617,2.617,2.617,0,0,1,2.617-2.617" transform="translate(-316.336 -472.192)" fill="#886faf" fill-rule="evenodd"/><path d="M1078.2,1033.917a2.617,2.617,0,1,1-2.617,2.617,2.616,2.616,0,0,1,2.617-2.617" transform="translate(-316.765 -511.853)" fill="#886faf" fill-rule="evenodd"/><path d="M1080.413,1104.666a2.617,2.617,0,1,1-2.618,2.617,2.617,2.617,0,0,1,2.618-2.617" transform="translate(-318.136 -555.799)" fill="#886faf" fill-rule="evenodd"/><path d="M1081.192,1169.9a2.617,2.617,0,1,1-2.617,2.617,2.617,2.617,0,0,1,2.617-2.617" transform="translate(-318.621 -596.321)" fill="#886faf" fill-rule="evenodd"/><path d="M1223.331,876.88a91.023,91.023,0,0,0,23.32-8.421l-5.99-163.142q-.5-27.174-18.723-32.983l-7.085,16.48q-10.657,56.335-10.655,56.335a98.4,98.4,0,0,0,15.922,53.736q3.211,78,3.212,78" transform="translate(-396.65 -287.259)" fill="#1b113a" fill-rule="evenodd"/><path d="M1144.67,678.4a5.331,5.331,0,0,0,2.36,8.192q23.012-12.93,24.388,18.513a86.176,86.176,0,0,0,15.979-57.512,30.681,30.681,0,0,0-20.892-6.6A173.369,173.369,0,0,1,1144.67,678.4" transform="translate(-359.008 -267.757)" fill="#8365a9" fill-rule="evenodd"/><path d="M1029.336,685.9a5.332,5.332,0,0,1-2.361,8.193q-23.012-12.931-24.388,18.513a86.18,86.18,0,0,1-15.979-57.512,30.676,30.676,0,0,1,20.892-6.6,173.294,173.294,0,0,0,21.835,37.408" transform="translate(-261.314 -272.413)" fill="#8365a9" fill-rule="evenodd"/><path d="M922.765,907.866s-.749,2.124-2.248,6.369A27.9,27.9,0,1,1,901.41,861.97l6.082,3.442a22.687,22.687,0,0,0-8.053,25.5c3.143,9.348,13.465,17.093,23.327,16.95" transform="translate(-195.976 -405.05)" fill="#73569f" fill-rule="evenodd"/><path d="M1055.916,804.317q3.469,34.658,20.025,12.087a19.413,19.413,0,0,0-20.025-12.087m-30.538,8.891,12.906,19.724-99.39,40.684a23.115,23.115,0,1,1-9.866-45.054Z" transform="translate(-213.472 -369.174)" fill="#f9a180" fill-rule="evenodd"/><path d="M1274.049,829.544a28.5,28.5,0,1,1-44.8,27.653l3.962-5.675,34.752-19.672,6.09-2.307" transform="translate(-412.208 -384.909)" fill="#73569f" fill-rule="evenodd"/><path d="M1047.122,854l2.767,8.584-95.577,37.879a23.581,23.581,0,0,1-20.407-4.7L1047.122,854" transform="translate(-228.759 -400.099)" fill="#d04f3c" fill-rule="evenodd"/><path d="M1093.285,628.539q10.09,6.839,18.126,8.736l35.249,75.16a21.29,21.29,0,0,0,33.309-26.427l-50.1-60.562q-3.3-23.142-8.7-26.346-6.337-5.518-8.023-11.143a1.477,1.477,0,0,0-2.542-.4,9.6,9.6,0,0,0,.2,12.012l-25.99-11.682a2.834,2.834,0,0,0-2.794,4.741l15.152,9.4q-12.37,19.056-3.893,26.515" transform="translate(-320.236 -234.25)" fill="#fcb696" fill-rule="evenodd"/><path d="M1117.219,688.656a47.58,47.58,0,0,0,22.243,2.914l52.284,86.152a15.29,15.29,0,0,1-18.838-4.826l-36.062-75.24q-12.353-3.287-19.626-9" transform="translate(-342.624 -297.397)" fill="#dc604e" fill-rule="evenodd"/><path d="M1150.321,312.134l3.813,1.223a3.084,3.084,0,0,1,1.988,3.867l-1.666,5.191,1.2.385a1.542,1.542,0,0,1,.995,1.934l-.134.418a1.543,1.543,0,0,1-1.934.995l-1.2-.386-.458,1.425,1.2.386a1.542,1.542,0,0,1,.994,1.933l-.134.419a1.542,1.542,0,0,1-1.934.994l-1.2-.385-.4,1.24,1.2.385a1.544,1.544,0,0,1,1,1.934l-.135.419a1.542,1.542,0,0,1-1.934.994l-1.285-.412a3.087,3.087,0,0,1-3.56,1.318l-3.812-1.223a3.088,3.088,0,0,1-2.127-3.143l-1.038-.333a1.542,1.542,0,0,1-.994-1.933l.134-.419a1.543,1.543,0,0,1,1.935-.995l.952.306.4-1.24-.953-.306a1.542,1.542,0,0,1-.994-1.933l.134-.419a1.542,1.542,0,0,1,1.934-.994l.953.306.457-1.425-.953-.306a1.542,1.542,0,0,1-.994-1.934l.135-.418a1.541,1.541,0,0,1,1.933-.994l.953.305,1.666-5.19a3.083,3.083,0,0,1,3.867-1.988" transform="translate(-355.962 -63.433)" fill="#1f1731" fill-rule="evenodd"/><path d="M1160.833,229.264a18.225,18.225,0,0,1-3.241,35.429l-.857,2.671a4.7,4.7,0,0,1-5.893,3.03l-5-1.6a4.7,4.7,0,0,1-3.029-5.893l.742-2.314a18.226,18.226,0,0,1,17.279-31.319" transform="translate(-354.934 -11.505)" fill="#ffcb00" fill-rule="evenodd"/><path d="M1152.969,243.734c2.124,2.3,1.894,6.868-.515,10.206s-6.081,4.182-8.2,1.884-1.893-6.868.515-10.206,6.081-4.183,8.2-1.884" transform="translate(-358.512 -20.233)" fill="#fff7c1" fill-rule="evenodd"/><path d="M1177.254,243.922a17.251,17.251,0,0,1-9.694,29.6l-.81,2.528a4.448,4.448,0,0,1-5.577,2.868l-4.732-1.519a4.447,4.447,0,0,1-2.867-5.577l.67-2.089a20.084,20.084,0,0,0,10.31-.232l.091-.026a19.218,19.218,0,0,0,13.221-23.745c-.176-.618-.381-1.22-.611-1.805" transform="translate(-365.074 -21.154)" fill="#fb8c05" fill-rule="evenodd"/><path d="M1224.512,396.161l13.084,1.072-11.041,22.907,16.434,5.336-31.324,34.308,21.881-31.4-16.8-5.443Z" transform="translate(-401.289 -115.716)" fill="#fff" fill-rule="evenodd"/><path d="M894.873,551.137l-6.664,5.436,14.464,8.265-6.889,8.981,29.644,6.888-23.467-8.823,7.044-9.174Z" transform="translate(-200.377 -211.979)" fill="#fff" fill-rule="evenodd"/><path d="M892.333,475.33l3.188,3.866,3.866-3.188-3.189-3.866Zm2.282-4.885a8.135,8.135,0,0,1-1.32-1.3c-1.353-1.641-1.9-3.272-2.079-6.681-.2-4.251-1.092-6.822-3.347-9.557-3.37-4.085-7.3-4.764-11.2-1.546s-3.983,7.208-.614,11.292l2.075,2.516,3.793-3.128-2.286-2.772c-1.5-1.823-1.346-3.118-.07-4.171s2.577-.962,4.082.862c2.015,2.444,2.888,4.542,3.207,8.569.267,3.519.99,5.434,2.675,7.477a6.175,6.175,0,0,0,1.512,1.388Z" transform="translate(-191.319 -148.742)" fill="#4f3586"/><path d="M1284.1,592.022l-1.326,3.341,3.341,1.326,1.326-3.341Zm3.859-.256a5.894,5.894,0,0,1,.362-1.28c.563-1.418,1.4-2.327,3.479-3.617a10.329,10.329,0,0,0,4.846-5.409c1.4-3.53.468-6.236-2.9-7.573s-5.907-.01-7.308,3.521l-.863,2.174,3.278,1.3.951-2.4c.625-1.576,1.494-1.925,2.6-1.487s1.5,1.287.87,2.863a9.576,9.576,0,0,1-4.274,4.979,8.419,8.419,0,0,0-3.772,4.267,4.455,4.455,0,0,0-.349,1.431Z" transform="translate(-445.46 -225.792)" fill="#4f3586"/><path d="M700.306,699.974a3.441,3.441,0,1,1-3.441,3.441,3.441,3.441,0,0,1,3.441-3.441" transform="translate(-81.525 -304.427)" fill="#fff" fill-rule="evenodd"/><path d="M862.519,682.619a2.208,2.208,0,1,1-2.208,2.208,2.208,2.208,0,0,1,2.208-2.208" transform="translate(-183.048 -293.647)" fill="#fff" fill-rule="evenodd"/><path d="M662.178,859.794a2.763,2.763,0,1,1-2.763,2.763,2.763,2.763,0,0,1,2.763-2.763" transform="translate(-58.263 -403.698)" fill="#fff" fill-rule="evenodd"/><path d="M786.908,918a2.763,2.763,0,1,1-2.763,2.763A2.763,2.763,0,0,1,786.908,918" transform="translate(-135.738 -439.854)" fill="#fff" fill-rule="evenodd"/><path d="M843.368,588.525a1.382,1.382,0,1,1-1.381,1.382,1.382,1.382,0,0,1,1.381-1.382" transform="translate(-171.666 -235.202)" fill="#fff" fill-rule="evenodd"/><path d="M1221.569,586.957a1.381,1.381,0,1,1-1.381,1.381,1.381,1.381,0,0,1,1.381-1.381" transform="translate(-406.583 -234.228)" fill="#fff" fill-rule="evenodd"/><path d="M1376.185,682.691a3.441,3.441,0,1,1-3.441,3.441,3.44,3.44,0,0,1,3.441-3.441" transform="translate(-501.341 -293.692)" fill="#fff" fill-rule="evenodd"/><path d="M1412.771,620.558a2.208,2.208,0,1,1-2.208,2.208,2.208,2.208,0,0,1,2.208-2.208" transform="translate(-524.833 -255.099)" fill="#fff" fill-rule="evenodd"/><path d="M1517.532,697.577a2.208,2.208,0,1,1-2.208,2.208,2.208,2.208,0,0,1,2.208-2.208" transform="translate(-589.904 -302.939)" fill="#fff" fill-rule="evenodd"/><path d="M1346.956,380.72a1.726,1.726,0,1,1-1.727,1.726,1.726,1.726,0,0,1,1.727-1.726" transform="translate(-484.251 -106.125)" fill="#fff" fill-rule="evenodd"/><path d="M1438.373,397.672a1.3,1.3,0,1,1-1.3,1.3,1.3,1.3,0,0,1,1.3-1.3" transform="translate(-541.3 -116.655)" fill="#fff" fill-rule="evenodd"/><path d="M1351.915,421.765a1.3,1.3,0,1,1-1.3,1.3,1.3,1.3,0,0,1,1.3-1.3" transform="translate(-487.597 -131.62)" fill="#fff" fill-rule="evenodd"/><path d="M933.555,749.338a1.382,1.382,0,1,1-1.381,1.382,1.382,1.382,0,0,1,1.381-1.382" transform="translate(-227.685 -335.089)" fill="#fff" fill-rule="evenodd"/><path d="M1187.811,956.856a1.382,1.382,0,1,1-1.381,1.381,1.382,1.382,0,0,1,1.381-1.381" transform="translate(-385.614 -463.988)" fill="#fff" fill-rule="evenodd"/><path d="M1061.744,723.95a1.6,1.6,0,1,1-1.6,1.6,1.6,1.6,0,0,1,1.6-1.6" transform="translate(-307.169 -319.32)" fill="#fff" fill-rule="evenodd"/><path d="M1258.824,725.948a1.6,1.6,0,1,1-1.6,1.6,1.6,1.6,0,0,1,1.6-1.6" transform="translate(-429.585 -320.561)" fill="#fff" fill-rule="evenodd"/><path d="M1211.15,1120.448a1.6,1.6,0,1,1-1.6,1.6,1.6,1.6,0,0,1,1.6-1.6" transform="translate(-399.973 -565.602)" fill="#fff" fill-rule="evenodd"/><path d="M1136.939,442.772a1.344,1.344,0,1,1-1.343,1.343,1.343,1.343,0,0,1,1.343-1.343" transform="translate(-354.039 -144.668)" fill="#fff" fill-rule="evenodd"/><path d="M992.616,902.2a1.344,1.344,0,1,1-1.344,1.343,1.343,1.343,0,0,1,1.344-1.343" transform="translate(-264.393 -430.037)" fill="#fff" fill-rule="evenodd"/><path d="M1577.272,599.6a2.208,2.208,0,1,1-2.208,2.208,2.208,2.208,0,0,1,2.208-2.208" transform="translate(-627.012 -242.08)" fill="#fff" fill-rule="evenodd"/><path d="M1412.771,852.39a2.208,2.208,0,1,1-2.208,2.208,2.207,2.207,0,0,1,2.208-2.208" transform="translate(-524.833 -399.1)" fill="#fff" fill-rule="evenodd"/><text transform="translate(832.555 229.804)" fill="#fff" font-size="1" font-family="BebasNeue, Bebas Neue"><tspan x="0" y="0">#</tspan></text><path d="M1328.13,492.479h1.95l-.57,4.593h-1.95Zm.51,11.569h2.7l.63-5.019h1.529l.241-1.958h-1.531l.57-4.593h1.53l.24-1.957h-1.53l.509-4.041h-2.7l-.51,4.041h-1.95l.51-4.041h-2.7l-.51,4.041h-1.5l-.24,1.957h1.5l-.57,4.593h-1.47l-.24,1.958h1.47l-.63,5.019h2.7l.63-5.019h1.95Z" transform="translate(-470.536 -171.818)" fill="#fff"/><path d="M1261.947,319.821l-.892,2.705,5.219.891-3.723,3.724,2.292,1.687,2.451-4.711,2.451,4.711,2.292-1.687-3.724-3.724,5.22-.891-.892-2.705-4.742,2.387.828-5.251h-2.865l.828,5.251Z" transform="translate(-431.967 -66.519)" fill="#fff"/></g></svg>