<svg xmlns="http://www.w3.org/2000/svg" width="137.311" height="80.962" viewBox="0 0 137.311 80.962"><g transform="translate(0 -10.247)"><path d="M1039.279,683.961c-55.853,24.933-80.071,6.994-79.218,0l15.627-11.225q7.256-5.391,17.676-2.572c4.811,1.4,8.688,1.149,11.526-1.537q7.42-7.146,15.159-3.982,7.231,2.878,13.813-3.283a11.8,11.8,0,0,1,14.922-1.621q-.09,16.019-.09,16.019a9.538,9.538,0,0,1-9.415,8.2" transform="translate(-911.472 -623.89)" fill="#f8d6ac" fill-rule="evenodd"/><path d="M1039.279,770.046c-55.853,24.933-80.071,6.994-79.218,0l15.627-11.225q7.256-5.391,17.676-2.572c4.811,1.4,8.688,1.149,11.526-1.537q7.42-7.146,15.159-3.982,7.231,2.878,13.813-3.283a11.8,11.8,0,0,1,14.922-1.621q-.09,16.019-.09,16.019a9.538,9.538,0,0,1-9.415,8.2" transform="translate(-911.472 -701.739)" fill="#eaa980" fill-rule="evenodd"/><path d="M462.232,645.188c55.853,24.933,80.071,6.994,79.218,0l-15.627-11.225q-7.256-5.391-17.676-2.572c-4.811,1.4-8.688,1.149-11.526-1.537q-7.42-7.146-15.159-3.982-7.231,2.878-13.814-3.283a11.8,11.8,0,0,0-14.922-1.621l.09,16.019a9.538,9.538,0,0,0,9.415,8.2" transform="translate(-452.7 -588.827)" fill="#f8d6ac" fill-rule="evenodd"/><path d="M462.232,731.273c55.853,24.933,80.071,6.994,79.218,0l-15.627-11.225q-7.256-5.391-17.676-2.572c-4.811,1.4-8.688,1.149-11.526-1.537q-7.42-7.146-15.159-3.982-7.231,2.878-13.814-3.283a11.8,11.8,0,0,0-14.922-1.62l.09,16.019a9.538,9.538,0,0,0,9.415,8.2" transform="translate(-452.7 -666.676)" fill="#eaa980" fill-rule="evenodd"/><path d="M1074.243,418.4l9.9,2.6-44.647-9.188,8.257,1.019a4.74,4.74,0,0,1,4.026-.256,4.125,4.125,0,0,1,7.605,1.023,3.019,3.019,0,0,1,4.346,2.109,4.73,4.73,0,0,1,3.707.383,4.42,4.42,0,0,1,6.807,2.31" transform="translate(-983.325 -400.21)" fill="#fff" fill-rule="evenodd"/><path d="M642.716,597.3l11.687,3.069L601.686,589.52l9.75,1.2a5.6,5.6,0,0,1,4.754-.3,4.87,4.87,0,0,1,8.98,1.207,3.564,3.564,0,0,1,5.131,2.49,5.585,5.585,0,0,1,4.377.453,5.218,5.218,0,0,1,8.037,2.728" transform="translate(-587.406 -560.699)" fill="#fff" fill-rule="evenodd"/><path d="M659.912,438.6l18.615,4.889-83.971-17.28,15.53,1.916a8.916,8.916,0,0,1,7.573-.481,7.758,7.758,0,0,1,14.3,1.923,5.678,5.678,0,0,1,8.174,3.967,8.9,8.9,0,0,1,6.972.721,8.312,8.312,0,0,1,12.8,4.345" transform="translate(-580.96 -412.157)" fill="#fff" fill-rule="evenodd"/><path d="M467.8,692.245l-14.535-6.013v-8.61q3.038-2.407,5.18,1.966l.1-3.661a2.119,2.119,0,0,1-3.864-.935,2.064,2.064,0,0,0,2.161.17,2.839,2.839,0,0,1-1.864-3.177,1.923,1.923,0,0,0,2.076,1.462,2.239,2.239,0,0,1,.657-3.3,1.848,1.848,0,0,0,.593,2.33,5.89,5.89,0,0,1,1.08-3.41,5.988,5.988,0,0,1,.657,3.453,1.6,1.6,0,0,0,.475-2.352,2.162,2.162,0,0,1,.472,3.732,2.113,2.113,0,0,0,2.266-1.864,2.7,2.7,0,0,1-2.139,3.643,2.161,2.161,0,0,0,2.662-.184,2.267,2.267,0,0,1-4.249.483q-.1,3.394-.134,5.33,1.257,1.549,2.826.143,2.291-2.034,3.972,1.033l1.9,3.137a1.731,1.731,0,0,0,.373.4l.183-6.532a1.84,1.84,0,0,1-3.356-.812,1.792,1.792,0,0,0,1.876.147,2.466,2.466,0,0,1-1.619-2.759,1.67,1.67,0,0,0,1.8,1.269,1.945,1.945,0,0,1,.57-2.87,1.6,1.6,0,0,0,.515,2.023,5.113,5.113,0,0,1,.938-2.962,5.2,5.2,0,0,1,.57,3,1.388,1.388,0,0,0,.413-2.043,1.878,1.878,0,0,1,.41,3.241,1.835,1.835,0,0,0,1.968-1.619,2.349,2.349,0,0,1-1.858,3.164,1.877,1.877,0,0,0,2.312-.159,1.969,1.969,0,0,1-3.69.42q-.2,6.581-.088,6.856h.021v0a1.728,1.728,0,0,0,1.337-.525q3.007-2.935,5.308.968s1.47,2.968,3.626,6.554c-9.1.63-13.331-.531-11.9-1.134" transform="translate(-453.183 -634.071)" fill="#39481d" fill-rule="evenodd"/><path d="M476.524,814.493c8.151,4.885,12.775,2.382,13.04,0l-5.787-4.307a7.8,7.8,0,0,0-6.742-1.488q-4.481,1.01-6.274-.9a4.412,4.412,0,0,0-5.436-1.261,4.6,4.6,0,0,1-4.833-.613,6.458,6.458,0,0,0-7.729-1.19v3.088c.825,33.679,18.361,11.133,21.012,5.034l2.75,1.637" transform="translate(-452.731 -756.052)" fill="#4b6426" fill-rule="evenodd"/><path d="M480.067,836.907h-9.491q1.286.062-17.794-1.862s-.007-1.834-.021-5.5c1.834-.838,3.5-.627,5.531,1.055a3.594,3.594,0,0,0,3.369.464c1.647-.646,2.966-.281,4.566,1.04a3.963,3.963,0,0,0,3.952.53,5.623,5.623,0,0,1,5.529,1.056l4.359,3.222" transform="translate(-452.731 -778.765)" fill="#64832c" fill-rule="evenodd"/><path d="M454.921,861.13c12.684,5.662,18.184,1.588,17.99,0l-3.549-2.549a4.455,4.455,0,0,0-4.014-.584,2.542,2.542,0,0,1-2.617-.349,3.048,3.048,0,0,0-3.443-.9,2.808,2.808,0,0,1-3.137-.746,2.679,2.679,0,0,0-3.389-.368q.021,3.638.021,3.638a2.166,2.166,0,0,0,2.138,1.862" transform="translate(-452.731 -802.391)" fill="#81a62c" fill-rule="evenodd"/><path d="M570.566,869.4a.357.357,0,1,0,.357.357.357.357,0,0,0-.357-.357" transform="translate(-558.941 -815.237)" fill="#335323" fill-rule="evenodd"/><path d="M476.274,857a.317.317,0,1,0,.317.317.317.317,0,0,0-.317-.317" transform="translate(-473.707 -804.029)" fill="#335323" fill-rule="evenodd"/><path d="M620.81,868.717a.275.275,0,1,0,.275.275.275.275,0,0,0-.275-.275" transform="translate(-604.452 -814.624)" fill="#7f9b2b" fill-rule="evenodd"/><path d="M477.182,889.794a.317.317,0,1,0,.317.317.317.317,0,0,0-.317-.317" transform="translate(-474.528 -833.684)" fill="#335323" fill-rule="evenodd"/><path d="M494.425,901.4a.317.317,0,1,0,.317.317.317.317,0,0,0-.317-.317" transform="translate(-490.121 -844.181)" fill="#335323" fill-rule="evenodd"/><path d="M552.315,907.755a.317.317,0,1,0,.317.317.317.317,0,0,0-.317-.317" transform="translate(-542.472 -849.927)" fill="#335323" fill-rule="evenodd"/><path d="M714.679,884.377a.275.275,0,1,0,.275.275.275.275,0,0,0-.275-.275" transform="translate(-689.34 -828.786)" fill="#7f9b2b" fill-rule="evenodd"/><path d="M744.125,894.732a.275.275,0,1,0,.275.275.275.275,0,0,0-.275-.275" transform="translate(-715.968 -838.15)" fill="#7f9b2b" fill-rule="evenodd"/><path d="M745.408,913.449a.275.275,0,1,0,.275.275.275.275,0,0,0-.275-.275" transform="translate(-717.128 -855.076)" fill="#7f9b2b" fill-rule="evenodd"/><path d="M1531.807,612l-.129-4.6a1.411,1.411,0,0,0,2.573-.623,1.374,1.374,0,0,1-1.439.113,1.891,1.891,0,0,0,1.241-2.116,1.28,1.28,0,0,1-1.383.973,1.491,1.491,0,0,0-.437-2.2,1.231,1.231,0,0,1-.4,1.552,3.92,3.92,0,0,0-.719-2.271,3.988,3.988,0,0,0-.437,2.3,1.063,1.063,0,0,1-.316-1.567,1.44,1.44,0,0,0-.315,2.485,1.407,1.407,0,0,1-1.51-1.241,1.8,1.8,0,0,0,1.425,2.426,1.439,1.439,0,0,1-1.773-.122,1.51,1.51,0,0,0,2.829.322q.1,3.193.1,4.45a2.751,2.751,0,0,1-1.374-.964q-3.287-3.987-7.121,2.068a21.713,21.713,0,0,0-3.461,6.963,17.076,17.076,0,0,0,7.849,3c12.139-2.406,17.054-6.044,16.992-7.835,5.631-.783,10.4-3.381,10.4-7.17V600.2a4.8,4.8,0,0,0-4.188-1l-.165-5.9a1.84,1.84,0,0,0,3.356-.812,1.792,1.792,0,0,1-1.876.147,2.466,2.466,0,0,0,1.619-2.759,1.67,1.67,0,0,1-1.8,1.269,1.945,1.945,0,0,0-.57-2.87,1.606,1.606,0,0,1-.515,2.024,5.114,5.114,0,0,0-.938-2.962,5.2,5.2,0,0,0-.57,3,1.387,1.387,0,0,1-.413-2.043,1.878,1.878,0,0,0-.41,3.241,1.835,1.835,0,0,1-1.968-1.619,2.349,2.349,0,0,0,1.858,3.164,1.877,1.877,0,0,1-2.312-.159,1.969,1.969,0,0,0,3.69.42q.145,4.768.126,6.226a10.639,10.639,0,0,0-3.893,4.613q-1.778,2.332-3.9.8-4.339-3.011-7.01,5.239a2.752,2.752,0,0,1-2.709,1.775" transform="translate(-1417.102 -560.173)" fill="#4b6426" fill-rule="evenodd"/><path d="M1623.028,721.953l14.535-6.012v-8.61q-3.037-2.408-5.179,1.965l-.1-3.661a2.119,2.119,0,0,0,3.864-.935,2.063,2.063,0,0,1-2.161.169,2.839,2.839,0,0,0,1.864-3.177,1.923,1.923,0,0,1-2.076,1.462,2.24,2.24,0,0,0-.657-3.3,1.848,1.848,0,0,1-.593,2.33,5.889,5.889,0,0,0-1.08-3.41,5.99,5.99,0,0,0-.656,3.453,1.6,1.6,0,0,1-.475-2.352,2.162,2.162,0,0,0-.472,3.732,2.112,2.112,0,0,1-2.266-1.864,2.7,2.7,0,0,0,2.139,3.643,2.16,2.16,0,0,1-2.662-.184,2.267,2.267,0,0,0,4.248.484q.1,3.393.134,5.33-1.258,1.549-2.826.143-2.291-2.034-3.972,1.033l-1.9,3.137a1.728,1.728,0,0,1-.373.4l-.182-6.532a1.84,1.84,0,0,0,3.355-.812,1.792,1.792,0,0,1-1.876.147,2.466,2.466,0,0,0,1.619-2.76,1.67,1.67,0,0,1-1.8,1.269,1.945,1.945,0,0,0-.57-2.87,1.6,1.6,0,0,1-.515,2.023,5.114,5.114,0,0,0-.938-2.962,5.2,5.2,0,0,0-.571,3,1.388,1.388,0,0,1-.413-2.043,1.878,1.878,0,0,0-.41,3.241,1.835,1.835,0,0,1-1.968-1.619,2.348,2.348,0,0,0,1.858,3.164,1.877,1.877,0,0,1-2.312-.159,1.969,1.969,0,0,0,3.69.42q.2,6.582.088,6.856h-.021l0,0,0,0a1.728,1.728,0,0,1-1.337-.525q-3.007-2.936-5.308.968s-1.47,2.968-3.626,6.553c9.1.631,13.331-.531,11.9-1.134" transform="translate(-1500.262 -660.937)" fill="#64832c" fill-rule="evenodd"/><path d="M1712.363,826.992c7.269,13.679,16.177,2.589,16.752.635v-9.04q-1.856-1.58-4.082,2.623a1.087,1.087,0,0,1-.911.546,1.241,1.241,0,0,1-1-.357q-1.523-1.456-3.323,1.655-1.639,2.574-3.041,1.2-2.48-2.284-4.4,2.744" transform="translate(-1591.814 -768.9)" fill="#81a62c" fill-rule="evenodd"/><path d="M589.751,844.795v8.415c-30.005,11.47-49.268,41.492-77.027,3.108-6.886,3.466-15.479,11.09-25.153,6.924,0,0-5.891.123-20.283.181-4.734.146-15.5-.535-14.815-15.488v-2.453a1.924,1.924,0,1,1,3.815.5,4.982,4.982,0,0,0,8.813,3.63,3.338,3.338,0,0,1,5-.65,2.82,2.82,0,0,0,4.315-.554,2.694,2.694,0,0,1,4.723-.113,5.086,5.086,0,0,0,8.431.572,4.3,4.3,0,0,1,7.777,2.025,2.007,2.007,0,0,0,4.011-.152,3.168,3.168,0,0,1,6.06-1.595,1.584,1.584,0,0,0,3.016.131,2.609,2.609,0,0,1,4.212-1.3,3.921,3.921,0,0,0,3.277.8,5,5,0,0,1,5.613,2.822,2.638,2.638,0,0,0,4.847-.477,4.115,4.115,0,0,1,7.634-1.351,2.59,2.59,0,0,0,4.458.107,4.5,4.5,0,0,1,5.119-2.187,3.664,3.664,0,0,0,1.886.022,6.447,6.447,0,0,1,6.586,2.345,2.3,2.3,0,0,0,2.588.734,4.869,4.869,0,0,1,5.215,1.133,5.874,5.874,0,0,0,9.361-1.294,3.07,3.07,0,0,1,5.707.342,1.721,1.721,0,0,0,3.309-.076,3.932,3.932,0,0,1,5.711-2.757,3.991,3.991,0,0,0,5.795-3.348" transform="translate(-452.442 -792.078)" fill="#acbce1" fill-rule="evenodd"/><path d="M1265.923,704.891q-1.027,15,6.793,11.527.526-3.873-5.393-11.778-1.475.171-1.4.251" transform="translate(-1187.982 -666.246)" fill="#171017" fill-rule="evenodd"/><path d="M1279.131,626.875q-1.526,9.729,5.58,11.159,7.707-.228,16.861-9.258,1.462-1.407-4.158-5.209l-6.449-3.8q-2.1-2.428-3.311.429a16.2,16.2,0,0,1-8.522,6.683" transform="translate(-1199.79 -588.481)" fill="#893088" fill-rule="evenodd"/><path d="M1303.437,708.956q.894-.427,2.27-1.245-8.6-.994-8.41-8.856a16.447,16.447,0,0,1-1.906,1.559q1.222,7.284,8.047,8.543" transform="translate(-1214.737 -661.015)" fill="#421040" fill-rule="evenodd"/><path d="M1270.562,675.374l1.044,1.722q7.706-1.928,14.082-10.434l-1.531-1.667q-5.435,8.04-13.595,10.379" transform="translate(-1192.285 -630.394)" fill="#421040" fill-rule="evenodd"/><path d="M1351.718,794.652q-.57,7.477,5.932,3.258l.553-5.424q-7.735-1.754-6.484,2.166" transform="translate(-1265.519 -745.196)" fill="#18324f" fill-rule="evenodd"/><path d="M994,671.3q3.557-2.164,5.9-1.932c.489-4.952-.752-3.755-5.057-2.6-.966.256-.791-1.068-.027-3.435,1.46-4.777,2.1-5.7-21.141-12.8-2.124-.507-3.4-.38-4.5.836l-7.242,7.906q27.524,4.671,26.459,10.263.373,5.3,5.6,1.769" transform="translate(-913.187 -617.053)" fill="#fd9a36" fill-rule="evenodd"/><path d="M1243.214,802.626q-1.629,8.008,10.076,1.319.263-2.645-1.14-2.2l-2.715.811q-2.714,1.132-1.925-2.843a24.544,24.544,0,0,0-4.3,2.913" transform="translate(-1167.373 -752.222)" fill="#e35419" fill-rule="evenodd"/><path d="M1203.927,583.038c2.347.776,3.952,1.315,3.952,1.315,1.943-1.136,2.415-3.074,5.321-.746a16.767,16.767,0,0,0,5.048,2.923c.749-.2,1.892-1.8,3.26-4.1-1.016-1.908-3.675-2.7-8.536-3.823-1.881-.362-2.125-.6-4.046.514a26.845,26.845,0,0,0-5,3.92" transform="translate(-1132.025 -551.997)" fill="#f0828b" fill-rule="evenodd"/><path d="M1244.484,605.31l1.584-1.469-5.717-2.826c-3.9-1.809-4.927-1.237-7.98,1.683,0,0,.37.117.741.217a1.308,1.308,0,0,1,.87-.068c1.511-1.535,3.526-2.082,5.341-.5a23.327,23.327,0,0,0,5.161,2.968" transform="translate(-1157.748 -571.601)" fill="#e24b54" fill-rule="evenodd"/><path d="M1366.633,718.053l4.468-.156,6.092-3.9,1.094-3.9q-6.717,4.954-11.654,7.961" transform="translate(-1279.164 -671.176)" fill="#6c1e6a" fill-rule="evenodd"/><path d="M1351.433,855.217q3.224,4.834,13.073.757l-6.956-1.672-6.117.915" transform="translate(-1265.418 -801.588)" fill="#0c1a29" fill-rule="evenodd"/><path d="M1006.642,662.973q-6.507,8.88-9.229,6.31a37.581,37.581,0,0,1,6.692-6.7,13.565,13.565,0,0,1,2.537.392" transform="translate(-945.27 -628.211)" fill="#eb5a17" fill-rule="evenodd"/><path d="M813.473,871.071l.133.054a4.464,4.464,0,0,0,2.029,1.953l.313.157a4.434,4.434,0,0,0,1.584.452c.143.017.287.034.431.049a4.457,4.457,0,0,0,.631.161c.257.05.507.095.767.138a16.01,16.01,0,0,1,1.335.185,5.214,5.214,0,0,0,1.249.138,4.384,4.384,0,0,0,.761.064h1.7a4.447,4.447,0,0,0,1.193.251,4.24,4.24,0,0,0,1.1.141h.57a4.183,4.183,0,0,0,.736.065h.9a4.459,4.459,0,0,0,.738.065h.624a4.182,4.182,0,0,0,.749.065h.365a66.551,66.551,0,0,1,1.586.248,4.444,4.444,0,0,0,1.12.144h1.549a4.456,4.456,0,0,0,.738.065h8.3a4.438,4.438,0,0,0,1.623-.306l.119-.028a25.559,25.559,0,0,0,1.575-.212l.007,0,.609-.1q.215-.036.422-.091a4.432,4.432,0,0,0,.844-.166l.94-.281a4.421,4.421,0,0,0,1.374-.324q.12-.031.237-.068a4.443,4.443,0,0,0,.852-.25l.363-.061a8.437,8.437,0,0,1,1.973-.43q.135-.017.268-.041a4.424,4.424,0,0,0,.832-.134,4.5,4.5,0,0,0,.458-.059l-.032.006h.279a4.428,4.428,0,0,0,1.764-.364v.007l-.453.227h.257a7.173,7.173,0,0,0,1.713-.286,4.413,4.413,0,0,0,1.033-.237,4.615,4.615,0,0,0,1.058-.112l-.186.047h.368a4.454,4.454,0,0,0,1.037-.122,4.4,4.4,0,0,0,.965-.27h.285a4.454,4.454,0,0,0,1.156-.152c.116-.029.232-.058.347-.091v0l-.324.108h.193a4.448,4.448,0,0,0,1.217-.169c.136-.03.272-.052.408-.084a4.415,4.415,0,0,0,.781-.2l.339-.114c.058-.013.116-.027.173-.043a4.42,4.42,0,0,0,1.66-.5q2.049-.419,4.131-.891c-.039.066,0,2.157,0,2.335h0q-.027.237-.584.441a114.247,114.247,0,0,1-23.118,5.891c-7.245.992-14.952,1.844-21.71,1.18-14.09-1.383-25.07-5.91-25.069-9.364h0V867.9l.115-.653q.535.221,1.075.434a4.447,4.447,0,0,0,4.188,2.951h.653a4.478,4.478,0,0,0,.734-.061c.4.125.783.218,1.193.32.087.022.176.033.262.057.139.039.27.085.4.122" transform="translate(-771.129 -813.296)" fill="#1c2d41" fill-rule="evenodd"/><path d="M812.436,835.3q17.386,9.678,59.542,4.075,4.755,1.146,2.768,1.873a114.24,114.24,0,0,1-23.118,5.891c-7.245.992-14.952,1.844-21.71,1.18-20.511-2.014-34.434-10.689-17.482-13.02" transform="translate(-771.13 -784.404)" fill="#ffce2a" fill-rule="evenodd"/><path d="M922.513,842.758q-23.68,6.393-57.7-3.795c-6.936,1.445-.515,7.485,15.914,9.238,13.562,1.229,27.673-.042,43.038-4.285q1.467-.4-1.251-1.159" transform="translate(-822.858 -787.717)" fill="#f58b14" fill-rule="evenodd"/><path d="M941.1,737.134q2.535.372,1.457.759c-18.771,5.65-49.535,4.175-59.1-3.355q-.588-.444.345-1.744,6.693-10.931,9.974-9.8,24.726,5.5,24.741,11.184c-.1,2.4.743,3.167,2.26,1.981q4.815-3.755,7.685-1.657l4.239,3.179c.65.473,1.531.4,2.972.178l5.426-.725" transform="translate(-842.016 -682.748)" fill="#24384f" fill-rule="evenodd"/><path d="M1068.695,631.083q-16.456-1.322-22.2,19.687.96-.276,1.932-.505,10.678-13.471,20.919-10.256a11.761,11.761,0,0,1-.648-8.926" transform="translate(-989.654 -599.656)" fill="#f36d21" fill-rule="evenodd"/><path d="M1092.557,789.246a9.165,9.165,0,0,0,3.495.413,21.025,21.025,0,0,1,5.3-5.615l-2.929-1.177a25.057,25.057,0,0,0-5.863,6.38" transform="translate(-1031.311 -736.987)" fill="#416a98" fill-rule="evenodd"/><path d="M1182.082,731.087q1.375.708,1.3,1.3-3.785-.124-7.195,3.255a23.7,23.7,0,0,0-2.912-1.3q4.748-3.741,8.805-3.255" transform="translate(-1104.308 -690.112)" fill="#ffce65" fill-rule="evenodd"/><path d="M1077.2,665.7c-4.588-.057-10.221,3.4-16.395,11.171,4.09-8.806,9.393-13.818,16.039-15.688a4.126,4.126,0,0,0,.356,4.517" transform="translate(-1002.598 -626.943)" fill="#da411a" fill-rule="evenodd"/><path d="M1390.227,577.62c1.435-2.7,1.5-3.422.168-4.357a1.348,1.348,0,0,0-1.7.214,1.4,1.4,0,0,0-.21,1.705,2.539,2.539,0,0,1,.425,1.738.808.808,0,0,0,1.321.7m7.5,2.316q.926-4.492,2.65-3.463a1.4,1.4,0,0,1,.251,2.7,2.538,2.538,0,0,0-1.436,1.067.808.808,0,0,1-1.464-.3Z" transform="translate(-1298.741 -547.244)" fill="#ee6b75" fill-rule="evenodd"/><path d="M1401.942,586.334c.96-1.806,1.133-2.437.245-2.886a1.133,1.133,0,0,0-1.272.114.935.935,0,0,0-.141,1.141,1.7,1.7,0,0,1,.285,1.162.54.54,0,0,0,.884.469m6.905,2.1c.413-2,.884-2.838,1.653-2.379a1.133,1.133,0,0,1,.907.9.936.936,0,0,1-.619.968,1.7,1.7,0,0,0-.961.714.54.54,0,0,1-.979-.2Z" transform="translate(-1309.919 -556.521)" fill="#ad1e28" fill-rule="evenodd"/><path d="M1397.742,547.409q8.154.6,5.027,6.561s-.189.874-.577,2.745c-.729,3.674-1.031,3.807-2.851,4.591a4.39,4.39,0,0,1-5.173-1.3c-1.233-1.551-1.66-1.727-.1-5.333l1.154-2.661q1.224-4.254,2.519-4.6" transform="translate(-1303.064 -524.059)" fill="#f0828b" fill-rule="evenodd"/><path d="M1436.736,564.385a1.6,1.6,0,0,1,.665.268,2.648,2.648,0,0,0-1.615-3.123,2.585,2.585,0,0,1,3.926,2.171l-1.809,3.616c-.963,3.351-1.2,5.6-2.246,5.21a1.666,1.666,0,0,1-3.3.408c3.022.326,2.911-1.732,4.155-5.366a1.622,1.622,0,0,1-.28-.02,1.6,1.6,0,0,1,.5-3.165" transform="translate(-1338.599 -536.489)" fill="#cd3943" fill-rule="evenodd"/><path d="M1410.71,512.9a.331.331,0,0,0,.4.1q.468-1.935,2-1.97l.206-.5q2.5-4.655-4.779-7.518,1.874.384,2.26-.837-.575.8-2.272.124a2.037,2.037,0,0,0-1.583.029,1.85,1.85,0,0,0-1.021,1.138,1.078,1.078,0,0,1,.412-1.372.854.854,0,0,0,.411-1.032.771.771,0,0,1-.682.671,1.488,1.488,0,0,0-1.078.959,1.433,1.433,0,0,0,.278,1.4,1.3,1.3,0,0,1-1.158-.995,1.2,1.2,0,0,1,.654-1.327,1.208,1.208,0,0,0,.7-1.087,1.164,1.164,0,0,1-.947.847,1.63,1.63,0,0,0-1.146,1.212,1.611,1.611,0,0,0,.556,1.565,1.967,1.967,0,0,1-1.261-1.628,1.859,1.859,0,0,1,.938-1.785,2,2,0,0,0-1.237,1.843,2.074,2.074,0,0,0,1.262,1.865c.549.24,1.052.682.662,1.292a2.458,2.458,0,0,0-.316,1.121l-.285,2.114q-.2,1.232.224.1,1.12-3.963,2.8-2.934a3.081,3.081,0,0,0,2.8.616c1.7-.382,2.455.888,2.067,2.634l-.864,3.359" transform="translate(-1311.477 -481.801)" fill="#131118" fill-rule="evenodd"/><path d="M1459.847,588.336a1.6,1.6,0,1,1-1.834,1.331,1.6,1.6,0,0,1,1.834-1.331" transform="translate(-1361.783 -561.051)" fill="#fff" fill-rule="evenodd"/><path d="M1460.916,597.412a.925.925,0,1,1-1.058.768.925.925,0,0,1,1.058-.768" transform="translate(-1363.459 -569.267)" fill="#1a5589" fill-rule="evenodd"/><path d="M1464.853,601.834a.5.5,0,1,1-.574.416.5.5,0,0,1,.574-.416" transform="translate(-1367.462 -573.27)" fill="#040505" fill-rule="evenodd"/><path d="M1472.86,600.025a.313.313,0,1,1-.358.26.313.313,0,0,1,.358-.26" transform="translate(-1374.899 -571.637)" fill="#fff" fill-rule="evenodd"/><path d="M1420.9,584.246a1.327,1.327,0,1,1-1.519,1.1,1.326,1.326,0,0,1,1.519-1.1" transform="translate(-1326.848 -557.357)" fill="#cd3943" fill-rule="evenodd"/><path d="M1420.344,578.447a1.327,1.327,0,1,1-1.519,1.1,1.327,1.327,0,0,1,1.519-1.1" transform="translate(-1326.347 -552.112)" fill="#fff" fill-rule="evenodd"/><path d="M1421.23,585.962a.766.766,0,1,1-.877.636.766.766,0,0,1,.877-.636" transform="translate(-1327.735 -558.915)" fill="#1a5589" fill-rule="evenodd"/><path d="M1424.49,589.624a.415.415,0,1,1-.475.345.415.415,0,0,1,.475-.345" transform="translate(-1331.05 -562.23)" fill="#040505" fill-rule="evenodd"/><path d="M1431.119,588.125a.259.259,0,1,1-.3.215.259.259,0,0,1,.3-.215" transform="translate(-1337.208 -560.876)" fill="#fff" fill-rule="evenodd"/><path d="M1424.386,600.834q2.657-5.178,1.865.454a.648.648,0,0,1,.8.117.665.665,0,0,1,.113.8.608.608,0,0,1-.746.243.373.373,0,0,0-.227-.164.332.332,0,0,0-.265.046.865.865,0,0,1-.836.247,1,1,0,0,1-.693-.6.342.342,0,0,0-.4-.115.638.638,0,0,1-.538-.471.564.564,0,0,1,.246-.637.591.591,0,0,1,.69.076" transform="translate(-1330.526 -570.13)" fill="#bb1d28" fill-rule="evenodd"/><path d="M1415.247,642.552a2.478,2.478,0,0,0,4.754.1.292.292,0,0,0-.439-.356q-1.089.9-4.138-.227a.344.344,0,0,0-.177.483" transform="translate(-1323.089 -609.662)" fill="#750b13" fill-rule="evenodd"/><path d="M1423.867,646.232a1.26,1.26,0,0,1-.036.48c-.618.592-1.887.71-3.8,0-.049-.328-.071-.689-.071-.689q2.795.94,3.909.2" transform="translate(-1327.387 -613.242)" fill="#fff" fill-rule="evenodd"/><path d="M1397.966,640.658a4.931,4.931,0,0,0,4.218,1.136c1.388-.265,2.137-1.791,2.3-4.765a.2.2,0,1,0-.4-.024q-.462,3.559-1.847,3.824-1.893.5-1.351-1.791a.289.289,0,0,0-.548-.159q-.29,2.448-2,.924-1.338-1.092.454-4.132a.246.246,0,0,0-.383-.225c-1.681,2.466-1.752,4.165-.446,5.211" transform="translate(-1306.68 -603.634)" fill="#131118" fill-rule="evenodd"/><path d="M1462.673,583.678a.157.157,0,1,0,.312.03q.25-1.515-3.047-.508a.364.364,0,0,0,.289.669q2.584-.977,2.446-.19" transform="translate(-1363.347 -556.061)" fill="#131118" fill-rule="evenodd"/><path d="M1423.73,574.078a.144.144,0,1,1-.28-.063q.212-1.39,2.8.423a.334.334,0,0,1-.442.5q-1.972-1.585-2.075-.86" transform="translate(-1330.539 -547.574)" fill="#131118" fill-rule="evenodd"/><path d="M1447.611,533.072a1.349,1.349,0,0,0,1.089.464,1.552,1.552,0,0,1-1.259-1.58,1.194,1.194,0,0,0-.1,1.087,1.287,1.287,0,0,1-.543-1.6,1.545,1.545,0,0,0-.1,2.1,1.325,1.325,0,0,1-.738-1.313,1.408,1.408,0,0,0,1.691,1.883,1.918,1.918,0,0,1-1.031-1.484,1.761,1.761,0,0,0,1.463,1.169,1.716,1.716,0,0,1-.468-.72" transform="translate(-1350.804 -509.616)" fill="#676075" fill-rule="evenodd"/><path d="M1435.916,608.744a.768.768,0,0,0,.722.9.759.759,0,0,1-1.119-.907l1.019-2.115-.622,2.121" transform="translate(-1341.414 -577.607)" fill="#e25059" fill-rule="evenodd"/><path d="M1436.343,561.567c.286.046.489.258.455.474a.474.474,0,0,1-.58.309c-.285-.046-.489-.258-.455-.474a.474.474,0,0,1,.579-.309" transform="translate(-1341.676 -536.854)" fill="#f6b2b7" fill-rule="evenodd"/><path d="M1347.553,672.139q.977-.555,2.467-1.593-9.81-.425-10.236-9.336a18.642,18.642,0,0,1-2.03,1.919q1.975,8.142,9.8,9.011" transform="translate(-1253.048 -626.971)" fill="#421040" fill-rule="evenodd"/><path d="M1308.162,716.933a65.716,65.716,0,0,0,8.62,4.253q3.635,1.105,4.882-2.056l2.441-6.552a3.211,3.211,0,1,0-6.253-1.456q-.727,4.154-.728,4.154c-.241,1.084-.644,1.28-1.627,1.071l-8.565-1.97c-2.505-.611-4.389.627-4.711,2.184a4.792,4.792,0,0,0,3.469,2.1,4.145,4.145,0,0,0,1.756-1.584c.242-.356.418-.308.716-.142" transform="translate(-1220.915 -669.79)" fill="#f0828b" fill-rule="evenodd"/><path d="M1352.267,725.347q-.554.13-.089.662l7.581,2.374q4.013,1.138,4.834-2.316l.969-4.03a2.243,2.243,0,0,1,2.119-1.754,2.8,2.8,0,0,0-4.114,1.309l-.685,4.248q-.332,2.042-2.967,1.377l-7.649-1.871" transform="translate(-1265.899 -679.988)" fill="#e24b54" fill-rule="evenodd"/><path d="M1495.957,747.578q-.14.57.339.259l2.158-6.749a.287.287,0,0,0-.544-.176l-1.954,6.666" transform="translate(-1396.086 -698.892)" fill="#f8bfc4" fill-rule="evenodd"/><path d="M1296.111,588.846a.193.193,0,0,0-.1.361,26.325,26.325,0,0,1,7.275,2.728.266.266,0,0,0,.294-.416q-1.266-1.368-7.469-2.672" transform="translate(-1215.209 -561.531)" fill="#f8bfc4" fill-rule="evenodd"/><path d="M954.721,738.826q4.441-6.288,4.685-6.043l-2.113-.574q-2.1,2.75-3.966,5.748a5.158,5.158,0,0,0,1.394.869" transform="translate(-905.403 -691.177)" fill="#111d2b" fill-rule="evenodd"/><path d="M993.532,619.838c-10.055,1.733-17.4,6.679-22.2,19.687a12.941,12.941,0,0,1-7.952-2.763c7.941-13.066,16.231-17.344,22.994-18.192,5.253,1.085,7.161,1.268,7.161,1.268" transform="translate(-914.491 -588.411)" fill="#ffce2a" fill-rule="evenodd"/><path d="M982.324,632.242c-6.58,8.56-3.026,11.615.84,7.582q-.49,1.094-1.674,3.82a28.293,28.293,0,0,1-6.139-2.237,64.843,64.843,0,0,1,6.973-9.165m6.847-5.522q7.894-3.171,8.438-.6a12.076,12.076,0,0,1,4.32-1.256l-4.847-.879A26.062,26.062,0,0,0,989.171,626.72Z" transform="translate(-925.319 -593.306)" fill="#fa8b31" fill-rule="evenodd"/><path d="M1064.222,668.206q-.179.922.564.319,4.282-6.047,7.922-7.922.525-.835-.466-.54-4.256,2.275-8.02,8.142" transform="translate(-1005.656 -625.865)" fill="#ffec8a" fill-rule="evenodd"/><path d="M1216.763,841.861l1.255.222q-3.28.867-6.379,1.4a104.71,104.71,0,0,1-23.141,1.735,1.947,1.947,0,0,1,.164-1.045,21.688,21.688,0,0,1,4.464-5.887q.168,6.18,4.309,3.044,4.46-3.575,7.116-1.344l3.727,2.7a2.646,2.646,0,0,0,1.8.21l6.681-1.038" transform="translate(-1118.06 -787.108)" fill="#0e2236" fill-rule="evenodd"/><path d="M486.5,921.1c-15.25-.1-23.667.75-25.308.03-2.588.431-5.315-5.762-8.573-8.611v-7.211a9.624,9.624,0,0,0,13.784,3.971,5.444,5.444,0,0,1,7.671,1.693,3.642,3.642,0,0,0,5.46.947,3.19,3.19,0,0,1,4.369-.146,4.044,4.044,0,0,0,6.546-1.873,5.985,5.985,0,0,1,9.987-2.637,6.1,6.1,0,0,0,7.8.646,5.023,5.023,0,0,1,7.589,2.467,3.271,3.271,0,0,0,6.27-.108,5.478,5.478,0,0,1,9.665-2.021,1.93,1.93,0,0,0,3.229-.112,3.561,3.561,0,0,1,6.43,1.048,4.717,4.717,0,0,0,9.038.359,4.282,4.282,0,0,1,7.694-.992,4.47,4.47,0,0,0,6.653.856q4.882-4.027,8.8-2.037a12.749,12.749,0,0,0,16.291-4.77v6.015c.533,23.587-13.684,21.175-26.666,13.652-47.07.423-64.893-5.364-64.893-5.364-4.171,1.27-8.267,5.156-11.839,4.2" transform="translate(-452.598 -845.263)" fill="#92a6d5" fill-rule="evenodd"/><path d="M452.767,974.886V983.3c36.155,28.394,56.612,12.165,77.027,3.107q10.328,5.2,24.838-1.05c.856,5.222,9.252,12.57,21.588.088,4.734.146,9.342,1.083,13.824-4.009,0,0,0-4.228,0-5.864a1.924,1.924,0,1,0-3.815.5,4.983,4.983,0,0,1-8.813,3.629,3.338,3.338,0,0,0-5-.649,2.82,2.82,0,0,1-4.315-.554,2.694,2.694,0,0,0-4.723-.113,5.085,5.085,0,0,1-8.431.572,4.3,4.3,0,0,0-7.777,2.025,2.007,2.007,0,0,1-4.011-.152,3.168,3.168,0,0,0-6.06-1.595,1.584,1.584,0,0,1-3.016.132,2.609,2.609,0,0,0-4.212-1.3,3.921,3.921,0,0,1-3.277.8,5,5,0,0,0-5.612,2.821,2.638,2.638,0,0,1-4.847-.477,4.115,4.115,0,0,0-7.634-1.35,2.59,2.59,0,0,1-4.458.107,4.5,4.5,0,0,0-5.119-2.187,3.664,3.664,0,0,1-1.886.022,6.447,6.447,0,0,0-6.586,2.345,2.3,2.3,0,0,1-2.588.734,4.868,4.868,0,0,0-5.215,1.133,5.875,5.875,0,0,1-9.361-1.294,3.07,3.07,0,0,0-5.707.343,1.721,1.721,0,0,1-3.309-.076,3.932,3.932,0,0,0-5.711-2.757,3.992,3.992,0,0,1-5.795-3.348" transform="translate(-452.736 -909.723)" fill="#728bc6" fill-rule="evenodd"/><path d="M590.044,1027.942v10.285q-27.581,9.821-123.819,1.166-7.172,3.048-13.459-6.005V1031.7a3.054,3.054,0,0,1,5.584,1.715,2.36,2.36,0,0,0,4.155,1.513,5,5,0,0,1,7.239-.622,2.468,2.468,0,0,0,3.861-.492,3.087,3.087,0,0,1,5.608-.039,2.784,2.784,0,0,0,5.175-.537,2.4,2.4,0,0,1,4.105-1.15,4.823,4.823,0,0,0,6.925.551,6.118,6.118,0,0,1,9.415,1.09,1.336,1.336,0,0,0,2.39-.265,2.674,2.674,0,0,1,4.949-.248,1.632,1.632,0,0,0,3.078,0,2.043,2.043,0,0,1,3.663-.505,4.542,4.542,0,0,0,6.688,1.18,7.953,7.953,0,0,1,9.239-.609,5.079,5.079,0,0,0,7.389-2.015,3.34,3.34,0,0,1,5.761-.114,4.943,4.943,0,0,0,5.778,2.11,7.555,7.555,0,0,1,8.217,2.466,4.053,4.053,0,0,0,7.091-2.266,3.364,3.364,0,0,1,5.468-2.112,10.395,10.395,0,0,0,15.5-3.406" transform="translate(-452.735 -958.615)" fill="#5e7abb" fill-rule="evenodd"/><path d="M590.044,1061.993v8.415q-45.663,14.243-77.027,3.107-10.328,5.2-24.838-1.049l-21.588.087q-7.1.219-13.824-7.42v-2.453a1.924,1.924,0,1,1,3.815.5,4.983,4.983,0,0,0,8.813,3.629,3.337,3.337,0,0,1,5-.649,2.82,2.82,0,0,0,4.315-.554,2.694,2.694,0,0,1,4.723-.113,5.086,5.086,0,0,0,8.431.572,4.3,4.3,0,0,1,7.777,2.025,2.007,2.007,0,0,0,4.011-.152,3.169,3.169,0,0,1,6.06-1.595,1.584,1.584,0,0,0,3.016.132,2.609,2.609,0,0,1,4.212-1.3,3.921,3.921,0,0,0,3.277.8,5,5,0,0,1,5.613,2.822,2.638,2.638,0,0,0,4.847-.477,4.115,4.115,0,0,1,7.634-1.351,2.59,2.59,0,0,0,4.458.107,4.5,4.5,0,0,1,5.119-2.187,3.664,3.664,0,0,0,1.886.022,6.447,6.447,0,0,1,6.586,2.345,2.3,2.3,0,0,0,2.588.734,4.868,4.868,0,0,1,5.215,1.133,5.875,5.875,0,0,0,9.361-1.294,3.07,3.07,0,0,1,5.707.342,1.72,1.72,0,0,0,3.309-.076,3.932,3.932,0,0,1,5.711-2.757,3.992,3.992,0,0,0,5.795-3.348" transform="translate(-452.735 -988.496)" fill="#4363ac" fill-rule="evenodd"/><path d="M555.939,1108.258q22.875-.143,25.337-1.223,3.881.647,8.768-3.627V1096.2a9.624,9.624,0,0,1-13.784,3.971,5.444,5.444,0,0,0-7.67,1.693,3.643,3.643,0,0,1-5.46.947,3.19,3.19,0,0,0-4.369-.146,4.044,4.044,0,0,1-6.546-1.872,5.985,5.985,0,0,0-9.987-2.637,6.094,6.094,0,0,1-7.8.646,5.023,5.023,0,0,0-7.589,2.467,3.271,3.271,0,0,1-6.271-.108,5.478,5.478,0,0,0-9.665-2.021,1.93,1.93,0,0,1-3.228-.111,3.561,3.561,0,0,0-6.43,1.048,4.717,4.717,0,0,1-9.038.359,4.282,4.282,0,0,0-7.694-.992,4.469,4.469,0,0,1-6.653.856q-4.882-4.027-8.8-2.037a12.749,12.749,0,0,1-16.291-4.77v6.015q3.162,6.818,20.953,7.653l70.606.635a20.811,20.811,0,0,0,11.615.465" transform="translate(-452.735 -1017.891)" fill="#274d9d" fill-rule="evenodd"/><path d="M452.766,1136.781a5.383,5.383,0,0,0,5.367,5.368l126.8-.006a5.385,5.385,0,0,0,5.113-5.286s0-1.03,0-3.09a4.738,4.738,0,0,1-7.982,3.491,7.516,7.516,0,0,0-11.187,1.49,4.758,4.758,0,0,1-7.207.791,5.917,5.917,0,0,0-8.951,1.028,2.4,2.4,0,0,1-3.941-.107,12.1,12.1,0,0,0-15.453-3.541,18.384,18.384,0,0,1-17.579-.517,14.52,14.52,0,0,0-18.225,2.454,4.447,4.447,0,0,1-6.26-.073q-4.477-4.356-13.442-2.095c-9.715,2.265-22.79,1.587-27.051-6.652v6.746" transform="translate(-452.735 -1050.94)" fill="#0d3681" fill-rule="evenodd"/><path d="M1201.183,965.295a1.416,1.416,0,1,1-1.416,1.415,1.415,1.415,0,0,1,1.416-1.415" transform="translate(-1128.263 -901.962)" fill="#fff" fill-rule="evenodd"/><path d="M1258.05,945.034a1,1,0,1,1-1,1,1,1,0,0,1,1-1" transform="translate(-1180.066 -883.639)" fill="#fff" fill-rule="evenodd"/><path d="M1239.9,919.755a.7.7,0,1,1-.7.7.7.7,0,0,1,.7-.7" transform="translate(-1163.923 -860.779)" fill="#fff" fill-rule="evenodd"/><path d="M1142.559,917.409a.7.7,0,1,1-.7.7.695.695,0,0,1,.7-.7" transform="translate(-1075.901 -858.657)" fill="#fff" fill-rule="evenodd"/><path d="M1289.457,910.6a.85.85,0,1,1-.85.85.85.85,0,0,1,.85-.85" transform="translate(-1208.603 -852.496)" fill="#fff" fill-rule="evenodd"/><path d="M1317.377,906.164a.629.629,0,1,1-.629.63.629.629,0,0,1,.629-.63" transform="translate(-1234.052 -848.488)" fill="#fff" fill-rule="evenodd"/><path d="M1313.206,957.245a1.208,1.208,0,1,1-1.208,1.208,1.207,1.207,0,0,1,1.208-1.208" transform="translate(-1229.756 -894.682)" fill="#fff" fill-rule="evenodd"/><path d="M1321.165,874.234a.869.869,0,1,1-.869.869.869.869,0,0,1,.869-.869" transform="translate(-1237.26 -819.613)" fill="#fff" fill-rule="evenodd"/><path d="M1288.592,891.408a.434.434,0,1,1-.435.434.434.434,0,0,1,.435-.434" transform="translate(-1208.197 -835.144)" fill="#fff" fill-rule="evenodd"/><path d="M1364.976,890.738a.434.434,0,1,1-.435.434.434.434,0,0,1,.435-.434" transform="translate(-1277.273 -834.538)" fill="#fff" fill-rule="evenodd"/><path d="M1202.342,918.361a.434.434,0,1,1-.434.434.434.434,0,0,1,.434-.434" transform="translate(-1130.2 -859.518)" fill="#fff" fill-rule="evenodd"/><path d="M1082.255,1017.952a1.415,1.415,0,1,1-1.416,1.416,1.415,1.415,0,0,1,1.416-1.416" transform="translate(-1020.715 -949.581)" fill="#fff" fill-rule="evenodd"/><path d="M1019.545,967.268a1,1,0,1,1-1,1,1,1,0,0,1,1-1" transform="translate(-964.381 -903.746)" fill="#fff" fill-rule="evenodd"/><path d="M1048.1,941.115a.8.8,0,1,1-.8.8.8.8,0,0,1,.8-.8" transform="translate(-990.383 -880.095)" fill="#fff" fill-rule="evenodd"/><path d="M982.95,934.425a.463.463,0,1,1-.463.463.463.463,0,0,1,.463-.463" transform="translate(-931.773 -874.045)" fill="#fff" fill-rule="evenodd"/><path d="M978.236,890.909a.732.732,0,1,1-.732.732.732.732,0,0,1,.732-.732" transform="translate(-927.266 -834.693)" fill="#fff" fill-rule="evenodd"/><path d="M1023.122,881.21a.366.366,0,1,1-.366.366.366.366,0,0,1,.366-.366" transform="translate(-968.189 -825.922)" fill="#fff" fill-rule="evenodd"/><path d="M881.911,945.949a1.16,1.16,0,1,1-1.16,1.16,1.16,1.16,0,0,1,1.16-1.16" transform="translate(-839.771 -884.467)" fill="#fff" fill-rule="evenodd"/><path d="M873.082,909.134a.864.864,0,1,1-.864.864.864.864,0,0,1,.864-.864" transform="translate(-832.054 -851.174)" fill="#fff" fill-rule="evenodd"/><path d="M911.89,901.931a.367.367,0,1,1-.367.367.367.367,0,0,1,.367-.367" transform="translate(-867.598 -844.66)" fill="#fff" fill-rule="evenodd"/><path d="M1288.035,839.4a.565.565,0,1,1-.565.565.565.565,0,0,1,.565-.565" transform="translate(-1207.575 -788.115)" fill="#fff" fill-rule="evenodd"/><path d="M1293.77,819.265a.282.282,0,1,1-.282.282.282.282,0,0,1,.282-.282" transform="translate(-1213.016 -769.904)" fill="#fff" fill-rule="evenodd"/><path d="M1254.6,844.293a.415.415,0,1,1-.415.415.414.414,0,0,1,.415-.415" transform="translate(-1177.478 -792.537)" fill="#fff" fill-rule="evenodd"/><path d="M1356.3,867.164a.434.434,0,1,1-.434.434.434.434,0,0,1,.434-.434" transform="translate(-1269.43 -813.22)" fill="#fff" fill-rule="evenodd"/><path d="M1082.341,863.562a.574.574,0,1,1-.574.574.574.574,0,0,1,.574-.574" transform="translate(-1021.554 -809.962)" fill="#fff" fill-rule="evenodd"/><path d="M1102.587,824.765a.4.4,0,1,1-.4.4.4.4,0,0,1,.4-.4" transform="translate(-1040.021 -774.878)" fill="#fff" fill-rule="evenodd"/><path d="M517.492,833.116a.275.275,0,1,0,.275.275.275.275,0,0,0-.275-.275" transform="translate(-511.019 -782.43)" fill="#7f9b2b" fill-rule="evenodd"/><path d="M1396.352,1019.75a.6.6,0,1,1-.6.6.6.6,0,0,1,.6-.6" transform="translate(-1305.493 -951.206)" fill="#fff" fill-rule="evenodd"/><path d="M1414.437,957.159a.8.8,0,1,1-.8.8.8.8,0,0,1,.8-.8" transform="translate(-1321.671 -894.604)" fill="#fff" fill-rule="evenodd"/><path d="M1390.627,932.726a.4.4,0,1,1-.4.4.4.4,0,0,1,.4-.4" transform="translate(-1300.5 -872.509)" fill="#fff" fill-rule="evenodd"/><path d="M1522.141,1012.231a1.415,1.415,0,1,1-1.415,1.415,1.415,1.415,0,0,1,1.415-1.415" transform="translate(-1418.513 -944.407)" fill="#fff" fill-rule="evenodd"/><path d="M857.756,1022.534a1.415,1.415,0,1,1-1.416,1.415,1.415,1.415,0,0,1,1.416-1.415" transform="translate(-817.695 -953.724)" fill="#fff" fill-rule="evenodd"/><path d="M831.039,1008.878a1.039,1.039,0,1,1-1.039,1.039,1.039,1.039,0,0,1,1.039-1.039" transform="translate(-793.875 -941.375)" fill="#fff" fill-rule="evenodd"/><path d="M655.319,1027.177a.72.72,0,1,1-.72.72.72.72,0,0,1,.72-.72" transform="translate(-635.257 -957.923)" fill="#fff" fill-rule="evenodd"/><path d="M1688.477,1037.01a.72.72,0,1,1-.72.72.72.72,0,0,1,.72-.72" transform="translate(-1569.563 -966.815)" fill="#fff" fill-rule="evenodd"/><path d="M1580.706,1008.079a.6.6,0,1,1-.6.6.6.6,0,0,1,.6-.6" transform="translate(-1472.208 -940.652)" fill="#fff" fill-rule="evenodd"/><path d="M1267.012,1051.448a1.062,1.062,0,1,1-1.062,1.062,1.062,1.062,0,0,1,1.062-1.062" transform="translate(-1188.114 -979.872)" fill="#fff" fill-rule="evenodd"/><path d="M1207.885,1048.249a.793.793,0,1,1-.793.793.794.794,0,0,1,.793-.793" transform="translate(-1134.888 -976.979)" fill="#fff" fill-rule="evenodd"/><path d="M703.825,1118.765a.125.125,0,0,0,.229.1,3.3,3.3,0,0,1,5.353-.307,2.571,2.571,0,0,0,4.62-1.112.134.134,0,0,0-.257-.005,2.123,2.123,0,0,1-3.829.75,3.506,3.506,0,0,0-6.116.577" transform="translate(-679.765 -1038.839)" fill="#fff" fill-rule="evenodd"/><path d="M829.776,1126.148a.166.166,0,0,0,.3.131,4.4,4.4,0,0,1,7.13-.409,3.425,3.425,0,0,0,6.154-1.481.179.179,0,0,0-.342-.008,2.828,2.828,0,0,1-5.1,1,4.67,4.67,0,0,0-8.146.768" transform="translate(-793.662 -1044.881)" fill="#fff" fill-rule="evenodd"/><path d="M993.869,1118.97a.346.346,0,1,1,.584.366,2.942,2.942,0,0,1-5.212-.231,3.713,3.713,0,0,0-6.488-.321,5.578,5.578,0,0,1-6.808,2.476.216.216,0,0,1,.174-.381,4.955,4.955,0,0,0,6.026-2.564,4.451,4.451,0,0,1,8.158.513,2.063,2.063,0,0,0,3.567.142" transform="translate(-925.782 -1038.138)" fill="#fff" fill-rule="evenodd"/><path d="M1009.239,1072.948a.194.194,0,0,0,.378.045,3.248,3.248,0,0,1,5.672-1.336.171.171,0,1,0,.283-.184,3.441,3.441,0,0,0-6.333,1.476" transform="translate(-955.965 -996.527)" fill="#fff" fill-rule="evenodd"/><path d="M1168.189,1118.765a.125.125,0,0,0,.229.1,3.305,3.305,0,0,1,5.353-.307,2.571,2.571,0,0,0,4.62-1.112.134.134,0,0,0-.257-.005,2.123,2.123,0,0,1-3.829.75,3.506,3.506,0,0,0-6.116.577" transform="translate(-1099.699 -1038.839)" fill="#fff" fill-rule="evenodd"/><path d="M1305.941,1128.124a.229.229,0,1,1,.385.241,1.94,1.94,0,0,1-3.437-.152,2.449,2.449,0,0,0-4.279-.212,3.678,3.678,0,0,1-4.49,1.633.142.142,0,0,1,.115-.251,3.268,3.268,0,0,0,3.974-1.691,2.935,2.935,0,0,1,5.38.338,1.36,1.36,0,0,0,2.352.094" transform="translate(-1213.541 -1047.368)" fill="#fff" fill-rule="evenodd"/><path d="M1414.174,1145.378a.155.155,0,1,1,.262.165,2.383,2.383,0,0,1-4.341.152,2.462,2.462,0,0,0-4.268.087,4.762,4.762,0,0,1-7.817,1.153.22.22,0,0,1,.319-.293,4.2,4.2,0,0,0,6.91-1.264,3.034,3.034,0,0,1,5.55-.022,1.84,1.84,0,0,0,3.384.021" transform="translate(-1307.509 -1063.17)" fill="#fff" fill-rule="evenodd"/><path d="M1506.865,1098.911a.124.124,0,0,0,.229.1,3.305,3.305,0,0,1,5.353-.307,2.572,2.572,0,0,0,4.62-1.112.134.134,0,0,0-.257-.005,2.123,2.123,0,0,1-3.829.75,3.506,3.506,0,0,0-6.116.577" transform="translate(-1405.97 -1020.884)" fill="#fff" fill-rule="evenodd"/><path d="M1663.969,1118.765a.125.125,0,0,0,.229.1,3.305,3.305,0,0,1,5.353-.307,2.571,2.571,0,0,0,4.62-1.112.134.134,0,0,0-.257-.005,2.123,2.123,0,0,1-3.829.75,3.506,3.506,0,0,0-6.116.577" transform="translate(-1548.043 -1038.839)" fill="#fff" fill-rule="evenodd"/><path d="M598.358,1131.605a.194.194,0,0,0,.378.044,3.248,3.248,0,0,1,5.672-1.336.171.171,0,1,0,.283-.185,3.441,3.441,0,0,0-6.333,1.476" transform="translate(-584.397 -1049.572)" fill="#fff" fill-rule="evenodd"/><path d="M1377.218,1052.634a.228.228,0,1,1-.385-.241,1.94,1.94,0,0,1,3.437.152,2.449,2.449,0,0,0,4.279.211,3.678,3.678,0,0,1,4.49-1.632.142.142,0,0,1-.115.251,3.267,3.267,0,0,0-3.974,1.691,2.935,2.935,0,0,1-5.38-.338,1.361,1.361,0,0,0-2.352-.094" transform="translate(-1288.343 -979.367)" fill="#fff" fill-rule="evenodd"/><path d="M801.073,531.911l3.687,4.55,1.843-5.587-2.159,3.885Z" transform="translate(-767.717 -509.106)" fill="#895224" fill-rule="evenodd"/><path d="M686.255,515.659l2.4,2.969,1.2-3.645-1.408,2.534Z" transform="translate(-663.884 -494.735)" fill="#895224" fill-rule="evenodd"/><path d="M846.925,434.417l2.4,2.969,1.2-3.645-1.408,2.534Z" transform="translate(-809.182 -421.266)" fill="#895224" fill-rule="evenodd"/><path d="M759.5,1061.5a.194.194,0,0,0,.339.173,3.248,3.248,0,0,1,5.783.713.171.171,0,1,0,.329-.075,3.441,3.441,0,0,0-6.452-.811" transform="translate(-730.118 -987.225)" fill="#fff" fill-rule="evenodd"/><path d="M1474.344,969.279a1.07,1.07,0,1,1-1.07,1.07,1.07,1.07,0,0,1,1.07-1.07" transform="translate(-1375.602 -905.565)" fill="#fff" fill-rule="evenodd"/><path d="M1518.352,949.035a1.006,1.006,0,1,1-1.006,1.006,1.006,1.006,0,0,1,1.006-1.006" transform="translate(-1415.457 -887.257)" fill="#fff" fill-rule="evenodd"/><path d="M1502.946,929.1a.669.669,0,1,1-.669.669.669.669,0,0,1,.669-.669" transform="translate(-1401.829 -869.234)" fill="#fff" fill-rule="evenodd"/><path d="M1560.045,944.83a.669.669,0,1,1-.669.669.669.669,0,0,1,.669-.669" transform="translate(-1453.465 -883.455)" fill="#fff" fill-rule="evenodd"/><path d="M1567.614,917.121a.56.56,0,1,1-.56.56.56.56,0,0,1,.56-.56" transform="translate(-1460.408 -858.397)" fill="#fff" fill-rule="evenodd"/><path d="M1595.03,959.264a.9.9,0,1,1-.9.9.9.9,0,0,1,.9-.9" transform="translate(-1484.892 -896.508)" fill="#fff" fill-rule="evenodd"/><path d="M1605.17,923.067a.521.521,0,1,1-.521.521.521.521,0,0,1,.521-.521" transform="translate(-1494.407 -863.774)" fill="#fff" fill-rule="evenodd"/><path d="M1577.651,895.576a.437.437,0,1,1-.437.437.437.437,0,0,1,.437-.437" transform="translate(-1469.597 -838.913)" fill="#fff" fill-rule="evenodd"/><path d="M1543.4,887.785a.437.437,0,1,1-.437.437.437.437,0,0,1,.437-.437" transform="translate(-1438.621 -831.868)" fill="#fff" fill-rule="evenodd"/><path d="M1601.924,875.314a.366.366,0,1,1-.366.366.366.366,0,0,1,.366-.366" transform="translate(-1491.611 -820.59)" fill="#fff" fill-rule="evenodd"/><path d="M1629.174,896.283a.366.366,0,1,1-.366.366.366.366,0,0,1,.366-.366" transform="translate(-1516.254 -839.553)" fill="#fff" fill-rule="evenodd"/><path d="M1676.354,959.264a.9.9,0,1,1-.9.9.9.9,0,0,1,.9-.9" transform="translate(-1558.435 -896.508)" fill="#fff" fill-rule="evenodd"/><path d="M1780.13,1023.166a.666.666,0,1,1-.666.666.666.666,0,0,1,.666-.666" transform="translate(-1652.495 -954.296)" fill="#fff" fill-rule="evenodd"/></g></svg>