<svg xmlns="http://www.w3.org/2000/svg" width="23.333" height="15" viewBox="0 0 23.333 15">
  <path id="icon" d="M25.333,10.333A1.667,1.667,0,0,1,23.666,12a1.637,1.637,0,0,1-1.34-.727L19.046,6.9l-3.805,8.892a1.6,1.6,0,0,1-.157.366l-.115.27-.041-.038A1.64,1.64,0,0,1,13.667,17a1.662,1.662,0,0,1-1.178-.488l-.02.02-.263-.438c-.024-.046-.059-.084-.079-.132L8.533,9.972,4.864,14.864l-.019-.02a1.667,1.667,0,1,1-2.357-2.357l-.019-.02,5-6.666.019.019a1.667,1.667,0,0,1,2.357,0L9.864,5.8l.263.438a1.536,1.536,0,0,1,.079.132L13.461,11.8l3.622-8.54a1.61,1.61,0,0,1,.19-.449l.143-.338.056.043A1.656,1.656,0,0,1,18.666,2,1.636,1.636,0,0,1,20,2.721l4.832,6.427A1.658,1.658,0,0,1,25.333,10.333Z" transform="translate(-2 -2)" fill="#14b28b"/>
</svg>
