<svg xmlns="http://www.w3.org/2000/svg" width="24" height="23.011" viewBox="0 0 24 23.011">
  <path id="icon" d="M20.453,25H2V23.918a9.094,9.094,0,0,1,9.227-8.933,9.094,9.094,0,0,1,9.227,8.933V25h0ZM6.674,18.785a6.726,6.726,0,0,0-2.348,4.05h13.8a6.728,6.728,0,0,0-2.349-4.05,7.152,7.152,0,0,0-9.1,0ZM20.81,16.716V13.61H17.7V11.539H20.81V8.432h2.076v3.107H26V13.61H22.886v3.106ZM5.634,7.4a5.512,5.512,0,0,1,5.593-5.414A5.512,5.512,0,0,1,16.819,7.4a5.512,5.512,0,0,1-5.593,5.414A5.512,5.512,0,0,1,5.634,7.4Zm2.237,0a3.357,3.357,0,0,0,6.71,0,3.357,3.357,0,0,0-6.71,0Z" transform="translate(-2 -1.989)" fill="#14b28b"/>
</svg>
