<svg xmlns="http://www.w3.org/2000/svg" xmlns:xlink="http://www.w3.org/1999/xlink" width="53" height="54" viewBox="0 0 53 54">
  <defs>
    <clipPath id="clip-path">
      <ellipse id="Ellipse_360" data-name="Ellipse 360" cx="26.5" cy="27" rx="26.5" ry="27" transform="translate(0.049 -0.312)" fill="#fff"/>
    </clipPath>
    <clipPath id="clip-path-2">
      <path id="_2" data-name="#2" d="M158.012,12.138a30.515,30.515,0,1,1-30.329,30.514A30.422,30.422,0,0,1,158.012,12.138Z" transform="translate(-127.682 -12.138)" fill="#aaa"/>
    </clipPath>
    <linearGradient id="linear-gradient" x1="0.5" y1="1.789" x2="0.5" y2="-0.346" gradientUnits="objectBoundingBox">
      <stop offset="0" stop-color="#7c39e8"/>
      <stop offset="0.002" stop-color="#090835"/>
      <stop offset="0.413" stop-color="#232257"/>
      <stop offset="0.807" stop-color="#62c1aa"/>
      <stop offset="1" stop-color="#14b28b"/>
    </linearGradient>
    <linearGradient id="linear-gradient-2" x1="0.487" y1="1.121" x2="0.52" y2="0.081" gradientUnits="objectBoundingBox">
      <stop offset="0" stop-color="#e6aa8b"/>
      <stop offset="0.458" stop-color="#f1c7b1"/>
      <stop offset="1" stop-color="#ffe8db"/>
    </linearGradient>
    <linearGradient id="linear-gradient-3" x1="0" y1="0.5" x2="1" y2="0.5" xlink:href="#linear-gradient-2"/>
    <linearGradient id="linear-gradient-4" x1="0.125" y1="0.976" x2="0.869" y2="-0.088" gradientUnits="objectBoundingBox">
      <stop offset="0" stop-color="#c94a73"/>
      <stop offset="0.002" stop-color="#46457b"/>
      <stop offset="0.527" stop-color="#525196"/>
      <stop offset="1" stop-color="#7877ce"/>
    </linearGradient>
    <linearGradient id="linear-gradient-5" y1="0.5" x2="1" y2="0.5" gradientUnits="objectBoundingBox">
      <stop offset="0" stop-color="#c94a73"/>
      <stop offset="0.002" stop-color="#46457b"/>
      <stop offset="0.527" stop-color="#55549a"/>
      <stop offset="1" stop-color="#7877ce"/>
    </linearGradient>
    <linearGradient id="linear-gradient-6" x1="0.375" y1="1.237" x2="0.991" y2="-0.076" gradientUnits="objectBoundingBox">
      <stop offset="0" stop-color="#c94a73"/>
      <stop offset="0.002" stop-color="#46457b"/>
      <stop offset="0.527" stop-color="#515096"/>
      <stop offset="1" stop-color="#7877ce"/>
    </linearGradient>
    <linearGradient id="linear-gradient-7" y1="0.5" x2="1" y2="0.5" gradientUnits="objectBoundingBox">
      <stop offset="0" stop-color="#f75b87"/>
      <stop offset="0.002" stop-color="#6868aa"/>
      <stop offset="1" stop-color="#7877ce"/>
    </linearGradient>
    <linearGradient id="linear-gradient-8" y1="0.5" x2="1" y2="0.5" gradientUnits="objectBoundingBox">
      <stop offset="0" stop-color="#c94a73"/>
      <stop offset="0.002" stop-color="#46457b"/>
      <stop offset="0.527" stop-color="#6664aa"/>
      <stop offset="1" stop-color="#7877ce"/>
    </linearGradient>
    <linearGradient id="linear-gradient-9" x1="0.531" y1="0.349" x2="0.343" y2="1.279" gradientUnits="objectBoundingBox">
      <stop offset="0" stop-color="#c94a73"/>
      <stop offset="0.002" stop-color="#46457b"/>
      <stop offset="0.527" stop-color="#6160a8"/>
      <stop offset="1" stop-color="#7877ce"/>
    </linearGradient>
    <linearGradient id="linear-gradient-10" x1="1.098" y1="0.168" x2="-0.194" y2="1.495" gradientUnits="objectBoundingBox">
      <stop offset="0" stop-color="#c94a73"/>
      <stop offset="0.002" stop-color="#46457b"/>
      <stop offset="0.527" stop-color="#5c5baf"/>
      <stop offset="1" stop-color="#7877ce"/>
    </linearGradient>
    <linearGradient id="linear-gradient-12" x1="1.319" y1="-0.737" x2="-0.216" y2="1.407" xlink:href="#linear-gradient-2"/>
    <linearGradient id="linear-gradient-13" x1="0.857" y1="1.951" x2="-0.033" y2="-1.745" xlink:href="#linear-gradient-2"/>
    <linearGradient id="linear-gradient-14" x1="0.742" y1="1.367" x2="0.205" y2="-0.95" xlink:href="#linear-gradient-2"/>
    <linearGradient id="linear-gradient-16" x1="-0.167" y1="1.088" x2="1.021" y2="-0.151" gradientUnits="objectBoundingBox">
      <stop offset="0" stop-color="#ad94fd"/>
      <stop offset="0.002" stop-color="#14b28b"/>
      <stop offset="1" stop-color="#232257"/>
    </linearGradient>
  </defs>
  <g id="Mask_Group_4" data-name="Mask Group 4" transform="translate(-0.049 0.312)" clip-path="url(#clip-path)">
    <g id="Group_3566" data-name="Group 3566" transform="translate(1.071 5.224)">
      <path id="Path_1" data-name="Path 1" d="M601.241,331.489c-3.135,1.384-5.572,3.879-10.142,1.107-7.652-4.643-14.384,14.727-23.243,17.787s-16.216-24.131-19.621,4.992" transform="translate(-548.235 -322.48)" fill="none" stroke="#090835" stroke-miterlimit="10" stroke-width="0.954"/>
      <path id="Path_2" data-name="Path 2" d="M601.233,331.753c-3.065,1.385-5.412,3.892-9.849,1.6-3.286-1.7-6.451,1.1-9.75,4.441-4.147,4.2-8.512,10.334-13.488,11.963-8.792,2.878-16.208-22.2-19.912,5.869" transform="translate(-548.235 -322.727)" fill="none" stroke="#232257" stroke-miterlimit="10" stroke-width="0.954"/>
      <path id="Path_3" data-name="Path 3" d="M601.225,332.018c-3,1.387-5.264,3.9-9.555,2.086-3.2-1.35-6.31,1.613-9.614,4.428-4.155,3.54-8.6,9.04-13.618,10.591-8.725,2.7-16.2-20.26-20.2,6.747" transform="translate(-548.235 -322.976)" fill="none" stroke="#313076" stroke-miterlimit="10" stroke-width="0.954"/>
      <path id="Path_4" data-name="Path 4" d="M601.217,332.282c-2.925,1.389-5.131,3.9-9.261,2.576-3.121-1-6.174,2.126-9.479,4.416-4.169,2.888-8.692,7.747-13.748,9.219-8.656,2.521-16.191-18.324-20.494,7.624" transform="translate(-548.235 -323.223)" fill="none" stroke="#3a388b" stroke-miterlimit="10" stroke-width="0.954"/>
      <path id="Path_5" data-name="Path 5" d="M601.209,332.547c-2.855,1.391-5.018,3.915-8.968,3.066-3.063-.659-6.044,2.641-9.343,4.4-4.191,2.239-8.782,6.455-13.878,7.848-8.586,2.346-16.182-16.388-20.785,8.5" transform="translate(-548.235 -323.471)" fill="none" stroke="#4a4898" stroke-miterlimit="10" stroke-width="0.954"/>
      <path id="Path_6" data-name="Path 6" d="M601.2,332.812c-2.785,1.393-4.926,3.939-8.674,3.556-3.024-.309-5.922,3.156-9.208,4.392-4.224,1.59-8.87,5.164-14.008,6.476-8.515,2.174-16.174-14.452-21.076,9.379" transform="translate(-548.235 -323.72)" fill="none" stroke="#504f98" stroke-miterlimit="10" stroke-width="0.954"/>
      <path id="Path_7" data-name="Path 7" d="M601.193,333.076c-2.715,1.394-4.854,3.985-8.381,4.045-3,.052-5.81,3.665-9.072,4.38-4.27.936-8.959,3.875-14.138,5.1-8.444,2-16.165-12.516-21.367,10.257" transform="translate(-548.235 -323.967)" fill="none" stroke="#63629b" stroke-miterlimit="10" stroke-width="0.954"/>
      <path id="Path_8" data-name="Path 8" d="M601.185,333.341c-2.646,1.4-4.8,4.061-8.087,4.535-3,.432-5.705,4.166-8.937,4.368-4.324.27-9.047,2.587-14.268,3.732-8.371,1.836-16.157-10.581-21.658,11.134" transform="translate(-548.235 -324.215)" fill="none" stroke="#8f8ec4" stroke-miterlimit="10" stroke-width="0.954"/>
      <path id="Path_9" data-name="Path 9" d="M601.177,333.605c-2.576,1.4-4.741,4.17-7.794,5.025-3,.839-5.6,4.655-8.8,4.356-4.382-.41-9.134,1.3-14.4,2.361-8.3,1.671-16.148-8.645-21.949,12.012" transform="translate(-548.235 -324.463)" fill="none" stroke="#189b7b" stroke-miterlimit="10" stroke-width="0.954"/>
      <path id="Path_10" data-name="Path 10" d="M601.169,333.87c-2.506,1.4-4.678,4.31-7.5,5.514-2.986,1.274-5.5,5.133-8.666,4.344-4.437-1.106-9.221.016-14.528.989-8.224,1.508-16.14-6.709-22.24,12.889" transform="translate(-548.235 -324.711)" fill="none" stroke="#129676" stroke-miterlimit="10" stroke-width="0.954"/>
      <path id="Path_11" data-name="Path 11" d="M601.161,334.135c-2.436,1.4-4.6,4.472-7.207,6-2.958,1.738-5.388,5.6-8.53,4.332-4.483-1.813-9.308-1.268-14.658-.383-8.15,1.348-16.131-4.773-22.531,13.767" transform="translate(-548.235 -324.96)" fill="none" stroke="#14a380" stroke-miterlimit="10" stroke-width="0.954"/>
      <path id="Path_12" data-name="Path 12" d="M601.153,334.4c-2.366,1.4-4.5,4.645-6.913,6.494-2.9,2.22-5.269,6.069-8.395,4.32-4.518-2.528-9.4-2.549-14.788-1.755-8.076,1.19-16.123-2.837-22.822,14.644" transform="translate(-548.235 -325.207)" fill="none" stroke="#14ac86" stroke-miterlimit="10" stroke-width="0.954"/>
      <path id="Path_13" data-name="Path 13" d="M601.145,334.664c-2.3,1.405-4.373,4.819-6.62,6.983-2.817,2.714-5.142,6.534-8.259,4.308-4.542-3.244-9.482-3.829-14.918-3.126-8,1.035-16.114-.9-23.113,15.522" transform="translate(-548.235 -325.455)" fill="none" stroke="#14b28b" stroke-miterlimit="10" stroke-width="0.954"/>
      <path id="Path_14" data-name="Path 14" d="M601.137,334.928c-2.226,1.407-4.229,4.987-6.326,7.473-2.705,3.207-5.01,7-8.124,4.3a18.58,18.58,0,0,0-15.048-4.5c-7.927.881-16.106,1.034-23.4,16.4" transform="translate(-548.235 -325.703)" fill="none" stroke="#14b28b" stroke-miterlimit="10" stroke-width="0.954"/>
      <path id="Path_15" data-name="Path 15" d="M601.129,335.193c-2.156,1.409-4.069,5.144-6.033,7.963-2.574,3.694-4.873,7.47-7.988,4.283-4.566-4.671-9.655-6.384-15.178-5.87-7.853.731-16.1,2.97-23.695,17.277" transform="translate(-548.235 -325.951)" fill="none" stroke="#62c1aa" stroke-miterlimit="10" stroke-width="0.954"/>
      <path id="Path_16" data-name="Path 16" d="M601.121,335.458c-2.086,1.41-3.9,5.29-5.739,8.452-2.429,4.171-4.733,7.942-7.853,4.271-4.571-5.379-9.742-7.658-15.308-7.242-7.779.582-16.089,4.906-23.986,18.154" transform="translate(-548.235 -326.199)" fill="none" stroke="#62c1aa" stroke-miterlimit="10" stroke-width="0.954"/>
      <path id="Path_17" data-name="Path 17" d="M601.113,335.722c-4.673,3.273-7.665,20.514-13.163,13.2-10.857-14.44-25.552-10.645-39.715,10.418" transform="translate(-548.235 -326.447)" fill="none" stroke="#62c1aa" stroke-miterlimit="10" stroke-width="0.954"/>
      <g id="Graphic_and_Element" data-name="Graphic and Element" transform="translate(5.345 0)">
        <g id="Group_2" data-name="Group 2" transform="translate(0 0)">
          <ellipse id="Ellipse_1" data-name="Ellipse 1" cx="19.556" cy="2.536" rx="19.556" ry="2.536" transform="translate(0 34.025)" fill="url(#linear-gradient)"/>
          <path id="Path_18" data-name="Path 18" d="M952.629,308.671l-.719,1.944,1.892.086,1.853-1.739-.8.436a.652.652,0,0,1-.455.026Z" transform="translate(-931.95 -301.097)" fill="#ffe7d4" fill-rule="evenodd"/>
          <path id="Path_19" data-name="Path 19" d="M952.537,312.6l-.627,1.7,1.892.086,1.008-.947a1.234,1.234,0,0,1-.66-.074Z" transform="translate(-931.95 -304.775)" fill-rule="evenodd" fill="url(#linear-gradient-2)"/>
          <path id="Path_20" data-name="Path 20" d="M848.981,565.815l.813,1.115q-.62.194-1.352,1.621l-1.394-.755q-.4-.161-.231-.463l.239-.472-.761-.429a.381.381,0,0,1-.274-.48l.286-.638a6.147,6.147,0,0,0,1.552.338A1.189,1.189,0,0,1,848.981,565.815Z" transform="translate(-832.689 -541.603)" fill="#46457b" fill-rule="evenodd"/>
          <path id="Path_21" data-name="Path 21" d="M872.781,643.967l.661-.493a36.613,36.613,0,0,1,1.334-5.721,41.347,41.347,0,0,0-2.651,4.391l.513,1.681A.193.193,0,0,0,872.781,643.967Z" transform="translate(-857.166 -609.487)" fill-rule="evenodd" fill="url(#linear-gradient-3)"/>
          <path id="Path_22" data-name="Path 22" d="M845.6,590.329l1.927.017a3.848,3.848,0,0,1-1.009,1.538q-3.166,5.153-3.438,5.878a1.18,1.18,0,0,1-1.172.43,1.053,1.053,0,0,1-.846-.813c2.143-3.01,2.411-6.893,4.065-7.291A.412.412,0,0,0,845.6,590.329Z" transform="translate(-828.051 -564.82)" fill="#ffe7d4" fill-rule="evenodd"/>
          <path id="Path_23" data-name="Path 23" d="M899.789,200.452a.831.831,0,0,1,.487.343,3.13,3.13,0,0,1,.322.934c.072.332.111.615.2.915a5.3,5.3,0,0,0,.429,1,4.239,4.239,0,0,1,.528,1.217,1.391,1.391,0,0,1-.252.924,1.023,1.023,0,0,1-.376.421.754.754,0,0,1-.446.019,2.655,2.655,0,0,0-.586-.058c-.228.01-.495.072-.717.075a1.2,1.2,0,0,1-.5-.1c-.1-.046-.128-.081-.135-.219a4.486,4.486,0,0,1,.025-.583.957.957,0,0,1,.131-.477.542.542,0,0,1,.382-.161,4.048,4.048,0,0,0,.5-.065c.123-.037.164-.1.187-.252s.027-.38.066-.55a1.942,1.942,0,0,1,.17-.409,1.285,1.285,0,0,0,.112-.414.952.952,0,0,0-.043-.357,2.322,2.322,0,0,0-.1-.247.41.41,0,0,1-.046-.245,1.173,1.173,0,0,0,.095-.286,1.485,1.485,0,0,0-.1-.518,2.056,2.056,0,0,0-.237-.487,2.745,2.745,0,0,0-.3-.369c-.088-.09-.145-.138-.108-.142A1.554,1.554,0,0,1,899.789,200.452Z" transform="translate(-882.111 -199.596)" fill="#090835" fill-rule="evenodd"/>
          <path id="Path_24" data-name="Path 24" d="M670.838,266.84a.848.848,0,0,0,.2-.537,7.476,7.476,0,0,1,2.332.64l1.619.652q.144-.021.137.149l-.827,2.27q-.046.077-.194.046l-1.22-.675a2.746,2.746,0,0,1-.1,3.061,8.968,8.968,0,0,1-.676,1.148.9.9,0,0,0-.16.274l-.023.984q.621,4.025,1.117,7.365l1.117,3.271q.179.6-.456.549l-1.8.023a.715.715,0,0,1-.8-.412l-.65-.961a.708.708,0,0,0-.642-.142c-1.445.186-2.876-.981-5.173-1.162a.532.532,0,0,0-.41.114l-1.186,1.693q-.227.355-.912.183c-2.379-1.021-2.068-3.551-3.714-5.731-.58-.768-2.163-.63-2.672-2.092q-.283-.7.5-.938a34.541,34.541,0,0,1,11.128-2.813,31.674,31.674,0,0,0,.137-3.866,2.09,2.09,0,0,1-1.083-.555.11.11,0,0,1-.068-.154l.325-.921a3.653,3.653,0,0,1,.5-1.6,6.3,6.3,0,0,1,2.018-1.481,8.521,8.521,0,0,0,1.443,1.321A.3.3,0,0,1,670.838,266.84Z" transform="translate(-654.282 -260.379)" fill="#7877ce" fill-rule="evenodd"/>
          <path id="Path_25" data-name="Path 25" d="M731.819,432.95l-1.186,1.693q-.227.355-.912.183a3.672,3.672,0,0,1-1.94-1.993l7.84-8.108a.278.278,0,0,1,.328.426Z" transform="translate(-721.871 -409.831)" fill-rule="evenodd" fill="url(#linear-gradient-4)"/>
          <path id="Path_26" data-name="Path 26" d="M657.633,407.944c-.688-.3-1.538-.556-1.886-1.556q-.283-.7.5-.938a31.135,31.135,0,0,1,6.612-2.134q3.089-.451,4.638-.6a.212.212,0,0,1,.293.221l-10.16,5Z" transform="translate(-654.282 -389.217)" fill-rule="evenodd" fill="url(#linear-gradient-5)"/>
          <path id="Path_27" data-name="Path 27" d="M842.533,395.938l-.02.863.01.062q-3.831-.16-4.856-1.085l.3-.03q.025-.175.045-.4A29.158,29.158,0,0,0,842.533,395.938Z" transform="translate(-824.868 -382.328)" fill="#e9e9e9" fill-rule="evenodd"/>
          <path id="Path_28" data-name="Path 28" d="M855.8,431.269a1.124,1.124,0,0,0-.2.019,3.922,3.922,0,0,1-1.717-.255l1.487-9.048a.231.231,0,0,1,.453.026l-.023,9.258Z" transform="translate(-840.063 -407.122)" fill-rule="evenodd" fill="url(#linear-gradient-6)"/>
          <path id="Path_30" data-name="Path 30" d="M904.731,429.062q.4,2.625.743,4.926l-1.8-6.31a.362.362,0,0,1,.588-.4Z" transform="translate(-886.712 -412.151)" fill-rule="evenodd" fill="url(#linear-gradient-7)"/>
          <path id="Path_31" data-name="Path 31" d="M897.6,282.962a.849.849,0,0,0,.2-.537,4.111,4.111,0,0,1,1.043.189,1.694,1.694,0,0,1-1.161.45Z" transform="translate(-881.049 -276.501)" fill="#46457b" fill-rule="evenodd"/>
          <path id="Path_32" data-name="Path 32" d="M926.032,316.193l-.314.861q-.046.077-.194.046l-1.22-.675-.371-.732a.18.18,0,0,1,.154-.275Z" transform="translate(-905.702 -307.42)" fill-rule="evenodd" fill="url(#linear-gradient-8)"/>
          <path id="Path_29" data-name="Path 29" d="M849.573,362.92c-.21.422-.9,1.775-1.145,2.118a.9.9,0,0,0-.16.275l-3.851-.392q-.619-.129-.634-.67h0l3.056-1.169,1.751-.275C849.4,362.652,857.22,366.223,849.573,362.92Z" transform="translate(-830.601 -351.824)" fill-rule="evenodd" fill="url(#linear-gradient-9)"/>
          <path id="Path_33" data-name="Path 33" d="M848.86,321.423a2.982,2.982,0,0,0,1.943.077l-.684-2.752q-.048-.056-.137-.006l-.16,1.35q0,.136-.131.114l-.2-.013Z" transform="translate(-835.36 -310.513)" fill-rule="evenodd" fill="url(#linear-gradient-10)"/>
          <path id="Path_34" data-name="Path 34" d="M820.4,333.088a3.69,3.69,0,0,1-1.867-.609,18.966,18.966,0,0,0-.624,2.576q-.318,1.277.616,1.4a10.51,10.51,0,0,0,3.808-1.224,2.386,2.386,0,0,1,.741-.011,1.825,1.825,0,0,1,.245-1.178,7.88,7.88,0,0,1-3.478.274Z" transform="translate(-806.273 -323.408)" fill="#ffe7d4" fill-rule="evenodd"/>
          <path id="Path_35" data-name="Path 35" d="M894.429,358.421q.168,0,.4.02a1.825,1.825,0,0,1,.245-1.178q-.271.057-.522.1a.519.519,0,0,0-.049.416A.706.706,0,0,0,894.429,358.421Z" transform="translate(-878.027 -346.633)" fill-rule="evenodd" fill="url(#linear-gradient-3)"/>
          <path id="Path_36" data-name="Path 36" d="M834.036,338.822a8.951,8.951,0,0,1-1.1-.224l-.556,1.565q0,.212.265.21a1.5,1.5,0,0,1,.837-.327Z" transform="translate(-819.909 -329.142)" fill-rule="evenodd" fill="url(#linear-gradient-12)"/>
          <path id="Path_37" data-name="Path 37" d="M1005.061,199.528a2.392,2.392,0,0,0-3.69-2.994,3.016,3.016,0,0,0-.889,1.355.357.357,0,0,0,0,.309l.171.343-.291.626a.157.157,0,0,0-.013.18l.222.18.094,1.364a.668.668,0,0,0,.753.583l.5-.034.479.678,2.7-1.664Q1005.061,199.528,1005.061,199.528Z" transform="translate(-977.332 -195.371)" fill="#ffe7d4" fill-rule="evenodd"/>
          <path id="Path_38" data-name="Path 38" d="M1010.181,277.551a.665.665,0,0,0,.474.115l.5-.034.479.678.755-.465-.41-.577a.193.193,0,0,0-.239-.1A4.609,4.609,0,0,1,1010.181,277.551Z" transform="translate(-986.568 -271.563)" fill-rule="evenodd" fill="url(#linear-gradient-13)"/>
          <path id="Path_39" data-name="Path 39" d="M1002.574,189.562a2.355,2.355,0,0,1,.334.226c.09.076.127.133.118.214a1.074,1.074,0,0,1-.124.309,3.769,3.769,0,0,0-.165.357.416.416,0,0,0-.031.21.225.225,0,0,0,.091.153.811.811,0,0,1,.229.233.554.554,0,0,1-.013.355c-.033.129-.073.26-.046.312s.121.023.2-.04a.771.771,0,0,0,.221-.307c.067-.147.13-.345.191-.462s.121-.154.19-.15a.348.348,0,0,1,.219.133.69.69,0,0,1,.168.35,1.287,1.287,0,0,1-.03.443,1.319,1.319,0,0,1-.083.254.232.232,0,0,0,0,.232,1.961,1.961,0,0,0,.4.459c.214.2.507.438.687.575s.245.172.351.16a1.07,1.07,0,0,0,.435-.189,6.167,6.167,0,0,0,.557-.432,1.423,1.423,0,0,0,.295-.3,2.635,2.635,0,0,0,.191-.412c.078-.19.187-.447.291-.73s.2-.592.266-.8a1.609,1.609,0,0,0,.091-.4.444.444,0,0,0-.087-.28,3.282,3.282,0,0,0-.279-.329c-.09-.1-.15-.17-.207-.187a.21.21,0,0,0-.162.051c-.051.031-.1.057-.105.036a.569.569,0,0,1,.057-.153.211.211,0,0,0-.018-.219,2.549,2.549,0,0,0-.355-.4c-.165-.164-.365-.353-.5-.466a.525.525,0,0,0-.383-.157,4.517,4.517,0,0,0-.77.063c-.311.047-.65.119-1,.2s-.713.177-.985.253a4.151,4.151,0,0,0-.571.187c-.117.054-.168.106-.181.166a.243.243,0,0,0,.067.2.807.807,0,0,0,.208.174C1002.413,189.489,1002.473,189.506,1002.574,189.562Z" transform="translate(-978.959 -188.205)" fill="#090835" fill-rule="evenodd"/>
          <path id="Path_40" data-name="Path 40" d="M863.648,193.69a2.183,2.183,0,0,1,.378.509,2.361,2.361,0,0,1,.18.626.782.782,0,0,1,.007.332c-.02.069-.06.114-.074.17a.3.3,0,0,0,.021.182c.024.06.061.114.09.2a1.082,1.082,0,0,1,.047.336,1.141,1.141,0,0,1-.071.389,1.679,1.679,0,0,1-.164.3.394.394,0,0,0-.077.217c-.011.111-.014.3-.016.459a.756.756,0,0,1-.053.367c-.051.08-.154.112-.314.127a5.065,5.065,0,0,0-.524.049.338.338,0,0,0-.276.224,1.629,1.629,0,0,0-.07.5,1.816,1.816,0,0,1-.037.492c-.041.1-.133.1-.314.019a2.958,2.958,0,0,1-.667-.407,3.218,3.218,0,0,1-.51-.565c-.136-.181-.247-.336-.359-.491a3.509,3.509,0,0,1-.009-.421,2.227,2.227,0,0,0-.023-.624,3.438,3.438,0,0,0-.292-.643,3.1,3.1,0,0,1-.271-.839,2.554,2.554,0,0,1,.015-1.179,1.457,1.457,0,0,1,.7-.8A1.9,1.9,0,0,1,862,192.99a3.11,3.11,0,0,1,1.1.267A1.572,1.572,0,0,1,863.648,193.69Z" transform="translate(-845.978 -192.687)" fill="#ffe7d4" fill-rule="evenodd"/>
          <path id="Path_41" data-name="Path 41" d="M890.743,264.387a.234.234,0,0,1-.025.055c-.051.08-.154.112-.314.127a5.05,5.05,0,0,0-.524.049.338.338,0,0,0-.277.224,1.632,1.632,0,0,0-.07.5,1.817,1.817,0,0,1-.037.492c-.041.1-.133.1-.314.019-.062-.027-.135-.062-.213-.1l-.187-1.483a.228.228,0,0,1,.325-.12A5.03,5.03,0,0,0,890.743,264.387Z" transform="translate(-872.78 -259.347)" fill-rule="evenodd" fill="url(#linear-gradient-14)"/>
          <path id="Path_42" data-name="Path 42" d="M769.342,190.652a1.183,1.183,0,0,1-.052.591.838.838,0,0,1-.4.445,2.539,2.539,0,0,1-.676.183c-.236.045-.46.095-.576.122s-.125.032-.146.08-.052.14-.09.261a.837.837,0,0,1-.173.359.245.245,0,0,1-.318.037.861.861,0,0,1-.149-.352.273.273,0,0,0-.151-.188.209.209,0,0,0-.227.034.54.54,0,0,0-.169.36,1.028,1.028,0,0,0,.092.446.6.6,0,0,0,.146.216.568.568,0,0,0,.182.131c.065.024.131.017.108.136a2.5,2.5,0,0,1-.234.543,1.237,1.237,0,0,1-.5.5c-.31.2-.844.5-1.252.727a3.4,3.4,0,0,1-.966.429,1.731,1.731,0,0,1-.869-.122,1.938,1.938,0,0,1-.907-.53c-.193-.256-.19-.606-.351-.742s-.485-.058-.837-.041a1.721,1.721,0,0,1-1-.2,1.352,1.352,0,0,1-.51-.8,1.461,1.461,0,0,1,.009-.891,1.189,1.189,0,0,1,.567-.614,4.142,4.142,0,0,0,.7-.317.932.932,0,0,0,.2-.578.6.6,0,0,1,.271-.491,2.005,2.005,0,0,1,.884-.157c.357,0,.735.033,1.228.016a8.449,8.449,0,0,0,1.676-.231c.577-.143,1.124-.358,1.678-.453a3.923,3.923,0,0,1,1.556.04,2.116,2.116,0,0,1,.957.492A.909.909,0,0,1,769.342,190.652Z" transform="translate(-751.374 -189.417)" fill="#090835" fill-rule="evenodd"/>
          <path id="Path_43" data-name="Path 43" d="M1118.955,695.592a3.737,3.737,0,0,1-1.9,1.913,6.5,6.5,0,0,1-1.026,1.981.479.479,0,0,0-.12.557,4.119,4.119,0,0,0,2.831-2.067q.032-.408.265-.489l.162.06q.142.059.2-.009l.675-.815a.158.158,0,0,0,.017-.232A2.382,2.382,0,0,0,1118.955,695.592Z" transform="translate(-1085.625 -663.689)" fill="#333e46" fill-rule="evenodd"/>
          <path id="Path_44" data-name="Path 44" d="M982.887,454.8q.3.072.357-.163a4.772,4.772,0,0,1-.376,4.06,42.919,42.919,0,0,1-4.9,5.009.579.579,0,0,0-.114.892q3.51,2.318,6.066,4.323a.428.428,0,0,1,.171.606,3.92,3.92,0,0,1-3.193,2.619.32.32,0,0,1-.376-.149l-3.546-3.4,1.807,3.785q.106.312-.057.457A9.489,9.489,0,0,1,974.7,473.9a.245.245,0,0,1-.228-.172l-2.474-8.9a3.356,3.356,0,0,1-.1-2.836,50.155,50.155,0,0,1,4.549-6.279l.451-.6.479.366a.625.625,0,0,0,.462.109l1.773-.28a.622.622,0,0,0,.331-.177.806.806,0,0,1,1.075-.38Z" transform="translate(-950.432 -437.884)" fill="#f5f5f5" fill-rule="evenodd"/>
          <path id="Path_45" data-name="Path 45" d="M976.973,475.671l1.807,3.785q.106.312-.057.458a9.489,9.489,0,0,1-4.025,1.052.245.245,0,0,1-.228-.172L972,471.9a3.356,3.356,0,0,1-.1-2.836,50.163,50.163,0,0,1,4.549-6.279l.451-.6.479.366a.629.629,0,0,0,.44.112l-4.041,7.354q-.978,1.674-.076,2.722Z" transform="translate(-950.432 -444.954)" fill="#d7d8d8" fill-rule="evenodd"/>
          <path id="Path_46" data-name="Path 46" d="M898.52,355.926a1.541,1.541,0,0,1,.458-1.256l-.417-.535a.539.539,0,0,0-.677-.165l-.609-.069a.3.3,0,0,0-.31.263.354.354,0,0,0-.176.492.385.385,0,0,0-.027.535.309.309,0,0,0,.082.425l.479.213A2.389,2.389,0,0,0,898.52,355.926Z" transform="translate(-880.17 -343.483)" fill="#ffe7d4" fill-rule="evenodd"/>
          <path id="Path_47" data-name="Path 47" d="M899.171,368.835a1.552,1.552,0,0,1,.349-1.138.233.233,0,0,0-.258.042,1.569,1.569,0,0,0-.354.672.351.351,0,0,1-.242.132,2.789,2.789,0,0,1-1.283-.386.309.309,0,0,0,.112.369l.479.213A2.389,2.389,0,0,0,899.171,368.835Z" transform="translate(-880.82 -356.392)" fill-rule="evenodd" fill="url(#linear-gradient-3)"/>
          <path id="Path_48" data-name="Path 48" d="M934.868,255.084q1.687.765,2.873,4.062a18.31,18.31,0,0,1,1.081,3.527,3.8,3.8,0,0,0,.356,1.372q.236.09.274.522l.26,2.292a.333.333,0,0,1-.356.288l-2.039-.082q-.7-.159-.944.247a.681.681,0,0,1-.479.343l-1.82.247a.581.581,0,0,1-.4-.082l-.889-.714a.948.948,0,0,1-.356-.631s.014-1.093.041-3.28l-.26-.48-.9.563a1.736,1.736,0,0,1-1.382.384l-3.243-.137a.533.533,0,0,1-.287-.137l-.212-.377-1.156-.178a1.6,1.6,0,0,1,.575-1.688l-.01-.012h0l.049.013a2.144,2.144,0,0,0,.091-.8,15.073,15.073,0,0,0,1.547-.564q.284-.275,1.115-.082,2.35-2.177,3.25-2.848a.265.265,0,0,1,.137-.3l2.237-2.168q.46-.342.732.1Z" transform="translate(-906.717 -250.089)" fill="#62c1aa" fill-rule="evenodd"/>
          <path id="Path_49" data-name="Path 49" d="M1041.843,351.785a.8.8,0,0,1-.142-.063l-.889-.714a.948.948,0,0,1-.356-.631l.041-3.28-.26-.48,1.444-.947a1.321,1.321,0,0,0,.659-.576l1.063-1.321a.815.815,0,0,1,.371.83Z" transform="translate(-1014.74 -333.991)" fill-rule="evenodd" fill="url(#linear-gradient-16)"/>
          <path id="Path_50" data-name="Path 50" d="M934.787,299.3a15.1,15.1,0,0,0,1.547-.564q.284-.275,1.115-.082,2.351-2.177,3.25-2.848a.766.766,0,0,1,.171.6l-1.615,2.086a.31.31,0,0,0-.109.371l-1.122,1.043-1.17-.089q-.916-.205-1.095.309l-1.063-.033a2.144,2.144,0,0,0,.091-.8Zm-.091.8h-.038l-.01-.012Z" transform="translate(-915.77 -289.038)" fill="#53a793" fill-rule="evenodd"/>
          <path id="Path_51" data-name="Path 51" d="M988.017,742.754a8.374,8.374,0,0,0,4-1.1,6.956,6.956,0,0,1,.256,1.664.241.241,0,0,1-.182.189,12.925,12.925,0,0,0-1.507.13.137.137,0,0,1-.165-.109l-.084-.181a.817.817,0,0,0-.8.332q-2.6.6-3.714-.253a.55.55,0,0,1,.5-.481A3.9,3.9,0,0,0,988.017,742.754Z" transform="translate(-963.729 -706.859)" fill="#333e46" fill-rule="evenodd"/>
          <path id="Path_52" data-name="Path 52" d="M855.55,725.841q-.266-.039-.066-.492l.163-.979a.292.292,0,0,1,.377-.135.745.745,0,0,0,1.117-.075l.582-.495a.2.2,0,0,1,.384.031l1.105,1.178,1.05.349q.6.251.574.662-.295.434-1.423.388a1.566,1.566,0,0,1-1.378-.261.589.589,0,0,0-.626.009.681.681,0,0,1-.468.072Z" transform="translate(-841.488 -689.857)" fill="#e9e9e9" fill-rule="evenodd"/>
          <path id="Path_53" data-name="Path 53" d="M855.55,754.977q-.226-.033-.116-.365a.98.98,0,0,1,.108-.007c.3,0,.831.107,1.191.146a3.475,3.475,0,0,0,.742,0,1.288,1.288,0,0,1,.533.055c.145.059.241.169.392.239a1.415,1.415,0,0,0,.685.082c.327-.02.774-.09,1.069-.14a2.261,2.261,0,0,0,.566-.14c.028-.013.056-.027.083-.041a.49.49,0,0,1,.036.218q-.295.434-1.423.388a1.566,1.566,0,0,1-1.378-.261.589.589,0,0,0-.626.009.681.681,0,0,1-.468.073Z" transform="translate(-841.488 -718.992)" fill="#6a69bc" fill-rule="evenodd"/>
          <path id="Path_54" data-name="Path 54" d="M821.717,705.595q-.222-.17.188-.48l.641-.806a.3.3,0,0,1,.41.069q.228.687,1.052.5l.778-.154a.2.2,0,0,1,.334.223l.41,1.63.778.849q.416.531.188.892-.487.245-1.488-.369a1.633,1.633,0,0,1-1.12-.935.613.613,0,0,0-.573-.309.708.708,0,0,1-.462-.172Z" transform="translate(-809.845 -671.809)" fill="#f5f5f5" fill-rule="evenodd"/>
          <path id="Path_55" data-name="Path 55" d="M821.717,719.015q-.206-.158.133-.437l.138.115c.253.214.726.625.985.846s.3.252.361.267a1.2,1.2,0,0,1,.227.058,1.151,1.151,0,0,1,.34.221,1.643,1.643,0,0,1,.2.29,1.152,1.152,0,0,0,.379.336,7.022,7.022,0,0,0,.963.509,4.134,4.134,0,0,0,.836.261,1.158,1.158,0,0,0,.288.018h.005a.506.506,0,0,1-.079.235q-.487.245-1.488-.369a1.633,1.633,0,0,1-1.12-.935.613.613,0,0,0-.573-.309.708.708,0,0,1-.462-.172Z" transform="translate(-809.845 -685.23)" fill="#7877ce" fill-rule="evenodd"/>
        </g>
      </g>
    </g>
  </g>
</svg>
