<svg xmlns="http://www.w3.org/2000/svg" width="26" height="20" viewBox="0 0 26 20">
  <path id="swiper" d="M12.571,21a5.005,5.005,0,0,1-5-5V6a5.005,5.005,0,0,1,5-5h4.857a5.006,5.006,0,0,1,5,5V16a5.005,5.005,0,0,1-5,5ZM10.357,5.728V16.273a2,2,0,0,0,2,2h5.286a2,2,0,0,0,2-2V5.728a2,2,0,0,0-2-2H12.357A2,2,0,0,0,10.357,5.728ZM25.214,16.88V5.12A1.393,1.393,0,1,1,28,5.12V16.88a1.393,1.393,0,1,1-2.785,0ZM2,16.88V5.12a1.393,1.393,0,1,1,2.786,0V16.88A1.393,1.393,0,1,1,2,16.88Z" transform="translate(-2 -1)" fill="rgba(34,34,34,0.35)"/>
</svg>
