<svg xmlns="http://www.w3.org/2000/svg" width="27.996" height="55.985" viewBox="0 0 27.996 55.985">
  <path id="Combined_shape_56172" data-name="Combined shape 56172" d="M16.359,54.246V43.454s.013-.113-.083-.113c-.166,0-.536,0-.683,0a.1.1,0,0,0-.107.1v10.8a2.478,2.478,0,0,1-2.521,2.747,2.422,2.422,0,0,1-1.927-.859,2.928,2.928,0,0,1-.592-1.887V43.485s.034-.146-.16-.146H7.569a1.627,1.627,0,0,1-1.662-2.025s.938-5.353,1.277-7.133c.055-.285-.091-.027-.091-.027l-.47.958a2.436,2.436,0,1,1-4.369-2.156l6.24-14.45a2.756,2.756,0,0,1,2.544-1.735H21.7c1.411,0,1.715.985,2.059,1.72l6.007,14.56A2.449,2.449,0,0,1,28.6,36.306,2.057,2.057,0,0,1,25.7,35.145s-.749-1.593-.677-1.144c.251,1.564,1.191,7.305,1.191,7.305a1.667,1.667,0,0,1-1.7,2.033H21.592c-.209,0-.192.175-.192.175V54.246a2.53,2.53,0,1,1-5.041,0ZM8.882,8.014a7.041,7.041,0,1,1,7.041,7A7.024,7.024,0,0,1,8.882,8.014Z" transform="translate(-2.003 -1.007)" fill="#fff"/>
</svg>
