<svg xmlns="http://www.w3.org/2000/svg" xmlns:xlink="http://www.w3.org/1999/xlink" width="46.489" height="46.622" viewBox="0 0 46.489 46.622">
  <defs>
    <clipPath id="clip-path">
      <ellipse id="Ellipse_360" data-name="Ellipse 360" cx="20.5" cy="20" rx="20.5" ry="20" transform="translate(0.412 -0.136)" fill="#fff"/>
    </clipPath>
    <clipPath id="clip-path-2">
      <path id="_2" data-name="#2" d="M150.582,12.138a23.04,23.04,0,1,1-22.9,23.039A22.97,22.97,0,0,1,150.582,12.138Z" transform="translate(-127.682 -12.138)" fill="#aaa"/>
    </clipPath>
    <linearGradient id="linear-gradient" x1="0.5" y1="1.789" x2="0.5" y2="-0.346" gradientUnits="objectBoundingBox">
      <stop offset="0" stop-color="#7c39e8"/>
      <stop offset="0.002" stop-color="#090835"/>
      <stop offset="0.413" stop-color="#232257"/>
      <stop offset="0.807" stop-color="#62c1aa"/>
      <stop offset="1" stop-color="#14b28b"/>
    </linearGradient>
    <linearGradient id="linear-gradient-2" x1="0.487" y1="1.121" x2="0.52" y2="0.081" gradientUnits="objectBoundingBox">
      <stop offset="0" stop-color="#e6aa8b"/>
      <stop offset="0.458" stop-color="#f1c7b1"/>
      <stop offset="1" stop-color="#ffe8db"/>
    </linearGradient>
    <linearGradient id="linear-gradient-3" x1="0" y1="0.5" x2="1" y2="0.5" xlink:href="#linear-gradient-2"/>
    <linearGradient id="linear-gradient-4" x1="0.125" y1="0.976" x2="0.869" y2="-0.088" gradientUnits="objectBoundingBox">
      <stop offset="0" stop-color="#c94a73"/>
      <stop offset="0.002" stop-color="#46457b"/>
      <stop offset="0.527" stop-color="#525196"/>
      <stop offset="1" stop-color="#7877ce"/>
    </linearGradient>
    <linearGradient id="linear-gradient-5" y1="0.5" x2="1" y2="0.5" gradientUnits="objectBoundingBox">
      <stop offset="0" stop-color="#c94a73"/>
      <stop offset="0.002" stop-color="#46457b"/>
      <stop offset="0.527" stop-color="#55549a"/>
      <stop offset="1" stop-color="#7877ce"/>
    </linearGradient>
    <linearGradient id="linear-gradient-6" x1="0.375" y1="1.237" x2="0.991" y2="-0.076" gradientUnits="objectBoundingBox">
      <stop offset="0" stop-color="#c94a73"/>
      <stop offset="0.002" stop-color="#46457b"/>
      <stop offset="0.527" stop-color="#515096"/>
      <stop offset="1" stop-color="#7877ce"/>
    </linearGradient>
    <linearGradient id="linear-gradient-7" y1="0.5" x2="1" y2="0.5" gradientUnits="objectBoundingBox">
      <stop offset="0" stop-color="#f75b87"/>
      <stop offset="0.002" stop-color="#6868aa"/>
      <stop offset="1" stop-color="#7877ce"/>
    </linearGradient>
    <linearGradient id="linear-gradient-8" y1="0.5" x2="1" y2="0.5" gradientUnits="objectBoundingBox">
      <stop offset="0" stop-color="#c94a73"/>
      <stop offset="0.002" stop-color="#46457b"/>
      <stop offset="0.527" stop-color="#6664aa"/>
      <stop offset="1" stop-color="#7877ce"/>
    </linearGradient>
    <linearGradient id="linear-gradient-9" x1="0.531" y1="0.349" x2="0.343" y2="1.279" gradientUnits="objectBoundingBox">
      <stop offset="0" stop-color="#c94a73"/>
      <stop offset="0.002" stop-color="#46457b"/>
      <stop offset="0.527" stop-color="#6160a8"/>
      <stop offset="1" stop-color="#7877ce"/>
    </linearGradient>
    <linearGradient id="linear-gradient-10" x1="1.098" y1="0.168" x2="-0.194" y2="1.495" gradientUnits="objectBoundingBox">
      <stop offset="0" stop-color="#c94a73"/>
      <stop offset="0.002" stop-color="#46457b"/>
      <stop offset="0.527" stop-color="#5c5baf"/>
      <stop offset="1" stop-color="#7877ce"/>
    </linearGradient>
    <linearGradient id="linear-gradient-12" x1="1.319" y1="-0.737" x2="-0.216" y2="1.407" xlink:href="#linear-gradient-2"/>
    <linearGradient id="linear-gradient-13" x1="0.857" y1="1.951" x2="-0.033" y2="-1.745" xlink:href="#linear-gradient-2"/>
    <linearGradient id="linear-gradient-14" x1="0.742" y1="1.367" x2="0.205" y2="-0.95" xlink:href="#linear-gradient-2"/>
    <linearGradient id="linear-gradient-16" x1="-0.167" y1="1.088" x2="1.021" y2="-0.151" gradientUnits="objectBoundingBox">
      <stop offset="0" stop-color="#ad94fd"/>
      <stop offset="0.002" stop-color="#14b28b"/>
      <stop offset="1" stop-color="#232257"/>
    </linearGradient>
  </defs>
  <g id="Group_3622" data-name="Group 3622" transform="translate(1.5 1.5)">
    <path id="_2-2" data-name="#2" d="M149.427,12.138a21.811,21.811,0,1,1-21.745,21.811A21.778,21.778,0,0,1,149.427,12.138Z" transform="translate(-127.682 -12.138)" fill="#fff" stroke="#a0e3d3" stroke-width="3"/>
    <g id="Mask_Group_4" data-name="Mask Group 4" transform="translate(1.588 2.084)" clip-path="url(#clip-path)">
      <g id="Group_3566" data-name="Group 3566" transform="translate(1.041 3.52)">
        <path id="Path_1" data-name="Path 1" d="M588.257,331.489c-2.367,1.045-4.207,2.929-7.658.836-5.778-3.505-10.861,11.12-17.549,13.43s-12.244-18.22-14.815,3.769" transform="translate(-548.235 -324.687)" fill="none" stroke="#090835" stroke-miterlimit="10" stroke-width="0.954"/>
        <path id="Path_2" data-name="Path 2" d="M588.251,331.753c-2.314,1.046-4.086,2.938-7.436,1.206-2.481-1.283-4.871.832-7.361,3.353-3.131,3.169-6.427,7.8-10.184,9.032-6.639,2.173-12.237-16.758-15.034,4.432" transform="translate(-548.235 -324.938)" fill="none" stroke="#232257" stroke-miterlimit="10" stroke-width="0.954"/>
        <path id="Path_3" data-name="Path 3" d="M588.244,332.018c-2.261,1.047-3.974,2.944-7.214,1.575-2.413-1.019-4.764,1.218-7.259,3.344-3.137,2.673-6.5,6.826-10.282,8-6.588,2.037-12.231-15.3-15.254,5.094" transform="translate(-548.235 -325.191)" fill="none" stroke="#313076" stroke-miterlimit="10" stroke-width="0.954"/>
        <path id="Path_4" data-name="Path 4" d="M588.238,332.282c-2.209,1.049-3.874,2.948-6.993,1.945-2.356-.758-4.661,1.605-7.157,3.335-3.147,2.181-6.563,5.849-10.38,6.961-6.536,1.9-12.225-13.835-15.474,5.757" transform="translate(-548.235 -325.442)" fill="none" stroke="#3a388b" stroke-miterlimit="10" stroke-width="0.954"/>
        <path id="Path_5" data-name="Path 5" d="M588.232,332.547c-2.156,1.05-3.789,2.956-6.771,2.315-2.313-.5-4.563,1.994-7.055,3.326-3.164,1.691-6.63,4.874-10.478,5.925-6.483,1.771-12.218-12.373-15.693,6.419" transform="translate(-548.235 -325.695)" fill="none" stroke="#4a4898" stroke-miterlimit="10" stroke-width="0.954"/>
        <path id="Path_6" data-name="Path 6" d="M588.226,332.812c-2.1,1.051-3.719,2.974-6.549,2.685-2.284-.233-4.472,2.383-6.952,3.316-3.19,1.2-6.7,3.9-10.576,4.889-6.429,1.641-12.212-10.912-15.913,7.082" transform="translate(-548.235 -325.947)" fill="none" stroke="#504f98" stroke-miterlimit="10" stroke-width="0.954"/>
        <path id="Path_7" data-name="Path 7" d="M588.22,333.076c-2.05,1.053-3.665,3.009-6.328,3.054-2.268.039-4.387,2.767-6.85,3.307-3.224.706-6.764,2.926-10.675,3.854-6.375,1.513-12.205-9.45-16.133,7.744" transform="translate(-548.235 -326.198)" fill="none" stroke="#63629b" stroke-miterlimit="10" stroke-width="0.954"/>
        <path id="Path_8" data-name="Path 8" d="M588.214,333.341c-2,1.054-3.621,3.066-6.106,3.424-2.263.326-4.308,3.145-6.748,3.3-3.265.2-6.831,1.953-10.773,2.818-6.32,1.386-12.2-7.989-16.353,8.407" transform="translate(-548.235 -326.451)" fill="none" stroke="#8f8ec4" stroke-miterlimit="10" stroke-width="0.954"/>
        <path id="Path_9" data-name="Path 9" d="M588.208,333.605c-1.945,1.055-3.579,3.149-5.885,3.794-2.262.633-4.231,3.515-6.645,3.289-3.309-.309-6.9.982-10.871,1.782-6.265,1.262-12.192-6.527-16.572,9.069" transform="translate(-548.235 -326.702)" fill="none" stroke="#189b7b" stroke-miterlimit="10" stroke-width="0.954"/>
        <path id="Path_10" data-name="Path 10" d="M588.2,333.87c-1.892,1.057-3.532,3.254-5.663,4.164-2.255.962-4.152,3.876-6.543,3.28-3.35-.835-6.962.012-10.969.747-6.209,1.139-12.186-5.065-16.792,9.732" transform="translate(-548.235 -326.955)" fill="none" stroke="#129676" stroke-miterlimit="10" stroke-width="0.954"/>
        <path id="Path_11" data-name="Path 11" d="M588.2,334.135c-1.839,1.058-3.472,3.376-5.441,4.533-2.233,1.312-4.068,4.23-6.441,3.271-3.385-1.369-7.028-.957-11.068-.289-6.154,1.018-12.18-3.6-17.012,10.394" transform="translate(-548.235 -327.207)" fill="none" stroke="#14a380" stroke-miterlimit="10" stroke-width="0.954"/>
        <path id="Path_12" data-name="Path 12" d="M588.19,334.4c-1.786,1.06-3.4,3.507-5.22,4.9-2.191,1.677-3.978,4.582-6.338,3.262-3.411-1.909-7.094-1.925-11.166-1.325-6.1.9-12.173-2.142-17.231,11.057" transform="translate(-548.235 -327.459)" fill="none" stroke="#14ac86" stroke-miterlimit="10" stroke-width="0.954"/>
        <path id="Path_13" data-name="Path 13" d="M588.184,334.664c-1.734,1.061-3.3,3.639-5,5.273-2.127,2.049-3.883,4.934-6.236,3.253-3.429-2.45-7.159-2.891-11.264-2.361-6.041.781-12.167-.681-17.451,11.719" transform="translate(-548.235 -327.711)" fill="none" stroke="#14b28b" stroke-miterlimit="10" stroke-width="0.954"/>
        <path id="Path_14" data-name="Path 14" d="M588.178,334.928c-1.681,1.062-3.193,3.765-4.776,5.642-2.043,2.421-3.783,5.286-6.134,3.243a14.029,14.029,0,0,0-11.362-3.4c-5.985.665-12.16.781-17.671,12.382" transform="translate(-548.235 -327.963)" fill="none" stroke="#14b28b" stroke-miterlimit="10" stroke-width="0.954"/>
        <path id="Path_15" data-name="Path 15" d="M588.172,335.193c-1.628,1.064-3.072,3.884-4.555,6.012-1.943,2.789-3.679,5.64-6.031,3.234a13.576,13.576,0,0,0-11.46-4.432c-5.929.552-12.154,2.243-17.89,13.044" transform="translate(-548.235 -328.215)" fill="none" stroke="#62c1aa" stroke-miterlimit="10" stroke-width="0.954"/>
        <path id="Path_16" data-name="Path 16" d="M588.166,335.458c-1.575,1.065-2.943,3.994-4.333,6.382-1.834,3.149-3.573,6-5.929,3.225-3.452-4.061-7.355-5.782-11.558-5.468-5.874.439-12.148,3.7-18.11,13.707" transform="translate(-548.235 -328.467)" fill="none" stroke="#62c1aa" stroke-miterlimit="10" stroke-width="0.954"/>
        <path id="Path_17" data-name="Path 17" d="M588.16,335.722c-3.529,2.472-5.787,15.489-9.938,9.968-8.2-10.9-19.293-8.037-29.986,7.866" transform="translate(-548.235 -328.719)" fill="none" stroke="#62c1aa" stroke-miterlimit="10" stroke-width="0.954"/>
        <g id="Graphic_and_Element" data-name="Graphic and Element" transform="translate(4.036 0)">
          <g id="Group_2" data-name="Group 2" transform="translate(0 0)">
            <ellipse id="Ellipse_1" data-name="Ellipse 1" cx="14.766" cy="1.915" rx="14.766" ry="1.915" transform="translate(0 25.69)" fill="url(#linear-gradient)"/>
            <path id="Path_18" data-name="Path 18" d="M952.453,308.671l-.543,1.468,1.429.065,1.4-1.313-.607.33a.492.492,0,0,1-.344.02Z" transform="translate(-936.839 -302.952)" fill="#ffe7d4" fill-rule="evenodd"/>
            <path id="Path_19" data-name="Path 19" d="M952.384,312.6l-.474,1.282,1.429.065.761-.715a.932.932,0,0,1-.5-.056Z" transform="translate(-936.839 -306.691)" fill-rule="evenodd" fill="url(#linear-gradient-2)"/>
            <path id="Path_20" data-name="Path 20" d="M848.253,565.692l.614.842q-.468.146-1.02,1.224l-1.052-.57q-.3-.122-.174-.35l.181-.356-.575-.324a.288.288,0,0,1-.207-.363l.216-.482a4.639,4.639,0,0,0,1.172.255A.9.9,0,0,1,848.253,565.692Z" transform="translate(-835.952 -547.411)" fill="#46457b" fill-rule="evenodd"/>
            <path id="Path_21" data-name="Path 21" d="M872.62,642.445l.5-.372a27.646,27.646,0,0,1,1.007-4.32,31.245,31.245,0,0,0-2,3.316l.388,1.269A.145.145,0,0,0,872.62,642.445Z" transform="translate(-860.831 -616.411)" fill-rule="evenodd" fill="url(#linear-gradient-3)"/>
            <path id="Path_22" data-name="Path 22" d="M844.489,590.27l1.455.013a2.906,2.906,0,0,1-.762,1.161q-2.391,3.891-2.6,4.438a.891.891,0,0,1-.885.325.8.8,0,0,1-.638-.614c1.618-2.273,1.82-5.2,3.069-5.5A.311.311,0,0,0,844.489,590.27Z" transform="translate(-831.239 -571.01)" fill="#ffe7d4" fill-rule="evenodd"/>
            <path id="Path_23" data-name="Path 23" d="M899.531,200.43a.627.627,0,0,1,.367.259,2.359,2.359,0,0,1,.243.705c.054.25.084.465.15.691a4,4,0,0,0,.324.754,3.2,3.2,0,0,1,.4.919,1.051,1.051,0,0,1-.19.7.773.773,0,0,1-.284.318.57.57,0,0,1-.337.015,2,2,0,0,0-.442-.044c-.172.008-.374.054-.541.057a.909.909,0,0,1-.378-.075c-.077-.035-.1-.061-.1-.165a3.373,3.373,0,0,1,.018-.44.722.722,0,0,1,.1-.36.409.409,0,0,1,.288-.122,3.058,3.058,0,0,0,.375-.049c.093-.028.124-.078.141-.19s.021-.287.05-.415a1.475,1.475,0,0,1,.128-.309.967.967,0,0,0,.084-.313.722.722,0,0,0-.033-.269,1.767,1.767,0,0,0-.078-.187.31.31,0,0,1-.034-.185.879.879,0,0,0,.071-.216,1.124,1.124,0,0,0-.073-.391,1.554,1.554,0,0,0-.179-.368,2.068,2.068,0,0,0-.23-.279c-.066-.068-.109-.1-.082-.107A1.175,1.175,0,0,1,899.531,200.43Z" transform="translate(-886.184 -199.784)" fill="#090835" fill-rule="evenodd"/>
            <path id="Path_24" data-name="Path 24" d="M667.123,266.444a.64.64,0,0,0,.151-.405,5.647,5.647,0,0,1,1.76.483l1.222.492q.109-.016.1.112l-.624,1.714q-.035.058-.146.035l-.921-.509a2.073,2.073,0,0,1-.075,2.311,6.78,6.78,0,0,1-.51.867.679.679,0,0,0-.12.207s-.006.247-.017.743q.468,3.039.844,5.561l.844,2.47q.135.452-.344.414l-1.36.017a.54.54,0,0,1-.6-.311l-.491-.725a.535.535,0,0,0-.485-.107c-1.091.141-2.171-.741-3.906-.877a.4.4,0,0,0-.31.086l-.9,1.278q-.171.268-.689.138c-1.8-.771-1.562-2.681-2.8-4.327-.438-.58-1.633-.475-2.017-1.579q-.214-.53.379-.708a26.081,26.081,0,0,1,8.4-2.124,23.949,23.949,0,0,0,.1-2.919,1.577,1.577,0,0,1-.818-.419.083.083,0,0,1-.052-.117l.245-.7a2.757,2.757,0,0,1,.379-1.209,4.751,4.751,0,0,1,1.524-1.118,6.435,6.435,0,0,0,1.089,1A.224.224,0,0,1,667.123,266.444Z" transform="translate(-654.623 -261.566)" fill="#7877ce" fill-rule="evenodd"/>
            <path id="Path_25" data-name="Path 25" d="M730.83,430.929l-.9,1.278q-.171.268-.689.138a2.772,2.772,0,0,1-1.465-1.5l5.919-6.122a.21.21,0,0,1,.248.321Z" transform="translate(-723.319 -413.474)" fill-rule="evenodd" fill="url(#linear-gradient-4)"/>
            <path id="Path_26" data-name="Path 26" d="M657.153,406.66c-.52-.23-1.161-.42-1.424-1.175q-.214-.53.379-.708a23.508,23.508,0,0,1,4.992-1.612q2.332-.34,3.5-.449a.16.16,0,0,1,.221.167l-7.671,3.777Z" transform="translate(-654.623 -392.521)" fill-rule="evenodd" fill="url(#linear-gradient-5)"/>
            <path id="Path_27" data-name="Path 27" d="M841.341,395.795l-.015.651.007.047q-2.893-.12-3.666-.819l.224-.022q.019-.132.034-.3A22.022,22.022,0,0,0,841.341,395.795Z" transform="translate(-828.003 -385.519)" fill="#e9e9e9" fill-rule="evenodd"/>
            <path id="Path_28" data-name="Path 28" d="M855.325,428.952a.847.847,0,0,0-.151.014,2.96,2.96,0,0,1-1.3-.192L855,421.943a.174.174,0,0,1,.342.019l-.017,6.99Z" transform="translate(-843.447 -410.72)" fill-rule="evenodd" fill="url(#linear-gradient-6)"/>
            <path id="Path_30" data-name="Path 30" d="M904.465,428.6q.3,1.982.561,3.719l-1.359-4.764a.274.274,0,0,1,.444-.3Z" transform="translate(-890.86 -415.832)" fill-rule="evenodd" fill="url(#linear-gradient-7)"/>
            <path id="Path_31" data-name="Path 31" d="M897.6,282.83a.64.64,0,0,0,.151-.405,3.1,3.1,0,0,1,.787.143,1.279,1.279,0,0,1-.876.34Z" transform="translate(-885.104 -277.952)" fill="#46457b" fill-rule="evenodd"/>
            <path id="Path_32" data-name="Path 32" d="M925.511,316l-.237.65c-.023.039-.072.05-.146.035l-.921-.51-.281-.553a.136.136,0,0,1,.116-.207Z" transform="translate(-910.161 -309.38)" fill-rule="evenodd" fill="url(#linear-gradient-8)"/>
            <path id="Path_29" data-name="Path 29" d="M848.155,362.891c-.159.319-.683,1.34-.864,1.6a.679.679,0,0,0-.121.207l-2.907-.3q-.468-.1-.479-.506h0l2.308-.883,1.322-.207C848.022,362.688,853.928,365.385,848.155,362.891Z" transform="translate(-833.83 -354.513)" fill-rule="evenodd" fill="url(#linear-gradient-9)"/>
            <path id="Path_33" data-name="Path 33" d="M848.86,320.761a2.251,2.251,0,0,0,1.467.059l-.517-2.078c-.024-.028-.058-.029-.1,0l-.121,1.019c0,.068-.034.1-.1.086l-.154-.01Z" transform="translate(-838.667 -312.523)" fill-rule="evenodd" fill="url(#linear-gradient-10)"/>
            <path id="Path_34" data-name="Path 34" d="M819.77,332.939a2.786,2.786,0,0,1-1.41-.46,14.327,14.327,0,0,0-.471,1.945q-.24.964.465,1.053a7.934,7.934,0,0,0,2.875-.924,1.8,1.8,0,0,1,.56-.009,1.378,1.378,0,0,1,.185-.889,5.949,5.949,0,0,1-2.626.207Z" transform="translate(-809.103 -325.63)" fill="#ffe7d4" fill-rule="evenodd"/>
            <path id="Path_35" data-name="Path 35" d="M894.417,358.137q.127,0,.3.015a1.377,1.377,0,0,1,.185-.889q-.2.043-.394.079a.391.391,0,0,0-.037.314A.534.534,0,0,0,894.417,358.137Z" transform="translate(-882.033 -349.237)" fill-rule="evenodd" fill="url(#linear-gradient-3)"/>
            <path id="Path_36" data-name="Path 36" d="M833.629,338.767a6.758,6.758,0,0,1-.834-.169l-.42,1.181q0,.16.2.159a1.132,1.132,0,0,1,.632-.247Z" transform="translate(-822.963 -331.458)" fill-rule="evenodd" fill="url(#linear-gradient-12)"/>
            <path id="Path_37" data-name="Path 37" d="M1003.9,198.628a1.806,1.806,0,0,0-2.786-2.26,2.276,2.276,0,0,0-.671,1.023.269.269,0,0,0,0,.233l.129.259-.219.473a.119.119,0,0,0-.01.136l.168.136.071,1.03a.5.5,0,0,0,.568.44l.375-.026.362.512,2.04-1.256Q1003.9,198.628,1003.9,198.628Z" transform="translate(-982.965 -195.489)" fill="#ffe7d4" fill-rule="evenodd"/>
            <path id="Path_38" data-name="Path 38" d="M1010.181,277.454a.5.5,0,0,0,.358.087l.375-.026.361.512.57-.351-.31-.436a.146.146,0,0,0-.18-.077A3.479,3.479,0,0,1,1010.181,277.454Z" transform="translate(-992.352 -272.933)" fill-rule="evenodd" fill="url(#linear-gradient-13)"/>
            <path id="Path_39" data-name="Path 39" d="M1002.449,189.23a1.76,1.76,0,0,1,.252.171c.068.057.1.1.089.162a.811.811,0,0,1-.094.233,2.865,2.865,0,0,0-.125.27.315.315,0,0,0-.024.159.17.17,0,0,0,.069.115.614.614,0,0,1,.173.176.418.418,0,0,1-.01.268c-.025.1-.055.2-.034.235s.092.017.154-.03a.582.582,0,0,0,.167-.232c.051-.111.1-.26.144-.349s.091-.117.143-.113a.263.263,0,0,1,.166.1.522.522,0,0,1,.127.264.975.975,0,0,1-.023.335,1,1,0,0,1-.062.192.175.175,0,0,0,0,.175,1.477,1.477,0,0,0,.3.346c.161.149.383.33.519.434s.185.13.265.121a.808.808,0,0,0,.328-.142,4.67,4.67,0,0,0,.421-.326,1.076,1.076,0,0,0,.223-.228,2,2,0,0,0,.144-.311c.059-.144.141-.338.219-.552s.154-.447.2-.6a1.221,1.221,0,0,0,.069-.3.335.335,0,0,0-.066-.212,2.462,2.462,0,0,0-.211-.248c-.068-.075-.113-.128-.156-.141a.159.159,0,0,0-.123.039c-.039.024-.075.043-.08.027a.429.429,0,0,1,.043-.116.159.159,0,0,0-.014-.165,1.925,1.925,0,0,0-.268-.3c-.125-.124-.276-.267-.378-.352a.4.4,0,0,0-.289-.119,3.411,3.411,0,0,0-.581.048c-.234.036-.491.09-.755.152s-.538.134-.744.191a3.136,3.136,0,0,0-.431.141c-.088.041-.127.08-.137.125a.184.184,0,0,0,.051.148.61.61,0,0,0,.157.132C1002.327,189.175,1002.372,189.188,1002.449,189.23Z" transform="translate(-984.619 -188.205)" fill="#090835" fill-rule="evenodd"/>
            <path id="Path_40" data-name="Path 40" d="M862.8,193.518a1.643,1.643,0,0,1,.285.384,1.787,1.787,0,0,1,.136.473.587.587,0,0,1,.005.25c-.015.052-.045.086-.056.128a.229.229,0,0,0,.016.137c.018.045.046.086.068.152a.817.817,0,0,1,.035.254.864.864,0,0,1-.054.294,1.263,1.263,0,0,1-.124.229.3.3,0,0,0-.058.164c-.009.084-.011.227-.012.346a.571.571,0,0,1-.04.277c-.039.06-.116.084-.237.1a3.822,3.822,0,0,0-.4.037.255.255,0,0,0-.209.169,1.23,1.23,0,0,0-.053.381,1.376,1.376,0,0,1-.028.371c-.031.074-.1.072-.237.014a2.236,2.236,0,0,1-.5-.308,2.432,2.432,0,0,1-.385-.427c-.1-.136-.187-.254-.271-.371a2.632,2.632,0,0,1-.007-.318,1.684,1.684,0,0,0-.017-.471,2.59,2.59,0,0,0-.221-.486,2.342,2.342,0,0,1-.2-.634,1.929,1.929,0,0,1,.012-.89,1.1,1.1,0,0,1,.529-.6,1.431,1.431,0,0,1,.782-.18,2.349,2.349,0,0,1,.829.2A1.187,1.187,0,0,1,862.8,193.518Z" transform="translate(-849.459 -192.761)" fill="#ffe7d4" fill-rule="evenodd"/>
            <path id="Path_41" data-name="Path 41" d="M890.263,264.321a.179.179,0,0,1-.019.041c-.039.061-.116.084-.237.1a3.822,3.822,0,0,0-.4.037.255.255,0,0,0-.209.169,1.231,1.231,0,0,0-.053.381,1.373,1.373,0,0,1-.028.371c-.031.075-.1.072-.237.014-.047-.02-.1-.047-.161-.079l-.141-1.12a.172.172,0,0,1,.245-.091A3.8,3.8,0,0,0,890.263,264.321Z" transform="translate(-876.7 -260.516)" fill-rule="evenodd" fill="url(#linear-gradient-14)"/>
            <path id="Path_42" data-name="Path 42" d="M766.872,190.37a.894.894,0,0,1-.04.446.633.633,0,0,1-.3.336,1.916,1.916,0,0,1-.51.138c-.178.034-.347.072-.435.092s-.095.024-.11.06-.04.105-.068.2a.632.632,0,0,1-.131.271.185.185,0,0,1-.24.028.651.651,0,0,1-.113-.266.206.206,0,0,0-.114-.142.158.158,0,0,0-.171.026.408.408,0,0,0-.127.272.776.776,0,0,0,.07.337.451.451,0,0,0,.11.163.429.429,0,0,0,.138.1c.049.018.1.013.082.1a1.893,1.893,0,0,1-.176.41.935.935,0,0,1-.374.375c-.234.155-.637.378-.945.549a2.567,2.567,0,0,1-.729.324,1.307,1.307,0,0,1-.656-.092,1.463,1.463,0,0,1-.685-.4c-.146-.193-.144-.458-.265-.56s-.366-.044-.632-.031a1.3,1.3,0,0,1-.757-.154,1.02,1.02,0,0,1-.385-.6,1.1,1.1,0,0,1,.007-.673.9.9,0,0,1,.428-.464,3.127,3.127,0,0,0,.53-.239.7.7,0,0,0,.153-.436.452.452,0,0,1,.2-.37,1.514,1.514,0,0,1,.667-.118c.269,0,.555.025.927.012a6.377,6.377,0,0,0,1.266-.174c.436-.108.849-.27,1.267-.342a2.962,2.962,0,0,1,1.175.03,1.6,1.6,0,0,1,.722.371A.687.687,0,0,1,766.872,190.37Z" transform="translate(-753.305 -189.437)" fill="#090835" fill-rule="evenodd"/>
            <path id="Path_43" data-name="Path 43" d="M1118.2,695.592a2.821,2.821,0,0,1-1.433,1.444,4.9,4.9,0,0,1-.775,1.5.361.361,0,0,0-.09.421,3.109,3.109,0,0,0,2.137-1.561q.024-.308.2-.369l.123.045q.108.045.149-.006l.51-.615a.119.119,0,0,0,.013-.175A1.8,1.8,0,0,0,1118.2,695.592Z" transform="translate(-1093.033 -671.504)" fill="#333e46" fill-rule="evenodd"/>
            <path id="Path_44" data-name="Path 44" d="M980.129,454.759q.224.054.27-.123a3.6,3.6,0,0,1-.284,3.065,32.413,32.413,0,0,1-3.7,3.782.437.437,0,0,0-.086.673q2.65,1.75,4.58,3.264a.323.323,0,0,1,.129.458,2.959,2.959,0,0,1-2.41,1.977.242.242,0,0,1-.284-.112l-2.677-2.565,1.364,2.858q.08.236-.043.345a7.166,7.166,0,0,1-3.039.794.185.185,0,0,1-.172-.13l-1.868-6.718a2.534,2.534,0,0,1-.078-2.142,37.865,37.865,0,0,1,3.435-4.741l.34-.453.361.276a.473.473,0,0,0,.349.082l1.339-.212a.469.469,0,0,0,.25-.134.609.609,0,0,1,.812-.287Z" transform="translate(-955.624 -441.988)" fill="#f5f5f5" fill-rule="evenodd"/>
            <path id="Path_45" data-name="Path 45" d="M975.663,472.366l1.364,2.858q.08.236-.043.345a7.166,7.166,0,0,1-3.039.794.186.186,0,0,1-.172-.13l-1.868-6.718a2.534,2.534,0,0,1-.078-2.142,37.885,37.885,0,0,1,3.435-4.741l.34-.453.361.276a.475.475,0,0,0,.332.085l-3.051,5.552a1.66,1.66,0,0,0-.057,2.055Z" transform="translate(-955.624 -449.174)" fill="#d7d8d8" fill-rule="evenodd"/>
            <path id="Path_46" data-name="Path 46" d="M898.066,355.43a1.164,1.164,0,0,1,.346-.948l-.315-.4a.407.407,0,0,0-.511-.124l-.46-.052a.227.227,0,0,0-.234.2.267.267,0,0,0-.133.372.291.291,0,0,0-.021.4.233.233,0,0,0,.062.321l.362.161A1.8,1.8,0,0,0,898.066,355.43Z" transform="translate(-884.211 -346.036)" fill="#ffe7d4" fill-rule="evenodd"/>
            <path id="Path_47" data-name="Path 47" d="M898.727,368.551a1.172,1.172,0,0,1,.263-.859.176.176,0,0,0-.195.032,1.185,1.185,0,0,0-.267.507.265.265,0,0,1-.183.1,2.106,2.106,0,0,1-.969-.291.233.233,0,0,0,.084.278l.362.161A1.8,1.8,0,0,0,898.727,368.551Z" transform="translate(-884.872 -359.157)" fill-rule="evenodd" fill="url(#linear-gradient-3)"/>
            <path id="Path_48" data-name="Path 48" d="M932.449,254.878q1.273.577,2.169,3.067a13.824,13.824,0,0,1,.816,2.663,2.86,2.86,0,0,0,.269,1.036q.178.068.207.394s.065.577.2,1.73a.251.251,0,0,1-.269.218l-1.539-.062q-.528-.12-.713.186a.514.514,0,0,1-.362.259l-1.374.186a.439.439,0,0,1-.3-.062l-.671-.539a.716.716,0,0,1-.269-.477s.01-.826.031-2.477l-.2-.363-.682.425a1.311,1.311,0,0,1-1.043.29l-2.448-.1a.4.4,0,0,1-.217-.1l-.16-.285-.873-.135a1.206,1.206,0,0,1,.434-1.275l-.008-.009h0l.037.01a1.614,1.614,0,0,0,.069-.6,11.367,11.367,0,0,0,1.168-.426q.214-.208.842-.062,1.774-1.643,2.453-2.15a.2.2,0,0,1,.1-.223l1.689-1.637q.347-.258.553.073Z" transform="translate(-911.193 -251.106)" fill="#62c1aa" fill-rule="evenodd"/>
            <path id="Path_49" data-name="Path 49" d="M1041.449,349.822a.6.6,0,0,1-.107-.047l-.671-.539a.714.714,0,0,1-.269-.477s.01-.826.031-2.477l-.2-.363,1.09-.715a1,1,0,0,0,.5-.435l.8-1a.615.615,0,0,1,.28.626Z" transform="translate(-1020.986 -336.388)" fill-rule="evenodd" fill="url(#linear-gradient-16)"/>
            <path id="Path_50" data-name="Path 50" d="M934.753,298.441a11.4,11.4,0,0,0,1.168-.426q.215-.208.842-.062,1.775-1.643,2.454-2.15a.579.579,0,0,1,.129.456l-1.219,1.575a.234.234,0,0,0-.083.28l-.847.787-.883-.067q-.691-.155-.827.233l-.8-.025a1.621,1.621,0,0,0,.068-.6Zm-.069.6h-.029l-.008-.009Z" transform="translate(-920.394 -290.695)" fill="#53a793" fill-rule="evenodd"/>
            <path id="Path_51" data-name="Path 51" d="M987.477,742.486a6.323,6.323,0,0,0,3.018-.828,5.25,5.25,0,0,1,.193,1.256.181.181,0,0,1-.137.143,9.76,9.76,0,0,0-1.138.1.1.1,0,0,1-.125-.082l-.063-.137a.618.618,0,0,0-.607.25,3.394,3.394,0,0,1-2.8-.191.415.415,0,0,1,.377-.363A2.947,2.947,0,0,0,987.477,742.486Z" transform="translate(-969.139 -715.384)" fill="#333e46" fill-rule="evenodd"/>
            <path id="Path_52" data-name="Path 52" d="M855.513,725.271q-.2-.03-.05-.372l.123-.739a.221.221,0,0,1,.285-.1.563.563,0,0,0,.843-.057l.44-.374a.147.147,0,0,1,.29.023l.835.889.793.263q.452.19.434.5-.222.328-1.074.293a1.183,1.183,0,0,1-1.041-.2.445.445,0,0,0-.473.007.514.514,0,0,1-.354.055Z" transform="translate(-844.896 -698.102)" fill="#e9e9e9" fill-rule="evenodd"/>
            <path id="Path_53" data-name="Path 53" d="M855.513,754.886q-.171-.025-.087-.276a.735.735,0,0,1,.082,0c.229,0,.628.08.9.11a2.62,2.62,0,0,0,.56,0,.974.974,0,0,1,.4.042c.11.044.182.127.3.181a1.07,1.07,0,0,0,.517.062c.247-.015.585-.068.807-.106a1.712,1.712,0,0,0,.427-.106l.062-.031a.37.37,0,0,1,.027.164q-.223.328-1.075.293a1.182,1.182,0,0,1-1.041-.2.445.445,0,0,0-.472.007.515.515,0,0,1-.354.055Z" transform="translate(-844.896 -727.716)" fill="#6a69bc" fill-rule="evenodd"/>
            <path id="Path_54" data-name="Path 54" d="M821.7,705.267q-.167-.129.142-.363l.484-.609a.229.229,0,0,1,.31.052q.172.519.794.376l.588-.116a.153.153,0,0,1,.252.168l.31,1.231.588.641q.314.4.142.673-.367.185-1.123-.278a1.233,1.233,0,0,1-.846-.706.463.463,0,0,0-.433-.233.535.535,0,0,1-.349-.13Z" transform="translate(-812.734 -679.758)" fill="#f5f5f5" fill-rule="evenodd"/>
            <path id="Path_55" data-name="Path 55" d="M821.7,718.908q-.156-.12.1-.33l.1.087c.191.161.548.472.744.639s.23.19.273.2a.9.9,0,0,1,.171.044.868.868,0,0,1,.256.167,1.241,1.241,0,0,1,.155.219.872.872,0,0,0,.286.254,5.3,5.3,0,0,0,.727.384,3.12,3.12,0,0,0,.631.2.871.871,0,0,0,.217.013h0a.381.381,0,0,1-.06.177q-.367.185-1.123-.278a1.232,1.232,0,0,1-.846-.706.463.463,0,0,0-.433-.233.534.534,0,0,1-.349-.13Z" transform="translate(-812.734 -693.399)" fill="#7877ce" fill-rule="evenodd"/>
          </g>
        </g>
      </g>
    </g>
  </g>
</svg>
