<svg xmlns="http://www.w3.org/2000/svg" width="21.072" height="23.834" viewBox="0 0 21.072 23.834">
  <path id="icon" d="M8.269,25.9h0a1.2,1.2,0,0,1-.85-.354L5.163,23.312l4.863-4.825,2.256,2.239a1.18,1.18,0,0,1,.356.842,1.278,1.278,0,0,1-.391.909L11.166,23.55l-.985-.978a.641.641,0,0,0-.9,0,.627.627,0,0,0,0,.894l.986.977L9.185,25.516A1.3,1.3,0,0,1,8.269,25.9ZM3.182,22.967a1.272,1.272,0,0,1-.9-.37,1.257,1.257,0,0,1,0-1.787l9.846-9.769a.078.078,0,0,1,.05-.012.082.082,0,0,0,.047-.01l-.543-.539a4.906,4.906,0,0,1,0-6.97,5,5,0,0,1,7.024,0l2.821,2.8a4.906,4.906,0,0,1,0,6.97,5,5,0,0,1-7.024,0l-.483-.48a.07.07,0,0,1-.045.014.076.076,0,0,0-.046.014L4.082,22.6A1.269,1.269,0,0,1,3.182,22.967ZM15.194,4.6a2.413,2.413,0,0,0-1.711.7,2.39,2.39,0,0,0,0,3.395l2.822,2.8a2.436,2.436,0,0,0,3.422,0,2.39,2.39,0,0,0,0-3.4L16.9,5.3A2.413,2.413,0,0,0,15.194,4.6Z" transform="translate(-1.908 -2.07)" fill="#ea465b"/>
</svg>
