<svg xmlns="http://www.w3.org/2000/svg" width="37.031" height="61.652" viewBox="0 0 37.031 61.652">
  <g id="iconfinder_Tilda_Icons_1ed_location_3586361" transform="translate(-23.642 -4.88)">
    <path id="Path_4714" data-name="Path 4714" d="M47.512,49.815,57.859,33.178a.942.942,0,0,0,.084-.169,18.489,18.489,0,1,0-31.515,0,1.068,1.068,0,0,0,.074.149l9.976,16.695C28.734,50.951,23.642,54.136,23.642,58c0,4.786,8.133,8.534,18.515,8.534S60.673,62.783,60.673,58C60.673,54.118,55.344,50.862,47.512,49.815ZM28.287,32.081a16.418,16.418,0,1,1,27.8,0,1,1,0,0,0-.086.172L45.066,49.828c-.164.252-.2.309-.4.639l-2.76,4.439L28.38,32.267A1.041,1.041,0,0,0,28.287,32.081ZM42.158,64.462c-9.691,0-16.445-3.407-16.445-6.464,0-2.774,5.086-5.388,11.927-6.2L41,57.425a1.034,1.034,0,0,0,.879.5h.009a1.036,1.036,0,0,0,.879-.489L46.3,51.759c6.95.753,12.3,3.433,12.3,6.239C58.6,61.055,51.849,64.462,42.158,64.462Z" fill="#fff"/>
    <path id="Path_4715" data-name="Path 4715" d="M54.176,28.651a6.722,6.722,0,1,0-6.722,6.722A6.73,6.73,0,0,0,54.176,28.651Zm-11.375,0A4.652,4.652,0,1,1,47.453,33.3,4.657,4.657,0,0,1,42.8,28.651Z" transform="translate(-5.295 -5.283)" fill="#fff"/>
  </g>
</svg>
