<svg xmlns="http://www.w3.org/2000/svg" width="27.003" height="56.493" viewBox="0 0 27.003 56.493">
  <path id="icon" d="M16.227,54.908V41.131a.113.113,0,0,0-.116-.122H14.872a.1.1,0,0,0-.112.122V54.908a3.3,3.3,0,1,1-6.6,0V33.819c0-1.574-.094-1.213-.094-1.213L6.738,36.182a2.442,2.442,0,0,1-3.155,1.451,2.488,2.488,0,0,1-1.435-3.191L7.136,19.247a2.687,2.687,0,0,1,2.712-1.76H20.165c.343,0,.4-.014.973-.014a2.845,2.845,0,0,1,2.712,1.775l4.989,15.194A2.487,2.487,0,0,1,27.4,37.633a2.441,2.441,0,0,1-3.155-1.45l-1.283-3.459s-.139-.5-.139,1.1V54.908a3.3,3.3,0,1,1-6.6,0ZM8.473,8.778A7.086,7.086,0,1,1,15.558,15.8,7.056,7.056,0,0,1,8.473,8.778Z" transform="translate(-1.992 -1.753)" fill="#fff"/>
</svg>
