<svg xmlns="http://www.w3.org/2000/svg" width="20" height="24" viewBox="0 0 20 24">
  <path id="profile" d="M21,25H1V23.871c0-5.138,4.486-9.318,10-9.318s10,4.18,10,9.318V25ZM11,16.812a7.9,7.9,0,0,0-4.933,1.706,6.962,6.962,0,0,0-2.545,4.223H18.479a6.965,6.965,0,0,0-2.546-4.223A7.905,7.905,0,0,0,11,16.812Zm0-4.518A5.871,5.871,0,0,1,4.939,6.647,5.872,5.872,0,0,1,11,1,5.872,5.872,0,0,1,17.06,6.647,5.871,5.871,0,0,1,11,12.294Zm0-9.035A3.523,3.523,0,0,0,7.364,6.647,3.522,3.522,0,0,0,11,10.035a3.523,3.523,0,0,0,3.637-3.388A3.523,3.523,0,0,0,11,3.259Z" transform="translate(-1 -1)" fill="rgba(34,34,34,0.35)"/>
</svg>
