<svg xmlns="http://www.w3.org/2000/svg" xmlns:xlink="http://www.w3.org/1999/xlink" width="331" height="201.864" viewBox="0 0 331 201.864">
  <defs>
    <filter id="Y_PP" x="0" y="0.864" width="331" height="201" filterUnits="userSpaceOnUse">
      <feOffset dx="10" dy="10" input="SourceAlpha"/>
      <feGaussianBlur stdDeviation="15" result="blur"/>
      <feFlood flood-opacity="0.361"/>
      <feComposite operator="in" in2="blur"/>
      <feComposite in="SourceGraphic"/>
    </filter>
    <filter id="Subtraction_24" x="53.61" y="15.372" width="161.205" height="173.212" filterUnits="userSpaceOnUse">
      <feOffset dx="10" dy="10" input="SourceAlpha"/>
      <feGaussianBlur stdDeviation="18" result="blur-2"/>
      <feFlood flood-opacity="0.361"/>
      <feComposite operator="in" in2="blur-2"/>
      <feComposite in="SourceGraphic"/>
    </filter>
  </defs>
  <g id="Component_68_1" data-name="Component 68 – 1" transform="translate(26.65)">
    <g transform="matrix(1, 0, 0, 1, -26.65, 0)" filter="url(#Y_PP)">
      <text id="Y_PP-2" data-name="Y PP" transform="translate(35 127.86)" fill="#fff" font-size="84" font-family="EuphemiaUCAS-Bold, Euphemia UCAS" font-weight="700" letter-spacing="0.15em"><tspan x="0" y="0">Y PP</tspan></text>
    </g>
    <g transform="matrix(1, 0, 0, 1, -26.65, 0)" filter="url(#Subtraction_24)">
      <path id="Subtraction_24-2" data-name="Subtraction 24" d="M26.7,65.2h0a43.389,43.389,0,0,1-4.636-3.129A59.964,59.964,0,0,1,17.4,58.08c-1.539-1.454-3.049-3.022-4.489-4.658-1.458-1.657-2.843-3.385-4.118-5.136a63.315,63.315,0,0,1-3.548-5.424,49.406,49.406,0,0,1-2.78-5.521A27.564,27.564,0,0,1,0,26.773a26.954,26.954,0,0,1,.543-5.39,26.673,26.673,0,0,1,4.021-9.57,26.947,26.947,0,0,1,7.214-7.235A26.5,26.5,0,0,1,26.7,0a25.617,25.617,0,0,1,6.7.681,28.658,28.658,0,0,1,7.228,3.233c.5.3.931.548,1.3.774a6.6,6.6,0,0,0-.257.975,21.264,21.264,0,0,1-2.048,6.173A15.613,15.613,0,0,1,33.9,18.009a25.423,25.423,0,0,0-4.053,3.2,50.5,50.5,0,0,0-3.562,3.757c-2.067,2.4-3.483,4.415-3.5,4.435l.7.339a13.576,13.576,0,0,1-.851,1.479c-.373.545-.676.822-.9.822a.252.252,0,0,1-.079-.012,1.855,1.855,0,0,0-.575-.083,2.215,2.215,0,0,0-1.207.337,1.359,1.359,0,0,0-.613,1.181c0,.733-.712,1.463-1.4,2.169-.66.677-1.284,1.316-1.228,1.9a17.188,17.188,0,0,0,1.2,3.593l1.2-1.079a.568.568,0,0,1-.243-.333,2.109,2.109,0,0,1,.365-1.581,12.9,12.9,0,0,1,3.18-3.062,12.412,12.412,0,0,0,1.477-1.253c.7-.826,3.631-2.041,3.661-2.053l-.459-.339,1.276.609.006-.007c.245-.279,2.462-2.805,4.939-5.389,1.535-1.6,2.873-2.917,3.978-3.912a11.518,11.518,0,0,1,3.023-2.2,14.1,14.1,0,0,0,3.922-3.07c1.284-1.255,2.789-2.857,4.475-4.76,1.777,3.336,3.18,5.886,4.17,7.579a17.472,17.472,0,0,1,.4,2.147,28.016,28.016,0,0,0-5.851,4.9,20.363,20.363,0,0,0-2.754,3.43l.433.209a19.869,19.869,0,0,1-1.83,1.992,4.084,4.084,0,0,1-2.328,1.355.984.984,0,0,1-.171-.014,1.816,1.816,0,0,0-.318-.03,1,1,0,0,0-.927.509,1.81,1.81,0,0,0-.174,1.061,2.807,2.807,0,0,0,.378,1.139,3.962,3.962,0,0,1,.215,2.433,20.792,20.792,0,0,1-.631,2.8,1.031,1.031,0,0,0,.121.858,2.946,2.946,0,0,0,1.578,1.047,7.806,7.806,0,0,0,1.121.313l.547-1.418-1.258-.5.01-.029c.281-.761,1.694-4.572,1.9-4.878l5.4-4.907.364.174c.017-.011,1.868-1.217,4.07-2.827a29.892,29.892,0,0,1-1.148,4.514,42.835,42.835,0,0,1-1.94,4.777,55.229,55.229,0,0,1-2.642,4.9c-.989,1.634-2.086,3.268-3.259,4.856-1.185,1.6-2.459,3.178-3.786,4.674-1.352,1.525-2.773,2.986-4.224,4.342A52.657,52.657,0,0,1,26.7,65.2Z" transform="translate(97.61 59.38)" fill="#fff"/>
    </g>
    <path id="Path_1400" data-name="Path 1400" d="M59.584,13.788s-3.575.029-4.938,1.164a23.976,23.976,0,0,1-6.509,3.3,14.027,14.027,0,0,1-3.934-.581,2.574,2.574,0,0,0-1.21-.452l-.807-.078a.9.9,0,0,1,.244-.981c.552-.376,1.46-.413,1.439-.964s-.247-.944-.129-1-.134-.227-.134-.227l.263-.227s-.34-.284-.247-.5.439-.433-.15-.737-.464-1.212-.464-1.212a4.018,4.018,0,0,1-.573-.732c.175-.041.346-.077.506-.108-.232-.588-.242-1.785-1.795-1.547a6.518,6.518,0,0,0-2.336.807c.134-3.113.341-4.753.693-5.308.488-.769,2.116-2.387,1.867-2.416a4.763,4.763,0,0,0-1.159.362l.3-.835a1.392,1.392,0,1,0-2.653.451,5.332,5.332,0,0,1,.01,2.923c-.322,1.268-1.6,5.212-1.56,6.432a5.514,5.514,0,0,0,.176.946,8.161,8.161,0,0,0-.5,1.27c-1.057,3.507-3.285,5.281-3.383,4.033S32.41,16.2,32.338,16.2s-.459,5.209,2.233,3.553A18.225,18.225,0,0,1,37.2,18.334h0a3.057,3.057,0,0,0,.152.316h0c-.7.634-.1,1.25.537.894A12.784,12.784,0,0,1,39.734,23a3.367,3.367,0,0,1-.476,2.391h.006A12.865,12.865,0,0,1,37.9,26.939c-.65.712-1.573,1.217-1.7,2.744a5.029,5.029,0,0,0,1.15,3.77c.273,1.6,1.125,6.978.454,8.273a28.977,28.977,0,0,0-1.263,6.143c-.01.083-.021.16-.031.237-.108.851-.17,1.429-.17,1.429h.26a1.611,1.611,0,0,1-.346,1.181c-.624.48-.01,1.125.609,1.253s1.3,1.171,1.728,1.867,1.717-.273,1.717-.273l-.325-.66-.588.289s-1.067-2.1-1.119-2.295l.016-1.362h.34s-.918-.65,1.573-5.859a15.953,15.953,0,0,0,1.557-8.9,6.455,6.455,0,0,0,1.119-.139c1.243,1.511,4.116,5.127,3.863,6.014-.227.789-1.779,4.75-2.708,7.091a.926.926,0,0,1-.041.1v.01c-.387.964-.65,1.63-.65,1.63H43.6c-.191.573-.459,1.088-.8,1.212-.841.3-.407,1.207.217,1.557s1,1.717,1.207,2.615,1.939.3,1.939.3l-.113-.82-.737.1s-.413-2.635-.4-2.857l.707-2.109h.18s3.626-6.184,4.131-9.015c.418-2.357-2.208-6.5-3.1-7.824a4.967,4.967,0,0,0,.377-.351l-2.935-3.476-.217-.263s.139-.439.32-1.119l-.067-.021.069.019c.462-1.712,1.186-4.956.611-6.579a1.859,1.859,0,0,0,.281-.376c.858.1,1.672.2,2.315.312,2.393.435,6.94-4.066,7.4-4.054s1.344-.743,2.144-1.133a12.384,12.384,0,0,1,2.59-.657ZM40.06,16c0-.056.006-.117.01-.176C40.067,15.889,40.063,15.949,40.06,16Zm.018-.305c0-.061.009-.123.013-.187,0,.064-.008.126-.013.187Zm.025-.332c.005-.065.011-.13.016-.2-.005.07-.01.132-.019.2Zm.031-.357c.006-.067.012-.133.019-.2-.006.068-.012.134-.018.2Zm.039-.4.032-.294q-.016.149-.031.3Zm.059-.532.021-.173c-.006.058-.013.116-.02.174Zm.048-.39c.007-.056.014-.111.022-.166,0,.056-.014.111-.021.167Zm.052-.393.021-.147Zm.058-.4.017-.111Zm.071-.442a.548.548,0,0,1,.014-.081c0,.027-.009.056-.014.084Zm.056-.309c.006-.034.013-.066.019-.1-.006.037-.013.069-.019.1Zm.055-.276c.006-.031.013-.061.02-.089Zm.057-.24c.006-.022.011-.045.017-.064,0,.023-.011.046-.017.068Z" transform="translate(178.068 8.185)" fill="#383838"/>
    <path id="Path_1403" data-name="Path 1403" d="M63.084,31.963c-1.294-.189-2.96.553-3.695-1.018s-2.407-4.254-2.683-5.825c-.236-1.349-2.2-3.068-2.656-4.652l.074-.02a26.069,26.069,0,0,1-.182-2.683c-.149-3.763-3.931-4.929-3.931-4.929l-1.106-.377c-.358-.64-.748-1.456-.317-1.355.695.162,1.5-.269,2.569-1.659a16.221,16.221,0,0,0,.708-2.1c.189-.472.93-.715,1.072-1.22a2.892,2.892,0,0,0-.007-2.09,6.994,6.994,0,0,0,1.6-1.193c1.281-1.2-.964-2.6-1.753-2.812S52.068,1.1,49.23.4s-3.533.91-3.9,2.677a8.87,8.87,0,0,0,.256,4.113,4.512,4.512,0,0,0,.276,2.252l-2,1.288L42.8,10.366l-2.185-.647c-2.233-.662-4.578,6.8-4.578,6.8l.061.02c-.775,1.49-1.874,2.508-2.077,3.675-.276,1.571-1.942,4.254-2.683,5.825s-2.4.836-3.695,1.018-.836,1.571.553,2.218,2.865-.459,3.513-.829,4.16-5.825,5.535-7.767A9.853,9.853,0,0,0,38.61,17.44l.141.047.85-1.78L40,25.78l.708,3.466s-3.607,6.014-2.778,8.7c.472,1.524,4.295,5.239,7.5,8.165-.007.088-.02.168-.034.249-.584,3.6-4.683,12.94-4.683,12.94l.148.034-.189.337s-.957,1.874-.58,2.859,3.816,1.6,4.537.924-1.349-1.935-1.349-1.935l-.02-1.578.04.013s2.036-3.89,3.661-7.585a28.225,28.225,0,0,0,1.173-3.85c1.092.957,1.814,1.571,1.814,1.571l.223-.236,1.308,1.368s-.607,2.34.384,2.326,3.02-2.859,2.6-3.83S52.05,48.08,52.05,48.08l-.182-.054.4-.431s-1.456-1.416-3.2-3.162c1.18-5.6,2.225-12.042,2.286-13.248.088-1.942-2.2-5.373-2.2-5.373l1.679-7.4.748,2.677.27-.067a11.31,11.31,0,0,0,1.638,4.551c1.375,1.942,4.888,7.4,5.535,7.774s2.124,1.477,3.513.829S64.385,32.145,63.084,31.963Zm-19.9,6.163C42.7,37.013,45.4,34.613,45.4,34.613s.229,3.115.256,6.358a20.418,20.418,0,0,1-2.468-2.846Z" transform="translate(-26.875 -0.006)" fill="#383838"/>
  </g>
</svg>
